<svg xmlns="http://www.w3.org/2000/svg" xmlns:cc="http://web.resource.org/cc/" xmlns:svg="http://www.w3.org/2000/svg" xmlns:xlink="http://www.w3.org/1999/xlink" id="svg2721" width="150" height="100"><defs id="defs3"><linearGradient id="linearGradient4375"><stop style="stop-color:#97e5ff;stop-opacity:1" id="stop4377" offset="0"/><stop style="stop-color:#445cd7;stop-opacity:1" id="stop4379" offset="1"/></linearGradient><linearGradient id="linearGradient2304"><stop style="stop-color:#6a57ff;stop-opacity:1" id="stop2305" offset="0"/><stop style="stop-color:#1300a8;stop-opacity:1" id="stop2306" offset="1"/></linearGradient><linearGradient id="linearGradient4960"><stop style="stop-color:#fff;stop-opacity:.73092371" id="stop4962" offset="0"/><stop style="stop-color:#fff;stop-opacity:0" id="stop4964" offset="1"/></linearGradient><linearGradient id="linearGradient10584" x1="622.091" x2="628.402" y1="247.689" y2="259.028" gradientTransform="scale(0.924716,1.081414)" gradientUnits="userSpaceOnUse" xlink:href="#linearGradient4960"/><linearGradient id="linearGradient9030"><stop style="stop-color:#00bfff;stop-opacity:1" id="stop9032" offset="0"/><stop style="stop-color:#0021c8;stop-opacity:1" id="stop9034" offset="1"/></linearGradient><linearGradient id="linearGradient9036" x1="563.655" x2="575.497" y1="270.944" y2="290.303" gradientTransform="scale(1.016773,0.983503)" gradientUnits="userSpaceOnUse" xlink:href="#linearGradient9030"/><linearGradient id="linearGradient2817" x1="589.081" x2="609.475" y1="369.283" y2="394.583" gradientTransform="scale(0.964397,1.036917)" gradientUnits="userSpaceOnUse" xlink:href="#linearGradient9030"/><linearGradient id="linearGradient2819" x1="622.091" x2="628.402" y1="247.689" y2="259.028" gradientTransform="matrix(0.924716,0.000000,0.000000,1.081414,-4.379882,118.1634)" gradientUnits="userSpaceOnUse" xlink:href="#linearGradient4960"/><linearGradient id="linearGradient2821" x1="593.995" x2="603.891" y1="541.833" y2="559.715" gradientTransform="scale(0.971157,1.029700)" gradientUnits="userSpaceOnUse" xlink:href="#linearGradient9030"/><linearGradient id="linearGradient2823" x1="596.212" x2="600.573" y1="288.358" y2="294.931" gradientTransform="matrix(0.959731,0.000000,0.000000,1.041959,0.000000,258.1723)" gradientUnits="userSpaceOnUse" xlink:href="#linearGradient4960"/><linearGradient id="linearGradient3605" x1="589.081" x2="609.475" y1="369.283" y2="394.583" gradientTransform="scale(0.964397,1.036917)" gradientUnits="userSpaceOnUse" xlink:href="#linearGradient4375"/><linearGradient id="linearGradient3607" x1="622.091" x2="628.402" y1="247.689" y2="259.028" gradientTransform="matrix(0.924716,0.000000,0.000000,1.081414,-4.379882,118.1634)" gradientUnits="userSpaceOnUse" xlink:href="#linearGradient4960"/><linearGradient id="linearGradient3609" x1="593.995" x2="603.891" y1="541.833" y2="559.715" gradientTransform="scale(0.971157,1.029700)" gradientUnits="userSpaceOnUse" xlink:href="#linearGradient4375"/><linearGradient id="linearGradient3611" x1="596.212" x2="600.573" y1="288.358" y2="294.931" gradientTransform="matrix(0.959731,0.000000,0.000000,1.041959,0.000000,258.1723)" gradientUnits="userSpaceOnUse" xlink:href="#linearGradient4960"/><linearGradient id="linearGradient3613" x1="563.655" x2="575.497" y1="270.944" y2="290.303" gradientTransform="scale(1.016773,0.983503)" gradientUnits="userSpaceOnUse" xlink:href="#linearGradient4375"/><linearGradient id="linearGradient3615" x1="622.091" x2="628.402" y1="247.689" y2="259.028" gradientTransform="scale(0.924716,1.081414)" gradientUnits="userSpaceOnUse" xlink:href="#linearGradient4960"/></defs><metadata id="metadata4"/><g id="layer1"><g id="slider-up" transform="translate(-539.1901,-250.0248)"><path style="fill:#000;fill-opacity:.58823532;fill-rule:evenodd;stroke:none;stroke-width:.25pt;stroke-linecap:butt;stroke-linejoin:miter;stroke-opacity:1" id="path9046" d="M 568.85640,292.13576 C 572.15666,280.89816 577.83812,270.41253 585.14882,264.18799 C 588.36553,274.33942 593.58747,284.49085 599.18538,293.51435 C 585.71279,290.15142 578.56919,289.98433 568.85640,292.13576 z"/><path style="fill:url(#linearGradient9036);fill-opacity:1;fill-rule:evenodd;stroke:#000;stroke-width:.25pt;stroke-linecap:butt;stroke-linejoin:miter;stroke-opacity:1" id="path8268" d="M 567.97912,291.63446 C 571.27938,280.39686 576.96084,269.91123 584.27154,263.68669 C 587.48825,273.83812 592.71019,283.98955 598.30810,293.01305 C 584.83551,289.65012 577.69191,289.48303 567.97912,291.63446 z"/><path style="fill:url(#linearGradient10584);fill-opacity:1;fill-rule:evenodd;stroke:none;stroke-width:.25pt;stroke-linecap:butt;stroke-linejoin:miter;stroke-opacity:1" id="path9818" d="M 583.14360,266.44386 C 581.65304,267.62019 578.91466,270.90948 576.80585,274.13210 C 574.69703,277.35472 573.57888,280.55566 573.93211,280.29243 C 574.88264,279.58408 577.85275,273.55462 580.39260,271.51593 C 582.60665,269.73875 584.02319,268.57846 584.83551,270.92429 C 585.43212,272.65071 585.57456,270.92556 585.12065,269.53738 C 584.66675,268.14920 583.58515,266.09539 583.14360,266.44386 z"/></g><g id="slider-down" transform="translate(-474.1901,-540.9176)"><path style="fill:#000;fill-opacity:.58823532;fill-rule:evenodd;stroke:none;stroke-width:.25pt;stroke-linecap:butt;stroke-linejoin:miter;stroke-opacity:1" id="path9048" d="M 569.60835,557.82767 C 579.71801,555.36292 588.82506,554.90338 598.43342,557.95299 C 590.12010,566.89294 587.19582,575.45691 583.89555,586.40208 C 576.83551,579.42558 571.15404,567.56135 569.60835,557.82767 z"/><path style="fill:url(#linearGradient2821);fill-opacity:1;fill-rule:evenodd;stroke:#000;stroke-width:.25pt;stroke-linecap:butt;stroke-linejoin:miter;stroke-opacity:1" id="path8270" d="M 569.04439,557.32637 C 579.15405,554.86162 588.26110,554.40208 597.86946,557.45169 C 589.55614,566.39164 586.63186,574.95561 583.33159,585.90078 C 576.27155,578.92428 570.59008,567.06005 569.04439,557.32637 z"/><path style="fill:url(#linearGradient2823);fill-opacity:1;fill-rule:evenodd;stroke:none;stroke-width:.25pt;stroke-linecap:butt;stroke-linejoin:miter;stroke-opacity:1" id="path10586" d="M 571.11228,558.70495 C 569.90658,560.10144 572.51626,567.28211 573.68147,566.78850 C 574.49690,566.44307 571.89798,561.77640 573.36333,559.70174 C 574.82868,557.62709 580.23298,557.95647 580.01045,557.20104 C 579.66177,556.01737 572.72065,556.84206 571.11228,558.70495 z"/></g><g id="slider-position" transform="translate(-507.2258,-371.4533)"><path style="fill:url(#linearGradient2817);fill-opacity:1;fill-rule:evenodd;stroke:#000;stroke-width:.25pt;stroke-linecap:butt;stroke-linejoin:miter;stroke-opacity:1" id="path15180" d="M 599.31071,393.77546 C 587.53943,367.78055 559.78816,384.76696 567.72846,406.80940 C 576.30299,430.61248 605.32638,407.06005 599.31071,393.77546 z"/><path style="fill:url(#linearGradient2819);fill-opacity:1;fill-rule:evenodd;stroke:none;stroke-width:.25pt;stroke-linecap:butt;stroke-linejoin:miter;stroke-opacity:1" id="path15948" d="M 579.39035,382.53939 C 573.71982,383.56639 569.49387,391.05676 568.42429,394.32008 C 567.68663,396.57070 571.90629,390.52744 574.44614,388.48875 C 575.55317,387.60016 579.01433,386.45849 581.67366,387.02278 C 584.33298,387.58708 585.31318,391.48660 585.71934,392.65951 C 586.31595,394.38593 590.59416,386.51979 590.14025,385.13161 C 589.68635,383.74343 584.54967,381.60498 579.39035,382.53939 z"/></g><g id="slider-up-highlight" transform="translate(-539.1995,-205.9286)"><path style="fill:#000;fill-opacity:.58823532;fill-rule:evenodd;stroke:none;stroke-width:.25pt;stroke-linecap:butt;stroke-linejoin:miter;stroke-opacity:1" id="path3585" d="M 568.85640,292.13576 C 572.15666,280.89816 577.83812,270.41253 585.14882,264.18799 C 588.36553,274.33942 593.58747,284.49085 599.18538,293.51435 C 585.71279,290.15142 578.56919,289.98433 568.85640,292.13576 z"/><path style="fill:url(#linearGradient3613);fill-opacity:1;fill-rule:evenodd;stroke:#000;stroke-width:.25pt;stroke-linecap:butt;stroke-linejoin:miter;stroke-opacity:1" id="path3587" d="M 567.97912,291.63446 C 571.27938,280.39686 576.96084,269.91123 584.27154,263.68669 C 587.48825,273.83812 592.71019,283.98955 598.30810,293.01305 C 584.83551,289.65012 577.69191,289.48303 567.97912,291.63446 z"/><path style="fill:url(#linearGradient3615);fill-opacity:1;fill-rule:evenodd;stroke:none;stroke-width:.25pt;stroke-linecap:butt;stroke-linejoin:miter;stroke-opacity:1" id="path3589" d="M 583.14360,266.44386 C 581.65304,267.62019 578.91466,270.90948 576.80585,274.13210 C 574.69703,277.35472 573.57888,280.55566 573.93211,280.29243 C 574.88264,279.58408 577.85275,273.55462 580.39260,271.51593 C 582.60665,269.73875 584.02319,268.57846 584.83551,270.92429 C 585.43212,272.65071 585.57456,270.92556 585.12065,269.53738 C 584.66675,268.14920 583.58515,266.09539 583.14360,266.44386 z"/></g><g id="slider-down-highlight" transform="translate(-474.1995,-496.8214)"><path style="fill:#000;fill-opacity:.58823532;fill-rule:evenodd;stroke:none;stroke-width:.25pt;stroke-linecap:butt;stroke-linejoin:miter;stroke-opacity:1" id="path3593" d="M 569.60835,557.82767 C 579.71801,555.36292 588.82506,554.90338 598.43342,557.95299 C 590.12010,566.89294 587.19582,575.45691 583.89555,586.40208 C 576.83551,579.42558 571.15404,567.56135 569.60835,557.82767 z"/><path style="fill:url(#linearGradient3609);fill-opacity:1;fill-rule:evenodd;stroke:#000;stroke-width:.25pt;stroke-linecap:butt;stroke-linejoin:miter;stroke-opacity:1" id="path3595" d="M 569.04439,557.32637 C 579.15405,554.86162 588.26110,554.40208 597.86946,557.45169 C 589.55614,566.39164 586.63186,574.95561 583.33159,585.90078 C 576.27155,578.92428 570.59008,567.06005 569.04439,557.32637 z"/><path style="fill:url(#linearGradient3611);fill-opacity:1;fill-rule:evenodd;stroke:none;stroke-width:.25pt;stroke-linecap:butt;stroke-linejoin:miter;stroke-opacity:1" id="path3597" d="M 571.11228,558.70495 C 569.90658,560.10144 572.51626,567.28211 573.68147,566.78850 C 574.49690,566.44307 571.89798,561.77640 573.36333,559.70174 C 574.82868,557.62709 580.23298,557.95647 580.01045,557.20104 C 579.66177,556.01737 572.72065,556.84206 571.11228,558.70495 z"/></g><g id="slider-position-hightlight" transform="translate(-507.2352,-327.3571)"><path style="fill:url(#linearGradient3605);fill-opacity:1;fill-rule:evenodd;stroke:#000;stroke-width:.25pt;stroke-linecap:butt;stroke-linejoin:miter;stroke-opacity:1" id="path3601" d="M 599.31071,393.77546 C 587.53943,367.78055 559.78816,384.76696 567.72846,406.80940 C 576.30299,430.61248 605.32638,407.06005 599.31071,393.77546 z"/><path style="fill:url(#linearGradient3607);fill-opacity:1;fill-rule:evenodd;stroke:none;stroke-width:.25pt;stroke-linecap:butt;stroke-linejoin:miter;stroke-opacity:1" id="path3603" d="M 579.39035,382.53939 C 573.71982,383.56639 569.49387,391.05676 568.42429,394.32008 C 567.68663,396.57070 571.90629,390.52744 574.44614,388.48875 C 575.55317,387.60016 579.01433,386.45849 581.67366,387.02278 C 584.33298,387.58708 585.31318,391.48660 585.71934,392.65951 C 586.31595,394.38593 590.59416,386.51979 590.14025,385.13161 C 589.68635,383.74343 584.54967,381.60498 579.39035,382.53939 z"/></g></g></svg>