<svg xmlns="http://www.w3.org/2000/svg" xmlns:cc="http://web.resource.org/cc/" xmlns:svg="http://www.w3.org/2000/svg" id="svg2" width="50" height="50"><metadata id="metadata4"/><g id="layer1"><path id="path2844" d="M 18.750000 9.2613640 A 4.1477275 4.1477275 0 1 1 10.454545,9.2613640 A 4.1477275 4.1477275 0 1 1 18.750000 9.2613640 z" transform="matrix(1.806271,0.000000,0.000000,1.806271,0.991189,-6.853599)" style="fill:none;fill-opacity:1;stroke:#000;stroke-width:1.1072536;stroke-linecap:round;stroke-linejoin:round;stroke-miterlimit:4;stroke-opacity:.74305558"/><path id="path2846" d="M 34.085231,20.473042 L 16.317958,20.921042 L 16.317958,26.571405 C 19.613413,26.514587 21.309958,26.891411 21.309958,29.803315 L 21.309958,39.586678 C 21.309958,42.154417 18.947867,42.444284 16.317958,42.594678 L 16.317958,48.585950 L 39.077231,48.585950 L 39.077231,42.594678 C 39.077231,42.594678 34.021231,42.714847 34.028413,40.218860 L 34.085231,20.473042" style="font-size:64;font-style:normal;font-variant:normal;font-weight:700;font-stretch:normal;fill:none;fill-opacity:1;stroke:#000;stroke-width:2;stroke-linecap:butt;stroke-linejoin:miter;stroke-miterlimit:4;stroke-opacity:.74305558;font-family:Century Schoolbook L;text-anchor:start;writing-mode:lr-tb"/><path id="path1298" d="M 18.750000 9.2613640 A 4.1477275 4.1477275 0 1 1 10.454545,9.2613640 A 4.1477275 4.1477275 0 1 1 18.750000 9.2613640 z" transform="matrix(1.806271,0.000000,0.000000,1.806271,-0.294460,-7.817836)" style="fill:#7f85ff;fill-opacity:1;stroke:#3735b6;stroke-width:1.1072536;stroke-linecap:round;stroke-linejoin:round;stroke-miterlimit:4;stroke-opacity:1"/><path id="path1296" d="M 32.799582,19.508805 L 15.032309,19.956805 L 15.032309,25.607168 C 18.327764,25.550350 20.024309,25.927174 20.024309,28.839078 L 20.024309,38.622441 C 20.024309,41.190180 17.662218,41.480047 15.032309,41.630441 L 15.032309,47.621713 L 37.791582,47.621713 L 37.791582,41.630441 C 37.791582,41.630441 32.735582,41.750610 32.742764,39.254623 L 32.799582,19.508805" style="font-size:64;font-style:normal;font-variant:normal;font-weight:700;font-stretch:normal;fill:#7f85ff;fill-opacity:1;stroke:#3735b6;stroke-width:2;stroke-linecap:butt;stroke-linejoin:miter;stroke-miterlimit:4;stroke-opacity:1;font-family:Century Schoolbook L;text-anchor:start;writing-mode:lr-tb"/></g></svg>