<svg xmlns="http://www.w3.org/2000/svg" xmlns:cc="http://web.resource.org/cc/" xmlns:svg="http://www.w3.org/2000/svg" xmlns:xlink="http://www.w3.org/1999/xlink" id="svg2" width="755.906" height="755.906"><defs id="defs3"><linearGradient id="linearGradient2073"><stop id="stop2075" offset="0" style="stop-color:#fcff00;stop-opacity:1"/><stop id="stop2077" offset="1" style="stop-color:#ccce00;stop-opacity:1"/></linearGradient><linearGradient id="linearGradient2844"><stop style="stop-color:#fcff00;stop-opacity:1" id="stop2846" offset="0"/><stop style="stop-color:#fcff00;stop-opacity:.49803922" id="stop2852" offset="0"/><stop style="stop-color:#fcff00;stop-opacity:1" id="stop2848" offset="1"/></linearGradient><linearGradient id="linearGradient2070"><stop style="stop-color:#b2ff00;stop-opacity:1" id="stop2072" offset="0"/><stop style="stop-color:#0eff00;stop-opacity:1" id="stop2074" offset="1"/></linearGradient><linearGradient id="linearGradient2091"><stop id="stop2093" offset="0" style="stop-color:#fe0000;stop-opacity:1"/><stop id="stop2095" offset="1" style="stop-color:#6e0000;stop-opacity:1"/></linearGradient><radialGradient id="radialGradient2081" cx="211.102" cy="177.994" r="689.052" fx="211.102" fy="177.994" gradientUnits="userSpaceOnUse" xlink:href="#linearGradient2073"/></defs><metadata id="metadata4"/><g id="layer1"><path id="path1313" d="M 701.85028 353.84579 A 351.70325 351.70325 0 1 1 -1.5562134,353.84579 A 351.70325 351.70325 0 1 1 701.85028 353.84579 z" transform="translate(3.112418,0.000000)" style="stroke-opacity:1;stroke-miterlimit:4;stroke-linejoin:round;stroke-linecap:round;stroke-width:3;stroke:none;fill-opacity:1;fill:url(#radialGradient2081)"/><path id="path2083" d="M 701.85028 353.84579 A 351.70325 351.70325 0 1 1 -1.5562134,353.84579 A 351.70325 351.70325 0 1 1 701.85028 353.84579 z" transform="matrix(0.236747,0.000000,0.000000,0.236747,270.3634,267.2806)" style="fill:#000;fill-opacity:1;stroke:none;stroke-width:3;stroke-linecap:round;stroke-linejoin:round;stroke-miterlimit:4;stroke-opacity:1"/><path id="path2093" d="M 236.15317,369.64224 C 241.15771,401.67131 261.17587,430.69766 282.69541,446.21173 L 200.12047,642.89023 C 87.518271,569.82392 42.477395,475.73853 19.956955,369.64224 L 236.15317,369.64224 z" style="fill:#000;fill-opacity:1;fill-rule:evenodd;stroke:#000;stroke-width:.96475643px;stroke-linecap:butt;stroke-linejoin:miter;stroke-opacity:1"/><path id="path2095" d="M 470.36574,369.64224 C 465.36119,401.67131 445.34302,430.69766 423.82349,446.21173 L 506.39843,642.89023 C 619.00063,569.82392 664.04150,475.73853 686.56195,369.64224 L 470.36574,369.64224 z" style="fill:#000;fill-opacity:1;fill-rule:evenodd;stroke:#000;stroke-width:.96475643px;stroke-linecap:butt;stroke-linejoin:miter;stroke-opacity:1"/><path id="path2097" d="M 308.23888,246.54836 C 338.08668,233.89868 373.30607,235.58676 397.83972,245.68017 L 513.82891,67.251418 C 392.34594,8.6551586 306.67479,11.033141 191.15577,65.903408 L 308.23888,246.54836 z" style="fill:#000;fill-opacity:1;fill-rule:evenodd;stroke:#000;stroke-width:.96475643px;stroke-linecap:butt;stroke-linejoin:miter;stroke-opacity:1"/></g></svg>