<svg xmlns="http://www.w3.org/2000/svg" xmlns:cc="http://web.resource.org/cc/" xmlns:svg="http://www.w3.org/2000/svg" xmlns:xlink="http://www.w3.org/1999/xlink" id="svg2" width="755.906" height="755.906"><defs id="defs3"><linearGradient id="linearGradient2174"><stop id="stop2176" offset="0" style="stop-color:#f2f2f2;stop-opacity:1"/><stop id="stop2178" offset="1" style="stop-color:#f2f2f2;stop-opacity:0"/></linearGradient><linearGradient id="linearGradient2810"><stop style="stop-color:#ff0;stop-opacity:1" id="stop2812" offset="0"/><stop style="stop-color:#ecb300;stop-opacity:1" id="stop2814" offset="1"/></linearGradient><radialGradient id="radialGradient2818" cx="199.943" cy="145.569" r="794.103" fx="199.943" fy="145.569" gradientTransform="matrix(0.744942,0.000000,0.000000,1.342387,7.107795,-21.32337)" gradientUnits="userSpaceOnUse" xlink:href="#linearGradient2810"/><linearGradient id="linearGradient2180" x1="740.465" x2="518.446" y1="82.724" y2="124.516" gradientTransform="scale(0.684568,1.460775)" gradientUnits="userSpaceOnUse" xlink:href="#linearGradient2174"/><linearGradient id="linearGradient2184" x1="773.312" x2="613.307" y1="229.314" y2="249.546" gradientTransform="scale(0.684568,1.460775)" gradientUnits="userSpaceOnUse" xlink:href="#linearGradient2174"/></defs><metadata id="metadata4"/><g id="layer1"><path style="fill:#000;fill-opacity:.52549022;fill-rule:evenodd;stroke:#000;stroke-width:20;stroke-linecap:butt;stroke-linejoin:bevel;stroke-miterlimit:4;stroke-opacity:.52525252" id="path2820" d="M 351.19916,39.890020 L 223.03698,405.94798 L 337.79657,427.72717 L 218.84867,697.45411 L 574.85472,330.55846 L 400.62117,318.83121 L 513.70544,115.27952 L 351.19916,39.890020 z"/><path style="fill:url(#radialGradient2818);fill-opacity:1;fill-rule:evenodd;stroke:#ffba22;stroke-width:20;stroke-linecap:butt;stroke-linejoin:bevel;stroke-miterlimit:4;stroke-opacity:1" id="path1291" d="M 337.98399,14.696060 L 209.82181,380.75403 L 324.58140,402.53322 L 205.63350,672.26016 L 561.63955,305.36451 L 387.40600,293.63726 L 500.49027,90.085573 L 337.98399,14.696060 z"/><path id="path1411" d="M 398.72675,75.389533 C 388.78979,63.010957 456.14231,84.793349 461.55135,100.51937 C 468.34914,120.28298 388.94221,256.26379 378.62288,252.13606 C 368.00068,247.88718 429.79855,114.09602 398.72675,75.389533 z" style="stroke-opacity:1;stroke-linejoin:miter;stroke-linecap:butt;stroke-width:.25pt;stroke:none;fill-rule:evenodd;fill-opacity:1;fill:url(#linearGradient2180)"/><path id="path2182" d="M 446.05153,320.51039 C 436.41285,307.68270 507.42438,311.90390 505.94431,328.46817 C 504.36549,346.13763 426.26313,425.32696 421.75935,415.16611 C 416.16312,402.54062 471.83994,354.83103 446.05153,320.51039 z" style="stroke-opacity:1;stroke-linejoin:miter;stroke-linecap:butt;stroke-width:.25pt;stroke:none;fill-rule:evenodd;fill-opacity:1;fill:url(#linearGradient2184)"/></g></svg>