<svg xmlns="http://www.w3.org/2000/svg" xmlns:cc="http://web.resource.org/cc/" xmlns:svg="http://www.w3.org/2000/svg" xmlns:xlink="http://www.w3.org/1999/xlink" id="svg2" width="755.906" height="755.906"><defs id="defs3"><linearGradient id="linearGradient2861"><stop id="stop2863" offset="0" style="stop-color:#fff;stop-opacity:1"/><stop id="stop2865" offset="1" style="stop-color:#fff;stop-opacity:0"/></linearGradient><linearGradient id="linearGradient2091"><stop id="stop2093" offset="0" style="stop-color:#fe0000;stop-opacity:1"/><stop id="stop2095" offset="1" style="stop-color:#6e0000;stop-opacity:1"/></linearGradient><linearGradient id="linearGradient2867" x1="347.569" x2="318.898" y1="-164.677" y2="24.732" gradientTransform="matrix(1.220315,0.374651,-0.229913,0.748875,0.000000,0.000000)" gradientUnits="userSpaceOnUse" xlink:href="#linearGradient2861"/><linearGradient id="linearGradient5487" x1="347.569" x2="318.898" y1="-164.677" y2="24.732" gradientTransform="matrix(1.220315,0.374651,-0.229913,0.748875,191.8593,205.6859)" gradientUnits="userSpaceOnUse" xlink:href="#linearGradient2861"/><radialGradient id="radialGradient6247" cx="453.198" cy="243.618" r="532.88" fx="453.198" fy="243.618" gradientUnits="userSpaceOnUse" xlink:href="#linearGradient2091"/></defs><metadata id="metadata4"/><g id="layer1"><path style="fill:#000;fill-opacity:.59607846;stroke:none;stroke-width:4.7801518;stroke-linecap:round;stroke-linejoin:round;stroke-miterlimit:4;stroke-opacity:1" id="path3201" d="M 218.62615,22.966392 L 218.62615,223.50839 L 18.084157,223.50839 L 18.084157,502.25839 L 218.62615,502.25839 L 218.62615,702.80042 L 497.37615,702.80042 L 497.37615,502.25839 L 697.91814,502.25839 L 697.91814,223.50839 L 497.37615,223.50839 L 497.37615,22.966392 L 218.62615,22.966392 z"/><path style="fill:url(#radialGradient6247);fill-opacity:1;stroke:#000;stroke-width:4.8994842;stroke-linecap:round;stroke-linejoin:round;stroke-miterlimit:4;stroke-opacity:1" id="rect1666" d="M 210.31696,10.690596 L 210.31696,211.23259 L 9.7749547,211.23259 L 9.7749547,489.98259 L 210.31696,489.98259 L 210.31696,690.52456 L 489.06696,690.52456 L 489.06696,489.98259 L 689.60895,489.98259 L 689.60895,211.23259 L 489.06696,211.23259 L 489.06696,10.690596 L 210.31696,10.690596 z"/><path id="path2101" d="M 311.49755,24.850237 C 290.67994,21.135376 455.22867,5.7515434 471.44936,36.000441 C 483.34137,58.177067 478.64115,138.10490 467.41410,126.54408 C 452.66825,111.35986 466.68624,88.014336 437.54540,59.325494 C 399.66579,22.033436 335.85639,29.197023 311.49755,24.850237 z" style="fill:url(#linearGradient2867);fill-opacity:1;fill-rule:evenodd;stroke:none;stroke-width:1px;stroke-linecap:butt;stroke-linejoin:miter;stroke-opacity:1"/><path id="path5485" d="M 503.35686,230.53618 C 482.53925,226.82132 647.08798,211.43749 663.30867,241.68639 C 675.20068,263.86301 670.50046,343.79085 659.27341,332.23003 C 644.52756,317.04581 658.54555,293.70028 629.40471,265.01144 C 591.52510,227.71938 527.71570,234.88297 503.35686,230.53618 z" style="fill:url(#linearGradient5487);fill-opacity:1;fill-rule:evenodd;stroke:none;stroke-width:1px;stroke-linecap:butt;stroke-linejoin:miter;stroke-opacity:1"/></g></svg>