<svg xmlns="http://www.w3.org/2000/svg" xmlns:cc="http://web.resource.org/cc/" xmlns:svg="http://www.w3.org/2000/svg" xmlns:xlink="http://www.w3.org/1999/xlink" id="svg2" width="755.906" height="755.906"><defs id="defs3"><linearGradient id="linearGradient3616"><stop id="stop3618" offset="0" style="stop-color:#000;stop-opacity:1"/><stop id="stop3620" offset="1" style="stop-color:#000;stop-opacity:0"/></linearGradient><linearGradient id="linearGradient2844"><stop id="stop2846" offset="0" style="stop-color:#fcff00;stop-opacity:1"/><stop id="stop2852" offset="0" style="stop-color:#fcff00;stop-opacity:.49803922"/><stop id="stop2848" offset="1" style="stop-color:#fcff00;stop-opacity:1"/></linearGradient><linearGradient id="linearGradient2070"><stop id="stop2072" offset="0" style="stop-color:#b2ff00;stop-opacity:1"/><stop id="stop2074" offset="1" style="stop-color:#0eff00;stop-opacity:1"/></linearGradient><linearGradient id="linearGradient2091"><stop style="stop-color:#fe0000;stop-opacity:1" id="stop2093" offset="0"/><stop style="stop-color:#6e0000;stop-opacity:1" id="stop2095" offset="1"/></linearGradient><radialGradient id="radialGradient2082" cx="182.241" cy="818.872" r="106.754" fx="182.241" fy="818.872" gradientTransform="matrix(1.543293,0.000000,0.000000,0.699482,-8.315362,-87.19165)" gradientUnits="userSpaceOnUse" spreadMethod="reflect" xlink:href="#linearGradient2070"/><radialGradient id="radialGradient2854" cx="690.752" cy="212.803" r="102.35" fx="690.752" fy="212.803" gradientTransform="matrix(0.807513,0.000000,0.000000,1.336826,-8.315362,-87.19165)" gradientUnits="userSpaceOnUse" spreadMethod="reflect" xlink:href="#linearGradient2844"/><radialGradient id="radialGradient3624" cx="229.871" cy="836.229" r="120.38" fx="229.871" fy="836.229" gradientTransform="scale(1.937046,0.516250)" gradientUnits="userSpaceOnUse" xlink:href="#linearGradient3616"/><radialGradient id="radialGradient4394" cx="511.73" cy="342.327" r="225.872" fx="511.73" fy="342.327" gradientTransform="scale(0.913415,1.094793)" gradientUnits="userSpaceOnUse" xlink:href="#linearGradient3616"/></defs><metadata id="metadata4"/><g id="layer1"><path id="path2856" d="M 683.35210 439.61218 A 241.53911 63.273342 0 1 1 200.27388,439.61218 A 241.53911 63.273342 0 1 1 683.35210 439.61218 z" transform="matrix(1.028963,-0.144016,0.144016,1.028963,-55.76230,1.425289)" style="opacity:.42886177;fill:url(#radialGradient3624);fill-opacity:1;fill-rule:nonzero;stroke:none;stroke-width:3;stroke-linecap:round;stroke-linejoin:round;stroke-miterlimit:4;stroke-opacity:1"/><path id="path1305" d="M 649.65029,166.28971 C 661.55512,255.25777 635.20654,331.75342 580.40788,347.12758 C 553.52964,354.66846 364.27686,415.71390 331.27804,423.04068 C 284.52716,433.42087 303.78070,267.27725 296.38800,222.98045 C 288.99530,178.68363 243.77273,125.09521 271.68088,105.77805 C 302.11062,84.715531 497.80952,51.109211 526.83756,43.285891 C 584.89366,27.639247 639.98750,94.076919 649.65029,166.28971 z" style="fill:#7b7b7b;fill-opacity:1;stroke:#000;stroke-width:5.1949606;stroke-linecap:round;stroke-linejoin:round;stroke-miterlimit:4;stroke-opacity:1"/><path id="path2084" d="M 447.86657,227.21945 C 445.25082,203.65406 476.51859,168.23702 490.80561,138.69851 C 505.09263,109.15999 520.12725,61.664819 537.04498,72.872178 C 602.39415,116.16354 622.19827,238.95533 579.34757,325.54439 C 574.31412,335.71555 544.20185,301.86260 510.11472,279.32393 C 476.02759,256.78527 450.16678,247.94217 447.86657,227.21945 z" style="fill:url(#radialGradient2854);fill-opacity:1;fill-rule:evenodd;stroke:#000;stroke-width:5.1949606;stroke-linecap:butt;stroke-linejoin:miter;stroke-miterlimit:4;stroke-opacity:1"/><path id="path1303" d="M 472.07416 450.61624 A 131.49850 157.90825 0 1 1 209.07715,450.61624 A 131.49850 157.90825 0 1 1 472.07416 450.61624 z" transform="matrix(0.799812,-0.215557,0.169625,1.016386,-44.45171,-121.3527)" style="fill:#6a6a6a;fill-opacity:1;stroke:#000;stroke-width:5.636446;stroke-linecap:round;stroke-linejoin:round;stroke-miterlimit:4;stroke-opacity:1"/><path id="path1310" d="M 11.120960,445.59226 C 93.820609,359.84377 6.5477127,365.56034 24.840722,355.27052 C 45.861570,343.44629 117.59944,361.28336 142.60197,355.27051 C 191.37081,343.54211 218.06063,372.99187 230.63707,381.56673 C 243.21352,390.14157 364.78581,355.84218 389.55759,366.70364 C 387.08043,377.85095 376.45714,386.47344 369.76399,401.28886 C 363.07085,416.10430 353.44795,421.10630 381.55440,428.44256 C 437.76730,443.11507 593.49286,423.82444 621.65016,437.58907 C 724.16723,487.70429 550.57420,492.08699 532.47173,519.90760 C 514.36928,547.72823 651.99723,589.09095 610.21703,642.78296 C 565.43726,700.32972 186.81007,684.32334 115.16244,670.22247 C 43.514832,656.12161 171.50211,550.45934 154.16187,520.54264 C 136.82162,490.62596 -13.890868,471.52619 11.120960,445.59226 z" style="fill:url(#radialGradient2082);fill-opacity:1;fill-rule:nonzero;stroke:#063500;stroke-width:5.1949606;stroke-linecap:butt;stroke-linejoin:miter;stroke-miterlimit:4;stroke-opacity:1"/><path id="path3626" d="M 472.07416 450.61624 A 131.49850 157.90825 0 1 1 209.07715,450.61624 A 131.49850 157.90825 0 1 1 472.07416 450.61624 z" transform="matrix(0.799812,-0.215557,0.169625,1.016386,-44.45171,-121.3527)" style="fill:url(#radialGradient4394);fill-opacity:1;stroke:none;stroke-width:3;stroke-linecap:round;stroke-linejoin:round;stroke-miterlimit:4;stroke-opacity:1"/></g></svg>