<svg xmlns="http://www.w3.org/2000/svg" xmlns:cc="http://web.resource.org/cc/" xmlns:svg="http://www.w3.org/2000/svg" xmlns:xlink="http://www.w3.org/1999/xlink" id="svg5841" width="160" height="133.333"><defs id="defs3"><linearGradient id="linearGradient4939" x1="79.663" x2="222.744" y1="45.531" y2="294.717" gradientTransform="matrix(5.147738e-2,8.605674e-3,-5.724703e-3,3.424387e-2,75.35825,712.3937)" gradientUnits="userSpaceOnUse" xlink:href="#linearGradient2900"/><radialGradient id="radialGradient4937" cx="233.285" cy="295.419" r="406.575" fx="233.285" fy="295.419" gradientTransform="matrix(4.283577e-2,0.000000,0.000000,4.230263e-2,74.67327,712.1648)" gradientUnits="userSpaceOnUse" xlink:href="#linearGradient2130"/><linearGradient id="linearGradient4935" x1="79.663" x2="222.744" y1="45.531" y2="294.717" gradientTransform="matrix(5.147738e-2,8.605674e-3,-5.724703e-3,3.424387e-2,86.19294,712.3937)" gradientUnits="userSpaceOnUse" xlink:href="#linearGradient2900"/><radialGradient id="radialGradient4933" cx="233.285" cy="295.419" r="406.575" fx="233.285" fy="295.419" gradientTransform="matrix(4.283577e-2,0.000000,0.000000,4.230263e-2,85.50803,712.1648)" gradientUnits="userSpaceOnUse" xlink:href="#linearGradient2130"/><radialGradient id="radialGradient4931" cx="142.693" cy="642.584" r="163.601" fx="142.693" fy="642.584" gradientTransform="matrix(2.466187,0.000000,0.000000,0.408841,-152.4062,-216.4038)" gradientUnits="userSpaceOnUse" xlink:href="#linearGradient3572"/><linearGradient id="linearGradient4929" x1="362.267" x2="362.267" y1="528.351" y2="315.582" gradientTransform="matrix(1.157577,0.000000,0.000000,1.157577,-208.0488,-280.9944)" gradientUnits="userSpaceOnUse" xlink:href="#linearGradient3572"/><linearGradient id="linearGradient4972" x1="79.663" x2="222.744" y1="45.531" y2="294.717" gradientTransform="matrix(6.143872e-2,1.027095e-2,-6.832485e-3,4.087037e-2,235.3708,684.1136)" gradientUnits="userSpaceOnUse" xlink:href="#linearGradient2900"/><radialGradient id="radialGradient4970" cx="233.285" cy="295.419" r="406.575" fx="233.285" fy="295.419" gradientTransform="matrix(5.112491e-2,0.000000,0.000000,5.048860e-2,234.5533,683.8408)" gradientUnits="userSpaceOnUse" xlink:href="#linearGradient2130"/><linearGradient id="linearGradient4968" x1="79.663" x2="222.744" y1="45.531" y2="294.717" gradientTransform="matrix(1.212334,0.183040,-0.121762,0.806471,82.37292,420.7108)" gradientUnits="userSpaceOnUse" xlink:href="#linearGradient2900"/><radialGradient id="radialGradient4966" cx="233.285" cy="295.419" r="406.575" fx="233.285" fy="295.419" gradientTransform="matrix(1.006284,0.000000,0.000000,0.993756,73.11722,421.5058)" gradientUnits="userSpaceOnUse" xlink:href="#linearGradient2130"/><linearGradient id="linearGradient2900"><stop id="stop2902" offset="0" style="stop-color:#fff;stop-opacity:1"/><stop id="stop2904" offset="1" style="stop-color:#fff;stop-opacity:0"/></linearGradient><linearGradient id="linearGradient4964" x1="79.663" x2="222.744" y1="45.531" y2="294.717" gradientTransform="matrix(1.212334,0.183040,-0.121762,0.806471,228.6046,420.7108)" gradientUnits="userSpaceOnUse" xlink:href="#linearGradient2900"/><linearGradient id="linearGradient2130"><stop id="stop2132" offset="0" style="stop-color:#f9ff28;stop-opacity:1"/><stop id="stop2134" offset="1" style="stop-color:#ff8d00;stop-opacity:1"/></linearGradient><radialGradient id="radialGradient4962" cx="233.285" cy="295.419" r="406.575" fx="233.285" fy="295.419" gradientTransform="matrix(1.006284,0.000000,0.000000,0.993756,218.9398,421.5058)" gradientUnits="userSpaceOnUse" xlink:href="#linearGradient2130"/><linearGradient id="linearGradient3572"><stop style="stop-color:#fff;stop-opacity:.64754099" id="stop3574" offset="0"/><stop style="stop-color:#fff;stop-opacity:0" id="stop3576" offset="1"/></linearGradient><linearGradient id="linearGradient5900" x1="79.663" x2="222.744" y1="45.531" y2="294.717" gradientTransform="matrix(5.147738e-2,8.605674e-3,-5.724703e-3,3.424387e-2,12.76315,57.26500)" gradientUnits="userSpaceOnUse" xlink:href="#linearGradient2900"/><radialGradient id="radialGradient5903" cx="233.285" cy="295.419" r="406.575" fx="233.285" fy="295.419" gradientTransform="matrix(4.283577e-2,0.000000,0.000000,4.230263e-2,12.07817,57.03610)" gradientUnits="userSpaceOnUse" xlink:href="#linearGradient2130"/><linearGradient id="linearGradient5906" x1="79.663" x2="222.744" y1="45.531" y2="294.717" gradientTransform="matrix(5.147738e-2,8.605674e-3,-5.724703e-3,3.424387e-2,23.59784,57.26500)" gradientUnits="userSpaceOnUse" xlink:href="#linearGradient2900"/><radialGradient id="radialGradient5910" cx="233.285" cy="295.419" r="406.575" fx="233.285" fy="295.419" gradientTransform="matrix(4.283577e-2,0.000000,0.000000,4.230263e-2,22.91293,57.03610)" gradientUnits="userSpaceOnUse" xlink:href="#linearGradient2130"/><linearGradient id="linearGradient3235" x1="63.8" x2="63.8" y1="92.72" y2="17.527" gradientUnits="userSpaceOnUse" xlink:href="#linearGradient3572"/><linearGradient id="linearGradient3237" x1="47.899" x2="47.899" y1="14.893" y2="32.709" gradientTransform="scale(1.327601,0.753238)" gradientUnits="userSpaceOnUse" xlink:href="#linearGradient3572"/><linearGradient id="linearGradient4007" x1="65.366" x2="65.366" y1="51.761" y2="16.247" gradientUnits="userSpaceOnUse" xlink:href="#linearGradient3572"/><linearGradient id="linearGradient4009" x1="51.889" x2="51.889" y1="9.997" y2="24.573" gradientTransform="scale(1.327601,0.753238)" gradientUnits="userSpaceOnUse" xlink:href="#linearGradient3572"/><linearGradient id="linearGradient4779" x1="65.366" x2="65.366" y1="51.761" y2="16.247" gradientUnits="userSpaceOnUse" xlink:href="#linearGradient3572"/><linearGradient id="linearGradient4781" x1="51.889" x2="51.889" y1="9.997" y2="24.573" gradientTransform="scale(1.327601,0.753238)" gradientUnits="userSpaceOnUse" xlink:href="#linearGradient3572"/></defs><metadata id="metadata4"/><g id="layer1"><g id="g4769" transform="matrix(1.000000,0.000000,0.000000,0.920354,2.344000,218.5240)"><path id="path4771" d="M 25.073920,0.81862925 C 38.472171,0.81862925 111.68635,0.81862925 125.08460,0.81862925 C 138.48285,0.81862925 149.26917,11.604947 149.26917,25.003198 L 149.25765,49.151828 L 0.90087370,49.151828 L 0.88935130,25.003198 C 0.88935130,11.604947 11.675669,0.81862925 25.073920,0.81862925 z" style="fill:#575757;fill-opacity:1;stroke:#222;stroke-width:.71733892;stroke-linecap:round;stroke-linejoin:round;stroke-miterlimit:4;stroke-opacity:1"/><g id="g4773" transform="matrix(1.202713,0.000000,0.000000,1.223514,-4.212566,-3.621840)"><rect style="fill:url(#linearGradient4779);fill-opacity:1;stroke:none;stroke-width:.58344406;stroke-linecap:round;stroke-linejoin:round;stroke-miterlimit:4;stroke-opacity:1" id="rect4775" width="120.717" height="37.563" x="6.218" y="4.295" rx="18.782" ry="18.672"/><rect style="opacity:.67948717;fill:url(#linearGradient4781);fill-opacity:1;stroke:none;stroke-width:13.632646;stroke-linecap:round;stroke-linejoin:round;stroke-miterlimit:4;stroke-opacity:1" id="rect4777" width="108.733" height="15.25" x="11.561" y="4.785" rx="13.439" ry="7.103"/></g></g><g id="g3997" transform="translate(2.344000,164.5754)"><path id="path3999" d="M 25.073920,0.81862925 C 38.472171,0.81862925 111.68635,0.81862925 125.08460,0.81862925 C 138.48285,0.81862925 149.26917,11.604947 149.26917,25.003198 L 149.25765,49.151828 L 0.90087370,49.151828 L 0.88935130,25.003198 C 0.88935130,11.604947 11.675669,0.81862925 25.073920,0.81862925 z" style="fill:#d0d0d0;fill-opacity:1;stroke:#fff;stroke-width:.71733892;stroke-linecap:round;stroke-linejoin:round;stroke-miterlimit:4;stroke-opacity:1"/><g id="g4001" transform="matrix(1.202713,0.000000,0.000000,1.223514,-4.212566,-3.621840)"><rect style="fill:url(#linearGradient4007);fill-opacity:1;stroke:none;stroke-width:.58344406;stroke-linecap:round;stroke-linejoin:round;stroke-miterlimit:4;stroke-opacity:1" id="rect4003" width="120.717" height="37.563" x="6.218" y="4.295" rx="18.782" ry="17.185"/><rect style="opacity:.67948717;fill:url(#linearGradient4009);fill-opacity:1;stroke:none;stroke-width:13.632646;stroke-linecap:round;stroke-linejoin:round;stroke-miterlimit:4;stroke-opacity:1" id="rect4005" width="108.733" height="15.25" x="11.561" y="4.785" rx="13.439" ry="6.537"/></g></g><path id="button-bg-normal" d="M 25.073920,0.92327625 C 38.472171,0.92327625 111.68635,0.92327625 125.08460,0.92327625 C 138.48285,0.92327625 149.26917,11.709594 149.26917,25.107845 L 149.25765,124.26449 L 0.90087324,124.26449 L 0.88935084,25.107845 C 0.88935084,11.709594 11.675669,0.92327625 25.073920,0.92327625 z" style="fill:#d0d0d0;fill-opacity:1;stroke:#222;stroke-width:.71733892;stroke-linecap:round;stroke-linejoin:round;stroke-miterlimit:4;stroke-opacity:1"/><path id="button-bg-hover" d="M 25.073920,0.92327625 C 38.472171,0.92327625 111.68635,0.92327625 125.08460,0.92327625 C 138.48285,0.92327625 149.26917,11.709594 149.26917,25.107845 L 149.25765,124.26449 L 0.90087324,124.26449 L 0.88935084,25.107845 C 0.88935084,11.709594 11.675669,0.92327625 25.073920,0.92327625 z" style="fill:#5a769d;fill-opacity:1;stroke:#1a2584;stroke-width:.71733892;stroke-linecap:round;stroke-linejoin:round;stroke-miterlimit:4;stroke-opacity:1"/><path id="button-bg-checked1" d="M 25.073920,0.92327625 C 38.472171,0.92327625 111.68635,0.92327625 125.08460,0.92327625 C 138.48285,0.92327625 149.26917,11.709594 149.26917,25.107845 L 149.25765,124.26449 L 0.90087324,124.26449 L 0.88935084,25.107845 C 0.88935084,11.709594 11.675669,0.92327625 25.073920,0.92327625 z" style="fill:#002457;fill-opacity:1;stroke:#222;stroke-width:.71733892;stroke-linecap:round;stroke-linejoin:round;stroke-miterlimit:4;stroke-opacity:1"/><g id="g3229" transform="matrix(1.202713,0.000000,0.000000,1.223514,-4.212566,-3.517193)"><rect style="stroke-opacity:1;stroke-miterlimit:4;stroke-linejoin:round;stroke-linecap:round;stroke-width:.58344406;stroke:none;fill-opacity:1;fill:url(#linearGradient3235)" id="rect3231" width="120.068" height="87.099" x="6.218" y="16.065" rx="4.398" ry="4.398"/><rect style="stroke-opacity:1;stroke-miterlimit:4;stroke-linejoin:round;stroke-linecap:round;stroke-width:13.632646;stroke:none;fill-opacity:1;fill:url(#linearGradient3237);opacity:.67948717" id="rect3233" width="108.733" height="15.25" x="11.561" y="5.423" rx="13.439" ry="7.625"/></g></g></svg>