<svg xmlns="http://www.w3.org/2000/svg" xmlns:svg="http://www.w3.org/2000/svg" xmlns:xlink="http://www.w3.org/1999/xlink" id="svg1306" width="48" height="48"><defs id="defs1308"><linearGradient id="linearGradient2243"><stop style="stop-color:#fff;stop-opacity:1" id="stop2245" offset="0"/><stop style="stop-color:#fff;stop-opacity:0" id="stop2247" offset="1"/></linearGradient><linearGradient id="linearGradient9320"><stop id="stop9322" offset="0" style="stop-color:#fef088;stop-opacity:1"/><stop style="stop-color:#fde63a;stop-opacity:1" id="stop9324" offset=".5"/><stop id="stop9326" offset="1" style="stop-color:#dac203;stop-opacity:1"/></linearGradient><linearGradient id="linearGradient8576"><stop style="stop-color:#dac203;stop-opacity:1" id="stop8578" offset="0"/><stop id="stop8584" offset=".5" style="stop-color:#fdec69;stop-opacity:1"/><stop style="stop-color:#fdef7e;stop-opacity:1" id="stop8580" offset="1"/></linearGradient><linearGradient id="linearGradient3558"><stop style="stop-color:#000;stop-opacity:1" id="stop3560" offset="0"/><stop style="stop-color:#000;stop-opacity:0" id="stop3562" offset="1"/></linearGradient><radialGradient id="radialGradient3564" cx="22.571" cy="30.857" r="15.571" fx="22.571" fy="30.857" gradientTransform="matrix(1.000000,0.000000,0.000000,0.651376,4.792388e-15,10.75754)" gradientUnits="userSpaceOnUse" xlink:href="#linearGradient3558"/><linearGradient id="linearGradient15303"><stop style="stop-color:#b30000;stop-opacity:1" id="stop15305" offset="0"/><stop id="stop15311" offset=".5" style="stop-color:#ff5c5c;stop-opacity:1"/><stop style="stop-color:#c30000;stop-opacity:1" id="stop15307" offset="1"/></linearGradient><linearGradient id="linearGradient11647"><stop style="stop-color:#c17d10;stop-opacity:1" id="stop11649" offset="0"/><stop style="stop-color:#9b650c;stop-opacity:1" id="stop11651" offset="1"/></linearGradient><linearGradient id="linearGradient5739"><stop style="stop-color:#c4a000;stop-opacity:1" id="stop5741" offset="0"/><stop style="stop-color:#c4a000;stop-opacity:0" id="stop5743" offset="1"/></linearGradient><linearGradient id="linearGradient7988" x1="9.105" x2="10.147" y1="38.828" y2="30.141" gradientTransform="matrix(0.866026,-0.500000,0.797491,1.381294,-15.69909,-9.225099)" gradientUnits="userSpaceOnUse" xlink:href="#linearGradient5739"/><linearGradient id="linearGradient7990" x1="19.616" x2="18.486" y1="39.253" y2="29.909" gradientTransform="matrix(0.866026,-0.500000,0.797961,1.382110,-15.72934,-9.277499)" gradientUnits="userSpaceOnUse" xlink:href="#linearGradient5739"/><linearGradient id="linearGradient7992" x1="15.097" x2="14.045" y1="36.968" y2="29" gradientTransform="matrix(0.866026,-0.500000,0.843479,1.460948,-19.74053,-11.13423)" gradientUnits="userSpaceOnUse" xlink:href="#linearGradient5739"/><linearGradient id="linearGradient7994" x1="14.045" x2="14.045" y1="37.576" y2="29" gradientTransform="matrix(0.866026,-0.500000,0.801305,1.387900,-12.81830,-11.14456)" gradientUnits="userSpaceOnUse" xlink:href="#linearGradient5739"/><linearGradient id="linearGradient7996" x1="16.929" x2="14.045" y1="34.011" y2="29" gradientTransform="matrix(0.866026,-0.500000,0.861487,1.492140,-17.87951,-13.91085)" gradientUnits="userSpaceOnUse" xlink:href="#linearGradient5739"/><linearGradient id="linearGradient11653" x1="12.233" x2="16.871" y1="12.363" y2="17.111" gradientTransform="matrix(0.965926,0.262102,-0.258819,0.978177,2.957072,-5.939741)" gradientUnits="userSpaceOnUse" xlink:href="#linearGradient11647"/><linearGradient id="linearGradient15309" x1="10.615" x2="2.007" y1="28.123" y2="27.235" gradientTransform="matrix(1.176700,2.237102e-17,2.319843e-17,1.176702,-0.819769,-5.307055)" gradientUnits="userSpaceOnUse" xlink:href="#linearGradient15303"/><linearGradient id="linearGradient8582" x1="11.997" x2="17.774" y1="19.592" y2="16.235" gradientTransform="matrix(1.014891,0.000000,0.000000,1.005920,-0.331699,-0.140188)" gradientUnits="userSpaceOnUse" xlink:href="#linearGradient8576"/><radialGradient id="radialGradient9318" cx="20.764" cy="19.541" r="14.8" fx="20.764" fy="19.541" gradientTransform="matrix(0.449398,-0.216492,0.564416,1.171617,-1.432288,2.546108)" gradientUnits="userSpaceOnUse" xlink:href="#linearGradient9320"/><linearGradient id="linearGradient2249" x1="9.562" x2="14.767" y1="6.953" y2="14.2" gradientUnits="userSpaceOnUse" xlink:href="#linearGradient2243"/></defs><g id="layer1"><path style="opacity:.47368421;color:#000;fill:url(#radialGradient3564);fill-opacity:1;fill-rule:nonzero;stroke:none;stroke-width:1;stroke-linecap:round;stroke-linejoin:round;marker:none;marker-start:none;marker-mid:none;marker-end:none;stroke-miterlimit:4;stroke-dasharray:none;stroke-dashoffset:0;stroke-opacity:1;visibility:visible;display:inline;overflow:visible" id="path3556" d="M 38.142857 30.857143 A 15.571428 10.142858 0 1 1 7,30.857143 A 15.571428 10.142858 0 1 1 38.142857 30.857143 z" transform="matrix(1.435780,0.000000,0.000000,0.825704,-5.050460,13.43182)"/><path style="fill:url(#linearGradient11653);fill-opacity:1;fill-rule:evenodd;stroke:#8f5902;stroke-width:1.0063211;stroke-linecap:round;stroke-linejoin:miter;stroke-miterlimit:4;stroke-dashoffset:0;stroke-opacity:1" id="path7966" d="M 6.9163118,1.7780186 C 8.6460876,0.8999591 11.042237,1.7815151 11.928102,3.3353385 L 16.098341,12.820053 C 16.984206,14.373873 16.731757,16.189357 15.532312,16.890639 C 14.332867,17.591922 12.654079,16.90558 11.768213,15.351758 L 5.8497502,6.9960305 C 4.9638854,5.4422066 5.2207536,2.6387087 6.9163118,1.7780186 z"/><path style="opacity:.42307691;fill:none;fill-opacity:1;fill-rule:evenodd;stroke:url(#linearGradient2249);stroke-width:1.00569046;stroke-linecap:round;stroke-linejoin:miter;stroke-miterlimit:4;stroke-dashoffset:0;stroke-opacity:1" id="path14575" d="M 7.4462701,2.7359104 C 8.8682231,1.9500906 10.266975,2.5431693 11.141568,4.0752981 L 15.589706,14.162023 L 13.158185,15.581885 L 6.8615741,6.7615491 C 5.9869811,5.2294205 5.9853271,3.5432766 7.4462701,2.7359104 z"/><path style="fill:url(#radialGradient9318);fill-opacity:1;fill-rule:evenodd;stroke:#c4a000;stroke-width:1.00000048;stroke-linecap:butt;stroke-linejoin:miter;stroke-miterlimit:4;stroke-dasharray:none;stroke-opacity:1" id="path7968" d="M 14.780848,22.793567 C 13.985353,27.080402 15.414814,36.746068 21.040081,42.487564 C 25.386835,42.628855 35.030172,39.069883 41.571176,32.290526 C 32.335,27.773816 26.034647,16.567549 21.135869,19.007852 L 14.780848,22.793567 z"/><path style="fill:none;fill-opacity:.75;fill-rule:evenodd;stroke:url(#linearGradient7988);stroke-width:.99999988;stroke-linecap:round;stroke-linejoin:miter;stroke-miterlimit:4;stroke-dasharray:none;stroke-opacity:1" id="path7972" d="M 16.338359,24.367274 C 18.687375,30.637545 18.827802,37.155576 23.522142,42.287158"/><path style="opacity:.46153846;fill:none;fill-opacity:1;fill-rule:evenodd;stroke:#fff;stroke-width:.99999976;stroke-linecap:butt;stroke-linejoin:miter;stroke-miterlimit:4;stroke-dasharray:none;stroke-opacity:1" id="path7970" d="M 15.91878,23.414124 C 15.006687,23.922228 15.758401,35.934338 21.503034,41.414491 C 28.88902,41.227594 37.02675,35.018304 39.895986,32.576645 C 30.39657,26.592523 24.971183,17.814876 21.415196,20.003061 L 15.91878,23.414124 z"/><path style="fill:none;fill-opacity:.75;fill-rule:evenodd;stroke:url(#linearGradient7990);stroke-width:.9999997;stroke-linecap:round;stroke-linejoin:miter;stroke-miterlimit:4;stroke-dasharray:none;stroke-opacity:1" id="path7974" d="M 23.848485,22.273332 C 24.714846,21.524332 29.598505,28.360999 38.846986,34.655133"/><path style="fill:none;fill-opacity:.75;fill-rule:evenodd;stroke:url(#linearGradient7992);stroke-width:1.0000002;stroke-linecap:round;stroke-linejoin:miter;stroke-miterlimit:4;stroke-dasharray:none;stroke-opacity:1" id="path7976" d="M 18.012893,22.863921 C 21.725203,28.211416 20.975883,35.288176 26.853709,40.945031"/><path style="fill:none;fill-opacity:.75;fill-rule:evenodd;stroke:url(#linearGradient7994);stroke-width:1.0000002;stroke-linecap:round;stroke-linejoin:miter;stroke-miterlimit:4;stroke-dasharray:none;stroke-opacity:1" id="path7978" d="M 22.983898,22.775821 C 22.983898,22.775821 31.160628,35.84745 34.165832,37.880382"/><path style="fill:none;fill-opacity:.75;fill-rule:evenodd;stroke:url(#linearGradient7996);stroke-width:1.0000001;stroke-linecap:round;stroke-linejoin:miter;stroke-miterlimit:4;stroke-dasharray:none;stroke-opacity:1" id="path7980" d="M 19.300308,22.200695 C 22.747454,25.11751 28.002865,36.363883 30.610322,39.678445"/><path style="fill:url(#linearGradient8582);fill-opacity:1;fill-rule:evenodd;stroke:#c4a000;stroke-width:1.0103954;stroke-linecap:round;stroke-linejoin:round;stroke-miterlimit:4;stroke-dasharray:none;stroke-dashoffset:0;stroke-opacity:1" id="path7982" d="M 8.5089452,18.061866 L 19.970616,11.502960 C 20.569266,13.885531 19.628776,14.743545 21.766566,18.650673 L 13.856274,23.177313 C 12.402846,19.699893 10.291388,19.767015 8.5089452,18.061866 z"/><path style="opacity:.24725272;fill:none;fill-opacity:.75;fill-rule:evenodd;stroke:#fff;stroke-width:1;stroke-linecap:butt;stroke-linejoin:miter;stroke-miterlimit:4;stroke-dasharray:none;stroke-opacity:1" id="path11655" d="M 14.043449,21.245689 C 13.229488,19.824472 11.481136,19.009347 10.364130,18.118460 L 19.121552,13.184722 C 19.101959,14.665690 19.688457,16.272928 19.997163,17.703389 L 14.043449,21.245689 z"/><rect style="opacity:1;fill:url(#linearGradient15309);fill-opacity:1;fill-rule:evenodd;stroke:#690000;stroke-width:.99999803;stroke-linecap:round;stroke-linejoin:miter;stroke-miterlimit:4;stroke-dasharray:none;stroke-dashoffset:0;stroke-opacity:1" id="rect7984" width="13.015" height="3.46" x="-1.413" y="24.175" rx="1" ry="1" transform="matrix(0.866025,-0.500001,0.500000,0.866026,0.000000,0.000000)"/><path style="opacity:1;fill:#fff;fill-opacity:1;fill-rule:evenodd;stroke:#8f5902;stroke-width:1.65524161;stroke-linecap:round;stroke-linejoin:round;stroke-miterlimit:4;stroke-dasharray:none;stroke-dashoffset:0;stroke-opacity:1" id="path10193" d="M -17.172594 4.0836182 A 2.1465743 2.1465743 0 1 1 -21.465742,4.0836182 A 2.1465743 2.1465743 0 1 1 -17.172594 4.0836182 z" transform="matrix(0.583557,0.156364,-0.156364,0.583557,20.45782,5.158782)"/><path style="opacity:.31730769;fill:#fff;fill-opacity:1;fill-rule:evenodd;stroke:none;stroke-width:.25pt;stroke-linecap:butt;stroke-linejoin:miter;stroke-opacity:1" id="path3558" d="M 27.734834,40.555239 C 27.734834,40.555239 29.241418,40.054591 29.910932,39.613484 C 28.673495,37.66894 26.507591,33.717819 24.507806,30.737564 C 25.701049,37.278302 27.734834,40.555239 27.734834,40.555239 z"/><path style="opacity:.31730769;fill:#fff;fill-opacity:1;fill-rule:evenodd;stroke:none;stroke-width:.25pt;stroke-linecap:butt;stroke-linejoin:miter;stroke-opacity:1" id="path3560" d="M 31.141805,39.05827 L 33.167803,37.9731 C 31.223259,36.116945 25.699306,27.857202 25.699306,27.857202 L 31.141805,39.05827 z"/><path style="opacity:.31730769;fill:#fff;fill-opacity:1;fill-rule:evenodd;stroke:none;stroke-width:.25pt;stroke-linecap:butt;stroke-linejoin:miter;stroke-opacity:1" id="path3562" d="M 35.658522,36.387809 L 38.094893,34.644057 C 34.912912,33.318232 26.508353,24.763608 26.508353,24.763608 C 28.891288,27.775503 33.275587,33.375914 35.658522,36.387809 z"/><path style="opacity:.31730769;fill:#fff;fill-opacity:1;fill-rule:evenodd;stroke:none;stroke-width:.25pt;stroke-linecap:butt;stroke-linejoin:miter;stroke-opacity:1" id="path3565" d="M 39.153689,33.917208 L 40.846002,32.5077 C 37.531439,31.005098 28.350325,22.595683 28.350325,22.595683 C 28.350325,22.595683 34.424912,31.795888 39.153689,33.917208 z"/><path id="path2265" d="M 24.376076,41.571705 C 24.376076,41.571705 25.573301,41.292028 26.419592,41.116086 C 24.961184,39.878649 22.618503,36.678829 21.325825,32.505331 C 21.856156,39.399623 24.376076,41.571705 24.376076,41.571705 z" style="opacity:.31730766;fill:#fff;fill-opacity:1;fill-rule:evenodd;stroke:none;stroke-width:.25pt;stroke-linecap:butt;stroke-linejoin:miter;stroke-opacity:1"/><path style="opacity:.31730766;fill:#fff;fill-opacity:1;fill-rule:evenodd;stroke:none;stroke-width:.25pt;stroke-linecap:butt;stroke-linejoin:miter;stroke-opacity:1" id="path2267" d="M 21.370872,41.969452 C 21.370872,41.969452 22.618892,41.955776 22.618892,41.955776 C 20.320795,39.436707 19.480717,36.590441 18.188038,32.549526 C 18.055457,37.234109 21.370872,41.969452 21.370872,41.969452 z"/></g><metadata/></svg>