<?xml version="1.0" encoding="UTF-8" standalone="no"?>
<!-- Created with Inkscape (http://www.inkscape.org/) -->
<svg
   xmlns:dc="http://purl.org/dc/elements/1.1/"
   xmlns:cc="http://web.resource.org/cc/"
   xmlns:rdf="http://www.w3.org/1999/02/22-rdf-syntax-ns#"
   xmlns:svg="http://www.w3.org/2000/svg"
   xmlns="http://www.w3.org/2000/svg"
   xmlns:xlink="http://www.w3.org/1999/xlink"
   xmlns:sodipodi="http://inkscape.sourceforge.net/DTD/sodipodi-0.dtd"
   xmlns:inkscape="http://www.inkscape.org/namespaces/inkscape"
   inkscape:version="0.41"
   sodipodi:version="0.32"
   id="svg1408"
   height="200.00000mm"
   width="200.00000mm"
   sodipodi:docname="pointer.svg"
   sodipodi:docbase="/home/egore/source/lincity-ng/data/images/gui"
   inkscape:export-filename="/home/egore/source/lincity-ng/data/images/gui/pointer.png"
   inkscape:export-xdpi="4.0599999"
   inkscape:export-ydpi="4.0599999">
  <defs
     id="defs3">
    <linearGradient
       id="linearGradient2192"
       inkscape:collect="always">
      <stop
         id="stop2194"
         offset="0"
         style="stop-color:#ffffff;stop-opacity:1;" />
      <stop
         id="stop2196"
         offset="1"
         style="stop-color:#ffffff;stop-opacity:0;" />
    </linearGradient>
    <linearGradient
       id="linearGradient2180">
      <stop
         id="stop2182"
         offset="0.0000000"
         style="stop-color:#3326ff;stop-opacity:1.0000000;" />
      <stop
         id="stop2184"
         offset="1.0000000"
         style="stop-color:#140f66;stop-opacity:1.0000000;" />
    </linearGradient>
    <radialGradient
       gradientUnits="userSpaceOnUse"
       r="449.05411"
       fy="73.590805"
       fx="323.06348"
       cy="73.590805"
       cx="323.06348"
       gradientTransform="matrix(0.825606,0.000000,0.000000,0.883405,71.85562,54.96818)"
       id="radialGradient2188"
       xlink:href="#linearGradient2180"
       inkscape:collect="always" />
    <linearGradient
       gradientUnits="userSpaceOnUse"
       y2="300.52786"
       x2="252.70598"
       y1="64.480942"
       x1="106.03597"
       gradientTransform="matrix(1.187613,0.000000,0.000000,0.614127,71.85562,54.96817)"
       id="linearGradient2198"
       xlink:href="#linearGradient2192"
       inkscape:collect="always" />
  </defs>
  <sodipodi:namedview
     inkscape:current-layer="layer1"
     inkscape:document-units="px"
     inkscape:cy="98.179583"
     inkscape:cx="401.10770"
     inkscape:zoom="0.17500000"
     inkscape:pageshadow="2"
     inkscape:pageopacity="0.0"
     borderopacity="1.0"
     bordercolor="#666666"
     pagecolor="#ffffff"
     id="base"
     inkscape:window-width="640"
     inkscape:window-height="546"
     inkscape:window-x="632"
     inkscape:window-y="420" />
  <metadata
     id="metadata4">
    <rdf:RDF
       id="RDF5">
      <cc:Work
         id="Work6"
         rdf:about="">
        <dc:format
           id="format7">image/svg+xml</dc:format>
        <dc:type
           rdf:resource="http://purl.org/dc/dcmitype/StillImage"
           id="type9" />
      </cc:Work>
    </rdf:RDF>
  </metadata>
  <g
     id="layer1"
     inkscape:groupmode="layer"
     inkscape:label="Layer 1">
    <path
       sodipodi:nodetypes="cccccccc"
       id="path2204"
       d="M 91.068616,94.192044 C 152.44343,237.75575 201.00959,368.51080 217.55410,553.70264 C 246.37358,509.40603 276.79414,460.30618 321.62445,427.21714 C 380.33079,507.80495 424.62740,565.97761 456.11535,656.17191 C 511.08584,597.99924 551.64659,565.44391 616.22357,534.48965 C 567.65741,469.37897 509.48475,404.26830 420.89154,347.16304 C 473.19356,313.00662 501.47934,310.87185 540.97271,300.73166 C 429.43064,195.06023 188.20093,95.793130 91.068616,94.192044 z "
       style="fill:#000000;fill-opacity:0.58554214;fill-rule:evenodd;stroke:none;stroke-width:4.0000000;stroke-linecap:butt;stroke-linejoin:miter;stroke-miterlimit:4.0000000;stroke-opacity:1.0000000" />
    <path
       sodipodi:nodetypes="cccccccc"
       id="path1418"
       d="M 99.074027,77.383321 C 160.44884,220.94703 209.01500,351.70208 225.55952,536.89392 C 254.37899,492.59731 284.79956,443.49745 329.62986,410.40842 C 388.33621,490.99622 432.63282,549.16889 464.12076,639.36318 C 519.09126,581.19052 559.65200,548.63519 624.22898,517.68092 C 575.66283,452.57025 517.49016,387.45957 428.89695,330.35431 C 481.19897,296.19789 509.48475,294.06312 548.97812,283.92293 C 437.43606,178.25150 196.20634,78.984406 99.074027,77.383321 z "
       style="fill:url(#radialGradient2188);fill-opacity:1.0000000;fill-rule:evenodd;stroke:#7387e4;stroke-width:3.4160688;stroke-linecap:butt;stroke-linejoin:miter;stroke-miterlimit:4.0000000;stroke-opacity:1.0000000" />
    <path
       sodipodi:nodetypes="cssssss"
       id="path2190"
       d="M 121.66962,89.580661 C 109.32909,84.895043 139.27142,124.03338 157.75226,167.55820 C 176.23311,211.08301 174.19538,229.55876 183.93710,237.89048 C 193.13445,245.75665 171.70289,147.21447 191.86205,143.92319 C 245.66912,135.13836 442.30512,224.00449 430.74276,214.11563 C 422.18356,206.79525 350.65791,167.53778 281.23108,140.39902 C 211.80425,113.26025 144.47625,98.240194 121.66962,89.580661 z "
       style="opacity:0.89841986;fill:url(#linearGradient2198);fill-opacity:1.0000000;fill-rule:evenodd;stroke:none;stroke-width:1.0000000px;stroke-linecap:butt;stroke-linejoin:miter;stroke-opacity:1.0000000" />
  </g>
</svg>
