<svg xmlns="http://www.w3.org/2000/svg" xmlns:cc="http://web.resource.org/cc/" xmlns:svg="http://www.w3.org/2000/svg" xmlns:xlink="http://www.w3.org/1999/xlink" id="svg1408" width="755.906" height="755.906"><defs id="defs3"><linearGradient id="linearGradient2192"><stop id="stop2194" offset="0" style="stop-color:#fff;stop-opacity:1"/><stop id="stop2196" offset="1" style="stop-color:#fff;stop-opacity:0"/></linearGradient><linearGradient id="linearGradient2180"><stop id="stop2182" offset="0" style="stop-color:#3326ff;stop-opacity:1"/><stop id="stop2184" offset="1" style="stop-color:#140f66;stop-opacity:1"/></linearGradient><radialGradient id="radialGradient2188" cx="323.063" cy="73.591" r="449.054" fx="323.063" fy="73.591" gradientTransform="matrix(0.825606,0.000000,0.000000,0.883405,71.85562,54.96818)" gradientUnits="userSpaceOnUse" xlink:href="#linearGradient2180"/><linearGradient id="linearGradient2198" x1="106.036" x2="252.706" y1="64.481" y2="300.528" gradientTransform="matrix(1.187613,0.000000,0.000000,0.614127,71.85562,54.96817)" gradientUnits="userSpaceOnUse" xlink:href="#linearGradient2192"/></defs><metadata id="metadata4"/><g id="layer1"><path id="path2204" d="M 91.068616,94.192044 C 152.44343,237.75575 201.00959,368.51080 217.55410,553.70264 C 246.37358,509.40603 276.79414,460.30618 321.62445,427.21714 C 380.33079,507.80495 424.62740,565.97761 456.11535,656.17191 C 511.08584,597.99924 551.64659,565.44391 616.22357,534.48965 C 567.65741,469.37897 509.48475,404.26830 420.89154,347.16304 C 473.19356,313.00662 501.47934,310.87185 540.97271,300.73166 C 429.43064,195.06023 188.20093,95.793130 91.068616,94.192044 z" style="fill:#000;fill-opacity:.58554214;fill-rule:evenodd;stroke:none;stroke-width:4;stroke-linecap:butt;stroke-linejoin:miter;stroke-miterlimit:4;stroke-opacity:1"/><path id="path1418" d="M 99.074027,77.383321 C 160.44884,220.94703 209.01500,351.70208 225.55952,536.89392 C 254.37899,492.59731 284.79956,443.49745 329.62986,410.40842 C 388.33621,490.99622 432.63282,549.16889 464.12076,639.36318 C 519.09126,581.19052 559.65200,548.63519 624.22898,517.68092 C 575.66283,452.57025 517.49016,387.45957 428.89695,330.35431 C 481.19897,296.19789 509.48475,294.06312 548.97812,283.92293 C 437.43606,178.25150 196.20634,78.984406 99.074027,77.383321 z" style="fill:url(#radialGradient2188);fill-opacity:1;fill-rule:evenodd;stroke:#7387e4;stroke-width:3.4160688;stroke-linecap:butt;stroke-linejoin:miter;stroke-miterlimit:4;stroke-opacity:1"/><path id="path2190" d="M 121.66962,89.580661 C 109.32909,84.895043 139.27142,124.03338 157.75226,167.55820 C 176.23311,211.08301 174.19538,229.55876 183.93710,237.89048 C 193.13445,245.75665 171.70289,147.21447 191.86205,143.92319 C 245.66912,135.13836 442.30512,224.00449 430.74276,214.11563 C 422.18356,206.79525 350.65791,167.53778 281.23108,140.39902 C 211.80425,113.26025 144.47625,98.240194 121.66962,89.580661 z" style="opacity:.89841986;fill:url(#linearGradient2198);fill-opacity:1;fill-rule:evenodd;stroke:none;stroke-width:1px;stroke-linecap:butt;stroke-linejoin:miter;stroke-opacity:1"/></g></svg>