<svg xmlns="http://www.w3.org/2000/svg" xmlns:cc="http://web.resource.org/cc/" xmlns:xlink="http://www.w3.org/1999/xlink" id="svg1" width="755.906" height="755.906"><defs id="defs3"><linearGradient id="linearGradient13625"><stop style="stop-color:#000;stop-opacity:1" id="stop13626" offset="0"/><stop style="stop-color:#000;stop-opacity:0" id="stop13627" offset="1"/></linearGradient><linearGradient id="linearGradient12991"><stop style="stop-color:#565656;stop-opacity:1" id="stop12992" offset="0"/><stop style="stop-color:#dcdcdc;stop-opacity:.97647059" id="stop12993" offset="1"/></linearGradient><linearGradient id="linearGradient12357"><stop style="stop-color:#31ae14;stop-opacity:1" id="stop12358" offset="0"/><stop style="stop-color:#296f19;stop-opacity:1" id="stop12359" offset="1"/></linearGradient><linearGradient id="linearGradient11724"><stop style="stop-color:#4faedf;stop-opacity:1" id="stop11725" offset="0"/><stop style="stop-color:#4649df;stop-opacity:1" id="stop11727" offset="1"/></linearGradient><linearGradient id="linearGradient8591"><stop style="stop-color:#a3dfdf;stop-opacity:1" id="stop8592" offset="0"/><stop style="stop-color:#caf5f5;stop-opacity:1" id="stop8595" offset=".5"/><stop style="stop-color:#a3dfdf;stop-opacity:1" id="stop8593" offset="1"/></linearGradient><linearGradient id="linearGradient5460"><stop style="stop-color:#fff043;stop-opacity:1" id="stop5461" offset="0"/><stop style="stop-color:#ffa800;stop-opacity:1" id="stop5462" offset="1"/></linearGradient><linearGradient id="linearGradient3583"><stop style="stop-color:#434343;stop-opacity:1" id="stop3584" offset="0"/><stop style="stop-color:#a1a1a1;stop-opacity:1" id="stop3585" offset="1"/></linearGradient><linearGradient id="linearGradient2959"><stop style="stop-color:#811e08;stop-opacity:1" id="stop2960" offset="0"/><stop style="stop-color:#3e0e03;stop-opacity:1" id="stop2961" offset="1"/></linearGradient><linearGradient id="linearGradient2329"><stop style="stop-color:#b22a0b;stop-opacity:1" id="stop2330" offset="0"/><stop style="stop-color:#571405;stop-opacity:1" id="stop2331" offset="1"/></linearGradient><radialGradient id="radialGradient2333" cx="191.199" cy="1087.958" r="103.892" fx="191.199" fy="1087.958" gradientTransform="matrix(2.376402,0.000000,0.000000,0.747703,-275.9155,-275.6104)" gradientUnits="userSpaceOnUse" xlink:href="#linearGradient2329"/><linearGradient id="linearGradient2958" x1="269.016" x2="246.986" y1="759.423" y2="848.377" gradientTransform="matrix(1.957470,0.000000,0.000000,0.907725,-275.9155,-275.6104)" gradientUnits="userSpaceOnUse" xlink:href="#linearGradient2959"/><linearGradient id="linearGradient3586" x1="191.679" x2="365.214" y1="950.485" y2="908.071" gradientTransform="matrix(2.462305,0.000000,0.000000,0.721618,-275.9155,-275.6104)" gradientUnits="userSpaceOnUse" xlink:href="#linearGradient3583"/><linearGradient id="linearGradient4211" x1="336.66" x2="448.323" y1="773.618" y2="838.014" gradientTransform="matrix(1.988340,0.000000,0.000000,0.893632,-275.9155,-275.6104)" gradientUnits="userSpaceOnUse" xlink:href="#linearGradient2329"/><linearGradient id="linearGradient6715" x1="608.831" x2="550.874" y1="372.928" y2="437.721" gradientTransform="matrix(1.188446,0.000000,0.000000,1.495098,-592.0574,-220.4792)" gradientUnits="userSpaceOnUse" xlink:href="#linearGradient5460"/><linearGradient id="linearGradient6717" x1="635.944" x2="697.446" y1="387.935" y2="448.506" gradientTransform="matrix(1.158859,0.000000,0.000000,1.533269,-592.2972,-220.4792)" gradientUnits="userSpaceOnUse" xlink:href="#linearGradient5460"/><linearGradient id="linearGradient6719" x1="552.667" x2="435.261" y1="411.946" y2="365.202" gradientTransform="matrix(1.188446,0.000000,0.000000,1.495098,-276.3953,-207.2866)" gradientUnits="userSpaceOnUse" xlink:href="#linearGradient5460"/><radialGradient id="radialGradient7342" cx="332.238" cy="628.935" r="141.506" fx="332.238" fy="628.935" gradientTransform="matrix(2.120480,0.000000,0.000000,0.837944,-585.1012,-177.7832)" gradientUnits="userSpaceOnUse" xlink:href="#linearGradient5460"/><radialGradient id="radialGradient7344" cx="332.238" cy="628.935" r="141.506" fx="332.238" fy="628.935" gradientTransform="matrix(2.120480,0.000000,0.000000,0.837944,-619.7058,-370.7222)" gradientUnits="userSpaceOnUse" xlink:href="#linearGradient5460"/><linearGradient id="linearGradient7969" x1="272.121" x2="459.378" y1="248.66" y2="302.352" gradientTransform="matrix(1.221943,0.000000,0.000000,1.454112,-275.9155,-207.7664)" gradientUnits="userSpaceOnUse" xlink:href="#linearGradient5460"/><linearGradient id="linearGradient8594" x1="285.21" x2="398.202" y1="295.568" y2="295.568" gradientTransform="matrix(1.360404,0.000000,0.000000,1.306115,-275.9155,-207.7664)" gradientUnits="userSpaceOnUse" xlink:href="#linearGradient8591"/><radialGradient id="radialGradient9222" cx="526.46" cy="129.744" r="73.908" fx="526.46" fy="129.744" gradientUnits="userSpaceOnUse" xlink:href="#linearGradient5460"/><linearGradient id="linearGradient10468" x1="422.334" x2="518.142" y1="185.67" y2="284.382" gradientTransform="matrix(1.327265,0.246046,-0.239926,1.294249,-231.0585,-287.1759)" gradientUnits="userSpaceOnUse" xlink:href="#linearGradient5460"/><linearGradient id="linearGradient11094" x1="288.337" x2="391.834" y1="188" y2="263.327" gradientTransform="matrix(1.384892,0.256730,-0.229942,1.240394,-231.0585,-287.1759)" gradientUnits="userSpaceOnUse" xlink:href="#linearGradient5460"/><radialGradient id="radialGradient11096" cx="526.46" cy="129.744" r="73.908" fx="526.46" fy="129.744" gradientUnits="userSpaceOnUse" xlink:href="#linearGradient5460"/><linearGradient id="linearGradient11728" x1="393.172" x2="258.762" y1="1076.307" y2="928.21" gradientTransform="matrix(2.063011,0.000000,0.000000,0.861287,-264.4020,-286.1644)" gradientUnits="userSpaceOnUse" xlink:href="#linearGradient11724"/><linearGradient id="linearGradient12366" x1="712.246" x2="472.461" y1="411.257" y2="406.694" gradientTransform="matrix(1.188446,0.000000,0.000000,1.495098,-275.9155,-338.0268)" gradientUnits="userSpaceOnUse" xlink:href="#linearGradient12357"/><linearGradient id="linearGradient12368" x1="562.141" x2="746.648" y1="379.782" y2="383.276" gradientTransform="matrix(1.158859,0.000000,0.000000,1.533269,-275.9155,-338.0268)" gradientUnits="userSpaceOnUse" xlink:href="#linearGradient12357"/><radialGradient id="radialGradient12369" cx="353.291" cy="661.313" r="79.732" fx="353.291" fy="661.313" gradientTransform="matrix(2.120480,0.000000,0.000000,0.837944,-275.9155,-338.0268)" gradientUnits="userSpaceOnUse" xlink:href="#linearGradient12357"/><linearGradient id="linearGradient12994" x1="779.672" x2="568.073" y1="297.096" y2="148.032" gradientTransform="matrix(1.113490,0.000000,0.000000,1.595743,-275.9155,-338.0268)" gradientUnits="userSpaceOnUse" xlink:href="#linearGradient12991"/><linearGradient id="linearGradient12996" x1="779.672" x2="568.073" y1="297.096" y2="148.032" gradientTransform="matrix(1.113490,0.000000,0.000000,1.595743,-239.9358,-267.2667)" gradientUnits="userSpaceOnUse" xlink:href="#linearGradient12991"/><linearGradient id="linearGradient12998" x1="779.672" x2="568.073" y1="297.096" y2="148.032" gradientTransform="matrix(1.113490,0.000000,0.000000,1.595743,-143.2702,-314.9998)" gradientUnits="userSpaceOnUse" xlink:href="#linearGradient12991"/><radialGradient id="radialGradient13628" cx="412.155" cy="396.61" r="15.401" fx="412.155" fy="396.61" gradientTransform="scale(1.251367,0.799126)" gradientUnits="userSpaceOnUse" xlink:href="#linearGradient13625"/><radialGradient id="radialGradient14251" cx="412.155" cy="396.61" r="15.401" fx="412.155" fy="396.61" gradientTransform="scale(1.251367,0.799126)" gradientUnits="userSpaceOnUse" xlink:href="#linearGradient13625"/><radialGradient id="radialGradient14874" cx="412.155" cy="396.61" r="15.401" fx="412.155" fy="396.61" gradientTransform="scale(1.251367,0.799126)" gradientUnits="userSpaceOnUse" xlink:href="#linearGradient13625"/><linearGradient id="linearGradient14876" x1="552.667" x2="435.261" y1="411.946" y2="365.202" gradientTransform="matrix(1.188446,0.000000,0.000000,1.495098,-469.0489,-137.8235)" gradientUnits="userSpaceOnUse" xlink:href="#linearGradient5460"/><linearGradient id="linearGradient14878" x1="552.667" x2="435.261" y1="411.946" y2="365.202" gradientTransform="matrix(1.188446,0.000000,0.000000,1.495098,-363.2263,-225.5164)" gradientUnits="userSpaceOnUse" xlink:href="#linearGradient5460"/><linearGradient id="linearGradient14880" x1="552.667" x2="435.261" y1="411.946" y2="365.202" gradientTransform="matrix(1.188446,0.000000,0.000000,1.495098,-337.8006,-218.5603)" gradientUnits="userSpaceOnUse" xlink:href="#linearGradient5460"/></defs><metadata id="metadata4"/><g id="layer1"><path style="fill:url(#linearGradient6715);fill-opacity:1;fill-rule:evenodd;stroke:#000;stroke-width:4.9986854;stroke-linecap:round;stroke-linejoin:round;stroke-miterlimit:4;stroke-opacity:1" id="path6714" d="M 35.576027,461.61143 L 49.488182,295.14530 L 169.75321,321.66682 L 158.71941,491.49105 L 134.71797,485.03882 L 131.19773,346.12471 L 78.151390,333.40043 L 53.132303,466.70681 L 35.576027,461.61143 z"/><path style="fill:url(#linearGradient11728);fill-opacity:1;fill-rule:evenodd;stroke:#000;stroke-width:.33324568pt;stroke-linecap:butt;stroke-linejoin:miter;stroke-opacity:1" id="path11097" d="M 13.841130,601.38682 C 121.74731,619.72238 118.38934,685.54874 280.57072,701.17055 C 434.29813,594.25207 552.74666,612.16655 696.97590,486.25175 C 588.23722,462.90492 479.49853,439.55809 370.75985,416.21125 C 251.78694,477.93643 116.53148,576.29738 13.841130,601.38682 z"/><path style="fill:url(#linearGradient6717);fill-opacity:1;fill-rule:evenodd;stroke:#000;stroke-width:4.9986854;stroke-linecap:round;stroke-linejoin:round;stroke-miterlimit:4;stroke-opacity:1" id="path6716" d="M 169.99308,322.14655 L 310.07408,254.50470 L 329.26326,403.22083 L 309.71428,413.29515 L 293.22359,291.44386 L 193.73968,342.29518 L 183.78529,477.57890 L 158.95928,491.49105 L 169.99308,322.14655 z"/><path style="fill:url(#linearGradient4211);fill-opacity:1;fill-rule:evenodd;stroke:#000;stroke-width:4.9986854;stroke-linecap:round;stroke-linejoin:round;stroke-miterlimit:4;stroke-opacity:1" id="path1062" d="M 80.782152,571.63532 L 208.65951,643.40674 C 440.72066,637.47548 497.74432,539.27638 642.28674,487.21121 L 657.63808,389.34640 L 352.05041,465.14366 L 80.782152,571.63532 z"/><path style="fill:url(#linearGradient3586);fill-opacity:1;fill-rule:evenodd;stroke:#000;stroke-width:4.9986854;stroke-linecap:round;stroke-linejoin:round;stroke-miterlimit:4;stroke-opacity:1" id="path1061" d="M 48.381646,533.26524 L 463.82737,357.68426 L 659.55699,389.34640 L 466.86410,472.29038 L 48.381646,533.26524 z"/><path style="fill:url(#linearGradient12366);fill-opacity:1;fill-rule:evenodd;stroke:#000;stroke-width:4.9986854;stroke-linecap:round;stroke-linejoin:round;stroke-miterlimit:4;stroke-opacity:1" id="path1065" d="M 338.13826,341.80154 L 336.69906,198.84216 L 472.94223,229.54486 L 474.86114,373.94343 L 338.13826,341.80154 z"/><path style="fill:url(#radialGradient12369);fill-opacity:1;fill-rule:evenodd;stroke:#000;stroke-width:4.9986854;stroke-linecap:round;stroke-linejoin:round;stroke-miterlimit:4;stroke-opacity:1" id="path1067" d="M 471.98278,228.58538 L 643.72592,142.23409 L 507.96247,110.09221 L 336.21933,198.84216 L 471.98278,228.58538 z"/><path style="fill:url(#linearGradient12368);fill-opacity:1;fill-rule:evenodd;stroke:#000;stroke-width:4.9986854;stroke-linecap:round;stroke-linejoin:round;stroke-miterlimit:4;stroke-opacity:1" id="path1066" d="M 472.46250,230.02458 L 644.20564,143.19355 L 645.64484,285.67320 L 475.34087,373.94342 L 472.46250,230.02458 z"/><path style="fill:url(#linearGradient11094);fill-opacity:1;fill-rule:evenodd;stroke:#000;stroke-width:4.9986854;stroke-linecap:round;stroke-linejoin:round;stroke-miterlimit:4;stroke-opacity:1" id="path10469" d="M 204.28592,196.93988 L 214.09000,222.21731 L 469.98542,81.285171 L 461.41796,49.336999 L 204.28592,196.93988 z"/><path style="fill:url(#linearGradient10468);fill-opacity:1;fill-rule:evenodd;stroke:#000;stroke-width:4.9986854;stroke-linecap:round;stroke-linejoin:round;stroke-miterlimit:4;stroke-opacity:1" id="path1076" d="M 230.14688,151.61594 L 463.75439,23.179985 L 476.22038,66.474746 L 225.42009,203.43321 L 230.14688,151.61594 z"/><path style="fill:url(#radialGradient14251);fill-opacity:1;fill-rule:nonzero;stroke:none;stroke-width:3.75;stroke-linecap:round;stroke-linejoin:round;stroke-miterlimit:4;stroke-opacity:1" id="path14250" d="M 539.47768 314.40421 A 25.012474 15.295398 0 1 1 489.45274,314.40421 A 25.012474 15.295398 0 1 1 539.47768 314.40421 z" transform="matrix(4.573660,-2.065286,2.536364,2.148640,-2677.970,551.7573)"/><path style="fill:url(#linearGradient12994);fill-opacity:1;fill-rule:evenodd;stroke:#000;stroke-width:4.9986854;stroke-linecap:round;stroke-linejoin:round;stroke-miterlimit:4;stroke-opacity:1" id="path1079" d="M 485.89492,73.574865 L 488.77331,121.60573 L 394.74632,169.09895 L 379.39499,176.29488 L 488.77331,136.95707 L 505.08410,213.71379 L 518.03680,205.55838 L 501.72599,135.51788 L 600.07054,164.78138 L 612.54350,158.06515 L 500.76654,122.08544 L 500.76654,72.135670 L 485.89492,73.574865 z"/><path style="fill:url(#radialGradient13628);fill-opacity:1;fill-rule:nonzero;stroke:none;stroke-width:3.75;stroke-linecap:round;stroke-linejoin:round;stroke-miterlimit:4;stroke-opacity:1" id="path12999" d="M 539.47768 314.40421 A 25.012474 15.295398 0 1 1 489.45274,314.40421 A 25.012474 15.295398 0 1 1 539.47768 314.40421 z" transform="matrix(7.715304,-2.388933,4.278589,2.485350,-4848.483,848.8885)"/><path style="fill:url(#linearGradient2958);fill-opacity:1;fill-rule:evenodd;stroke:#000;stroke-width:4.9986854;stroke-linecap:round;stroke-linejoin:round;stroke-miterlimit:4;stroke-opacity:1" id="path1064" d="M 90.589572,466.99439 L 281.79465,405.40443 L 325.60051,416.00669 L 50.300568,530.38687 L 90.589572,466.99439 z"/><path style="fill:url(#linearGradient6719);fill-opacity:1;fill-rule:evenodd;stroke:#000;stroke-width:4.9986854;stroke-linecap:round;stroke-linejoin:round;stroke-miterlimit:4;stroke-opacity:1" id="path6718" d="M 283.68895,406.09919 L 264.49977,306.79520 L 293.28355,291.44386 L 308.15514,412.81543 L 283.68895,406.09919 z"/><path style="fill:url(#radialGradient7342);fill-opacity:1;fill-rule:evenodd;stroke:#000;stroke-width:4.9986854;stroke-linecap:round;stroke-linejoin:round;stroke-miterlimit:4;stroke-opacity:1" id="path7341" d="M 169.99309,322.62628 L 309.59435,254.02499 L 194.98964,244.27989 L 49.728052,294.66560 L 169.99309,322.62628 z"/><path style="fill:url(#radialGradient14874);fill-opacity:1;fill-rule:nonzero;stroke:none;stroke-width:3.75;stroke-linecap:round;stroke-linejoin:round;stroke-miterlimit:4;stroke-opacity:1" id="path14873" d="M 539.47768 314.40421 A 25.012474 15.295398 0 1 1 489.45274,314.40421 A 25.012474 15.295398 0 1 1 539.47768 314.40421 z" transform="matrix(4.573660,-2.065286,2.536364,2.148640,-2965.809,654.1939)"/><path style="fill:url(#linearGradient7969);fill-opacity:1;fill-rule:evenodd;stroke:#000;stroke-width:4.9986854;stroke-linecap:round;stroke-linejoin:round;stroke-miterlimit:4;stroke-opacity:1" id="path1074" d="M 106.90864,272.01483 L 192.30049,290.72427 L 268.57748,241.79187 L 250.82748,87.798711 L 95.395135,106.98789 L 106.90864,272.01483 z"/><path style="fill:url(#linearGradient8594);fill-opacity:1;fill-rule:evenodd;stroke:#000;stroke-width:4.9986854;stroke-linecap:round;stroke-linejoin:round;stroke-miterlimit:4;stroke-opacity:1" id="path1075" d="M 114.58431,131.93381 L 178.86808,143.56373 L 253.22613,106.98789 L 262.34100,191.90000 L 190.78898,235.65767 L 120.34107,224.04187 L 114.58431,131.93381 z"/><path style="fill:url(#radialGradient7344);fill-opacity:1;fill-rule:evenodd;stroke:#000;stroke-width:4.9986854;stroke-linecap:round;stroke-linejoin:round;stroke-miterlimit:4;stroke-opacity:1" id="path7343" d="M 176.56453,120.22327 L 251.24425,87.205960 L 160.64769,82.946600 L 95.518476,106.13652 L 176.56453,120.22327 z"/><path style="fill:url(#radialGradient11096);fill-opacity:1;fill-rule:nonzero;stroke:#000;stroke-width:3.75;stroke-linecap:round;stroke-linejoin:round;stroke-miterlimit:4;stroke-opacity:1" id="path11095" d="M 608.21166 151.49634 A 30.028862 30.028862 0 1 1 548.15394,151.49634 A 30.028862 30.028862 0 1 1 608.21166 151.49634 z" transform="matrix(1.332983,0.000000,0.000000,1.332983,-279.9860,-154.8481)"/><path style="fill:url(#radialGradient9222);fill-opacity:1;fill-rule:nonzero;stroke:#000;stroke-width:3.75;stroke-linecap:round;stroke-linejoin:round;stroke-miterlimit:4;stroke-opacity:1" id="path8596" d="M 608.21166 151.49634 A 30.028862 30.028862 0 1 1 548.15394,151.49634 A 30.028862 30.028862 0 1 1 608.21166 151.49634 z" transform="matrix(1.332983,0.000000,0.000000,1.332983,-292.1980,-150.0990)"/><path style="fill:url(#linearGradient12996);fill-opacity:1;fill-rule:evenodd;stroke:#000;stroke-width:4.9986854;stroke-linecap:round;stroke-linejoin:round;stroke-miterlimit:4;stroke-opacity:1" id="path12995" d="M 504.60437,212.99419 L 503.64492,359.31168 L 514.67869,354.99410 L 518.51653,205.79824 L 504.60437,212.99419 z"/><path style="fill:url(#radialGradient2333);fill-opacity:1;fill-rule:evenodd;stroke:#000;stroke-width:4.9986854;stroke-linecap:round;stroke-linejoin:round;stroke-miterlimit:4;stroke-opacity:1" id="path1063" d="M 534.49810,442.63046 L 500.02576,423.62588 C 410.10822,448.90104 321.19874,479.99165 230.27316,499.45137 C 189.58906,508.15851 146.88886,505.23476 105.19672,508.12645 C 78.882545,495.64018 81.741273,488.58142 90.027534,467.27541 C 80.122538,485.50514 51.899667,511.19769 47.422192,529.42741 C 49.184768,545.45914 61.123935,554.02803 81.204387,573.45197 C 140.40820,570.71353 218.65400,566.34413 274.41996,549.63254 C 367.94272,521.60623 444.41319,484.62993 534.49810,442.63046 z"/><path style="fill:url(#linearGradient12998);fill-opacity:1;fill-rule:evenodd;stroke:#000;stroke-width:4.9986854;stroke-linecap:round;stroke-linejoin:round;stroke-miterlimit:4;stroke-opacity:1" id="path12997" d="M 601.26987,165.26110 L 618.54014,300.06509 L 629.09418,294.78805 L 611.82392,158.06515 L 601.26987,165.26110 z"/><path style="fill:url(#linearGradient14876);fill-opacity:1;fill-rule:evenodd;stroke:#000;stroke-width:4.9986854;stroke-linecap:round;stroke-linejoin:round;stroke-miterlimit:4;stroke-opacity:1" id="path14875" d="M 53.078464,467.32466 L 78.951473,333.69539 L 100.96911,338.85774 L 80.561823,454.80178 L 53.078464,467.32466 z"/><path style="fill:url(#linearGradient14878);fill-opacity:1;fill-rule:evenodd;stroke:#000;stroke-width:4.9986854;stroke-linecap:round;stroke-linejoin:round;stroke-miterlimit:4;stroke-opacity:1" id="path14877" d="M 196.85793,387.86947 L 193.97955,341.81544 L 217.00658,330.30195 L 221.32412,394.58570 L 196.85793,387.86947 z"/><path style="fill:url(#linearGradient14880);fill-opacity:1;fill-rule:evenodd;stroke:#000;stroke-width:4.9986854;stroke-linecap:round;stroke-linejoin:round;stroke-miterlimit:4;stroke-opacity:1" id="path14879" d="M 222.28359,394.82554 L 217.96602,330.06207 L 240.99304,318.54858 L 240.99303,386.19043 L 222.28359,394.82554 z"/></g></svg>