<svg xmlns="http://www.w3.org/2000/svg" xmlns:cc="http://web.resource.org/cc/" xmlns:xlink="http://www.w3.org/1999/xlink" id="svg14185" width="755.906" height="755.906"><defs id="defs3"><linearGradient id="linearGradient16016"><stop id="stop16018" offset="0" style="stop-color:#ededed;stop-opacity:1"/><stop id="stop16020" offset="1" style="stop-color:#d2d2d2;stop-opacity:1"/></linearGradient><linearGradient id="linearGradient14490"><stop id="stop14492" offset="0" style="stop-color:#e22f2f;stop-opacity:1"/><stop id="stop14494" offset="1" style="stop-color:#8d1a1a;stop-opacity:1"/></linearGradient><linearGradient id="linearGradient9914"><stop id="stop9916" offset="0" style="stop-color:#c9c9c9;stop-opacity:1"/><stop id="stop9918" offset="1" style="stop-color:#747474;stop-opacity:1"/></linearGradient><linearGradient id="linearGradient9900"><stop id="stop9902" offset="0" style="stop-color:#c9c9c9;stop-opacity:1"/><stop id="stop9904" offset="1" style="stop-color:#fff;stop-opacity:0"/></linearGradient><linearGradient id="linearGradient5240"><stop id="stop5242" offset="0" style="stop-color:#e8b42e;stop-opacity:1"/><stop id="stop5246" offset="1" style="stop-color:#d29232;stop-opacity:1"/></linearGradient><linearGradient id="linearGradient17318"><stop id="stop17319" offset="0" style="stop-color:#2b2b2b;stop-opacity:1"/><stop id="stop17321" offset=".5" style="stop-color:#888;stop-opacity:1"/><stop id="stop17320" offset="1" style="stop-color:#2b2b2b;stop-opacity:1"/></linearGradient><linearGradient id="linearGradient2930" x1="336.34" x2="112.645" y1="985.544" y2="751.567" gradientTransform="matrix(2.000984,0.000000,0.000000,0.780072,-76.35365,-314.4232)" gradientUnits="userSpaceOnUse" xlink:href="#linearGradient17318"/><linearGradient id="linearGradient3696" x1="358.441" x2="194.615" y1="920.156" y2="708.527" gradientTransform="matrix(1.806928,0.000000,0.000000,0.863848,-76.35365,-314.4232)" gradientUnits="userSpaceOnUse" xlink:href="#linearGradient17318"/><linearGradient id="linearGradient4476" x1="131.418" x2="184.242" y1="883.739" y2="787.521" gradientTransform="matrix(1.714833,0.000000,0.000000,0.910240,-76.35365,-314.4232)" gradientUnits="userSpaceOnUse" xlink:href="#linearGradient17318"/><radialGradient id="radialGradient5248" cx="140.144" cy="926.999" r="29.886" fx="140.144" fy="926.999" gradientTransform="matrix(1.992599,0.000000,0.000000,0.783354,-87.32477,-317.8404)" gradientUnits="userSpaceOnUse" xlink:href="#linearGradient5240"/><radialGradient id="radialGradient6036" cx="140.144" cy="926.999" r="29.886" fx="140.144" fy="926.999" gradientTransform="matrix(1.992599,0.000000,0.000000,0.783354,-59.44735,-299.8550)" gradientUnits="userSpaceOnUse" xlink:href="#linearGradient5240"/><linearGradient id="linearGradient6800" x1="145.914" x2="143.019" y1="844.268" y2="869.145" gradientTransform="matrix(1.828074,0.000000,0.000000,0.853855,-87.14491,-309.3873)" gradientUnits="userSpaceOnUse" xlink:href="#linearGradient5240"/><linearGradient id="linearGradient6808" x1="145.914" x2="143.019" y1="844.268" y2="869.145" gradientTransform="matrix(1.828074,0.000000,0.000000,0.853855,-25.72465,-333.1280)" gradientUnits="userSpaceOnUse" xlink:href="#linearGradient5240"/><radialGradient id="radialGradient6810" cx="140.144" cy="926.999" r="29.886" fx="140.144" fy="926.999" gradientTransform="matrix(1.992599,0.000000,0.000000,0.783354,1.972911,-323.5958)" gradientUnits="userSpaceOnUse" xlink:href="#linearGradient5240"/><radialGradient id="radialGradient6812" cx="140.144" cy="926.999" r="29.886" fx="140.144" fy="926.999" gradientTransform="matrix(1.992599,0.000000,0.000000,0.783354,-25.90450,-341.5812)" gradientUnits="userSpaceOnUse" xlink:href="#linearGradient5240"/><linearGradient id="linearGradient6820" x1="145.914" x2="143.019" y1="844.268" y2="869.145" gradientTransform="matrix(1.828074,0.000000,0.000000,0.853855,38.30347,-358.3076)" gradientUnits="userSpaceOnUse" xlink:href="#linearGradient5240"/><radialGradient id="radialGradient6822" cx="140.144" cy="926.999" r="29.886" fx="140.144" fy="926.999" gradientTransform="matrix(1.992599,0.000000,0.000000,0.783354,66.00101,-348.7754)" gradientUnits="userSpaceOnUse" xlink:href="#linearGradient5240"/><radialGradient id="radialGradient6824" cx="140.144" cy="926.999" r="29.886" fx="140.144" fy="926.999" gradientTransform="matrix(1.992599,0.000000,0.000000,0.783354,38.12356,-366.7608)" gradientUnits="userSpaceOnUse" xlink:href="#linearGradient5240"/><linearGradient id="linearGradient6832" x1="145.914" x2="143.019" y1="844.268" y2="869.145" gradientTransform="matrix(1.828074,0.000000,0.000000,0.853855,99.45398,-382.0484)" gradientUnits="userSpaceOnUse" xlink:href="#linearGradient5240"/><radialGradient id="radialGradient6834" cx="140.144" cy="926.999" r="29.886" fx="140.144" fy="926.999" gradientTransform="matrix(1.992599,0.000000,0.000000,0.783354,127.1515,-372.5162)" gradientUnits="userSpaceOnUse" xlink:href="#linearGradient5240"/><radialGradient id="radialGradient6836" cx="140.144" cy="926.999" r="29.886" fx="140.144" fy="926.999" gradientTransform="matrix(1.992599,0.000000,0.000000,0.783354,99.27407,-390.5015)" gradientUnits="userSpaceOnUse" xlink:href="#linearGradient5240"/><linearGradient id="linearGradient6844" x1="145.914" x2="143.019" y1="844.268" y2="869.145" gradientTransform="matrix(1.828074,0.000000,0.000000,0.853855,161.3239,-406.5086)" gradientUnits="userSpaceOnUse" xlink:href="#linearGradient5240"/><radialGradient id="radialGradient6846" cx="140.144" cy="926.999" r="29.886" fx="140.144" fy="926.999" gradientTransform="matrix(1.992599,0.000000,0.000000,0.783354,189.0214,-396.9763)" gradientUnits="userSpaceOnUse" xlink:href="#linearGradient5240"/><radialGradient id="radialGradient6848" cx="140.144" cy="926.999" r="29.886" fx="140.144" fy="926.999" gradientTransform="matrix(1.992599,0.000000,0.000000,0.783354,161.1440,-414.9617)" gradientUnits="userSpaceOnUse" xlink:href="#linearGradient5240"/><linearGradient id="linearGradient6856" x1="145.914" x2="143.019" y1="844.268" y2="869.145" gradientTransform="matrix(1.828074,0.000000,0.000000,0.853855,215.2802,-425.9328)" gradientUnits="userSpaceOnUse" xlink:href="#linearGradient5240"/><radialGradient id="radialGradient6858" cx="140.144" cy="926.999" r="29.886" fx="140.144" fy="926.999" gradientTransform="matrix(1.992599,0.000000,0.000000,0.783354,242.9777,-416.4006)" gradientUnits="userSpaceOnUse" xlink:href="#linearGradient5240"/><radialGradient id="radialGradient6860" cx="140.144" cy="926.999" r="29.886" fx="140.144" fy="926.999" gradientTransform="matrix(1.992599,0.000000,0.000000,0.783354,215.1002,-434.3860)" gradientUnits="userSpaceOnUse" xlink:href="#linearGradient5240"/><linearGradient id="linearGradient9920" x1="301.247" x2="305.454" y1="643.704" y2="649.388" gradientTransform="matrix(2.121035,0.000000,0.000000,0.735919,-76.35365,-314.6776)" gradientUnits="userSpaceOnUse" xlink:href="#linearGradient9914"/><linearGradient id="linearGradient9928" x1="1921.688" x2="1973.606" y1="126.164" y2="126.164" gradientTransform="matrix(0.328706,0.000000,0.000000,4.748639,-76.35365,-314.4232)" gradientUnits="userSpaceOnUse" xlink:href="#linearGradient9914"/><linearGradient id="linearGradient13730" x1="1921.688" x2="1973.606" y1="126.164" y2="126.164" gradientTransform="matrix(0.328706,0.000000,0.000000,4.748639,-76.35365,-374.2684)" gradientUnits="userSpaceOnUse" xlink:href="#linearGradient14490"/><linearGradient id="linearGradient15256" x1="1921.688" x2="1973.606" y1="126.164" y2="126.164" gradientTransform="matrix(0.328706,0.000000,0.000000,4.748639,-76.35365,-421.5779)" gradientUnits="userSpaceOnUse" xlink:href="#linearGradient16016"/><linearGradient id="linearGradient16024" x1="1921.688" x2="1973.606" y1="126.164" y2="126.164" gradientTransform="matrix(0.328706,0.000000,0.000000,4.748639,-76.09931,-468.8875)" gradientUnits="userSpaceOnUse" xlink:href="#linearGradient14490"/><linearGradient id="linearGradient19088" x1="218.578" x2="266.84" y1="833.099" y2="923.527" gradientTransform="matrix(2.018500,0.000000,0.000000,0.773303,-76.22648,-314.5504)" gradientUnits="userSpaceOnUse" xlink:href="#linearGradient16016"/><linearGradient id="linearGradient19854" x1="317.234" x2="335.644" y1="413.116" y2="413.116" gradientTransform="matrix(0.859220,0.000000,0.000000,1.816660,-76.35365,-314.4232)" gradientUnits="userSpaceOnUse" xlink:href="#linearGradient16016"/><linearGradient id="linearGradient20620" x1="228.388" x2="253.821" y1="828.659" y2="936.754" gradientTransform="matrix(1.986751,0.000000,0.000000,0.785660,-76.35365,-314.4232)" gradientUnits="userSpaceOnUse" xlink:href="#linearGradient16016"/><linearGradient id="linearGradient21386" x1="141.198" x2="323.162" y1="883.783" y2="883.783" gradientTransform="matrix(1.991585,0.000000,0.000000,0.783754,-76.35365,-314.4232)" gradientUnits="userSpaceOnUse" xlink:href="#linearGradient16016"/><linearGradient id="linearGradient22152" x1="202.581" x2="268.47" y1="774.935" y2="877.543" gradientTransform="matrix(1.904638,0.000000,0.000000,0.819532,-76.35365,-314.4232)" gradientUnits="userSpaceOnUse" xlink:href="#linearGradient16016"/><linearGradient id="linearGradient22156" x1="228.388" x2="253.821" y1="828.659" y2="936.754" gradientTransform="matrix(1.986751,0.000000,0.000000,0.785660,-75.99397,-338.5237)" gradientUnits="userSpaceOnUse" xlink:href="#linearGradient16016"/><linearGradient id="linearGradient22170" x1="228.388" x2="253.821" y1="828.659" y2="936.754" gradientTransform="matrix(1.986751,0.000000,0.000000,0.785660,-139.5977,-365.3738)" gradientUnits="userSpaceOnUse" xlink:href="#linearGradient16016"/><linearGradient id="linearGradient22172" x1="317.234" x2="335.644" y1="413.116" y2="413.116" gradientTransform="matrix(0.859220,0.000000,0.000000,1.816660,-139.9574,-341.2733)" gradientUnits="userSpaceOnUse" xlink:href="#linearGradient16016"/><linearGradient id="linearGradient22174" x1="141.198" x2="323.162" y1="883.783" y2="883.783" gradientTransform="matrix(1.991585,0.000000,0.000000,0.783754,-139.9574,-341.2733)" gradientUnits="userSpaceOnUse" xlink:href="#linearGradient16016"/><linearGradient id="linearGradient22176" x1="202.581" x2="268.47" y1="774.935" y2="877.543" gradientTransform="matrix(1.904638,0.000000,0.000000,0.819532,-139.9574,-341.2733)" gradientUnits="userSpaceOnUse" xlink:href="#linearGradient16016"/><linearGradient id="linearGradient22178" x1="228.388" x2="253.821" y1="828.659" y2="936.754" gradientTransform="matrix(1.986751,0.000000,0.000000,0.785660,-139.9574,-341.2733)" gradientUnits="userSpaceOnUse" xlink:href="#linearGradient16016"/><linearGradient id="linearGradient22180" x1="218.578" x2="266.84" y1="833.099" y2="923.527" gradientTransform="matrix(2.018500,0.000000,0.000000,0.773303,-139.8302,-341.4005)" gradientUnits="userSpaceOnUse" xlink:href="#linearGradient16016"/></defs><metadata id="metadata4"/><g id="layer1"><rect id="rect14198" width="379.174" height="379.174" x="561.803" y="179.123" ry="0" transform="matrix(0.932062,0.362299,-0.932062,0.362299,0.000000,0.000000)" style="fill:#269300;fill-opacity:1;fill-rule:nonzero;stroke:none;stroke-width:2.8449318;stroke-linecap:round;stroke-linejoin:round;stroke-miterlimit:4;stroke-opacity:1"/><path id="path1399" d="M 242.16825,498.74639 L 228.31948,461.87628 L 118.60839,418.17169 L 90.371259,439.39450 L 242.16825,498.74639 z" style="fill:url(#linearGradient4476);fill-opacity:1;fill-rule:evenodd;stroke:#000;stroke-width:1.2493637px;stroke-linecap:round;stroke-linejoin:round;stroke-opacity:1"/><path id="path1401" d="M 593.78333,360.07877 L 581.91296,324.82734 L 228.31950,461.87628 L 241.98841,498.92626 L 593.78333,360.07877 z" style="fill:url(#linearGradient3696);fill-opacity:1;fill-rule:evenodd;stroke:#000;stroke-width:1.2493637px;stroke-linecap:round;stroke-linejoin:round;stroke-opacity:1"/><path id="path1403" d="M 227.95977,462.23599 L 581.91294,324.82734 L 474.00038,282.38173 L 118.60838,418.35155 L 227.95977,462.23599 z" style="fill:url(#linearGradient2930);fill-opacity:1;fill-rule:evenodd;stroke:#000;stroke-width:1.2493637px;stroke-linecap:round;stroke-linejoin:round;stroke-opacity:1"/><path id="path4478" d="M 243.60710,446.58867 L 275.26145,434.35859 L 174.18336,394.79064 L 141.09018,405.58189 L 243.60710,446.58867 z" style="fill:url(#radialGradient5248);fill-opacity:1;fill-rule:evenodd;stroke:#6d4e24;stroke-width:1.2493637px;stroke-linecap:round;stroke-linejoin:round;stroke-opacity:1"/><path id="path6034" d="M 243.60708,453.42313 L 275.26144,441.01320 L 275.62114,434.53844 L 243.60708,446.94839 L 243.60708,453.42313 z" style="fill:url(#radialGradient6036);fill-opacity:1;fill-rule:evenodd;stroke:#6d4e24;stroke-width:1.2493637px;stroke-linecap:round;stroke-linejoin:round;stroke-opacity:1"/><path id="path6038" d="M 140.91031,412.14658 L 243.24738,452.97350 L 243.60708,446.49875 L 140.91031,405.67184 L 140.91031,412.14658 z" style="fill:url(#linearGradient6800);fill-opacity:1;fill-rule:evenodd;stroke:#6d4e24;stroke-width:1.2493637px;stroke-linecap:round;stroke-linejoin:round;stroke-opacity:1"/><path id="path6802" d="M 305.02734,422.84792 L 336.68169,410.61784 L 235.60360,371.04990 L 202.51042,381.84115 L 305.02734,422.84792 z" style="fill:url(#radialGradient6812);fill-opacity:1;fill-rule:evenodd;stroke:#6d4e24;stroke-width:1.2493637px;stroke-linecap:round;stroke-linejoin:round;stroke-opacity:1"/><path id="path6804" d="M 305.02732,429.68238 L 336.68168,417.27245 L 337.04138,410.79770 L 305.02732,423.20764 L 305.02732,429.68238 z" style="fill:url(#radialGradient6810);fill-opacity:1;fill-rule:evenodd;stroke:#6d4e24;stroke-width:1.2493637px;stroke-linecap:round;stroke-linejoin:round;stroke-opacity:1"/><path id="path6806" d="M 202.33055,388.40583 L 304.66762,429.23276 L 305.02732,422.75801 L 202.33055,381.93109 L 202.33055,388.40583 z" style="fill:url(#linearGradient6808);fill-opacity:1;fill-rule:evenodd;stroke:#6d4e24;stroke-width:1.2493637px;stroke-linecap:round;stroke-linejoin:round;stroke-opacity:1"/><path id="path6814" d="M 369.05545,397.66830 L 400.70980,385.43822 L 299.63171,345.87027 L 266.53853,356.66152 L 369.05545,397.66830 z" style="fill:url(#radialGradient6824);fill-opacity:1;fill-rule:evenodd;stroke:#6d4e24;stroke-width:1.2493637px;stroke-linecap:round;stroke-linejoin:round;stroke-opacity:1"/><path id="path6816" d="M 369.05544,404.50276 L 400.70979,392.09283 L 401.06949,385.61807 L 369.05544,398.02802 L 369.05544,404.50276 z" style="fill:url(#radialGradient6822);fill-opacity:1;fill-rule:evenodd;stroke:#6d4e24;stroke-width:1.2493637px;stroke-linecap:round;stroke-linejoin:round;stroke-opacity:1"/><path id="path6818" d="M 266.35866,363.22621 L 368.69573,404.05314 L 369.05544,397.57838 L 266.35866,356.75147 L 266.35866,363.22621 z" style="fill:url(#linearGradient6820);fill-opacity:1;fill-rule:evenodd;stroke:#6d4e24;stroke-width:1.2493637px;stroke-linecap:round;stroke-linejoin:round;stroke-opacity:1"/><path id="path6826" d="M 430.20590,373.92755 L 461.86025,361.69747 L 360.78216,322.12953 L 327.68898,332.92078 L 430.20590,373.92755 z" style="fill:url(#radialGradient6836);fill-opacity:1;fill-rule:evenodd;stroke:#6d4e24;stroke-width:1.2493637px;stroke-linecap:round;stroke-linejoin:round;stroke-opacity:1"/><path id="path6828" d="M 430.20589,380.76201 L 461.86024,368.35208 L 462.21995,361.87733 L 430.20589,374.28727 L 430.20589,380.76201 z" style="fill:url(#radialGradient6834);fill-opacity:1;fill-rule:evenodd;stroke:#6d4e24;stroke-width:1.2493637px;stroke-linecap:round;stroke-linejoin:round;stroke-opacity:1"/><path id="path6830" d="M 327.50911,339.48546 L 429.84619,380.31239 L 430.20589,373.83764 L 327.50911,333.01072 L 327.50911,339.48546 z" style="fill:url(#linearGradient6832);fill-opacity:1;fill-rule:evenodd;stroke:#6d4e24;stroke-width:1.2493637px;stroke-linecap:round;stroke-linejoin:round;stroke-opacity:1"/><path id="path6838" d="M 492.07576,349.46739 L 523.73012,337.23731 L 422.65203,297.66936 L 389.55884,308.46061 L 492.07576,349.46739 z" style="fill:url(#radialGradient6848);fill-opacity:1;fill-rule:evenodd;stroke:#6d4e24;stroke-width:1.2493637px;stroke-linecap:round;stroke-linejoin:round;stroke-opacity:1"/><path id="path6842" d="M 389.37897,315.02529 L 491.71605,355.85222 L 492.07575,349.37747 L 389.37897,308.55055 L 389.37897,315.02529 z" style="fill:url(#linearGradient6844);fill-opacity:1;fill-rule:evenodd;stroke:#6d4e24;stroke-width:1.2493637px;stroke-linecap:round;stroke-linejoin:round;stroke-opacity:1"/><path id="path6850" d="M 546.03203,330.04312 L 577.68638,317.81304 L 476.60829,278.24509 L 443.51511,289.03634 L 546.03203,330.04312 z" style="fill:url(#radialGradient6860);fill-opacity:1;fill-rule:evenodd;stroke:#6d4e24;stroke-width:1.2493637px;stroke-linecap:round;stroke-linejoin:round;stroke-opacity:1"/><path id="path6854" d="M 443.33524,295.60103 L 545.67231,336.42796 L 546.03202,329.95320 L 443.33524,289.12629 L 443.33524,295.60103 z" style="fill:url(#linearGradient6856);fill-opacity:1;fill-rule:evenodd;stroke:#6d4e24;stroke-width:1.2493637px;stroke-linecap:round;stroke-linejoin:round;stroke-opacity:1"/><path id="path17554" d="M 197.33188,419.84305 L 211.54037,424.51927 L 566.93237,288.00989 L 552.54404,283.69339 L 197.33188,419.84305 z" style="fill:url(#linearGradient19088);fill-opacity:1;fill-rule:evenodd;stroke:#000;stroke-width:1.2493637px;stroke-linecap:round;stroke-linejoin:round;stroke-opacity:1"/><path id="path17558" d="M 211.41318,449.28648 L 566.80519,311.87782 L 566.80519,314.03607 L 211.23334,452.16414 L 211.41318,449.28648 z" style="fill:url(#linearGradient20620);fill-opacity:1;fill-rule:evenodd;stroke:#000;stroke-width:1.2493637px;stroke-linecap:round;stroke-linejoin:round;stroke-opacity:1"/><path id="path17560" d="M 205.47799,444.96998 L 204.93843,429.32265 L 561.04986,292.45357 L 559.61101,306.84191 L 205.47799,444.96998 z" style="fill:url(#linearGradient22152);fill-opacity:1;fill-rule:evenodd;stroke:#000;stroke-width:1.2493637px;stroke-linecap:round;stroke-linejoin:round;stroke-opacity:1"/><path id="path17562" d="M 205.65785,444.79012 L 211.59304,449.64619 L 566.62534,311.51812 L 560.33044,307.56132 L 205.65785,444.79012 z" style="fill:url(#linearGradient21386);fill-opacity:1;fill-rule:evenodd;stroke:#000;stroke-width:1.2493637px;stroke-linecap:round;stroke-linejoin:round;stroke-opacity:1"/><path id="path16790" d="M 196.84499,446.40881 L 211.23332,452.16414 L 211.23332,449.28648 L 205.29813,445.14983 L 204.93842,428.96295 L 211.41318,428.78310 L 211.41318,424.64645 L 197.20469,419.97023 L 197.38455,424.64646 L 202.96003,427.70396 L 203.31974,444.43041 L 197.02484,443.89086 L 196.84499,446.40881 z" style="fill:url(#linearGradient19854);fill-opacity:1;fill-rule:evenodd;stroke:#000;stroke-width:1.2493637px;stroke-linecap:round;stroke-linejoin:round;stroke-opacity:1"/><path id="path22154" d="M 211.41320,424.28674 L 567.16490,287.77735 L 567.16490,291.20736 L 211.28602,428.98476 L 211.41320,424.28674 z" style="fill:url(#linearGradient22156);fill-opacity:1;fill-rule:evenodd;stroke:#000;stroke-width:1.2493637px;stroke-linecap:round;stroke-linejoin:round;stroke-opacity:1"/><path id="path6840" d="M 492.07575,356.30184 L 523.73010,343.89192 L 524.08981,337.41716 L 492.07575,349.82711 L 492.07575,356.30184 z" style="fill:url(#radialGradient6846);fill-opacity:1;fill-rule:evenodd;stroke:#6d4e24;stroke-width:1.2493637px;stroke-linecap:round;stroke-linejoin:round;stroke-opacity:1"/><path id="path22158" d="M 133.72811,392.99298 L 147.93660,397.66920 L 503.32861,261.15982 L 488.94027,256.84332 L 133.72811,392.99298 z" style="fill:url(#linearGradient22180);fill-opacity:1;fill-rule:evenodd;stroke:#000;stroke-width:1.2493637px;stroke-linecap:round;stroke-linejoin:round;stroke-opacity:1"/><path id="path22160" d="M 147.80942,422.43641 L 503.20142,285.02775 L 503.20142,287.18600 L 147.62957,425.31407 L 147.80942,422.43641 z" style="fill:url(#linearGradient22178);fill-opacity:1;fill-rule:evenodd;stroke:#000;stroke-width:1.2493637px;stroke-linecap:round;stroke-linejoin:round;stroke-opacity:1"/><path id="path22162" d="M 141.87423,418.11991 L 141.33466,402.47258 L 497.44609,265.60349 L 496.00725,279.99184 L 141.87423,418.11991 z" style="fill:url(#linearGradient22176);fill-opacity:1;fill-rule:evenodd;stroke:#000;stroke-width:1.2493637px;stroke-linecap:round;stroke-linejoin:round;stroke-opacity:1"/><path id="path22164" d="M 142.05409,417.94005 L 147.98928,422.79611 L 503.02158,284.66804 L 496.72667,280.71125 L 142.05409,417.94005 z" style="fill:url(#linearGradient22174);fill-opacity:1;fill-rule:evenodd;stroke:#000;stroke-width:1.2493637px;stroke-linecap:round;stroke-linejoin:round;stroke-opacity:1"/><path id="path22166" d="M 133.24122,419.55874 L 147.62956,425.31407 L 147.62956,422.43641 L 141.69437,418.29975 L 141.33465,402.11287 L 147.80942,401.93303 L 147.80942,397.79637 L 133.60093,393.12015 L 133.78079,397.79638 L 139.35626,400.85389 L 139.71598,417.58033 L 133.42107,417.04078 L 133.24122,419.55874 z" style="fill:url(#linearGradient22172);fill-opacity:1;fill-rule:evenodd;stroke:#000;stroke-width:1.2493637px;stroke-linecap:round;stroke-linejoin:round;stroke-opacity:1"/><path id="path22168" d="M 147.80943,397.43667 L 503.56114,260.92727 L 503.56114,264.35729 L 147.68226,402.13469 L 147.80943,397.43667 z" style="fill:url(#linearGradient22170);fill-opacity:1;fill-rule:evenodd;stroke:#000;stroke-width:1.2493637px;stroke-linecap:round;stroke-linejoin:round;stroke-opacity:1"/><path id="path6852" d="M 546.03202,336.87758 L 577.68637,324.46765 L 578.04607,317.99289 L 546.03202,330.40284 L 546.03202,336.87758 z" style="fill:url(#radialGradient6858);fill-opacity:1;fill-rule:evenodd;stroke:#6d4e24;stroke-width:1.2493637px;stroke-linecap:round;stroke-linejoin:round;stroke-opacity:1"/><path id="path7620" d="M 555.96626,405.21633 C 561.68919,408.32387 568.04799,407.61612 571.60893,405.38226 L 571.73610,162.06222 C 566.86102,164.28781 561.92234,164.28781 555.96626,162.06222 L 555.96626,405.21633 z" style="fill:url(#linearGradient9928);fill-opacity:1;fill-rule:evenodd;stroke:#000;stroke-width:1.2960637px;stroke-linecap:round;stroke-linejoin:round;stroke-opacity:1"/><path id="path7624" d="M 555.83909,161.50594 C 559.56959,164.09186 566.47949,164.51578 571.73610,161.88748 C 568.64148,158.41133 559.44241,157.73305 555.83909,161.50594 z" style="fill:url(#linearGradient9920);fill-opacity:1;fill-rule:evenodd;stroke:#000;stroke-width:1.2493637px;stroke-linecap:round;stroke-linejoin:round;stroke-opacity:1"/><path id="path13728" d="M 555.96626,345.37116 C 561.68919,348.47870 568.04799,347.77095 571.60893,345.53709 L 571.73610,298.57705 C 566.86102,300.80264 561.92234,300.80264 555.96626,298.57705 L 555.96626,345.37116 z" style="fill:url(#linearGradient13730);fill-opacity:1;fill-rule:evenodd;stroke:#000;stroke-width:1.2960637px;stroke-linecap:round;stroke-linejoin:round;stroke-opacity:1"/><path id="path15254" d="M 555.96626,298.06165 C 561.68919,301.16919 568.04799,300.46144 571.60893,298.22758 L 571.73610,251.26753 C 566.86102,253.49312 561.92234,253.49312 555.96626,251.26753 L 555.96626,298.06165 z" style="fill:url(#linearGradient15256);fill-opacity:1;fill-rule:evenodd;stroke:#000;stroke-width:1.2960637px;stroke-linecap:round;stroke-linejoin:round;stroke-opacity:1"/><path id="path16022" d="M 556.22062,250.75211 C 561.94355,253.85965 568.30235,253.15190 571.86329,250.91803 L 571.99046,203.95799 C 567.11538,206.18358 562.17670,206.18358 556.22062,203.95799 L 556.22062,250.75211 z" style="fill:url(#linearGradient16024);fill-opacity:1;fill-rule:evenodd;stroke:#000;stroke-width:1.2960637px;stroke-linecap:round;stroke-linejoin:round;stroke-opacity:1"/><path id="path7622" d="M 521.62870,164.30381 C 526.20704,166.33864 593.10169,206.27195 593.10169,206.27195 L 584.45372,223.05920 L 512.21767,178.29319 C 505.70206,184.90636 491.30378,186.20676 481.14303,178.10056 C 471.13693,170.11775 468.67737,152.53325 476.80097,142.93822 C 484.90203,133.36983 498.49781,129.83853 508.69507,135.66735 C 518.97073,141.54098 523.81750,152.20275 521.62870,164.30381 z" style="fill:#c92d0d;fill-opacity:1;fill-rule:evenodd;stroke:#000;stroke-width:1.2493637px;stroke-linecap:round;stroke-linejoin:round;stroke-opacity:1"/><path id="path9930" d="M 442.52287 383.82730 A 20.297894 20.297894 0 1 1 401.92708,383.82730 A 20.297894 20.297894 0 1 1 442.52287 383.82730 z" transform="matrix(0.925074,0.000000,0.000000,0.925074,106.3423,-196.6966)" style="fill:#fff;fill-opacity:1;stroke:#000;stroke-linecap:round;stroke-linejoin:round;stroke-opacity:1"/><path id="path12210" d="M 520.05895,167.68489 L 588.22536,207.93428 L 583.09468,217.20910 L 514.89739,175.24097 C 517.51718,172.90213 519.23770,170.56330 520.05895,167.68489 z" style="fill:#fff;fill-opacity:1;fill-rule:evenodd;stroke:#000;stroke-width:1.2493637px;stroke-linecap:round;stroke-linejoin:round;stroke-opacity:1"/><path id="path16784" d="M 512.75967,234.98216 C 517.74269,234.46135 595.64035,235.69340 595.64035,235.69340 L 596.52134,254.55668 L 511.58340,251.80140 C 509.23622,260.78348 497.40689,269.09421 484.55672,267.13856 C 471.90215,265.21268 460.99713,251.20037 463.25012,238.83180 C 465.49688,226.49756 475.51767,216.65384 487.26323,216.61761 C 499.09907,216.58110 508.61898,223.40282 512.75967,234.98216 z" style="fill:#c92d0d;fill-opacity:1;fill-rule:evenodd;stroke:#000;stroke-width:1.2493637px;stroke-linecap:round;stroke-linejoin:round;stroke-opacity:1"/><path id="path16786" d="M 442.52287 383.82730 A 20.297894 20.297894 0 1 1 401.92708,383.82730 A 20.297894 20.297894 0 1 1 442.52287 383.82730 z" transform="matrix(0.801708,-0.461549,0.461549,0.801708,-27.25919,129.3234)" style="fill:#fff;fill-opacity:1;stroke:#000;stroke-linecap:round;stroke-linejoin:round;stroke-opacity:1"/><path id="path16788" d="M 513.08617,238.69555 L 592.24371,239.56700 L 592.42474,250.16481 L 512.38292,247.81923 C 513.48642,244.48520 513.81058,241.59984 513.08617,238.69555 z" style="fill:#fff;fill-opacity:1;fill-rule:evenodd;stroke:#000;stroke-width:1.2493637px;stroke-linecap:round;stroke-linejoin:round;stroke-opacity:1"/></g></svg>