<svg xmlns="http://www.w3.org/2000/svg" xmlns:cc="http://web.resource.org/cc/" xmlns:xlink="http://www.w3.org/1999/xlink" id="svg14185" width="755.906" height="755.906"><defs id="defs3"><linearGradient id="linearGradient17318"><stop style="stop-color:#000;stop-opacity:1" id="stop17319" offset="0"/><stop style="stop-color:#888;stop-opacity:1" id="stop17321" offset=".5"/><stop style="stop-color:#000;stop-opacity:1" id="stop17320" offset="1"/></linearGradient><linearGradient id="linearGradient17317" x1="233.243" x2="92.437" y1="1027.519" y2="891.194" gradientTransform="matrix(2.822330,0.000000,0.000000,1.091623,-230.3307,-642.7216)" gradientUnits="userSpaceOnUse" xlink:href="#linearGradient17318"/></defs><metadata id="metadata4"/><g id="layer1"><path style="fill:#269300;fill-opacity:1;fill-rule:nonzero;stroke:none;stroke-width:2.8449318;stroke-linecap:round;stroke-linejoin:round;stroke-miterlimit:4;stroke-opacity:1" id="rect14198" d="M 378.04876,176.14943 L 711.16710,306.05153 L 711.16730,432.34257 L 377.14606,563.95493 L -0.20751388,416.90041 L 0.69504772,324.01145 L 378.04876,176.14943 z"/><path style="fill:url(#linearGradient17317);fill-opacity:1;stroke:none;stroke-width:1.2250757;stroke-linecap:round;stroke-linejoin:round;stroke-miterlimit:4;stroke-opacity:1" id="rect14199" d="M 500.41775,223.22939 L -0.81712104,417.40441 L 213.21421,499.90137 L 714.50393,305.72635 L 500.41775,223.22939 z"/><path style="fill:#f3ff00;fill-opacity:1;stroke:none;stroke-width:1.2250757;stroke-linecap:round;stroke-linejoin:round;stroke-miterlimit:4;stroke-opacity:1" id="path16066" d="M 148.29519,434.94631 L 96.993313,454.82031 L 118.89963,463.26396 L 170.20714,443.38993 L 148.29519,434.94631 z"/><path style="fill:#f3ff00;fill-opacity:1;stroke:none;stroke-width:1.2250757;stroke-linecap:round;stroke-linejoin:round;stroke-miterlimit:4;stroke-opacity:1" id="path16688" d="M 238.19165,397.42515 L 186.88978,417.29917 L 208.79609,425.74282 L 260.10361,405.86879 L 238.19165,397.42515 z"/><path style="fill:#f3ff00;fill-opacity:1;stroke:none;stroke-width:1.2250757;stroke-linecap:round;stroke-linejoin:round;stroke-miterlimit:4;stroke-opacity:1" id="path16689" d="M 331.99457,358.56395 L 280.69268,378.43796 L 302.59900,386.88161 L 353.90650,367.00758 L 331.99457,358.56395 z"/><path style="fill:#f3ff00;fill-opacity:1;stroke:none;stroke-width:1.2250757;stroke-linecap:round;stroke-linejoin:round;stroke-miterlimit:4;stroke-opacity:1" id="path16690" d="M 416.86383,322.82952 L 365.56196,342.70352 L 387.46827,351.14717 L 438.77578,331.27315 L 416.86383,322.82952 z"/><path style="fill:#f3ff00;fill-opacity:1;stroke:none;stroke-width:1.2250757;stroke-linecap:round;stroke-linejoin:round;stroke-miterlimit:4;stroke-opacity:1" id="path16691" d="M 506.19994,287.09507 L 454.89806,306.96909 L 476.80437,315.41274 L 528.11188,295.53871 L 506.19994,287.09507 z"/><path style="fill:#f3ff00;fill-opacity:1;stroke:none;stroke-width:1.2250757;stroke-linecap:round;stroke-linejoin:round;stroke-miterlimit:4;stroke-opacity:1" id="path16692" d="M 583.92232,254.93407 L 532.62045,274.80808 L 554.52676,283.25173 L 605.83427,263.37770 L 583.92232,254.93407 z"/></g></svg>