<?xml version="1.0" encoding="UTF-8" standalone="no"?>
<!DOCTYPE svg PUBLIC "-//W3C//DTD SVG 20010904//EN"
"http://www.w3.org/TR/2001/REC-SVG-20010904/DTD/svg10.dtd">
<!-- Created with Inkscape (http://www.inkscape.org/) -->
<svg
   width="708.66138"
   height="708.66138"
   id="svg1"
   sodipodi:version="0.32"
   inkscape:version="0.40"
   sodipodi:docbase="/home/egore/workspace/lincity-images"
   sodipodi:docname="book.svg"
   version="1.0"
   x="0.0000000"
   y="0.0000000"
   inkscape:export-filename="/home/egore/workspace/lincity-images/book.png"
   inkscape:export-xdpi="4.0599999"
   inkscape:export-ydpi="4.0599999"
   xmlns="http://www.w3.org/2000/svg"
   xmlns:cc="http://web.resource.org/cc/"
   xmlns:inkscape="http://www.inkscape.org/namespaces/inkscape"
   xmlns:sodipodi="http://sodipodi.sourceforge.net/DTD/sodipodi-0.dtd"
   xmlns:rdf="http://www.w3.org/1999/02/22-rdf-syntax-ns#"
   xmlns:dc="http://purl.org/dc/elements/1.1/"
   xmlns:xlink="http://www.w3.org/1999/xlink">
  <defs
     id="defs3">
    <linearGradient
       id="linearGradient13521">
      <stop
         style="stop-color:#bce3db;stop-opacity:1.0000000;"
         offset="0.0000000"
         id="stop13522" />
      <stop
         style="stop-color:#30e300;stop-opacity:1.0000000;"
         offset="1.0000000"
         id="stop13523" />
    </linearGradient>
    <linearGradient
       id="linearGradient11020">
      <stop
         style="stop-color:#fffdd3;stop-opacity:1.0000000;"
         offset="0.0000000"
         id="stop11021" />
      <stop
         style="stop-color:#ece883;stop-opacity:1.0000000;"
         offset="1.0000000"
         id="stop11022" />
    </linearGradient>
    <linearGradient
       xlink:href="#linearGradient11020"
       id="linearGradient11019"
       gradientTransform="matrix(2.283353,0.000000,0.000000,0.527444,-37.06408,-40.87931)"
       x1="150.00792"
       y1="759.24591"
       x2="181.22377"
       y2="1096.8516"
       gradientUnits="userSpaceOnUse" />
    <linearGradient
       xlink:href="#linearGradient13521"
       id="linearGradient13520"
       gradientTransform="matrix(1.069299,0.000000,0.000000,1.126290,-37.06408,-40.87931)"
       x1="334.88568"
       y1="283.50818"
       x2="329.13803"
       y2="298.39987"
       gradientUnits="userSpaceOnUse" />
  </defs>
  <sodipodi:namedview
     id="base"
     pagecolor="#ffffff"
     bordercolor="#666666"
     borderopacity="1.0"
     inkscape:pageopacity="0.0"
     inkscape:pageshadow="2"
     inkscape:zoom="0.86831673"
     inkscape:cx="398.27130"
     inkscape:cy="337.93846"
     inkscape:current-layer="layer1"
     showguides="true"
     inkscape:guide-bbox="true"
     inkscape:window-width="1258"
     inkscape:window-height="994"
     inkscape:window-x="12"
     inkscape:window-y="5" />
  <metadata
     id="metadata4">
    <rdf:RDF
       id="RDF5">
      <cc:Work
         rdf:about=""
         id="Work6">
        <dc:format
           id="format7">image/svg+xml</dc:format>
        <dc:type
           id="type9"
           rdf:resource="http://purl.org/dc/dcmitype/StillImage" />
      </cc:Work>
    </rdf:RDF>
  </metadata>
  <g
     inkscape:label="Layer 1"
     inkscape:groupmode="layer"
     id="layer1">
    <path
       style="fill:#c11d16;fill-opacity:1.0000000;fill-rule:evenodd;stroke:#000000;stroke-width:4.1153431;stroke-linecap:round;stroke-linejoin:round;stroke-miterlimit:4.0000000;stroke-opacity:1.0000000"
       d="M 9.5326760,490.52669 L 292.88541,519.40545 C 280.68004,539.36242 422.50678,535.62215 405.56197,517.66353 L 699.13825,483.80364 L 639.88561,264.03263 L 164.77381,267.65795 L 9.5326760,490.52669 z "
       id="path1062"
       sodipodi:nodetypes="ccccccc"
       inkscape:export-filename="/home/egore/workspace/book.png"
       inkscape:export-xdpi="8.3000002"
       inkscape:export-ydpi="8.3000002" />
    <path
       style="fill:#f2e37d;fill-opacity:1.0000000;fill-rule:evenodd;stroke:none;stroke-width:0.25000000pt;stroke-linecap:butt;stroke-linejoin:miter;stroke-opacity:1.0000000"
       d="M 23.758903,483.66228 L 290.74786,512.09897 L 327.87354,415.73019 L 55.355226,434.68798 L 23.758903,483.66228 z "
       id="path2930"
       sodipodi:nodetypes="ccccc"
       inkscape:export-filename="/home/egore/workspace/book.png"
       inkscape:export-xdpi="8.3000002"
       inkscape:export-ydpi="8.3000002" />
    <path
       style="fill:#f2e37d;fill-opacity:1.0000000;fill-rule:evenodd;stroke:none;stroke-width:0.25000000pt;stroke-linecap:butt;stroke-linejoin:miter;stroke-opacity:1.0000000"
       d="M 688.07167,477.34301 L 671.48358,396.77238 L 410.02400,456.80540 L 402.91483,510.51916 L 688.07167,477.34301 z "
       id="path2931"
       sodipodi:nodetypes="ccccc"
       inkscape:export-filename="/home/egore/workspace/book.png"
       inkscape:export-xdpi="8.3000002"
       inkscape:export-ydpi="8.3000002" />
    <path
       style="fill:#fffdd3;fill-opacity:1.0000000;fill-rule:evenodd;stroke:#000000;stroke-width:4.1153431;stroke-linecap:round;stroke-linejoin:round;stroke-miterlimit:4.0000000;stroke-opacity:1.0000000"
       d="M 357.89006,501.83017 L 685.70194,366.75587 C 678.85606,289.87148 660.16157,223.25590 639.09735,185.86690 C 560.10654,206.93113 474.79646,187.71003 395.01574,260.90818 C 347.88454,201.13847 265.99741,172.17516 180.16072,179.54764 C 127.76348,243.53020 91.164403,321.73112 46.666240,392.82285 L 357.89006,501.83017 z "
       id="path1685"
       sodipodi:nodetypes="ccccccc"
       inkscape:export-filename="/home/egore/workspace/book.png"
       inkscape:export-xdpi="8.3000002"
       inkscape:export-ydpi="8.3000002" />
    <path
       style="fill:none;fill-opacity:0.75000000;fill-rule:evenodd;stroke:#000000;stroke-width:4.1153431;stroke-linecap:round;stroke-linejoin:round;stroke-miterlimit:4.0000000;stroke-opacity:1.0000000"
       d="M 396.59555,258.53846 L 357.89006,494.72099"
       id="path2308"
       sodipodi:nodetypes="cc"
       inkscape:export-filename="/home/egore/workspace/book.png"
       inkscape:export-xdpi="8.3000002"
       inkscape:export-ydpi="8.3000002" />
    <path
       style="fill:url(#linearGradient11019);fill-opacity:1.0000000;fill-rule:evenodd;stroke:#000000;stroke-width:4.1153431;stroke-linecap:round;stroke-linejoin:round;stroke-miterlimit:4.0000000;stroke-opacity:1.0000000"
       d="M 46.666241,392.82284 L 45.086424,470.23384 C 138.29559,472.86687 216.49650,490.50814 298.64695,511.30907 L 400.54509,509.72925 C 499.02031,478.39622 590.38636,472.34025 681.75240,470.23384 L 685.70195,366.75587 C 534.30288,364.12284 447.67628,379.65770 357.10015,493.93108 C 274.15979,405.72467 161.20293,393.34945 46.666241,392.82284 z "
       id="path7907"
       sodipodi:nodetypes="cccccccc"
       inkscape:export-filename="/home/egore/workspace/book.png"
       inkscape:export-xdpi="8.3000002"
       inkscape:export-ydpi="8.3000002" />
    <path
       style="fill:url(#linearGradient13520);fill-opacity:1.0000000;fill-rule:evenodd;stroke:#000000;stroke-width:0.27435617pt;stroke-linecap:butt;stroke-linejoin:miter;stroke-opacity:1.0000000"
       d="M 292.18393,227.40484 C 326.55516,236.44428 344.31787,246.51462 371.78121,273.14014 L 357.33972,343.58570 C 326.34023,309.51419 290.54116,302.59809 261.49659,294.49914 L 292.18393,227.40484 z "
       id="path11023"
       sodipodi:nodetypes="ccccc"
       inkscape:export-filename="/home/egore/workspace/book.png"
       inkscape:export-xdpi="8.3000002"
       inkscape:export-ydpi="8.3000002" />
    <path
       style="fill:#e0e0e0;fill-opacity:1.0000000;fill-rule:evenodd;stroke:#000000;stroke-width:0.27435617pt;stroke-linecap:butt;stroke-linejoin:miter;stroke-opacity:1.0000000"
       d="M 307.84024,267.94626 L 344.14595,279.81544 L 344.84414,258.31129 L 318.17341,250.49160 L 307.84024,267.94626 z "
       id="path11031"
       sodipodi:nodetypes="ccccc"
       inkscape:export-filename="/home/egore/workspace/book.png"
       inkscape:export-xdpi="8.3000002"
       inkscape:export-ydpi="8.3000002" />
    <path
       style="fill:#ffe8b3;fill-opacity:1.0000000;fill-rule:evenodd;stroke:#000000;stroke-width:0.27435617pt;stroke-linecap:butt;stroke-linejoin:miter;stroke-opacity:1.0000000"
       d="M 321.52470,256.49601 C 320.82652,257.47346 310.07443,280.51363 310.07443,280.51363 L 336.32626,284.42347 L 338.70010,263.61751 L 321.52470,256.49601 z "
       id="path11030"
       inkscape:export-filename="/home/egore/workspace/book.png"
       inkscape:export-xdpi="8.3000002"
       inkscape:export-ydpi="8.3000002" />
    <path
       style="fill:#000a3c;fill-opacity:1.0000000;fill-rule:evenodd;stroke:#000a3c;stroke-width:0.27435617pt;stroke-linecap:butt;stroke-linejoin:miter;stroke-opacity:1.0000000"
       d="M 287.45320,301.59887 L 294.99360,274.50923 L 344.56487,292.66208 L 333.67315,322.68411 C 317.84760,312.58367 308.30571,308.20837 287.45320,301.59887 z "
       id="path11032"
       sodipodi:nodetypes="ccccc"
       inkscape:export-filename="/home/egore/workspace/book.png"
       inkscape:export-xdpi="8.3000002"
       inkscape:export-ydpi="8.3000002" />
    <path
       style="fill:#000000;fill-opacity:1.0000000;fill-rule:nonzero;stroke:none;stroke-width:1.0000000pt;stroke-linecap:butt;stroke-linejoin:miter;stroke-opacity:1.0000000"
       id="path13524"
       d="M 193.67363,202.19414 C 200.98038,202.70242 208.30534,202.99801 215.61296,203.54333 C 235.78401,205.05311 255.92107,208.59987 274.19655,217.56147 C 277.98626,219.60449 276.15299,218.56570 279.70171,220.66831 L 270.16142,226.81811 C 266.84494,224.64124 268.56554,225.71526 264.99276,223.60705 C 247.10339,214.12569 226.91777,210.75111 206.86004,209.82737 C 198.89960,209.51426 190.90856,209.38880 182.95774,209.97970 L 193.67363,202.19414 z "
       inkscape:export-filename="/home/egore/workspace/book.png"
       inkscape:export-xdpi="8.3000002"
       inkscape:export-ydpi="8.3000002" />
    <path
       style="fill:#000000;fill-opacity:1.0000000;fill-rule:nonzero;stroke:none;stroke-width:1.0000000pt;stroke-linecap:butt;stroke-linejoin:miter;stroke-opacity:1.0000000"
       id="path13527"
       d="M 183.34047,232.07654 C 187.97894,232.42124 192.62879,232.62791 197.26983,232.95505 C 214.61393,234.50124 231.99673,235.85501 249.26562,238.12902 C 254.63808,239.01632 260.66182,239.58647 264.90576,243.36515 L 254.11078,250.03799 C 250.16363,246.61524 244.93759,245.63788 239.91560,244.70890 C 222.78240,241.73314 205.38512,240.34372 188.02587,239.60706 C 182.89275,239.49393 177.74678,239.45091 172.62458,239.86210 L 183.34047,232.07654 z "
       inkscape:export-filename="/home/egore/workspace/book.png"
       inkscape:export-xdpi="8.3000002"
       inkscape:export-ydpi="8.3000002" />
    <path
       style="fill:#000000;fill-opacity:1.0000000;fill-rule:nonzero;stroke:none;stroke-width:1.0000000pt;stroke-linecap:butt;stroke-linejoin:miter;stroke-opacity:1.0000000"
       id="path13529"
       d="M 168.25965,261.12110 C 176.64665,261.56041 188.91674,263.06065 198.28065,264.36427 C 213.70532,266.56878 229.01998,269.46476 244.30407,272.47645 L 236.30740,278.03819 C 221.07199,274.66285 205.71500,271.77769 190.19102,270.09418 C 179.72529,269.01084 167.37816,267.93017 157.54374,268.90667 L 168.25965,261.12110 z "
       inkscape:export-filename="/home/egore/workspace/book.png"
       inkscape:export-xdpi="8.3000002"
       inkscape:export-ydpi="8.3000002" />
    <path
       style="fill:#000000;fill-opacity:1.0000000;fill-rule:nonzero;stroke:none;stroke-width:1.0000000pt;stroke-linecap:butt;stroke-linejoin:miter;stroke-opacity:1.0000000"
       id="path13533"
       d="M 325.37780,377.82379 C 321.12595,372.94964 315.34529,369.49314 309.91527,366.08895 C 290.79983,354.25008 269.56706,346.35511 247.75417,341.18366 C 227.63942,336.53739 206.92967,335.84339 186.37753,335.26021 C 167.96418,334.83564 149.53957,334.63728 131.12340,335.00940 C 128.31191,335.06940 125.50092,335.15371 122.69232,335.29513 L 132.84473,327.90644 C 135.41551,328.00801 137.98713,328.08586 140.55888,328.15811 C 158.61903,328.65057 176.68576,328.77886 194.74701,329.21592 C 215.31813,329.80875 236.09906,330.23282 256.14745,335.38990 C 278.07181,340.99128 299.33352,349.11174 319.13516,360.11366 C 324.28972,362.97439 331.91713,367.73478 336.09371,370.03824 L 325.37780,377.82379 z "
       inkscape:export-filename="/home/egore/workspace/book.png"
       inkscape:export-xdpi="8.3000002"
       inkscape:export-ydpi="8.3000002" />
    <path
       style="fill:#000000;fill-opacity:1.0000000;fill-rule:nonzero;stroke:none;stroke-width:1.0000000pt;stroke-linecap:butt;stroke-linejoin:miter;stroke-opacity:1.0000000"
       id="path13534"
       d="M 228.74876,309.12222 C 222.01118,305.73411 214.26433,303.90772 206.94727,302.03846 C 188.59838,297.81799 169.86334,294.09900 150.95097,294.36675 C 140.71174,294.48320 134.45629,299.52777 150.36825,290.63425 L 138.88714,296.82594 C 136.91903,288.32071 154.54576,287.34294 160.31174,287.58367 C 179.02589,288.34769 197.42435,292.30650 215.73725,295.95732 C 223.42583,297.61685 232.20473,299.84165 239.46465,301.33666 L 228.74876,309.12222 z "
       inkscape:export-filename="/home/egore/workspace/book.png"
       inkscape:export-xdpi="8.3000002"
       inkscape:export-ydpi="8.3000002" />
    <path
       style="fill:#000000;fill-opacity:1.0000000;fill-rule:nonzero;stroke:none;stroke-width:1.0000000pt;stroke-linecap:butt;stroke-linejoin:miter;stroke-opacity:1.0000000"
       id="path13536"
       d="M 97.384014,363.24493 C 97.372897,363.19942 97.361780,363.15391 97.350664,363.10839 C 101.19726,360.92200 104.99637,358.64987 108.89044,356.54920 C 111.66210,355.05401 122.06574,357.80977 124.93212,358.06870 C 136.52778,359.11619 148.11570,360.22995 159.69664,361.42975 C 200.63981,365.94646 241.67414,371.10037 281.73736,380.91188 C 297.13948,385.41055 315.39674,388.87839 326.11434,402.00680 C 328.96044,405.54800 330.32333,409.67746 330.01601,414.16681 C 329.99744,414.41563 329.96283,414.66272 329.93624,414.91067 L 318.23151,420.62552 C 318.28420,420.38300 318.34881,420.14307 318.38959,419.89795 C 319.10167,415.69856 318.22458,411.72397 315.68280,408.22167 C 306.08603,395.20956 288.88959,390.80060 274.34244,385.99953 C 234.90097,374.90038 194.09991,369.40288 153.34469,365.95980 C 141.12796,365.06192 128.91162,364.28843 116.66282,364.01172 C 112.52133,363.91816 108.37566,363.86722 104.23354,363.96248 C 102.27637,364.00748 96.700362,365.40526 98.376316,364.39347 C 102.05561,362.17224 111.85614,361.49250 109.44832,357.78666 L 97.384014,363.24493 z "
       inkscape:export-filename="/home/egore/workspace/book.png"
       inkscape:export-xdpi="8.3000002"
       inkscape:export-ydpi="8.3000002" />
    <path
       style="fill:#000000;fill-opacity:1.0000000;fill-rule:nonzero;stroke:none;stroke-width:1.0000000pt;stroke-linecap:butt;stroke-linejoin:miter;stroke-opacity:1.0000000"
       id="path13539"
       d="M 621.92951,221.47512 C 608.94492,220.69634 595.89037,221.18463 582.90306,221.73413 C 551.68456,222.90455 520.74907,227.68028 490.82024,236.62817 C 470.32021,243.31585 449.92822,250.66960 430.37922,259.82101 C 425.08919,262.72349 408.26705,271.28638 432.35234,258.44813 C 434.21587,257.45481 428.85448,260.82095 427.19127,262.12219 C 423.15760,265.27795 419.61063,268.88119 416.51470,272.95320 L 400.56560,279.81886 C 411.26431,265.59690 427.50924,257.37195 443.18171,249.64663 C 462.47189,240.89357 482.49708,233.74659 502.70998,227.46113 C 532.68550,218.86739 563.58638,214.72950 594.69595,213.06919 C 608.81350,212.15794 622.93918,211.35493 637.05835,210.48337 L 621.92951,221.47512 z "
       inkscape:export-filename="/home/egore/workspace/book.png"
       inkscape:export-xdpi="8.3000002"
       inkscape:export-ydpi="8.3000002" />
    <path
       style="fill:#000000;fill-opacity:1.0000000;fill-rule:nonzero;stroke:none;stroke-width:1.0000000pt;stroke-linecap:butt;stroke-linejoin:miter;stroke-opacity:1.0000000"
       id="path13543"
       d="M 386.86220,434.18190 C 388.45666,429.05164 393.53198,424.85140 397.22036,421.04034 C 424.51949,393.12205 458.01987,372.84196 491.71315,353.69956 C 525.01120,334.96142 561.63864,324.21856 599.79871,323.03074 C 615.14110,322.63727 630.38475,324.54062 645.38008,327.63384 L 632.44147,336.61193 C 617.95284,333.20323 603.13820,331.30004 588.23092,331.48486 C 550.56214,332.42175 514.44454,343.31038 481.64361,361.82720 C 493.92010,354.12785 462.29590,373.71130 462.14332,373.81266 C 449.64159,382.11889 437.63038,391.18830 426.39824,401.15099 C 421.54026,405.45992 416.83029,409.94579 412.40044,414.69565 C 409.28861,418.12984 406.05557,421.92832 403.55260,425.67771 L 386.86220,434.18190 z "
       inkscape:export-filename="/home/egore/workspace/book.png"
       inkscape:export-xdpi="8.3000002"
       inkscape:export-ydpi="8.3000002" />
    <path
       style="fill:#000000;fill-opacity:1.0000000;fill-rule:nonzero;stroke:none;stroke-width:1.0000000pt;stroke-linecap:butt;stroke-linejoin:miter;stroke-opacity:1.0000000"
       id="path13544"
       d="M 395.52312,378.24557 C 406.08928,365.60363 430.92460,354.89825 445.07537,347.44369 C 481.44460,328.84588 519.76323,314.05239 559.28199,303.71256 C 584.96290,297.38642 611.55804,293.34572 638.03548,295.72924 L 624.63158,305.24446 C 599.21880,301.88396 573.44891,306.01135 548.70447,311.81470 C 508.82660,322.02458 470.29055,337.22096 433.89545,356.43866 C 425.24450,361.15091 425.67908,360.99601 435.02257,355.52938 C 436.59620,354.60869 431.86601,357.35510 430.30180,358.29171 C 425.04598,361.43878 416.68205,368.47330 412.21352,369.74138 L 395.52312,378.24557 z "
       inkscape:export-filename="/home/egore/workspace/book.png"
       inkscape:export-xdpi="8.3000002"
       inkscape:export-ydpi="8.3000002" />
    <path
       style="fill:#000000;fill-opacity:1.0000000;fill-rule:nonzero;stroke:none;stroke-width:1.0000000pt;stroke-linecap:butt;stroke-linejoin:miter;stroke-opacity:1.0000000"
       id="path13545"
       d="M 398.52999,342.48257 C 411.33719,332.37716 426.02648,324.74603 440.51567,317.33032 C 480.23085,297.36293 522.58126,283.27038 565.58237,272.33417 C 590.69238,266.65550 616.05974,260.37411 641.89940,259.30037 L 628.51761,269.04893 C 603.97129,268.56913 579.72161,274.64984 555.90220,279.73910 C 512.05002,290.68791 469.04413,305.52791 428.96530,326.60623 C 424.81204,328.83342 405.88162,339.19053 428.16757,326.77244 C 428.43691,326.62236 416.05895,334.37891 415.83443,335.31483 L 398.52999,342.48257 z "
       inkscape:export-filename="/home/egore/workspace/book.png"
       inkscape:export-xdpi="8.3000002"
       inkscape:export-ydpi="8.3000002" />
    <path
       style="fill:#000000;fill-opacity:1.0000000;fill-rule:nonzero;stroke:none;stroke-width:1.0000000pt;stroke-linecap:butt;stroke-linejoin:miter;stroke-opacity:1.0000000"
       id="path13546"
       d="M 415.37417,297.17227 C 370.56329,320.65272 434.45284,286.87455 443.49079,282.92922 C 481.26324,267.40305 520.93688,256.93672 560.60570,247.50637 C 583.75829,242.03744 607.14756,237.65127 630.65180,234.00696 L 619.39874,242.43074 C 596.31542,245.47341 573.40214,249.68013 550.73963,255.03290 C 510.32921,264.66491 469.92769,275.56453 431.77589,292.21975 C 425.46818,295.12209 419.21653,298.10851 413.08172,301.36334 C 410.38225,302.79557 402.42041,307.34205 405.06808,305.81616 C 409.63265,303.18552 414.19580,300.55239 418.76343,297.92704 C 419.29786,297.61986 417.70713,298.56289 417.18494,298.89045 C 411.82538,302.25253 404.43651,313.25115 400.21960,308.18271 L 415.37417,297.17227 z "
       inkscape:export-xdpi="8.3000002"
       inkscape:export-ydpi="8.3000002"
       inkscape:export-filename="/home/egore/workspace/book.png" />
  </g>
</svg>
