<svg xmlns="http://www.w3.org/2000/svg" xmlns:cc="http://web.resource.org/cc/" xmlns:svg="http://www.w3.org/2000/svg" xmlns:xlink="http://www.w3.org/1999/xlink" id="svg2" width="34.133" height="34.133"><defs id="defs3"><linearGradient id="linearGradient2838"><stop id="stop2840" offset="0" style="stop-color:#dc0000;stop-opacity:1"/><stop id="stop2842" offset="1" style="stop-color:#6f0000;stop-opacity:1"/></linearGradient><linearGradient id="linearGradient2066"><stop id="stop2068" offset="0" style="stop-color:#13dc00;stop-opacity:1"/><stop id="stop2070" offset="1" style="stop-color:#096f00;stop-opacity:1"/></linearGradient><radialGradient id="radialGradient2074" cx="12.087" cy="8.469" r="16.339" fx="12.087" fy="8.469" gradientTransform="matrix(1.000948,0.000000,0.000000,0.999053,5.024793,-0.705234)" gradientUnits="userSpaceOnUse" xlink:href="#linearGradient2066"/><radialGradient id="radialGradient2078" cx="-7.842" cy="-17.524" r="12.825" fx="-7.842" fy="-17.524" gradientTransform="matrix(-1.000948,0.000000,0.000000,-0.999053,0.000000,-0.793388)" gradientUnits="userSpaceOnUse" xlink:href="#linearGradient2838"/></defs><metadata id="metadata4"/><g id="layer1"><path id="path2844" d="M 23.272727,27.063362 L 8.9917355,27.063362 L 8.9917355,31.669422 L 1.2341601,20.407714 L 8.9917355,9.6749316 L 8.9917355,13.752067 L 23.272727,13.752067 L 23.272727,27.063362 z" style="fill:none;fill-opacity:1;stroke:#000;stroke-width:1;stroke-linecap:round;stroke-linejoin:bevel;stroke-miterlimit:4;stroke-opacity:.72023809"/><path id="path2076" d="M 22.743801,26.446282 L 8.4628099,26.446282 L 8.4628099,31.052342 L 0.70523444,19.790634 L 8.4628099,9.0578515 L 8.4628099,13.134987 L 22.743801,13.134987 L 22.743801,26.446282 z" style="fill:url(#radialGradient2078);fill-opacity:1;stroke:#3b0000;stroke-width:1;stroke-linecap:round;stroke-linejoin:bevel;stroke-miterlimit:4;stroke-opacity:1"/><path id="path2846" d="M 9.5206614,5.5537190 L 23.801651,5.5537190 L 23.801651,0.94765842 L 31.559227,12.209367 L 23.801651,22.942149 L 23.801651,18.865014 L 9.5206614,18.865014 L 9.5206614,5.5537190 z" style="fill:none;fill-opacity:1;stroke:#000;stroke-width:1;stroke-linecap:round;stroke-linejoin:bevel;stroke-miterlimit:4;stroke-opacity:.72321427"/><path id="rect1291" d="M 9.1680438,4.8484848 L 23.449035,4.8484848 L 23.449035,0.24242429 L 31.206611,11.504133 L 23.449035,22.236915 L 23.449035,18.159780 L 9.1680438,18.159780 L 9.1680438,4.8484848 z" style="fill:url(#radialGradient2074);fill-opacity:1;stroke:#003b00;stroke-width:1;stroke-linecap:round;stroke-linejoin:bevel;stroke-miterlimit:4;stroke-opacity:1"/></g></svg>