<svg xmlns="http://www.w3.org/2000/svg" xmlns:cc="http://web.resource.org/cc/" xmlns:svg="http://www.w3.org/2000/svg" xmlns:xlink="http://www.w3.org/1999/xlink" id="svg2" width="32" height="32"><defs id="defs3"><linearGradient id="linearGradient2072"><stop style="stop-color:#c20000;stop-opacity:1" id="stop2074" offset="0"/><stop style="stop-color:#370000;stop-opacity:1" id="stop2076" offset="1"/></linearGradient><radialGradient id="radialGradient2090" cx="455.076" cy="250.277" r="1277.409" fx="455.076" fy="250.277" gradientTransform="matrix(1.573991e-2,0.000000,0.000000,5.544511e-2,4.688561,2.449145)" gradientUnits="userSpaceOnUse" xlink:href="#linearGradient2072"/><radialGradient id="radialGradient2092" cx="455.076" cy="250.277" r="1277.409" fx="455.076" fy="250.277" gradientTransform="matrix(1.573991e-2,0.000000,0.000000,5.544511e-2,4.271615,2.612914)" gradientUnits="userSpaceOnUse" xlink:href="#linearGradient2072"/></defs><metadata id="metadata4"/><g id="layer1"><path style="stroke-opacity:1;stroke-miterlimit:4;stroke-linejoin:round;stroke-linecap:round;stroke-width:.36927125;stroke:none;fill-opacity:.55686277;fill:#000" id="path1299" d="M 10.748840,5.0383661 C 5.8865772,7.2373385 2.4983975,12.129089 2.4983975,17.809618 C 2.4983975,25.543794 8.7743635,31.821618 16.508548,31.821618 C 24.242732,31.821618 30.520545,25.543794 30.520545,17.809618 C 30.520545,12.129672 27.133016,7.2385871 22.271027,5.0392896 L 22.271027,10.907011 C 24.245243,12.557246 25.502149,15.037453 25.502149,17.809618 C 25.502149,22.773800 21.472728,26.803218 16.508548,26.803218 C 11.544368,26.803218 7.5167934,22.773800 7.5167934,17.809618 C 7.5167934,15.036971 8.7745588,12.556320 10.748840,10.906089 L 10.748840,5.0383661 z"/><rect style="stroke-opacity:1;stroke-miterlimit:4;stroke-linejoin:round;stroke-linecap:round;stroke-width:.36927125;stroke:none;fill-opacity:.55686277;fill:#000" id="rect1301" width="4.628" height="19.101" x="14.195" y=".812" rx="2.314" ry="2.781"/><path style="fill:url(#radialGradient2092);fill-opacity:1;stroke:#000;stroke-width:.36927125;stroke-linecap:round;stroke-linejoin:round;stroke-miterlimit:4;stroke-opacity:1" id="path1291" d="M 9.8208152,4.4924694 C 4.9585529,6.6914418 1.5703732,11.583192 1.5703732,17.263721 C 1.5703732,24.997897 7.8463392,31.275721 15.580524,31.275721 C 23.314708,31.275721 29.592521,24.997897 29.592521,17.263721 C 29.592521,11.583775 26.204992,6.6926904 21.343003,4.4933929 L 21.343003,10.361114 C 23.317219,12.011349 24.574125,14.491556 24.574125,17.263721 C 24.574125,22.227903 20.544704,26.257321 15.580524,26.257321 C 10.616344,26.257321 6.5887691,22.227903 6.5887691,17.263721 C 6.5887691,14.491074 7.8465345,12.010423 9.8208152,10.360192 L 9.8208152,4.4924694 z"/><rect style="fill:url(#radialGradient2090);fill-opacity:1;stroke:#000;stroke-width:.36927125;stroke-linecap:round;stroke-linejoin:round;stroke-miterlimit:4;stroke-opacity:1" id="rect1312" width="4.628" height="19.101" x="13.267" y=".266" rx="2.314" ry="2.781"/></g></svg>