<svg xmlns="http://www.w3.org/2000/svg" xmlns:cc="http://web.resource.org/cc/" xmlns:svg="http://www.w3.org/2000/svg" xmlns:xlink="http://www.w3.org/1999/xlink" id="svg2071" width="32" height="32"><defs id="defs3"><linearGradient id="linearGradient2873"><stop id="stop2875" offset="0" style="stop-color:#3f3f3f;stop-opacity:1"/><stop id="stop2877" offset="1" style="stop-color:silver;stop-opacity:1"/></linearGradient><linearGradient id="linearGradient2857"><stop id="stop2859" offset="0" style="stop-color:#3b2200;stop-opacity:1"/><stop id="stop2861" offset="1" style="stop-color:#855700;stop-opacity:1"/></linearGradient><linearGradient id="linearGradient2849"><stop id="stop2851" offset="0" style="stop-color:#5e5e5e;stop-opacity:1"/><stop id="stop2853" offset="1" style="stop-color:#1f1f1f;stop-opacity:1"/></linearGradient><linearGradient id="linearGradient2855" x1="5.79" x2="11.45" y1="4.227" y2="9.774" gradientTransform="scale(1.035166,0.966029)" gradientUnits="userSpaceOnUse" xlink:href="#linearGradient2849"/><linearGradient id="linearGradient2863" x1="17.781" x2="21.395" y1="18.015" y2="14.851" gradientTransform="scale(0.910996,1.097699)" gradientUnits="userSpaceOnUse" xlink:href="#linearGradient2857"/><linearGradient id="linearGradient2871" x1="24.527" x2="15.225" y1="18.332" y2="7.018" gradientTransform="scale(1.020352,0.980054)" gradientUnits="userSpaceOnUse" xlink:href="#linearGradient2873"/><linearGradient id="linearGradient2888" x1="17.781" x2="21.395" y1="18.015" y2="14.851" gradientTransform="scale(0.910996,1.097699)" gradientUnits="userSpaceOnUse" xlink:href="#linearGradient2857"/><linearGradient id="linearGradient2890" x1="5.79" x2="11.45" y1="4.227" y2="9.774" gradientTransform="scale(1.035166,0.966029)" gradientUnits="userSpaceOnUse" xlink:href="#linearGradient2849"/><linearGradient id="linearGradient2892" x1="24.527" x2="15.225" y1="18.332" y2="7.018" gradientTransform="scale(1.020352,0.980054)" gradientUnits="userSpaceOnUse" xlink:href="#linearGradient2873"/></defs><metadata id="metadata4"/><g id="layer1"><g id="g2884" transform="translate(8.465608e-2,0.338624)"><path id="path2083" d="M 5.0180647,5.8682592 L 23.969157,31.367706 L 28.309941,27.693375 L 9.0190610,3.0973719 L 5.0180647,5.8682592 z" style="fill:url(#linearGradient2888);fill-opacity:1;fill-rule:evenodd;stroke:#000;stroke-width:1px;stroke-linecap:butt;stroke-linejoin:miter;stroke-opacity:1"/><path id="path2081" d="M 0.77995049,16.609485 L 1.9916130,10.941229 L 14.513506,0.72158942 L 18.711980,6.7270350 L 5.4683806,17.389173 L 0.77995049,16.609485 z" style="fill:url(#linearGradient2890);fill-opacity:1;fill-rule:evenodd;stroke:#000;stroke-width:1px;stroke-linecap:butt;stroke-linejoin:miter;stroke-opacity:1"/></g><g id="g2880" transform="translate(8.465608e-2,0.338624)"><path id="path2085" d="M 8.9375000,15.250000 L 1.3437500,20.937500 L 7.1875000,30.562500 L 14.687500,24.843750 L 8.9375000,15.250000 z M 6.8437500,19.062500 L 10.562500,25.625000 L 7.7812500,27.750000 L 3.8437500,21.375000 L 6.8437500,19.062500 z" style="fill:#8e1515;fill-opacity:1;fill-rule:evenodd;stroke:#000;stroke-width:1px;stroke-linecap:butt;stroke-linejoin:miter;stroke-opacity:1"/><path id="path2089" d="M 9.5354864,15.647896 L 27.528877,3.2415750 L 31.025983,7.6065133 L 28.274385,8.7169420 L 26.867666,11.665838 L 24.054450,12.244412 L 22.709348,15.725162 L 19.578155,16.583122 L 18.551030,19.784485 L 15.437188,20.559587 L 14.392713,23.843809 L 9.5354864,15.647896 z" style="fill:url(#linearGradient2892);fill-opacity:1;fill-rule:evenodd;stroke:#000;stroke-width:1px;stroke-linecap:butt;stroke-linejoin:miter;stroke-opacity:1"/></g></g></svg>