<svg xmlns="http://www.w3.org/2000/svg" xmlns:cc="http://web.resource.org/cc/" xmlns:svg="http://www.w3.org/2000/svg" xmlns:xlink="http://www.w3.org/1999/xlink" id="svg14881" width="755.906" height="755.906"><defs id="defs3"><linearGradient id="linearGradient2105"><stop id="stop2107" offset="0" style="stop-color:#000;stop-opacity:1"/><stop id="stop2109" offset="1" style="stop-color:#000;stop-opacity:0"/></linearGradient><linearGradient id="linearGradient5142"><stop style="stop-color:#fcf31d;stop-opacity:1" id="stop5144" offset="0"/><stop style="stop-color:#b3750a;stop-opacity:1" id="stop5146" offset="1"/></linearGradient><linearGradient id="linearGradient4374"><stop style="stop-color:#fff;stop-opacity:1" id="stop4376" offset="0"/><stop style="stop-color:#fff;stop-opacity:0" id="stop4378" offset="1"/></linearGradient><linearGradient id="linearGradient2832"><stop style="stop-color:#b27d00;stop-opacity:1" id="stop2834" offset="0"/><stop style="stop-color:#624500;stop-opacity:1" id="stop2836" offset="1"/></linearGradient><linearGradient id="linearGradient4211"><stop id="stop4212" offset="0" style="stop-color:#000bbe;stop-opacity:1"/><stop id="stop4213" offset="1" style="stop-color:#00077b;stop-opacity:1"/></linearGradient><linearGradient id="linearGradient3071"><stop id="stop3072" offset="0" style="stop-color:red;stop-opacity:1"/><stop id="stop3073" offset="1" style="stop-color:#fff;stop-opacity:1"/></linearGradient><linearGradient id="linearGradient1818"><stop id="stop1819" offset="0" style="stop-color:#b1b1b1;stop-opacity:1"/><stop id="stop1820" offset="1" style="stop-color:#e5e5e5;stop-opacity:1"/></linearGradient><linearGradient id="linearGradient22986"><stop id="stop22987" offset="0" style="stop-color:#3f3f3f;stop-opacity:1"/><stop id="stop22988" offset="1" style="stop-color:#969696;stop-opacity:1"/></linearGradient><linearGradient id="linearGradient4210" x1="279.78" x2="406.651" y1="345.921" y2="590.79" gradientTransform="matrix(1.451264,0.000000,0.000000,0.998427,-3.399373,-27.27137)" gradientUnits="userSpaceOnUse" xlink:href="#linearGradient4211"/><linearGradient id="linearGradient5468" x1="541.648" x2="501.751" y1="282.807" y2="211.4" gradientTransform="matrix(1.172453,0.000000,0.000000,1.235854,-3.399373,-27.27137)" gradientUnits="userSpaceOnUse" xlink:href="#linearGradient1818"/><linearGradient id="linearGradient2838" x1="390.173" x2="427.453" y1="31.437" y2="45.496" gradientTransform="scale(1.497665,0.667706)" gradientUnits="userSpaceOnUse" xlink:href="#linearGradient2832"/><linearGradient id="linearGradient2846" x1="825.322" x2="995.389" y1="70.665" y2="203.33" gradientTransform="scale(0.573434,1.743879)" gradientUnits="userSpaceOnUse" xlink:href="#linearGradient2832"/><linearGradient id="linearGradient3612" x1="196.094" x2="103.2" y1="579.567" y2="181.406" gradientTransform="matrix(2.063753,0.000000,0.000000,0.484554,1.444283,-6.258559)" gradientUnits="userSpaceOnUse" xlink:href="#linearGradient22986"/><linearGradient id="linearGradient4380" x1="119.308" x2="206.739" y1="16.335" y2="434.391" gradientTransform="matrix(2.153914,0.000000,0.000000,0.464271,1.444283,-6.258559)" gradientUnits="userSpaceOnUse" xlink:href="#linearGradient4374"/><linearGradient id="linearGradient5148" x1="108.499" x2="108.499" y1="849.804" y2="1069.328" gradientTransform="scale(2.103058,0.475498)" gradientUnits="userSpaceOnUse" xlink:href="#linearGradient5142"/><linearGradient id="linearGradient5156" x1="333.55" x2="436.154" y1="303.997" y2="335.262" gradientTransform="scale(0.724999,1.379312)" gradientUnits="userSpaceOnUse" spreadMethod="reflect" xlink:href="#linearGradient5142"/><linearGradient id="linearGradient2111" x1="395.095" x2="481.185" y1="205.329" y2="335.139" gradientTransform="matrix(0.668618,0.539963,-0.731052,0.905238,235.1645,-164.9304)" gradientUnits="userSpaceOnUse" xlink:href="#linearGradient5142"/><linearGradient id="linearGradient2113" x1="395.095" x2="481.185" y1="205.329" y2="335.139" gradientTransform="matrix(0.859425,0.000000,0.000000,1.163569,13.61683,0.680841)" gradientUnits="userSpaceOnUse" xlink:href="#linearGradient5142"/><linearGradient id="linearGradient2115" x1="395.095" x2="481.185" y1="205.329" y2="335.139" gradientTransform="matrix(0.786470,0.346519,-0.469150,1.064796,144.1229,-113.8587)" gradientUnits="userSpaceOnUse" xlink:href="#linearGradient5142"/><linearGradient id="linearGradient2117" x1="395.095" x2="481.185" y1="205.329" y2="335.139" gradientTransform="matrix(0.834186,0.206748,-0.279915,1.129398,85.15770,-78.20409)" gradientUnits="userSpaceOnUse" xlink:href="#linearGradient5142"/><linearGradient id="linearGradient2119" x1="395.095" x2="481.185" y1="205.329" y2="335.139" gradientTransform="matrix(0.853793,9.822769e-2,-0.132990,1.155944,41.88020,-38.89907)" gradientUnits="userSpaceOnUse" xlink:href="#linearGradient5142"/><linearGradient id="linearGradient2121" x1="395.095" x2="481.185" y1="205.329" y2="335.139" gradientTransform="matrix(0.859425,0.000000,0.000000,1.163569,7.489256,4.765890)" gradientUnits="userSpaceOnUse" xlink:href="#linearGradient5142"/><linearGradient id="linearGradient2123" x1="395.095" x2="481.185" y1="205.329" y2="335.139" gradientTransform="matrix(0.859425,0.000000,0.000000,1.163569,4.085049,2.042524)" gradientUnits="userSpaceOnUse" xlink:href="#linearGradient5142"/><linearGradient id="linearGradient2125" x1="395.095" x2="481.185" y1="205.329" y2="335.139" gradientTransform="scale(0.859425,1.163569)" gradientUnits="userSpaceOnUse" xlink:href="#linearGradient5142"/><linearGradient id="linearGradient2127" x1="395.095" x2="481.185" y1="205.329" y2="335.139" gradientTransform="scale(0.859425,1.163569)" gradientUnits="userSpaceOnUse" xlink:href="#linearGradient5142"/><linearGradient id="linearGradient2129" x1="395.095" x2="481.185" y1="205.329" y2="335.139" gradientTransform="scale(0.859425,1.163569)" gradientUnits="userSpaceOnUse" xlink:href="#linearGradient5142"/><linearGradient id="linearGradient2895" x1="1087.815" x2="1446.02" y1="169.863" y2="225.751" gradientTransform="scale(0.291465,3.430945)" gradientUnits="userSpaceOnUse" xlink:href="#linearGradient5142"/><linearGradient id="linearGradient3692" x1="395.095" x2="481.185" y1="205.329" y2="335.139" gradientTransform="matrix(0.668618,0.539963,-0.731052,0.905238,235.1645,-164.9304)" gradientUnits="userSpaceOnUse" xlink:href="#linearGradient5142"/><linearGradient id="linearGradient3694" x1="395.095" x2="481.185" y1="205.329" y2="335.139" gradientTransform="matrix(0.859425,8.514237e-18,-1.480738e-17,1.163569,13.61683,0.680841)" gradientUnits="userSpaceOnUse" xlink:href="#linearGradient5142"/><linearGradient id="linearGradient3696" x1="395.095" x2="481.185" y1="205.329" y2="335.139" gradientTransform="matrix(0.859425,8.514237e-18,-1.480738e-17,1.163569,7.489256,4.765890)" gradientUnits="userSpaceOnUse" xlink:href="#linearGradient5142"/><linearGradient id="linearGradient3698" x1="395.095" x2="481.185" y1="205.329" y2="335.139" gradientTransform="matrix(0.786470,0.346519,-0.469150,1.064796,144.1229,-113.8587)" gradientUnits="userSpaceOnUse" xlink:href="#linearGradient5142"/><linearGradient id="linearGradient3700" x1="395.095" x2="481.185" y1="205.329" y2="335.139" gradientTransform="matrix(0.859425,8.514237e-18,-1.480738e-17,1.163569,4.085049,2.042524)" gradientUnits="userSpaceOnUse" xlink:href="#linearGradient5142"/><linearGradient id="linearGradient3702" x1="395.095" x2="481.185" y1="205.329" y2="335.139" gradientTransform="matrix(0.834186,0.206748,-0.279915,1.129398,85.15770,-78.20409)" gradientUnits="userSpaceOnUse" xlink:href="#linearGradient5142"/><linearGradient id="linearGradient3704" x1="395.095" x2="481.185" y1="205.329" y2="335.139" gradientTransform="scale(0.859425,1.163569)" gradientUnits="userSpaceOnUse" xlink:href="#linearGradient5142"/><linearGradient id="linearGradient3706" x1="395.095" x2="481.185" y1="205.329" y2="335.139" gradientTransform="matrix(0.853793,9.822769e-2,-0.132990,1.155944,41.88020,-38.89907)" gradientUnits="userSpaceOnUse" xlink:href="#linearGradient5142"/><linearGradient id="linearGradient3708" x1="395.095" x2="481.185" y1="205.329" y2="335.139" gradientTransform="scale(0.859425,1.163569)" gradientUnits="userSpaceOnUse" xlink:href="#linearGradient5142"/><linearGradient id="linearGradient3710" x1="1087.815" x2="1446.02" y1="169.863" y2="225.751" gradientTransform="scale(0.291465,3.430945)" gradientUnits="userSpaceOnUse" xlink:href="#linearGradient5142"/><linearGradient id="linearGradient3712" x1="395.095" x2="481.185" y1="205.329" y2="335.139" gradientTransform="scale(0.859425,1.163569)" gradientUnits="userSpaceOnUse" xlink:href="#linearGradient5142"/><linearGradient id="linearGradient3714" x1="395.095" x2="481.185" y1="205.329" y2="335.139" gradientTransform="matrix(0.668618,0.539963,-0.731052,0.905238,235.1645,-164.9304)" gradientUnits="userSpaceOnUse" xlink:href="#linearGradient5142"/><linearGradient id="linearGradient3716" x1="395.095" x2="481.185" y1="205.329" y2="335.139" gradientTransform="matrix(0.859425,0.000000,0.000000,1.163569,13.61683,0.680841)" gradientUnits="userSpaceOnUse" xlink:href="#linearGradient5142"/><linearGradient id="linearGradient3718" x1="395.095" x2="481.185" y1="205.329" y2="335.139" gradientTransform="matrix(0.859425,0.000000,0.000000,1.163569,7.489256,4.765890)" gradientUnits="userSpaceOnUse" xlink:href="#linearGradient5142"/><linearGradient id="linearGradient3720" x1="395.095" x2="481.185" y1="205.329" y2="335.139" gradientTransform="matrix(0.786470,0.346519,-0.469150,1.064796,144.1229,-113.8587)" gradientUnits="userSpaceOnUse" xlink:href="#linearGradient5142"/><linearGradient id="linearGradient3722" x1="395.095" x2="481.185" y1="205.329" y2="335.139" gradientTransform="matrix(0.859425,0.000000,0.000000,1.163569,4.085049,2.042524)" gradientUnits="userSpaceOnUse" xlink:href="#linearGradient5142"/><linearGradient id="linearGradient3724" x1="395.095" x2="481.185" y1="205.329" y2="335.139" gradientTransform="matrix(0.834186,0.206748,-0.279915,1.129398,85.15770,-78.20409)" gradientUnits="userSpaceOnUse" xlink:href="#linearGradient5142"/><linearGradient id="linearGradient3726" x1="395.095" x2="481.185" y1="205.329" y2="335.139" gradientTransform="scale(0.859425,1.163569)" gradientUnits="userSpaceOnUse" xlink:href="#linearGradient5142"/><linearGradient id="linearGradient3728" x1="395.095" x2="481.185" y1="205.329" y2="335.139" gradientTransform="matrix(0.853793,9.822769e-2,-0.132990,1.155944,41.88020,-38.89907)" gradientUnits="userSpaceOnUse" xlink:href="#linearGradient5142"/><linearGradient id="linearGradient3730" x1="395.095" x2="481.185" y1="205.329" y2="335.139" gradientTransform="scale(0.859425,1.163569)" gradientUnits="userSpaceOnUse" xlink:href="#linearGradient5142"/><linearGradient id="linearGradient3732" x1="1087.815" x2="1446.02" y1="169.863" y2="225.751" gradientTransform="scale(0.291465,3.430945)" gradientUnits="userSpaceOnUse" xlink:href="#linearGradient5142"/><linearGradient id="linearGradient3734" x1="395.095" x2="481.185" y1="205.329" y2="335.139" gradientTransform="scale(0.859425,1.163569)" gradientUnits="userSpaceOnUse" xlink:href="#linearGradient5142"/><linearGradient id="linearGradient3760" x1="395.095" x2="481.185" y1="205.329" y2="335.139" gradientTransform="matrix(0.668618,0.539963,-0.731052,0.905238,235.1645,-164.9304)" gradientUnits="userSpaceOnUse" xlink:href="#linearGradient5142"/><linearGradient id="linearGradient3762" x1="395.095" x2="481.185" y1="205.329" y2="335.139" gradientTransform="matrix(0.859425,7.213805e-17,-1.821354e-16,1.163569,13.61683,0.680841)" gradientUnits="userSpaceOnUse" xlink:href="#linearGradient5142"/><linearGradient id="linearGradient3764" x1="395.095" x2="481.185" y1="205.329" y2="335.139" gradientTransform="matrix(0.859425,7.213805e-17,-1.821354e-16,1.163569,7.489256,4.765890)" gradientUnits="userSpaceOnUse" xlink:href="#linearGradient5142"/><linearGradient id="linearGradient3766" x1="395.095" x2="481.185" y1="205.329" y2="335.139" gradientTransform="matrix(0.786470,0.346519,-0.469150,1.064796,144.1229,-113.8587)" gradientUnits="userSpaceOnUse" xlink:href="#linearGradient5142"/><linearGradient id="linearGradient3768" x1="395.095" x2="481.185" y1="205.329" y2="335.139" gradientTransform="matrix(0.859425,7.213805e-17,-1.821354e-16,1.163569,4.085049,2.042524)" gradientUnits="userSpaceOnUse" xlink:href="#linearGradient5142"/><linearGradient id="linearGradient3770" x1="395.095" x2="481.185" y1="205.329" y2="335.139" gradientTransform="matrix(0.834186,0.206748,-0.279915,1.129398,85.15770,-78.20409)" gradientUnits="userSpaceOnUse" xlink:href="#linearGradient5142"/><linearGradient id="linearGradient3772" x1="395.095" x2="481.185" y1="205.329" y2="335.139" gradientTransform="scale(0.859425,1.163569)" gradientUnits="userSpaceOnUse" xlink:href="#linearGradient5142"/><linearGradient id="linearGradient3774" x1="395.095" x2="481.185" y1="205.329" y2="335.139" gradientTransform="matrix(0.853793,9.822769e-2,-0.132990,1.155944,41.88020,-38.89907)" gradientUnits="userSpaceOnUse" xlink:href="#linearGradient5142"/><linearGradient id="linearGradient3776" x1="395.095" x2="481.185" y1="205.329" y2="335.139" gradientTransform="scale(0.859425,1.163569)" gradientUnits="userSpaceOnUse" xlink:href="#linearGradient5142"/><linearGradient id="linearGradient3778" x1="1087.815" x2="1446.02" y1="169.863" y2="225.751" gradientTransform="scale(0.291465,3.430945)" gradientUnits="userSpaceOnUse" xlink:href="#linearGradient5142"/><linearGradient id="linearGradient3780" x1="395.095" x2="481.185" y1="205.329" y2="335.139" gradientTransform="scale(0.859425,1.163569)" gradientUnits="userSpaceOnUse" xlink:href="#linearGradient5142"/><linearGradient id="linearGradient3806" x1="395.095" x2="481.185" y1="205.329" y2="335.139" gradientTransform="matrix(0.668618,0.539963,-0.731052,0.905238,235.1645,-164.9304)" gradientUnits="userSpaceOnUse" xlink:href="#linearGradient5142"/><linearGradient id="linearGradient3808" x1="395.095" x2="481.185" y1="205.329" y2="335.139" gradientTransform="matrix(0.859425,1.174056e-17,-2.904705e-17,1.163569,13.61683,0.680841)" gradientUnits="userSpaceOnUse" xlink:href="#linearGradient5142"/><linearGradient id="linearGradient3810" x1="395.095" x2="481.185" y1="205.329" y2="335.139" gradientTransform="matrix(0.859425,1.174056e-17,-2.904705e-17,1.163569,7.489256,4.765890)" gradientUnits="userSpaceOnUse" xlink:href="#linearGradient5142"/><linearGradient id="linearGradient3812" x1="395.095" x2="481.185" y1="205.329" y2="335.139" gradientTransform="matrix(0.786470,0.346519,-0.469150,1.064796,144.1229,-113.8587)" gradientUnits="userSpaceOnUse" xlink:href="#linearGradient5142"/><linearGradient id="linearGradient3814" x1="395.095" x2="481.185" y1="205.329" y2="335.139" gradientTransform="matrix(0.859425,1.174056e-17,-2.904705e-17,1.163569,4.085049,2.042524)" gradientUnits="userSpaceOnUse" xlink:href="#linearGradient5142"/><linearGradient id="linearGradient3816" x1="395.095" x2="481.185" y1="205.329" y2="335.139" gradientTransform="matrix(0.834186,0.206748,-0.279915,1.129398,85.15770,-78.20409)" gradientUnits="userSpaceOnUse" xlink:href="#linearGradient5142"/><linearGradient id="linearGradient3818" x1="395.095" x2="481.185" y1="205.329" y2="335.139" gradientTransform="scale(0.859425,1.163569)" gradientUnits="userSpaceOnUse" xlink:href="#linearGradient5142"/><linearGradient id="linearGradient3820" x1="395.095" x2="481.185" y1="205.329" y2="335.139" gradientTransform="matrix(0.853793,9.822769e-2,-0.132990,1.155944,41.88020,-38.89907)" gradientUnits="userSpaceOnUse" xlink:href="#linearGradient5142"/><linearGradient id="linearGradient3822" x1="395.095" x2="481.185" y1="205.329" y2="335.139" gradientTransform="scale(0.859425,1.163569)" gradientUnits="userSpaceOnUse" xlink:href="#linearGradient5142"/><linearGradient id="linearGradient3824" x1="1087.815" x2="1446.02" y1="169.863" y2="225.751" gradientTransform="scale(0.291465,3.430945)" gradientUnits="userSpaceOnUse" xlink:href="#linearGradient5142"/><linearGradient id="linearGradient3826" x1="395.095" x2="481.185" y1="205.329" y2="335.139" gradientTransform="scale(0.859425,1.163569)" gradientUnits="userSpaceOnUse" xlink:href="#linearGradient5142"/><linearGradient id="linearGradient3852" x1="395.095" x2="481.185" y1="205.329" y2="335.139" gradientTransform="matrix(0.668618,0.539963,-0.731052,0.905238,235.1645,-164.9304)" gradientUnits="userSpaceOnUse" xlink:href="#linearGradient5142"/><linearGradient id="linearGradient3854" x1="395.095" x2="481.185" y1="205.329" y2="335.139" gradientTransform="matrix(0.859425,0.000000,0.000000,1.163569,13.61683,0.680841)" gradientUnits="userSpaceOnUse" xlink:href="#linearGradient5142"/><linearGradient id="linearGradient3856" x1="395.095" x2="481.185" y1="205.329" y2="335.139" gradientTransform="matrix(0.859425,0.000000,0.000000,1.163569,7.489256,4.765890)" gradientUnits="userSpaceOnUse" xlink:href="#linearGradient5142"/><linearGradient id="linearGradient3858" x1="395.095" x2="481.185" y1="205.329" y2="335.139" gradientTransform="matrix(0.786470,0.346519,-0.469150,1.064796,144.1229,-113.8587)" gradientUnits="userSpaceOnUse" xlink:href="#linearGradient5142"/><linearGradient id="linearGradient3860" x1="395.095" x2="481.185" y1="205.329" y2="335.139" gradientTransform="matrix(0.859425,0.000000,0.000000,1.163569,4.085049,2.042524)" gradientUnits="userSpaceOnUse" xlink:href="#linearGradient5142"/><linearGradient id="linearGradient3862" x1="395.095" x2="481.185" y1="205.329" y2="335.139" gradientTransform="matrix(0.834186,0.206748,-0.279915,1.129398,85.15770,-78.20409)" gradientUnits="userSpaceOnUse" xlink:href="#linearGradient5142"/><linearGradient id="linearGradient3864" x1="395.095" x2="481.185" y1="205.329" y2="335.139" gradientTransform="scale(0.859425,1.163569)" gradientUnits="userSpaceOnUse" xlink:href="#linearGradient5142"/><linearGradient id="linearGradient3866" x1="395.095" x2="481.185" y1="205.329" y2="335.139" gradientTransform="matrix(0.853793,9.822769e-2,-0.132990,1.155944,41.88020,-38.89907)" gradientUnits="userSpaceOnUse" xlink:href="#linearGradient5142"/><linearGradient id="linearGradient3868" x1="395.095" x2="481.185" y1="205.329" y2="335.139" gradientTransform="scale(0.859425,1.163569)" gradientUnits="userSpaceOnUse" xlink:href="#linearGradient5142"/><linearGradient id="linearGradient3870" x1="1087.815" x2="1446.02" y1="169.863" y2="225.751" gradientTransform="scale(0.291465,3.430945)" gradientUnits="userSpaceOnUse" xlink:href="#linearGradient5142"/><linearGradient id="linearGradient3872" x1="395.095" x2="481.185" y1="205.329" y2="335.139" gradientTransform="scale(0.859425,1.163569)" gradientUnits="userSpaceOnUse" xlink:href="#linearGradient5142"/><linearGradient id="linearGradient3898" x1="395.095" x2="481.185" y1="205.329" y2="335.139" gradientTransform="matrix(0.668618,0.539963,-0.731052,0.905238,235.1645,-164.9304)" gradientUnits="userSpaceOnUse" xlink:href="#linearGradient5142"/><linearGradient id="linearGradient3900" x1="395.095" x2="481.185" y1="205.329" y2="335.139" gradientTransform="matrix(0.859425,-6.953484e-18,9.272346e-18,1.163569,13.61683,0.680841)" gradientUnits="userSpaceOnUse" xlink:href="#linearGradient5142"/><linearGradient id="linearGradient3902" x1="395.095" x2="481.185" y1="205.329" y2="335.139" gradientTransform="matrix(0.859425,-6.953484e-18,9.272346e-18,1.163569,7.489256,4.765890)" gradientUnits="userSpaceOnUse" xlink:href="#linearGradient5142"/><linearGradient id="linearGradient3904" x1="395.095" x2="481.185" y1="205.329" y2="335.139" gradientTransform="matrix(0.786470,0.346519,-0.469150,1.064796,144.1229,-113.8587)" gradientUnits="userSpaceOnUse" xlink:href="#linearGradient5142"/><linearGradient id="linearGradient3906" x1="395.095" x2="481.185" y1="205.329" y2="335.139" gradientTransform="matrix(0.859425,-6.953484e-18,9.272346e-18,1.163569,4.085049,2.042524)" gradientUnits="userSpaceOnUse" xlink:href="#linearGradient5142"/><linearGradient id="linearGradient3908" x1="395.095" x2="481.185" y1="205.329" y2="335.139" gradientTransform="matrix(0.834186,0.206748,-0.279915,1.129398,85.15770,-78.20409)" gradientUnits="userSpaceOnUse" xlink:href="#linearGradient5142"/><linearGradient id="linearGradient3910" x1="395.095" x2="481.185" y1="205.329" y2="335.139" gradientTransform="scale(0.859425,1.163569)" gradientUnits="userSpaceOnUse" xlink:href="#linearGradient5142"/><linearGradient id="linearGradient3912" x1="395.095" x2="481.185" y1="205.329" y2="335.139" gradientTransform="matrix(0.853793,9.822769e-2,-0.132990,1.155944,41.88020,-38.89907)" gradientUnits="userSpaceOnUse" xlink:href="#linearGradient5142"/><linearGradient id="linearGradient3914" x1="395.095" x2="481.185" y1="205.329" y2="335.139" gradientTransform="scale(0.859425,1.163569)" gradientUnits="userSpaceOnUse" xlink:href="#linearGradient5142"/><linearGradient id="linearGradient3916" x1="1087.815" x2="1446.02" y1="169.863" y2="225.751" gradientTransform="scale(0.291465,3.430945)" gradientUnits="userSpaceOnUse" xlink:href="#linearGradient5142"/><linearGradient id="linearGradient3918" x1="395.095" x2="481.185" y1="205.329" y2="335.139" gradientTransform="scale(0.859425,1.163569)" gradientUnits="userSpaceOnUse" xlink:href="#linearGradient5142"/><linearGradient id="linearGradient3926" x1="825.322" x2="995.389" y1="70.665" y2="203.33" gradientTransform="scale(0.573434,1.743879)" gradientUnits="userSpaceOnUse" xlink:href="#linearGradient2832"/><linearGradient id="linearGradient3928" x1="196.094" x2="103.2" y1="579.567" y2="181.406" gradientTransform="matrix(2.063753,0.000000,0.000000,0.484554,1.444283,-6.258559)" gradientUnits="userSpaceOnUse" xlink:href="#linearGradient22986"/><linearGradient id="linearGradient3930" x1="390.173" x2="427.453" y1="31.437" y2="45.496" gradientTransform="scale(1.497665,0.667706)" gradientUnits="userSpaceOnUse" xlink:href="#linearGradient2832"/><linearGradient id="linearGradient3932" x1="119.308" x2="206.739" y1="16.335" y2="434.391" gradientTransform="matrix(2.153914,0.000000,0.000000,0.464271,1.444283,-6.258559)" gradientUnits="userSpaceOnUse" xlink:href="#linearGradient4374"/><linearGradient id="linearGradient3935" x1="119.308" x2="206.739" y1="16.335" y2="434.391" gradientTransform="matrix(2.153914,0.000000,0.000000,-0.464271,1.444283,718.5667)" gradientUnits="userSpaceOnUse" xlink:href="#linearGradient4374"/><linearGradient id="linearGradient3939" x1="196.094" x2="103.2" y1="579.567" y2="181.406" gradientTransform="matrix(2.063753,0.000000,0.000000,-0.484554,1.444283,718.5667)" gradientUnits="userSpaceOnUse" xlink:href="#linearGradient22986"/><linearGradient id="linearGradient3942" x1="825.322" x2="995.389" y1="70.665" y2="203.33" gradientTransform="matrix(0.304784,0.000000,0.000000,-1.743879,283.3375,716.3931)" gradientUnits="userSpaceOnUse" xlink:href="#linearGradient2832"/><linearGradient id="linearGradient3944" x1="390.173" x2="427.453" y1="31.437" y2="45.496" gradientTransform="scale(1.497665,0.667706)" gradientUnits="userSpaceOnUse" xlink:href="#linearGradient2832"/></defs><metadata id="metadata4"/><g id="layer1"><path style="fill:url(#linearGradient3942);fill-opacity:1;fill-rule:evenodd;stroke:#000;stroke-width:2.7339177;stroke-linecap:round;stroke-linejoin:round;stroke-miterlimit:4;stroke-opacity:1" id="path1310" d="M 586.30150,672.10181 L 517.72519,8.6945687 L 555.59570,7.7317187 L 631.33670,658.62184 L 586.30150,672.10181 z"/><g id="g3782" transform="matrix(1.297109,0.146398,-0.146398,1.297109,-58.12446,-291.8394)"><path id="path3784" d="M 378.01782,298.61747 C 402.70550,263.71292 398.62966,240.58494 381.80126,215.90961 C 363.50994,247.22838 344.64723,264.08354 378.01782,298.61747 z" style="fill:url(#linearGradient3806);fill-opacity:1;fill-rule:evenodd;stroke:#000;stroke-width:1px;stroke-linecap:butt;stroke-linejoin:miter;stroke-opacity:1"/><path id="path3786" d="M 373.10112,283.81636 C 375.82448,241.15030 393.52636,225.71789 422.12170,217.09390 C 416.67497,252.95155 420.76002,277.91573 373.10112,283.81636 z" style="fill:url(#linearGradient3808);fill-opacity:1;fill-rule:evenodd;stroke:#000;stroke-width:1px;stroke-linecap:butt;stroke-linejoin:miter;stroke-opacity:1"/><path id="path3788" d="M 373.10112,318.53928 C 375.82448,275.87322 393.52636,260.44081 422.12170,251.81682 C 416.67497,287.67447 420.76002,312.63865 373.10112,318.53928 z" style="fill:url(#linearGradient3810);fill-opacity:1;fill-rule:evenodd;stroke:#000;stroke-width:1px;stroke-linecap:butt;stroke-linejoin:miter;stroke-opacity:1"/><path id="path3790" d="M 379.35622,321.50480 C 394.06695,281.36250 384.09007,260.10273 361.39930,240.68120 C 351.92591,275.69110 338.12210,296.88904 379.35622,321.50480 z" style="fill:url(#linearGradient3812);fill-opacity:1;fill-rule:evenodd;stroke:#000;stroke-width:1px;stroke-linecap:butt;stroke-linejoin:miter;stroke-opacity:1"/><path id="path3792" d="M 373.78197,350.53883 C 376.50533,307.87277 394.20721,292.44036 422.80255,283.81637 C 417.35582,319.67402 421.44087,344.63820 373.78197,350.53883 z" style="fill:url(#linearGradient3814);fill-opacity:1;fill-rule:evenodd;stroke:#000;stroke-width:1px;stroke-linecap:butt;stroke-linejoin:miter;stroke-opacity:1"/><path id="path3794" d="M 378.65339,347.96620 C 386.27404,305.89798 372.80453,286.66030 347.12361,271.41050 C 343.78423,307.52540 333.81360,330.77373 378.65339,347.96620 z" style="fill:url(#linearGradient3816);fill-opacity:1;fill-rule:evenodd;stroke:#000;stroke-width:1px;stroke-linecap:butt;stroke-linejoin:miter;stroke-opacity:1"/><path id="path3796" d="M 372.42028,381.85753 C 375.14364,339.19147 392.84552,323.75906 421.44086,315.13507 C 415.99413,350.99272 420.07918,375.95690 372.42028,381.85753 z" style="fill:url(#linearGradient3818);fill-opacity:1;fill-rule:evenodd;stroke:#000;stroke-width:1px;stroke-linecap:butt;stroke-linejoin:miter;stroke-opacity:1"/><path id="path3798" d="M 380.70179,381.71695 C 382.87278,339.01922 367.05074,321.66471 339.62847,309.82893 C 340.94117,346.07414 334.02962,370.40783 380.70179,381.71695 z" style="fill:url(#linearGradient3820);fill-opacity:1;fill-rule:evenodd;stroke:#000;stroke-width:1px;stroke-linecap:butt;stroke-linejoin:miter;stroke-opacity:1"/><path id="path3800" d="M 370.37775,415.89961 C 373.10111,373.23355 390.80299,357.80114 419.39833,349.17715 C 413.95160,385.03480 418.03665,409.99898 370.37775,415.89961 z" style="fill:url(#linearGradient3822);fill-opacity:1;fill-rule:evenodd;stroke:#000;stroke-width:1px;stroke-linecap:butt;stroke-linejoin:miter;stroke-opacity:1"/><path id="path3802" d="M 375.04320,871.72254 L 399.69544,880.01891 C 368.72614,733.65205 375.78970,565.69897 380.79744,391.57839 L 363.70586,395.33733 C 358.23374,528.77715 353.78952,738.28273 375.04320,871.72254 z" style="fill:url(#linearGradient3824);fill-opacity:1;fill-rule:evenodd;stroke:#000;stroke-width:1.0675702px;stroke-linecap:butt;stroke-linejoin:miter;stroke-opacity:1"/><path id="path3804" d="M 385.35626,415.89961 C 382.63290,373.23355 364.93102,357.80114 336.33568,349.17715 C 341.78241,385.03480 337.69736,409.99898 385.35626,415.89961 z" style="fill:url(#linearGradient3826);fill-opacity:1;fill-rule:evenodd;stroke:#000;stroke-width:1px;stroke-linecap:butt;stroke-linejoin:miter;stroke-opacity:1"/></g><g id="g3655" transform="matrix(-1.305344,0.000000,0.000000,1.305344,783.2520,-237.2312)"><path id="path1345" d="M 378.01782,298.61747 C 402.70550,263.71292 398.62966,240.58494 381.80126,215.90961 C 363.50994,247.22838 344.64723,264.08354 378.01782,298.61747 z" style="fill:url(#linearGradient3714);fill-opacity:1;fill-rule:evenodd;stroke:#000;stroke-width:1px;stroke-linecap:butt;stroke-linejoin:miter;stroke-opacity:1"/><path id="path1341" d="M 373.10112,283.81636 C 375.82448,241.15030 393.52636,225.71789 422.12170,217.09390 C 416.67497,252.95155 420.76002,277.91573 373.10112,283.81636 z" style="fill:url(#linearGradient3716);fill-opacity:1;fill-rule:evenodd;stroke:#000;stroke-width:1px;stroke-linecap:butt;stroke-linejoin:miter;stroke-opacity:1"/><path id="path1333" d="M 373.10112,318.53928 C 375.82448,275.87322 393.52636,260.44081 422.12170,251.81682 C 416.67497,287.67447 420.76002,312.63865 373.10112,318.53928 z" style="fill:url(#linearGradient3718);fill-opacity:1;fill-rule:evenodd;stroke:#000;stroke-width:1px;stroke-linecap:butt;stroke-linejoin:miter;stroke-opacity:1"/><path id="path1339" d="M 379.35622,321.50480 C 394.06695,281.36250 384.09007,260.10273 361.39930,240.68120 C 351.92591,275.69110 338.12210,296.88904 379.35622,321.50480 z" style="fill:url(#linearGradient3720);fill-opacity:1;fill-rule:evenodd;stroke:#000;stroke-width:1px;stroke-linecap:butt;stroke-linejoin:miter;stroke-opacity:1"/><path id="path1331" d="M 373.78197,350.53883 C 376.50533,307.87277 394.20721,292.44036 422.80255,283.81637 C 417.35582,319.67402 421.44087,344.63820 373.78197,350.53883 z" style="fill:url(#linearGradient3722);fill-opacity:1;fill-rule:evenodd;stroke:#000;stroke-width:1px;stroke-linecap:butt;stroke-linejoin:miter;stroke-opacity:1"/><path id="path1337" d="M 378.65339,347.96620 C 386.27404,305.89798 372.80453,286.66030 347.12361,271.41050 C 343.78423,307.52540 333.81360,330.77373 378.65339,347.96620 z" style="fill:url(#linearGradient3724);fill-opacity:1;fill-rule:evenodd;stroke:#000;stroke-width:1px;stroke-linecap:butt;stroke-linejoin:miter;stroke-opacity:1"/><path id="path1329" d="M 372.42028,381.85753 C 375.14364,339.19147 392.84552,323.75906 421.44086,315.13507 C 415.99413,350.99272 420.07918,375.95690 372.42028,381.85753 z" style="fill:url(#linearGradient3726);fill-opacity:1;fill-rule:evenodd;stroke:#000;stroke-width:1px;stroke-linecap:butt;stroke-linejoin:miter;stroke-opacity:1"/><path id="path1335" d="M 380.70179,381.71695 C 382.87278,339.01922 367.05074,321.66471 339.62847,309.82893 C 340.94117,346.07414 334.02962,370.40783 380.70179,381.71695 z" style="fill:url(#linearGradient3728);fill-opacity:1;fill-rule:evenodd;stroke:#000;stroke-width:1px;stroke-linecap:butt;stroke-linejoin:miter;stroke-opacity:1"/><path id="path1327" d="M 370.37775,415.89961 C 373.10111,373.23355 390.80299,357.80114 419.39833,349.17715 C 413.95160,385.03480 418.03665,409.99898 370.37775,415.89961 z" style="fill:url(#linearGradient3730);fill-opacity:1;fill-rule:evenodd;stroke:#000;stroke-width:1px;stroke-linecap:butt;stroke-linejoin:miter;stroke-opacity:1"/><path id="path1323" d="M 375.04320,871.72254 L 399.69544,880.01891 C 368.72614,733.65205 375.78970,565.69897 380.79744,391.57839 L 363.70586,395.33733 C 358.23374,528.77715 353.78952,738.28273 375.04320,871.72254 z" style="fill:url(#linearGradient3732);fill-opacity:1;fill-rule:evenodd;stroke:#000;stroke-width:1.0675702px;stroke-linecap:butt;stroke-linejoin:miter;stroke-opacity:1"/><path id="path1325" d="M 385.35626,415.89961 C 382.63290,373.23355 364.93102,357.80114 336.33568,349.17715 C 341.78241,385.03480 337.69736,409.99898 385.35626,415.89961 z" style="fill:url(#linearGradient3734);fill-opacity:1;fill-rule:evenodd;stroke:#000;stroke-width:1px;stroke-linecap:butt;stroke-linejoin:miter;stroke-opacity:1"/></g><g id="g3668" transform="matrix(-1.284759,0.230908,0.230908,1.284759,602.5380,-254.7067)"><path id="path3670" d="M 378.01782,298.61747 C 402.70550,263.71292 398.62966,240.58494 381.80126,215.90961 C 363.50994,247.22838 344.64723,264.08354 378.01782,298.61747 z" style="fill:url(#linearGradient3692);fill-opacity:1;fill-rule:evenodd;stroke:#000;stroke-width:1px;stroke-linecap:butt;stroke-linejoin:miter;stroke-opacity:1"/><path id="path3672" d="M 373.10112,283.81636 C 375.82448,241.15030 393.52636,225.71789 422.12170,217.09390 C 416.67497,252.95155 420.76002,277.91573 373.10112,283.81636 z" style="fill:url(#linearGradient3694);fill-opacity:1;fill-rule:evenodd;stroke:#000;stroke-width:1px;stroke-linecap:butt;stroke-linejoin:miter;stroke-opacity:1"/><path id="path3674" d="M 373.10112,318.53928 C 375.82448,275.87322 393.52636,260.44081 422.12170,251.81682 C 416.67497,287.67447 420.76002,312.63865 373.10112,318.53928 z" style="fill:url(#linearGradient3696);fill-opacity:1;fill-rule:evenodd;stroke:#000;stroke-width:1px;stroke-linecap:butt;stroke-linejoin:miter;stroke-opacity:1"/><path id="path3676" d="M 379.35622,321.50480 C 394.06695,281.36250 384.09007,260.10273 361.39930,240.68120 C 351.92591,275.69110 338.12210,296.88904 379.35622,321.50480 z" style="fill:url(#linearGradient3698);fill-opacity:1;fill-rule:evenodd;stroke:#000;stroke-width:1px;stroke-linecap:butt;stroke-linejoin:miter;stroke-opacity:1"/><path id="path3678" d="M 373.78197,350.53883 C 376.50533,307.87277 394.20721,292.44036 422.80255,283.81637 C 417.35582,319.67402 421.44087,344.63820 373.78197,350.53883 z" style="fill:url(#linearGradient3700);fill-opacity:1;fill-rule:evenodd;stroke:#000;stroke-width:1px;stroke-linecap:butt;stroke-linejoin:miter;stroke-opacity:1"/><path id="path3680" d="M 378.65339,347.96620 C 386.27404,305.89798 372.80453,286.66030 347.12361,271.41050 C 343.78423,307.52540 333.81360,330.77373 378.65339,347.96620 z" style="fill:url(#linearGradient3702);fill-opacity:1;fill-rule:evenodd;stroke:#000;stroke-width:1px;stroke-linecap:butt;stroke-linejoin:miter;stroke-opacity:1"/><path id="path3682" d="M 372.42028,381.85753 C 375.14364,339.19147 392.84552,323.75906 421.44086,315.13507 C 415.99413,350.99272 420.07918,375.95690 372.42028,381.85753 z" style="fill:url(#linearGradient3704);fill-opacity:1;fill-rule:evenodd;stroke:#000;stroke-width:1px;stroke-linecap:butt;stroke-linejoin:miter;stroke-opacity:1"/><path id="path3684" d="M 380.70179,381.71695 C 382.87278,339.01922 367.05074,321.66471 339.62847,309.82893 C 340.94117,346.07414 334.02962,370.40783 380.70179,381.71695 z" style="fill:url(#linearGradient3706);fill-opacity:1;fill-rule:evenodd;stroke:#000;stroke-width:1px;stroke-linecap:butt;stroke-linejoin:miter;stroke-opacity:1"/><path id="path3686" d="M 370.37775,415.89961 C 373.10111,373.23355 390.80299,357.80114 419.39833,349.17715 C 413.95160,385.03480 418.03665,409.99898 370.37775,415.89961 z" style="fill:url(#linearGradient3708);fill-opacity:1;fill-rule:evenodd;stroke:#000;stroke-width:1px;stroke-linecap:butt;stroke-linejoin:miter;stroke-opacity:1"/><path id="path3688" d="M 375.04320,871.72254 L 399.69544,880.01891 C 368.72614,733.65205 375.78970,565.69897 380.79744,391.57839 L 363.70586,395.33733 C 358.23374,528.77715 353.78952,738.28273 375.04320,871.72254 z" style="fill:url(#linearGradient3710);fill-opacity:1;fill-rule:evenodd;stroke:#000;stroke-width:1.0675702px;stroke-linecap:butt;stroke-linejoin:miter;stroke-opacity:1"/><path id="path3690" d="M 385.35626,415.89961 C 382.63290,373.23355 364.93102,357.80114 336.33568,349.17715 C 341.78241,385.03480 337.69736,409.99898 385.35626,415.89961 z" style="fill:url(#linearGradient3712);fill-opacity:1;fill-rule:evenodd;stroke:#000;stroke-width:1px;stroke-linecap:butt;stroke-linejoin:miter;stroke-opacity:1"/></g><g id="g3736" transform="matrix(1.247357,0.384741,-0.384741,1.247357,113.4155,-263.5205)"><path id="path3738" d="M 378.01782,298.61747 C 402.70550,263.71292 398.62966,240.58494 381.80126,215.90961 C 363.50994,247.22838 344.64723,264.08354 378.01782,298.61747 z" style="fill:url(#linearGradient3760);fill-opacity:1;fill-rule:evenodd;stroke:#000;stroke-width:1px;stroke-linecap:butt;stroke-linejoin:miter;stroke-opacity:1"/><path id="path3740" d="M 373.10112,283.81636 C 375.82448,241.15030 393.52636,225.71789 422.12170,217.09390 C 416.67497,252.95155 420.76002,277.91573 373.10112,283.81636 z" style="fill:url(#linearGradient3762);fill-opacity:1;fill-rule:evenodd;stroke:#000;stroke-width:1px;stroke-linecap:butt;stroke-linejoin:miter;stroke-opacity:1"/><path id="path3742" d="M 373.10112,318.53928 C 375.82448,275.87322 393.52636,260.44081 422.12170,251.81682 C 416.67497,287.67447 420.76002,312.63865 373.10112,318.53928 z" style="fill:url(#linearGradient3764);fill-opacity:1;fill-rule:evenodd;stroke:#000;stroke-width:1px;stroke-linecap:butt;stroke-linejoin:miter;stroke-opacity:1"/><path id="path3744" d="M 379.35622,321.50480 C 394.06695,281.36250 384.09007,260.10273 361.39930,240.68120 C 351.92591,275.69110 338.12210,296.88904 379.35622,321.50480 z" style="fill:url(#linearGradient3766);fill-opacity:1;fill-rule:evenodd;stroke:#000;stroke-width:1px;stroke-linecap:butt;stroke-linejoin:miter;stroke-opacity:1"/><path id="path3746" d="M 373.78197,350.53883 C 376.50533,307.87277 394.20721,292.44036 422.80255,283.81637 C 417.35582,319.67402 421.44087,344.63820 373.78197,350.53883 z" style="fill:url(#linearGradient3768);fill-opacity:1;fill-rule:evenodd;stroke:#000;stroke-width:1px;stroke-linecap:butt;stroke-linejoin:miter;stroke-opacity:1"/><path id="path3748" d="M 378.65339,347.96620 C 386.27404,305.89798 372.80453,286.66030 347.12361,271.41050 C 343.78423,307.52540 333.81360,330.77373 378.65339,347.96620 z" style="fill:url(#linearGradient3770);fill-opacity:1;fill-rule:evenodd;stroke:#000;stroke-width:1px;stroke-linecap:butt;stroke-linejoin:miter;stroke-opacity:1"/><path id="path3750" d="M 372.42028,381.85753 C 375.14364,339.19147 392.84552,323.75906 421.44086,315.13507 C 415.99413,350.99272 420.07918,375.95690 372.42028,381.85753 z" style="fill:url(#linearGradient3772);fill-opacity:1;fill-rule:evenodd;stroke:#000;stroke-width:1px;stroke-linecap:butt;stroke-linejoin:miter;stroke-opacity:1"/><path id="path3752" d="M 380.70179,381.71695 C 382.87278,339.01922 367.05074,321.66471 339.62847,309.82893 C 340.94117,346.07414 334.02962,370.40783 380.70179,381.71695 z" style="fill:url(#linearGradient3774);fill-opacity:1;fill-rule:evenodd;stroke:#000;stroke-width:1px;stroke-linecap:butt;stroke-linejoin:miter;stroke-opacity:1"/><path id="path3754" d="M 370.37775,415.89961 C 373.10111,373.23355 390.80299,357.80114 419.39833,349.17715 C 413.95160,385.03480 418.03665,409.99898 370.37775,415.89961 z" style="fill:url(#linearGradient3776);fill-opacity:1;fill-rule:evenodd;stroke:#000;stroke-width:1px;stroke-linecap:butt;stroke-linejoin:miter;stroke-opacity:1"/><path id="path3756" d="M 375.04320,871.72254 L 399.69544,880.01891 C 368.72614,733.65205 375.78970,565.69897 380.79744,391.57839 L 363.70586,395.33733 C 358.23374,528.77715 353.78952,738.28273 375.04320,871.72254 z" style="fill:url(#linearGradient3778);fill-opacity:1;fill-rule:evenodd;stroke:#000;stroke-width:1.0675702px;stroke-linecap:butt;stroke-linejoin:miter;stroke-opacity:1"/><path id="path3758" d="M 385.35626,415.89961 C 382.63290,373.23355 364.93102,357.80114 336.33568,349.17715 C 341.78241,385.03480 337.69736,409.99898 385.35626,415.89961 z" style="fill:url(#linearGradient3780);fill-opacity:1;fill-rule:evenodd;stroke:#000;stroke-width:1px;stroke-linecap:butt;stroke-linejoin:miter;stroke-opacity:1"/></g><g id="g3828" transform="matrix(-1.305344,0.000000,0.000000,1.305344,771.2542,-116.3613)"><path id="path3830" d="M 378.01782,298.61747 C 402.70550,263.71292 398.62966,240.58494 381.80126,215.90961 C 363.50994,247.22838 344.64723,264.08354 378.01782,298.61747 z" style="fill:url(#linearGradient3852);fill-opacity:1;fill-rule:evenodd;stroke:#000;stroke-width:1px;stroke-linecap:butt;stroke-linejoin:miter;stroke-opacity:1"/><path id="path3832" d="M 373.10112,283.81636 C 375.82448,241.15030 393.52636,225.71789 422.12170,217.09390 C 416.67497,252.95155 420.76002,277.91573 373.10112,283.81636 z" style="fill:url(#linearGradient3854);fill-opacity:1;fill-rule:evenodd;stroke:#000;stroke-width:1px;stroke-linecap:butt;stroke-linejoin:miter;stroke-opacity:1"/><path id="path3834" d="M 373.10112,318.53928 C 375.82448,275.87322 393.52636,260.44081 422.12170,251.81682 C 416.67497,287.67447 420.76002,312.63865 373.10112,318.53928 z" style="fill:url(#linearGradient3856);fill-opacity:1;fill-rule:evenodd;stroke:#000;stroke-width:1px;stroke-linecap:butt;stroke-linejoin:miter;stroke-opacity:1"/><path id="path3836" d="M 379.35622,321.50480 C 394.06695,281.36250 384.09007,260.10273 361.39930,240.68120 C 351.92591,275.69110 338.12210,296.88904 379.35622,321.50480 z" style="fill:url(#linearGradient3858);fill-opacity:1;fill-rule:evenodd;stroke:#000;stroke-width:1px;stroke-linecap:butt;stroke-linejoin:miter;stroke-opacity:1"/><path id="path3838" d="M 373.78197,350.53883 C 376.50533,307.87277 394.20721,292.44036 422.80255,283.81637 C 417.35582,319.67402 421.44087,344.63820 373.78197,350.53883 z" style="fill:url(#linearGradient3860);fill-opacity:1;fill-rule:evenodd;stroke:#000;stroke-width:1px;stroke-linecap:butt;stroke-linejoin:miter;stroke-opacity:1"/><path id="path3840" d="M 378.65339,347.96620 C 386.27404,305.89798 372.80453,286.66030 347.12361,271.41050 C 343.78423,307.52540 333.81360,330.77373 378.65339,347.96620 z" style="fill:url(#linearGradient3862);fill-opacity:1;fill-rule:evenodd;stroke:#000;stroke-width:1px;stroke-linecap:butt;stroke-linejoin:miter;stroke-opacity:1"/><path id="path3842" d="M 372.42028,381.85753 C 375.14364,339.19147 392.84552,323.75906 421.44086,315.13507 C 415.99413,350.99272 420.07918,375.95690 372.42028,381.85753 z" style="fill:url(#linearGradient3864);fill-opacity:1;fill-rule:evenodd;stroke:#000;stroke-width:1px;stroke-linecap:butt;stroke-linejoin:miter;stroke-opacity:1"/><path id="path3844" d="M 380.70179,381.71695 C 382.87278,339.01922 367.05074,321.66471 339.62847,309.82893 C 340.94117,346.07414 334.02962,370.40783 380.70179,381.71695 z" style="fill:url(#linearGradient3866);fill-opacity:1;fill-rule:evenodd;stroke:#000;stroke-width:1px;stroke-linecap:butt;stroke-linejoin:miter;stroke-opacity:1"/><path id="path3846" d="M 370.37775,415.89961 C 373.10111,373.23355 390.80299,357.80114 419.39833,349.17715 C 413.95160,385.03480 418.03665,409.99898 370.37775,415.89961 z" style="fill:url(#linearGradient3868);fill-opacity:1;fill-rule:evenodd;stroke:#000;stroke-width:1px;stroke-linecap:butt;stroke-linejoin:miter;stroke-opacity:1"/><path id="path3848" d="M 375.04320,871.72254 L 399.69544,880.01891 C 368.72614,733.65205 375.78970,565.69897 380.79744,391.57839 L 363.70586,395.33733 C 358.23374,528.77715 353.78952,738.28273 375.04320,871.72254 z" style="fill:url(#linearGradient3870);fill-opacity:1;fill-rule:evenodd;stroke:#000;stroke-width:1.0675702px;stroke-linecap:butt;stroke-linejoin:miter;stroke-opacity:1"/><path id="path3850" d="M 385.35626,415.89961 C 382.63290,373.23355 364.93102,357.80114 336.33568,349.17715 C 341.78241,385.03480 337.69736,409.99898 385.35626,415.89961 z" style="fill:url(#linearGradient3872);fill-opacity:1;fill-rule:evenodd;stroke:#000;stroke-width:1px;stroke-linecap:butt;stroke-linejoin:miter;stroke-opacity:1"/></g><g id="g3874" transform="matrix(1.296495,0.151741,-0.151741,1.296495,-61.89769,-220.5740)"><path id="path3876" d="M 378.01782,298.61747 C 402.70550,263.71292 398.62966,240.58494 381.80126,215.90961 C 363.50994,247.22838 344.64723,264.08354 378.01782,298.61747 z" style="fill:url(#linearGradient3898);fill-opacity:1;fill-rule:evenodd;stroke:#000;stroke-width:1px;stroke-linecap:butt;stroke-linejoin:miter;stroke-opacity:1"/><path id="path3878" d="M 373.10112,283.81636 C 375.82448,241.15030 393.52636,225.71789 422.12170,217.09390 C 416.67497,252.95155 420.76002,277.91573 373.10112,283.81636 z" style="fill:url(#linearGradient3900);fill-opacity:1;fill-rule:evenodd;stroke:#000;stroke-width:1px;stroke-linecap:butt;stroke-linejoin:miter;stroke-opacity:1"/><path id="path3880" d="M 373.10112,318.53928 C 375.82448,275.87322 393.52636,260.44081 422.12170,251.81682 C 416.67497,287.67447 420.76002,312.63865 373.10112,318.53928 z" style="fill:url(#linearGradient3902);fill-opacity:1;fill-rule:evenodd;stroke:#000;stroke-width:1px;stroke-linecap:butt;stroke-linejoin:miter;stroke-opacity:1"/><path id="path3882" d="M 379.35622,321.50480 C 394.06695,281.36250 384.09007,260.10273 361.39930,240.68120 C 351.92591,275.69110 338.12210,296.88904 379.35622,321.50480 z" style="fill:url(#linearGradient3904);fill-opacity:1;fill-rule:evenodd;stroke:#000;stroke-width:1px;stroke-linecap:butt;stroke-linejoin:miter;stroke-opacity:1"/><path id="path3884" d="M 373.78197,350.53883 C 376.50533,307.87277 394.20721,292.44036 422.80255,283.81637 C 417.35582,319.67402 421.44087,344.63820 373.78197,350.53883 z" style="fill:url(#linearGradient3906);fill-opacity:1;fill-rule:evenodd;stroke:#000;stroke-width:1px;stroke-linecap:butt;stroke-linejoin:miter;stroke-opacity:1"/><path id="path3886" d="M 378.65339,347.96620 C 386.27404,305.89798 372.80453,286.66030 347.12361,271.41050 C 343.78423,307.52540 333.81360,330.77373 378.65339,347.96620 z" style="fill:url(#linearGradient3908);fill-opacity:1;fill-rule:evenodd;stroke:#000;stroke-width:1px;stroke-linecap:butt;stroke-linejoin:miter;stroke-opacity:1"/><path id="path3888" d="M 372.42028,381.85753 C 375.14364,339.19147 392.84552,323.75906 421.44086,315.13507 C 415.99413,350.99272 420.07918,375.95690 372.42028,381.85753 z" style="fill:url(#linearGradient3910);fill-opacity:1;fill-rule:evenodd;stroke:#000;stroke-width:1px;stroke-linecap:butt;stroke-linejoin:miter;stroke-opacity:1"/><path id="path3890" d="M 380.70179,381.71695 C 382.87278,339.01922 367.05074,321.66471 339.62847,309.82893 C 340.94117,346.07414 334.02962,370.40783 380.70179,381.71695 z" style="fill:url(#linearGradient3912);fill-opacity:1;fill-rule:evenodd;stroke:#000;stroke-width:1px;stroke-linecap:butt;stroke-linejoin:miter;stroke-opacity:1"/><path id="path3892" d="M 370.37775,415.89961 C 373.10111,373.23355 390.80299,357.80114 419.39833,349.17715 C 413.95160,385.03480 418.03665,409.99898 370.37775,415.89961 z" style="fill:url(#linearGradient3914);fill-opacity:1;fill-rule:evenodd;stroke:#000;stroke-width:1px;stroke-linecap:butt;stroke-linejoin:miter;stroke-opacity:1"/><path id="path3894" d="M 375.04320,871.72254 L 399.69544,880.01891 C 368.72614,733.65205 375.78970,565.69897 380.79744,391.57839 L 363.70586,395.33733 C 358.23374,528.77715 353.78952,738.28273 375.04320,871.72254 z" style="fill:url(#linearGradient3916);fill-opacity:1;fill-rule:evenodd;stroke:#000;stroke-width:1.0675702px;stroke-linecap:butt;stroke-linejoin:miter;stroke-opacity:1"/><path id="path3896" d="M 385.35626,415.89961 C 382.63290,373.23355 364.93102,357.80114 336.33568,349.17715 C 341.78241,385.03480 337.69736,409.99898 385.35626,415.89961 z" style="fill:url(#linearGradient3918);fill-opacity:1;fill-rule:evenodd;stroke:#000;stroke-width:1px;stroke-linecap:butt;stroke-linejoin:miter;stroke-opacity:1"/></g><path style="fill:url(#linearGradient3939);fill-opacity:1;fill-rule:evenodd;stroke:#000;stroke-width:3.75;stroke-linecap:round;stroke-linejoin:round;stroke-miterlimit:4;stroke-opacity:1" id="path1308" d="M 17.812821,501.92424 C 184.70772,630.30493 447.12056,637.36587 581.27839,650.20394 C 588.77651,634.31211 622.92252,626.27829 631.22832,639.77773 L 619.69410,544.81554 C 612.74053,532.90139 591.21902,528.17443 573.43038,545.41792 C 468.80011,555.36742 221.61717,543.00607 17.812821,501.92424 z"/><path style="fill:url(#linearGradient3944);fill-opacity:1;stroke:#000;stroke-width:5.0311499;stroke-linecap:round;stroke-linejoin:round;stroke-miterlimit:4;stroke-opacity:1" id="path2072" d="M 654.74154 44.772766 A 40.921345 16.849966 0 1 1 572.89885,44.772766 A 40.921345 16.849966 0 1 1 654.74154 44.772766 z" transform="matrix(0.554751,-0.113466,2.131928e-2,-0.615535,267.3469,763.0500)"/><path style="fill:url(#linearGradient3935);fill-opacity:1;fill-rule:evenodd;stroke:none;stroke-width:1px;stroke-linecap:butt;stroke-linejoin:miter;stroke-opacity:1" id="path3614" d="M 120.83833,548.14129 C 202.54335,606.84629 415.20909,636.29593 551.23461,640.57539 C 558.03261,640.78926 553.42110,619.42722 546.42033,619.39257 C 314.58914,618.25009 112.70985,542.30098 120.83833,548.14129 z"/></g></svg>