<svg xmlns="http://www.w3.org/2000/svg" xmlns:cc="http://web.resource.org/cc/" xmlns:svg="http://www.w3.org/2000/svg" xmlns:xlink="http://www.w3.org/1999/xlink" id="svg1" width="755.906" height="755.906"><defs id="defs3"><linearGradient id="linearGradient6713"><stop id="stop6714" offset="0" style="stop-color:#fff;stop-opacity:1"/><stop id="stop6715" offset="1" style="stop-color:#e4e4e4;stop-opacity:1"/></linearGradient><linearGradient id="linearGradient5447"><stop id="stop5448" offset="0" style="stop-color:#a32323;stop-opacity:1"/><stop id="stop5449" offset="1" style="stop-color:#541c1c;stop-opacity:1"/></linearGradient><linearGradient id="linearGradient5444"><stop id="stop5445" offset="0" style="stop-color:#c37c27;stop-opacity:1"/><stop id="stop5446" offset="1" style="stop-color:#593812;stop-opacity:1"/></linearGradient><linearGradient id="linearGradient6925" x1="715.593" x2="826.62" y1="553.327" y2="1231.727" gradientTransform="scale(1.663093,0.601289)" gradientUnits="userSpaceOnUse" xlink:href="#linearGradient5444"/><linearGradient id="linearGradient6933" x1="865.767" x2="818.168" y1="769.148" y2="847.581" gradientTransform="scale(1.499226,0.667011)" gradientUnits="userSpaceOnUse" xlink:href="#linearGradient5444"/><linearGradient id="linearGradient6941" x1="1960.113" x2="1966.799" y1="451.682" y2="473.759" gradientTransform="scale(0.764384,1.308243)" gradientUnits="userSpaceOnUse" xlink:href="#linearGradient5444"/><linearGradient id="linearGradient6949" x1="985.457" x2="962.494" y1="636.324" y2="772.71" gradientTransform="scale(1.166551,0.857228)" gradientUnits="userSpaceOnUse" xlink:href="#linearGradient5444"/><linearGradient id="linearGradient7715" x1="1630.694" x2="1639.928" y1="554.595" y2="580.486" gradientTransform="scale(0.814814,1.227274)" gradientUnits="userSpaceOnUse" xlink:href="#linearGradient5444"/><linearGradient id="linearGradient7723" x1="661.641" x2="619.053" y1="970.391" y2="1026.902" gradientTransform="scale(1.603593,0.623600)" gradientUnits="userSpaceOnUse" xlink:href="#linearGradient5444"/><linearGradient id="linearGradient8582" x1="63.382" x2="82.871" y1="608.769" y2="1891.063" gradientTransform="matrix(0.653446,2.441106e-7,-3.184329e-8,8.523944e-2,210.7156,-25.05689)" gradientUnits="userSpaceOnUse" xlink:href="#linearGradient5444"/><linearGradient id="linearGradient8584" x1="63.382" x2="82.871" y1="608.769" y2="1891.063" gradientTransform="matrix(1.223056,0.000000,0.000000,0.159543,32.66191,18.66433)" gradientUnits="userSpaceOnUse" xlink:href="#linearGradient5444"/><radialGradient id="radialGradient8586" cx="184.853" cy="263.683" r="510.035" fx="184.853" fy="263.683" gradientTransform="matrix(0.606788,0.000000,0.000000,0.606760,8.844896,17.68703)" gradientUnits="userSpaceOnUse" xlink:href="#linearGradient5444"/><radialGradient id="radialGradient8588" cx="335.057" cy="311.579" r="103.122" fx="335.057" fy="311.579" gradientUnits="userSpaceOnUse" xlink:href="#linearGradient5444"/><linearGradient id="linearGradient8600" x1="63.382" x2="82.871" y1="608.769" y2="1891.063" gradientTransform="matrix(1.223055,-1.653554e-16,2.156997e-17,0.159543,-285.1695,96.95279)" gradientUnits="userSpaceOnUse" xlink:href="#linearGradient5444"/><linearGradient id="linearGradient8604" x1="63.382" x2="82.871" y1="608.769" y2="1891.063" gradientTransform="matrix(1.223055,1.653554e-16,-2.156997e-17,0.159543,-511.8855,-139.1534)" gradientUnits="userSpaceOnUse" xlink:href="#linearGradient5444"/><linearGradient id="linearGradient8608" x1="63.382" x2="82.871" y1="608.769" y2="1891.063" gradientTransform="matrix(1.223056,-1.318680e-32,1.720165e-33,0.159543,-420.7699,-453.5478)" gradientUnits="userSpaceOnUse" xlink:href="#linearGradient5444"/><linearGradient id="linearGradient8612" x1="63.382" x2="82.871" y1="608.769" y2="1891.063" gradientTransform="matrix(1.223055,-1.653554e-16,2.156997e-17,0.159543,-102.9397,-531.8352)" gradientUnits="userSpaceOnUse" xlink:href="#linearGradient5444"/><linearGradient id="linearGradient8616" x1="63.382" x2="82.871" y1="608.769" y2="1891.063" gradientTransform="matrix(1.223055,1.653554e-16,-2.156997e-17,0.159543,123.7770,-295.7292)" gradientUnits="userSpaceOnUse" xlink:href="#linearGradient5444"/><linearGradient id="linearGradient8620" x1="63.382" x2="82.871" y1="608.769" y2="1891.063" gradientTransform="matrix(0.653447,-1.630594e-17,2.127043e-18,8.523954e-2,-25.38969,201.6585)" gradientUnits="userSpaceOnUse" xlink:href="#linearGradient5444"/><linearGradient id="linearGradient8624" x1="63.382" x2="82.871" y1="608.769" y2="1891.063" gradientTransform="matrix(0.653446,-5.537950e-24,7.224030e-25,8.523938e-2,-339.7844,110.5420)" gradientUnits="userSpaceOnUse" xlink:href="#linearGradient5444"/><linearGradient id="linearGradient8628" x1="63.382" x2="82.871" y1="608.769" y2="1891.063" gradientTransform="matrix(0.653447,1.630594e-17,-2.127043e-18,8.523954e-2,-418.0736,-207.2896)" gradientUnits="userSpaceOnUse" xlink:href="#linearGradient5444"/><linearGradient id="linearGradient8632" x1="63.382" x2="82.871" y1="608.769" y2="1891.063" gradientTransform="matrix(0.653447,-1.630594e-17,2.127043e-18,8.523954e-2,-181.9674,-434.0056)" gradientUnits="userSpaceOnUse" xlink:href="#linearGradient5444"/><linearGradient id="linearGradient8636" x1="63.382" x2="82.871" y1="608.769" y2="1891.063" gradientTransform="matrix(0.653446,-5.537950e-24,7.224030e-25,8.523938e-2,132.4275,-342.8890)" gradientUnits="userSpaceOnUse" xlink:href="#linearGradient5444"/><linearGradient id="linearGradient8648" x1="63.382" x2="82.871" y1="608.769" y2="1891.063" gradientTransform="matrix(2.015668,-1.320524e-16,1.722570e-17,0.262936,-1527.358,-712.0527)" gradientUnits="userSpaceOnUse" xlink:href="#linearGradient5444"/><linearGradient id="linearGradient8652" x1="63.382" x2="82.871" y1="608.769" y2="1891.063" gradientTransform="matrix(2.015668,1.320524e-16,-1.722570e-17,0.262936,-617.2750,-1580.969)" gradientUnits="userSpaceOnUse" xlink:href="#linearGradient5444"/><linearGradient id="linearGradient8656" x1="63.382" x2="82.871" y1="608.769" y2="1891.063" gradientTransform="matrix(2.015670,0.000000,0.000000,0.262936,590.2684,-1227.273)" gradientUnits="userSpaceOnUse" xlink:href="#linearGradient5444"/><linearGradient id="linearGradient8660" x1="63.382" x2="82.871" y1="608.769" y2="1891.063" gradientTransform="matrix(2.015668,-1.320524e-16,1.722570e-17,0.262936,887.7298,-4.661311)" gradientUnits="userSpaceOnUse" xlink:href="#linearGradient5444"/><linearGradient id="linearGradient8664" x1="63.382" x2="82.871" y1="608.769" y2="1891.063" gradientTransform="matrix(2.015668,1.320524e-16,-1.722570e-17,0.262936,-22.35201,864.2545)" gradientUnits="userSpaceOnUse" xlink:href="#linearGradient5444"/><linearGradient id="linearGradient8668" x1="63.382" x2="82.871" y1="608.769" y2="1891.063" gradientTransform="matrix(1.076920,8.219405e-19,-1.072242e-19,0.140480,-1393.480,106.0008)" gradientUnits="userSpaceOnUse" xlink:href="#linearGradient5444"/><linearGradient id="linearGradient8672" x1="63.382" x2="82.871" y1="608.769" y2="1891.063" gradientTransform="matrix(1.076920,-1.236203e-24,1.612586e-25,0.140480,-1039.784,-1101.543)" gradientUnits="userSpaceOnUse" xlink:href="#linearGradient5444"/><linearGradient id="linearGradient8676" x1="63.382" x2="82.871" y1="608.769" y2="1891.063" gradientTransform="matrix(1.076920,-8.219405e-19,1.072242e-19,0.140480,182.8280,-1399.005)" gradientUnits="userSpaceOnUse" xlink:href="#linearGradient5444"/><linearGradient id="linearGradient8680" x1="63.382" x2="82.871" y1="608.769" y2="1891.063" gradientTransform="matrix(1.076920,8.219405e-19,-1.072242e-19,0.140480,1051.743,-488.9227)" gradientUnits="userSpaceOnUse" xlink:href="#linearGradient5444"/><linearGradient id="linearGradient8684" x1="63.382" x2="82.871" y1="608.769" y2="1891.063" gradientTransform="matrix(1.076920,-1.236203e-24,1.612586e-25,0.140480,698.0474,718.6206)" gradientUnits="userSpaceOnUse" xlink:href="#linearGradient5444"/><radialGradient id="radialGradient8686" cx="335.057" cy="311.579" r="103.122" fx="335.057" fy="311.579" gradientUnits="userSpaceOnUse" xlink:href="#linearGradient5444"/><radialGradient id="radialGradient8688" cx="184.853" cy="263.683" r="510.035" fx="184.853" fy="263.683" gradientTransform="matrix(1.000023,0.000000,0.000000,0.999977,-1269.148,508.9478)" gradientUnits="userSpaceOnUse" xlink:href="#linearGradient5444"/><linearGradient id="linearGradient8690" x1="63.382" x2="82.871" y1="608.769" y2="1891.063" gradientTransform="matrix(2.015670,0.000000,0.000000,0.262936,-1229.896,510.5584)" gradientUnits="userSpaceOnUse" xlink:href="#linearGradient5444"/><linearGradient id="linearGradient8692" x1="63.382" x2="82.871" y1="608.769" y2="1891.063" gradientTransform="matrix(1.076920,-4.042811e-17,5.273689e-18,0.140480,-524.5642,1016.083)" gradientUnits="userSpaceOnUse" xlink:href="#linearGradient5444"/><linearGradient id="linearGradient9460" x1="2296.15" x2="2461.528" y1="151.563" y2="151.563" gradientTransform="matrix(0.235656,-1.526325e-7,1.183137e-6,1.826697,-281.9786,22.51686)" gradientUnits="userSpaceOnUse" xlink:href="#linearGradient5444"/><linearGradient id="linearGradient9464" x1="2296.15" x2="2461.528" y1="151.563" y2="151.563" gradientTransform="matrix(0.312530,-2.217536e-7,1.569046e-6,3.400447,-225.3948,-739.7164)" gradientUnits="userSpaceOnUse" xlink:href="#linearGradient5444"/><linearGradient id="linearGradient9468" x1="2296.15" x2="2461.528" y1="151.563" y2="151.563" gradientTransform="matrix(0.131576,-1.261774e-7,6.915777e-7,1.783645,-129.2480,290.2820)" gradientUnits="userSpaceOnUse" xlink:href="#linearGradient5444"/><linearGradient id="linearGradient9472" x1="2296.15" x2="2461.528" y1="151.563" y2="151.563" gradientTransform="matrix(0.194230,-1.079782e-7,2.181271e-6,1.822558,-34.91958,312.3484)" gradientUnits="userSpaceOnUse" xlink:href="#linearGradient5444"/><linearGradient id="linearGradient9476" x1="2296.15" x2="2461.528" y1="151.563" y2="151.563" gradientTransform="matrix(0.129003,-2.864802e-7,6.599100e-7,2.716031,244.5059,-246.3615)" gradientUnits="userSpaceOnUse" xlink:href="#linearGradient5444"/><linearGradient id="linearGradient9480" x1="2296.15" x2="2461.528" y1="151.563" y2="151.563" gradientTransform="matrix(5.443997e-2,-6.128161e-8,2.808933e-7,0.774360,175.1852,-678.7255)" gradientUnits="userSpaceOnUse" xlink:href="#linearGradient5444"/><radialGradient id="radialGradient10250" cx="804.761" cy="226.825" r="281.53" fx="804.761" fy="226.825" gradientTransform="matrix(1.019921,-9.812863e-2,9.346780e-2,0.971477,-332.6372,-7.822809)" gradientUnits="userSpaceOnUse" xlink:href="#linearGradient6713"/></defs><metadata id="metadata4"/><g id="layer1"><rect id="rect9470" width="28.742" height="297.319" x="412.752" y="439.921" rx="15.075" ry="14.206" transform="matrix(0.995396,9.585281e-2,0.278131,0.960543,0.000000,0.000000)" style="fill:url(#linearGradient9472);fill-opacity:1;stroke:#411400;stroke-width:3.7185965;stroke-linecap:round;stroke-linejoin:round;stroke-miterlimit:4;stroke-opacity:1"/><rect id="rect9466" width="19.47" height="290.971" x="174.016" y="415.131" rx="15.12" ry="14.535" transform="matrix(0.892564,0.450921,-0.132774,0.991146,0.000000,0.000000)" style="fill:url(#linearGradient9468);fill-opacity:1;stroke:#411400;stroke-width:3.0277703;stroke-linecap:round;stroke-linejoin:round;stroke-miterlimit:4;stroke-opacity:1"/><rect id="rect4589" width="162.357" height="18.07" x="-504.954" y="1198.509" transform="matrix(0.866025,0.500000,-0.500000,0.866025,0.000000,0.000000)" style="fill:url(#linearGradient8692);fill-opacity:1;stroke:#411400;stroke-width:2.4309671;stroke-linecap:round;stroke-linejoin:round;stroke-miterlimit:4;stroke-opacity:1"/><rect id="use4591" width="162.357" height="18.07" x="717.658" y="901.047" transform="matrix(-1.342181e-7,1.000000,-1.000000,-1.342181e-7,0.000000,0.000000)" style="fill:url(#linearGradient8684);fill-opacity:1;stroke:#411400;stroke-width:2.4309669;stroke-linecap:round;stroke-linejoin:round;stroke-miterlimit:4;stroke-opacity:1"/><rect id="use4593" width="162.357" height="18.07" x="1071.354" y="-306.497" transform="matrix(-0.866025,0.500000,-0.500000,-0.866025,0.000000,0.000000)" style="fill:url(#linearGradient8680);fill-opacity:1;stroke:#411400;stroke-width:2.4309666;stroke-linecap:round;stroke-linejoin:round;stroke-miterlimit:4;stroke-opacity:1"/><rect id="use4595" width="162.357" height="18.07" x="202.439" y="-1216.579" transform="matrix(-0.866025,-0.500000,0.500000,-0.866025,0.000000,0.000000)" style="fill:url(#linearGradient8676);fill-opacity:1;stroke:#411400;stroke-width:2.4309666;stroke-linecap:round;stroke-linejoin:round;stroke-miterlimit:4;stroke-opacity:1"/><rect id="use4597" width="162.357" height="18.07" x="-1020.173" y="-919.117" transform="matrix(1.342181e-7,-1.000000,1.000000,1.342181e-7,0.000000,0.000000)" style="fill:url(#linearGradient8672);fill-opacity:1;stroke:#411400;stroke-width:2.4309669;stroke-linecap:round;stroke-linejoin:round;stroke-miterlimit:4;stroke-opacity:1"/><rect id="use4599" width="162.357" height="18.07" x="-1373.87" y="288.426" transform="matrix(0.866025,-0.500000,0.500000,0.866025,0.000000,0.000000)" style="fill:url(#linearGradient8668);fill-opacity:1;stroke:#411400;stroke-width:2.4309666;stroke-linecap:round;stroke-linejoin:round;stroke-miterlimit:4;stroke-opacity:1"/><rect id="rect3763" width="303.883" height="33.822" x="-1193.191" y="852.004" style="fill:url(#linearGradient8690);fill-opacity:1;stroke:#411400;stroke-width:4.5500379;stroke-linecap:round;stroke-linejoin:round;stroke-miterlimit:4;stroke-opacity:1"/><rect id="use4579" width="303.883" height="33.822" x="14.353" y="1205.7" transform="matrix(0.500000,0.866025,-0.866025,0.500000,0.000000,0.000000)" style="fill:url(#linearGradient8664);fill-opacity:1;stroke:#411400;stroke-width:4.550035;stroke-linecap:round;stroke-linejoin:round;stroke-miterlimit:4;stroke-opacity:1"/><rect id="use4581" width="303.883" height="33.822" x="924.435" y="336.785" transform="matrix(-0.500000,0.866025,-0.866025,-0.500000,0.000000,0.000000)" style="fill:url(#linearGradient8660);fill-opacity:1;stroke:#411400;stroke-width:4.550035;stroke-linecap:round;stroke-linejoin:round;stroke-miterlimit:4;stroke-opacity:1"/><rect id="use4583" width="303.883" height="33.822" x="626.973" y="-885.827" transform="scale(-1.000000,-1.000000)" style="fill:url(#linearGradient8656);fill-opacity:1;stroke:#411400;stroke-width:4.5500379;stroke-linecap:round;stroke-linejoin:round;stroke-miterlimit:4;stroke-opacity:1"/><rect id="use4585" width="303.883" height="33.822" x="-580.57" y="-1239.523" transform="matrix(-0.500000,-0.866025,0.866025,-0.500000,0.000000,0.000000)" style="fill:url(#linearGradient8652);fill-opacity:1;stroke:#411400;stroke-width:4.550035;stroke-linecap:round;stroke-linejoin:round;stroke-miterlimit:4;stroke-opacity:1"/><rect id="use4587" width="303.883" height="33.822" x="-1490.653" y="-370.607" transform="matrix(0.500000,-0.866025,0.866025,0.500000,0.000000,0.000000)" style="fill:url(#linearGradient8648);fill-opacity:1;stroke:#411400;stroke-width:4.550035;stroke-linecap:round;stroke-linejoin:round;stroke-miterlimit:4;stroke-opacity:1"/><path id="path1459" d="M -917.39821,536.60401 C -1101.0626,536.60401 -1250.1482,685.65838 -1250.1482,869.32276 C -1250.1482,1052.9871 -1101.0626,1202.0415 -917.39821,1202.0415 C -733.73384,1202.0415 -584.67945,1052.9871 -584.67946,869.32276 C -584.67946,685.65839 -733.73386,536.60401 -917.39821,536.60401 z M -917.39821,612.66651 C -775.71421,612.66651 -660.74196,727.63877 -660.74196,869.32276 C -660.74195,1011.0068 -775.71422,1126.0103 -917.39821,1126.0103 C -1059.0822,1126.0103 -1174.0857,1011.0067 -1174.0857,869.32276 C -1174.0857,727.63878 -1059.0822,612.66651 -917.39821,612.66651 z" style="fill:url(#radialGradient8688);fill-opacity:1;stroke:#411400;stroke-width:6.25;stroke-linecap:round;stroke-linejoin:round;stroke-miterlimit:4;stroke-opacity:1"/><path id="path2993" d="M 433.24984 353.52542 A 71.671440 71.671440 0 1 1 289.90696,353.52542 A 71.671440 71.671440 0 1 1 433.24984 353.52542 z" transform="translate(-1269.148,508.9478)" style="fill:url(#radialGradient8686);fill-opacity:1;stroke:#411400;stroke-width:6.25;stroke-linecap:round;stroke-linejoin:round;stroke-miterlimit:4;stroke-opacity:1"/><path id="path5387" d="M 794.89119,574.31026 L 1307.4137,717.62997 L 1306.9866,773.00715 L 794.99184,629.44441 L 794.89119,574.31026 z" style="stroke-miterlimit:4;stroke-dasharray:none;fill:url(#linearGradient7723);fill-opacity:1;fill-rule:evenodd;stroke:#411400;stroke-width:6.25;stroke-linecap:round;stroke-linejoin:round;stroke-opacity:1"/><path id="path5389" d="M 1363.2179,743.96616 L 1363.2179,688.01956 L 1307.4136,717.77233 L 1307.1289,773.00715 L 1363.2179,743.96616 z" style="stroke-miterlimit:4;stroke-dasharray:none;fill:url(#linearGradient7715);fill-opacity:1;fill-rule:evenodd;stroke:#411400;stroke-width:6.25;stroke-linecap:round;stroke-linejoin:round;stroke-opacity:1"/><path id="path5395" d="M 1137.9167,520.62379 L 1485.6967,619.70478 L 1485.5543,674.79724 L 1190.3044,590.37909 L 1137.9167,520.62379 z" style="stroke-miterlimit:4;stroke-dasharray:none;stroke-opacity:1;stroke-linejoin:round;stroke-linecap:round;stroke-width:6.25;stroke:#411400;fill-rule:evenodd;fill-opacity:1;fill:url(#linearGradient6933)"/><path id="path5397" d="M 1530.8468,652.78751 L 1530.5621,597.12563 L 1485.7026,619.86659 L 1485.7026,675.10140 L 1530.8468,652.78751 z" style="stroke-miterlimit:4;stroke-dasharray:none;fill:url(#linearGradient6941);fill-opacity:1;fill-rule:evenodd;stroke:#411400;stroke-width:6.25;stroke-linecap:round;stroke-linejoin:round;stroke-opacity:1"/><path id="path5401" d="M 1190.4040,590.02438 L 1137.8741,520.69615 L 1013.8738,589.97007 L 1091.2573,650.15240 L 1190.4040,590.02438 z" style="stroke-miterlimit:4;stroke-dasharray:none;fill:url(#linearGradient6949);fill-opacity:1;fill-rule:evenodd;stroke:#411400;stroke-width:6.25;stroke-linecap:round;stroke-linejoin:round;stroke-opacity:1"/><path id="path4609" d="M 794.92572,574.27572 L 1307.4136,717.77233 L 1363.2179,688.16192 L 1013.7713,590.07668 L 1137.9073,520.60610 L 1486.2149,619.83020 L 1530.6306,597.05295 L 1014.7261,452.41748 L 794.92572,574.27572 z" style="stroke-miterlimit:4;stroke-dasharray:none;fill:url(#linearGradient6925);fill-opacity:1;fill-rule:evenodd;stroke:#411400;stroke-width:6.25;stroke-linecap:round;stroke-linejoin:round;stroke-opacity:1"/><rect id="rect8554" width="98.514" height="10.965" x="222.614" y="85.634" transform="matrix(0.866025,0.500000,-0.500000,0.866025,0.000000,0.000000)" style="fill:url(#linearGradient8582);fill-opacity:1;stroke:#411400;stroke-width:1.475045;stroke-linecap:round;stroke-linejoin:round;stroke-miterlimit:4;stroke-opacity:1"/><rect id="use8556" width="98.514" height="10.965" x="144.327" y="-232.198" transform="matrix(-1.342183e-7,1.000000,-1.000000,-1.342183e-7,0.000000,0.000000)" style="fill:url(#linearGradient8636);fill-opacity:1;stroke:#411400;stroke-width:1.475045;stroke-linecap:round;stroke-linejoin:round;stroke-miterlimit:4;stroke-opacity:1"/><rect id="use8558" width="98.514" height="10.965" x="-170.068" y="-323.314" transform="matrix(-0.866025,0.500001,-0.500001,-0.866025,0.000000,0.000000)" style="fill:url(#linearGradient8632);fill-opacity:1;stroke:#411400;stroke-width:1.4750479;stroke-linecap:round;stroke-linejoin:round;stroke-miterlimit:4;stroke-opacity:1"/><rect id="use8560" width="98.514" height="10.965" x="-406.174" y="-96.598" transform="matrix(-0.866025,-0.500001,0.500001,-0.866025,0.000000,0.000000)" style="fill:url(#linearGradient8628);fill-opacity:1;stroke:#411400;stroke-width:1.4750479;stroke-linecap:round;stroke-linejoin:round;stroke-miterlimit:4;stroke-opacity:1"/><rect id="use8562" width="98.514" height="10.965" x="-327.885" y="221.233" transform="matrix(1.342183e-7,-1.000000,1.000000,1.342183e-7,0.000000,0.000000)" style="fill:url(#linearGradient8624);fill-opacity:1;stroke:#411400;stroke-width:1.475045;stroke-linecap:round;stroke-linejoin:round;stroke-miterlimit:4;stroke-opacity:1"/><rect id="use8564" width="98.514" height="10.965" x="-13.49" y="312.35" transform="matrix(0.866025,-0.500001,0.500001,0.866025,0.000000,0.000000)" style="fill:url(#linearGradient8620);fill-opacity:1;stroke:#411400;stroke-width:1.4750479;stroke-linecap:round;stroke-linejoin:round;stroke-miterlimit:4;stroke-opacity:1"/><rect id="rect8566" width="184.388" height="20.523" x="54.933" y="225.845" style="fill:url(#linearGradient8584);fill-opacity:1;stroke:#411400;stroke-width:2.7608435;stroke-linecap:round;stroke-linejoin:round;stroke-miterlimit:4;stroke-opacity:1"/><rect id="use8568" width="184.388" height="20.523" x="146.049" y="-88.549" transform="matrix(0.500000,0.866025,-0.866025,0.500000,0.000000,0.000000)" style="fill:url(#linearGradient8616);fill-opacity:1;stroke:#411400;stroke-width:2.760839;stroke-linecap:round;stroke-linejoin:round;stroke-miterlimit:4;stroke-opacity:1"/><rect id="use8570" width="184.388" height="20.523" x="-80.668" y="-324.655" transform="matrix(-0.500000,0.866025,-0.866025,-0.500000,0.000000,0.000000)" style="fill:url(#linearGradient8612);fill-opacity:1;stroke:#411400;stroke-width:2.760839;stroke-linecap:round;stroke-linejoin:round;stroke-miterlimit:4;stroke-opacity:1"/><rect id="use8572" width="184.388" height="20.523" x="-398.499" y="-246.367" transform="scale(-1.000000,-1.000000)" style="fill:url(#linearGradient8608);fill-opacity:1;stroke:#411400;stroke-width:2.7608447;stroke-linecap:round;stroke-linejoin:round;stroke-miterlimit:4;stroke-opacity:1"/><rect id="use8574" width="184.388" height="20.523" x="-489.614" y="68.026" transform="matrix(-0.500000,-0.866025,0.866025,-0.500000,0.000000,0.000000)" style="fill:url(#linearGradient8604);fill-opacity:1;stroke:#411400;stroke-width:2.760839;stroke-linecap:round;stroke-linejoin:round;stroke-miterlimit:4;stroke-opacity:1"/><rect id="use8576" width="184.388" height="20.523" x="-262.898" y="304.133" transform="matrix(0.500000,-0.866025,0.866025,0.500000,0.000000,0.000000)" style="fill:url(#linearGradient8600);fill-opacity:1;stroke:#411400;stroke-width:2.760839;stroke-linecap:round;stroke-linejoin:round;stroke-miterlimit:4;stroke-opacity:1"/><path id="path8578" d="M 222.27660,34.468120 C 110.83390,34.468120 20.372697,124.91040 20.372697,236.35312 C 20.372697,347.79583 110.83390,438.23812 222.27660,438.23811 C 333.71930,438.23811 424.16160,347.79583 424.16160,236.35312 C 424.16160,124.91040 333.71930,34.468120 222.27660,34.468120 z M 222.27660,80.620850 C 308.24680,80.620850 378.00890,150.38300 378.00890,236.35312 C 378.00890,322.32325 308.24680,392.10435 222.27660,392.10435 C 136.30650,392.10436 66.525397,322.32324 66.525397,236.35312 C 66.525397,150.38300 136.30650,80.620850 222.27660,80.620850 z" style="fill:url(#radialGradient8586);fill-opacity:1;stroke:#411400;stroke-width:3.7923357;stroke-linecap:round;stroke-linejoin:round;stroke-miterlimit:4;stroke-opacity:1"/><path id="path8580" d="M 433.24984 353.52542 A 71.671440 71.671440 0 1 1 289.90696,353.52542 A 71.671440 71.671440 0 1 1 433.24984 353.52542 z" transform="matrix(0.606774,0.000000,0.000000,0.606774,8.843896,17.68703)" style="fill:url(#radialGradient8588);fill-opacity:1;stroke:#411400;stroke-width:6.25;stroke-linecap:round;stroke-linejoin:round;stroke-miterlimit:4;stroke-opacity:1"/><rect id="rect8694" width="34.872" height="297.994" x="261.174" y="150.38" rx="17.436" ry="14.79" transform="matrix(0.967788,0.251767,-0.251767,0.967788,0.000000,0.000000)" style="fill:url(#linearGradient9460);fill-opacity:1;stroke:#411400;stroke-width:4.1006503;stroke-linecap:round;stroke-linejoin:round;stroke-miterlimit:4;stroke-opacity:1"/><rect id="rect9474" width="19.089" height="443.074" x="541.838" y="-56.248" rx="9.432" ry="10.557" transform="matrix(0.990078,0.140521,-1.886212e-2,0.999822,0.000000,0.000000)" style="fill:url(#linearGradient9476);fill-opacity:1;stroke:#411400;stroke-width:3.6995294;stroke-linecap:round;stroke-linejoin:round;stroke-miterlimit:4;stroke-opacity:1"/><rect id="rect9462" width="46.247" height="554.724" x="494.941" y="-501.697" rx="17.259" ry="14.751" transform="matrix(0.202205,0.979343,-0.994884,0.101028,0.000000,0.000000)" style="fill:url(#linearGradient9464);fill-opacity:1;stroke:#411400;stroke-width:6.4430857;stroke-linecap:round;stroke-linejoin:round;stroke-miterlimit:4;stroke-opacity:1"/><rect id="rect9478" width="8.056" height="126.323" x="300.661" y="-624.523" rx="9.493" ry="10.559" transform="matrix(-6.841232e-2,0.997657,-0.999999,-1.482768e-3,0.000000,0.000000)" style="fill:url(#linearGradient9480);fill-opacity:1;stroke:#411400;stroke-width:1.2832465;stroke-linecap:round;stroke-linejoin:round;stroke-miterlimit:4;stroke-opacity:1"/><path id="path10252" d="M 477.94546,310.54918 C 447.64383,332.53325 418.49215,259.44463 461.59203,259.49301 C 425.07463,236.69164 463.09237,191.84553 491.34717,212.00949 C 454.24148,194.98533 441.20305,166.49263 458.25041,153.41126 C 434.02771,115.69754 513.51045,73.726712 535.61790,101.34685 C 545.71691,67.577067 670.46772,71.973603 647.80406,101.99440 C 670.04033,95.278516 666.90395,145.92160 648.00244,139.73131 C 668.19188,175.16346 652.23407,179.74979 628.55901,187.36685 C 659.91497,176.34117 698.42310,192.08629 680.20690,224.73017 C 712.35723,253.67231 687.30408,306.42405 650.29974,282.52541 C 659.18154,311.41802 611.42491,334.31871 602.71058,311.13060 C 555.71515,302.30405 519.90397,302.69852 477.94546,310.54918 z" style="fill:#000;fill-opacity:.57530123;fill-rule:evenodd;stroke:none;stroke-width:1px;stroke-linecap:butt;stroke-linejoin:miter;stroke-opacity:1"/><path id="path9482" d="M 475.66774,307.13259 C 445.36611,329.11666 416.21443,256.02804 459.31431,256.07642 C 422.79691,233.27505 460.81465,188.42894 489.06945,208.59290 C 451.96376,191.56874 438.92533,163.07604 455.97269,149.99467 C 431.74999,112.28095 511.23273,70.310126 533.34018,97.930265 C 543.43919,64.160481 668.19000,68.557017 645.52634,98.577813 C 667.76261,91.861930 664.62623,142.50501 645.72472,136.31472 C 665.91416,171.74687 649.95635,176.33320 626.28129,183.95026 C 657.63725,172.92458 696.14538,188.66970 677.92918,221.31358 C 710.07951,250.25572 685.02636,303.00746 648.02202,279.10882 C 656.90382,308.00143 609.14719,330.90212 600.43286,307.71401 C 553.43743,298.88746 517.62625,299.28193 475.66774,307.13259 z" style="fill:url(#radialGradient10250);fill-opacity:1;fill-rule:evenodd;stroke:#000;stroke-width:1px;stroke-linecap:butt;stroke-linejoin:miter;stroke-opacity:1"/></g></svg>