<svg xmlns="http://www.w3.org/2000/svg" xmlns:cc="http://web.resource.org/cc/" xmlns:xlink="http://www.w3.org/1999/xlink" id="svg1130" width="755.906" height="755.906"><defs id="defs3"><linearGradient id="linearGradient8668"><stop style="stop-color:#000;stop-opacity:.66666669" id="stop8669" offset="0"/><stop style="stop-color:#000;stop-opacity:0" id="stop8670" offset="1"/></linearGradient><linearGradient id="linearGradient8043"><stop style="stop-color:#076c00;stop-opacity:1" id="stop8044" offset="0"/><stop style="stop-color:#044800;stop-opacity:1" id="stop8045" offset="1"/></linearGradient><linearGradient id="linearGradient5550"><stop style="stop-color:#098000;stop-opacity:1" id="stop5551" offset="0"/><stop style="stop-color:#065700;stop-opacity:1" id="stop5552" offset="1"/></linearGradient><linearGradient id="linearGradient3649"><stop style="stop-color:#858585;stop-opacity:1" id="stop3650" offset="0"/><stop style="stop-color:#d1d1d1;stop-opacity:1" id="stop3651" offset="1"/></linearGradient><linearGradient id="linearGradient1773"><stop style="stop-color:#3a3a3a;stop-opacity:1" id="stop1774" offset="0"/><stop style="stop-color:#d1d1d1;stop-opacity:1" id="stop1775" offset="1"/></linearGradient><linearGradient id="linearGradient1776" x1="744.755" x2="323.76" y1="421.358" y2="157.714" gradientTransform="matrix(0.843629,0.000000,0.000000,2.263357,-126.6736,-392.3478)" gradientUnits="userSpaceOnUse" xlink:href="#linearGradient1773"/><linearGradient id="linearGradient1777" x1="744.755" x2="323.76" y1="421.358" y2="157.714" gradientTransform="matrix(0.843629,0.000000,0.000000,2.263357,-126.6736,-392.3478)" gradientUnits="userSpaceOnUse" xlink:href="#linearGradient1773"/><linearGradient id="linearGradient2402" x1="1359.468" x2="428.455" y1="442.387" y2="179.029" gradientTransform="matrix(0.866012,0.000000,0.000000,1.897980,-160.4318,-259.9815)" gradientUnits="userSpaceOnUse" xlink:href="#linearGradient1773"/><linearGradient id="linearGradient3027" x1="177.305" x2="91.451" y1="801.743" y2="675.908" gradientTransform="matrix(2.653902,0.000000,0.000000,0.719481,-136.5197,-379.6885)" gradientUnits="userSpaceOnUse" xlink:href="#linearGradient3649"/><linearGradient id="linearGradient4277" x1="184.579" x2="46.159" y1="1128.747" y2="734.013" gradientTransform="matrix(3.928311,0.000000,0.000000,0.486070,-126.6736,-392.3478)" gradientUnits="userSpaceOnUse" xlink:href="#linearGradient3649"/><linearGradient id="linearGradient4279" x1="306.907" x2="212.093" y1="823.054" y2="657.24" gradientTransform="matrix(2.653902,0.000000,0.000000,0.719481,-126.6736,-392.3478)" gradientUnits="userSpaceOnUse" xlink:href="#linearGradient1773"/><linearGradient id="linearGradient4902" x1="744.755" x2="323.76" y1="421.358" y2="157.714" gradientTransform="matrix(0.843629,0.000000,0.000000,2.263357,148.3157,-378.2819)" gradientUnits="userSpaceOnUse" xlink:href="#linearGradient1773"/><radialGradient id="radialGradient5546" cx="431.204" cy="691.403" r="58.531" fx="431.204" fy="691.403" gradientTransform="matrix(1.473912,0.000000,0.000000,1.295486,-126.6736,-392.3478)" gradientUnits="userSpaceOnUse" xlink:href="#linearGradient5550"/><radialGradient id="radialGradient7421" cx="184.319" cy="967.578" r="388.564" fx="184.319" fy="967.578" gradientTransform="matrix(1.932682,0.000000,0.000000,0.987971,-90.86749,-406.2724)" gradientUnits="userSpaceOnUse" xlink:href="#linearGradient8043"/><radialGradient id="radialGradient8671" cx="106.32" cy="828.45" r="161.396" fx="106.32" fy="828.45" gradientTransform="scale(1.353997,0.738554)" gradientUnits="userSpaceOnUse" xlink:href="#linearGradient8668"/><radialGradient id="radialGradient9294" cx="74.619" cy="842.891" r="139.313" fx="76.129" fy="842.891" gradientTransform="scale(1.353997,0.738554)" gradientUnits="userSpaceOnUse" xlink:href="#linearGradient8668"/></defs><metadata id="metadata4"/><g id="layer1"><path style="fill:url(#radialGradient7421);fill-opacity:1;fill-rule:evenodd;stroke:#266a00;stroke-width:5.1818314;stroke-linecap:round;stroke-linejoin:round;stroke-miterlimit:4;stroke-opacity:1" id="path6796" d="M 64.292085,565.51762 C 67.110145,628.01244 146.94783,701.70279 266.19841,700.78491 C 524.63186,698.79568 653.44491,641.67932 683.93562,563.52839 C 701.00980,519.76545 669.51374,423.95111 588.45283,396.43350 C 481.09711,359.98966 251.06774,340.39967 154.80182,410.35810 C 72.912056,469.86906 60.958634,491.59339 64.292085,565.51762 z"/><path style="fill:url(#radialGradient9294);fill-opacity:1;fill-rule:nonzero;stroke:none;stroke-width:3.75;stroke-linecap:round;stroke-linejoin:round;stroke-miterlimit:4;stroke-opacity:1" id="path9293" d="M 360.61151 611.85474 A 216.65482 117.32470 0 1 1 -72.698120,611.85474 A 216.65482 117.32470 0 1 1 360.61151 611.85474 z" transform="matrix(0.819452,0.000000,0.000000,0.949473,493.3632,-133.7810)"/><path style="fill:url(#radialGradient8671);fill-opacity:1;fill-rule:nonzero;stroke:none;stroke-width:3.75;stroke-linecap:round;stroke-linejoin:round;stroke-miterlimit:4;stroke-opacity:1" id="path8046" d="M 360.61151 611.85474 A 216.65482 117.32470 0 1 1 -72.698120,611.85474 A 216.65482 117.32470 0 1 1 360.61151 611.85474 z" transform="matrix(0.819452,0.000000,0.000000,0.949473,242.2237,-143.7266)"/><path style="fill:url(#linearGradient1776);fill-opacity:1;fill-rule:evenodd;stroke:#000;stroke-width:5.1818314;stroke-linecap:butt;stroke-linejoin:round;stroke-miterlimit:4;stroke-opacity:1" id="path1140" d="M 122.28286,121.05383 L 127.92009,531.54315 L 269.98612,565.30141 L 239.03021,142.15276 L 122.28286,121.05383 z"/><path style="fill:url(#linearGradient4902);fill-opacity:1;fill-rule:evenodd;stroke:#000;stroke-width:5.1818314;stroke-linecap:butt;stroke-linejoin:round;stroke-miterlimit:4;stroke-opacity:1" id="path4901" d="M 544.97532,579.36736 L 605.45887,516.07061 L 566.07423,148.94947 L 499.96430,160.20223 L 544.97532,579.36736 z"/><path style="fill:url(#linearGradient2402);fill-opacity:1;fill-rule:evenodd;stroke:#000;stroke-width:4.8077135;stroke-linecap:butt;stroke-linejoin:round;stroke-miterlimit:4;stroke-opacity:1" id="path1141" d="M 379.70049,565.66202 L 544.27201,578.90869 L 527.39288,151.86596 L 371.26092,178.12736 L 379.70049,565.66202 z"/><path style="fill:url(#linearGradient1777);fill-opacity:1;fill-rule:evenodd;stroke:#000;stroke-width:5.1818314;stroke-linecap:butt;stroke-linejoin:round;stroke-miterlimit:4;stroke-opacity:1" id="path1151" d="M 269.98612,565.30142 L 330.46967,502.00467 L 304.82877,133.16556 L 238.71884,144.41832 L 269.98612,565.30142 z"/><path style="fill:url(#linearGradient3027);fill-opacity:1;fill-rule:evenodd;stroke:#000;stroke-width:5.1818314;stroke-linecap:butt;stroke-linejoin:round;stroke-miterlimit:4;stroke-opacity:1" id="path1146" d="M 32.271670,36.421927 L 575.21709,95.498895 L 579.43687,213.65281 L 53.370581,130.66374 L 32.271670,36.421927 z"/><path style="fill:url(#linearGradient4277);fill-opacity:1;fill-rule:evenodd;stroke:#000;stroke-width:5.1818314;stroke-linecap:butt;stroke-linejoin:round;stroke-miterlimit:4;stroke-opacity:1" id="path3652" d="M 32.974961,35.718634 L 181.37067,9.6966375 L 655.39296,42.048318 L 575.21709,94.092313 L 32.974961,35.718634 z"/><path style="fill:url(#linearGradient4279);fill-opacity:1;fill-rule:evenodd;stroke:#000;stroke-width:5.1818314;stroke-linecap:butt;stroke-linejoin:round;stroke-miterlimit:4;stroke-opacity:1" id="path4278" d="M 575.21709,95.498905 L 656.09626,41.345026 L 646.25010,160.20224 L 579.72818,213.73815 L 575.21709,95.498905 z"/><path style="fill:url(#radialGradient5546);fill-opacity:1;fill-rule:evenodd;stroke:#044a00;stroke-width:3.4545543;stroke-linecap:butt;stroke-linejoin:round;stroke-miterlimit:4;stroke-opacity:1" id="path4921" d="M 435.28252,570.49068 C 452.85400,543.96768 453.51709,516.45008 453.18554,482.96480 C 474.07240,501.53091 467.11012,510.15087 474.07240,523.74391 C 479.70853,464.06716 496.28540,470.03483 496.94849,434.22879 C 519.82457,459.42563 512.86228,466.71947 520.81918,482.96480 C 527.44993,471.02945 534.08068,459.09410 540.71142,447.15875 C 548.33680,441.19107 558.94599,443.18030 567.56596,422.29344 C 552.97832,472.68713 566.23982,464.39870 567.56598,481.97018 C 572.53904,479.64943 570.54981,504.18320 585.46899,467.05099 C 581.15901,504.51472 599.72510,504.18320 594.42049,529.71158 L 546.67910,579.44220 L 435.28252,570.49068 z"/><path style="fill:none;fill-opacity:.75;fill-rule:evenodd;stroke:#0d4a00;stroke-width:5.1818314;stroke-linecap:round;stroke-linejoin:round;stroke-miterlimit:4;stroke-opacity:1" id="path5553" d="M 539.71682,449.14798 L 546.18180,579.44220"/></g></svg>