<svg xmlns="http://www.w3.org/2000/svg" xmlns:cc="http://web.resource.org/cc/" xmlns:xlink="http://www.w3.org/1999/xlink" id="svg1" width="755.906" height="755.906"><defs id="defs3"><linearGradient id="linearGradient4799"><stop style="stop-color:#000;stop-opacity:.60000002" id="stop4800" offset="0"/><stop style="stop-color:#000;stop-opacity:0" id="stop4801" offset="1"/></linearGradient><linearGradient id="linearGradient2310"><stop style="stop-color:#b2721c;stop-opacity:1" id="stop2311" offset="0"/><stop style="stop-color:#583200;stop-opacity:1" id="stop2312" offset="1"/></linearGradient><linearGradient id="linearGradient1683"><stop style="stop-color:#0cff00;stop-opacity:1" id="stop1684" offset="0"/><stop style="stop-color:#034000;stop-opacity:1" id="stop1685" offset="1"/></linearGradient><radialGradient id="radialGradient1686" cx="276.577" cy="192.132" r="260.37" fx="276.577" fy="192.132" gradientTransform="matrix(1.138482,0.000000,0.000000,0.878363,-20.28259,13.12403)" gradientUnits="userSpaceOnUse" xlink:href="#linearGradient1683"/><linearGradient id="linearGradient2313" x1="344.152" x2="556.066" y1="387.38" y2="387.38" gradientTransform="matrix(0.761922,0.000000,0.000000,1.430703,-2.710789,-5.577742)" gradientUnits="userSpaceOnUse" xlink:href="#linearGradient2310"/><radialGradient id="radialGradient4802" cx="233.718" cy="981.061" r="142.405" fx="233.718" fy="981.061" gradientTransform="scale(1.646313,0.607418)" gradientUnits="userSpaceOnUse" xlink:href="#linearGradient4799"/><radialGradient id="radialGradient4804" cx="233.718" cy="981.061" r="142.405" fx="233.718" fy="981.061" gradientTransform="scale(1.646313,0.607418)" gradientUnits="userSpaceOnUse" xlink:href="#linearGradient4799"/><radialGradient id="radialGradient5427" cx="233.718" cy="981.061" r="142.405" fx="233.718" fy="981.061" gradientTransform="scale(1.646313,0.607418)" gradientUnits="userSpaceOnUse" xlink:href="#linearGradient4799"/></defs><metadata id="metadata4"/><g id="layer1"><path style="fill:url(#radialGradient4802);fill-opacity:1;fill-rule:nonzero;stroke:none;stroke-width:3.75;stroke-linecap:round;stroke-linejoin:round;stroke-miterlimit:4;stroke-opacity:.7845118" id="path4177" d="M 619.21552 595.91406 A 234.44287 86.499275 0 1 1 150.32977,595.91406 A 234.44287 86.499275 0 1 1 619.21552 595.91406 z" transform="translate(103.7991,-16.70331)"/><path style="fill:url(#radialGradient4804);fill-opacity:1;fill-rule:nonzero;stroke:none;stroke-width:3.75;stroke-linecap:round;stroke-linejoin:round;stroke-miterlimit:4;stroke-opacity:.7845118" id="path4803" d="M 619.21552 595.91406 A 234.44287 86.499275 0 1 1 150.32977,595.91406 A 234.44287 86.499275 0 1 1 619.21552 595.91406 z" transform="matrix(0.377177,-0.209161,0.193500,0.407703,158.7574,459.8238)"/><path style="fill:url(#linearGradient2313);fill-opacity:1;fill-rule:evenodd;stroke:#864b00;stroke-width:3.75;stroke-linecap:round;stroke-linejoin:round;stroke-miterlimit:4;stroke-opacity:.7845118" id="path1688" d="M 294.73899,399.61208 L 285.45891,668.74816 C 331.04983,699.03878 379.22862,693.97384 392.36921,670.20398 L 383.93276,401.22755 L 294.73899,399.61208 z"/><path style="fill:url(#radialGradient1686);fill-opacity:1;fill-rule:evenodd;stroke:#046600;stroke-width:3.75;stroke-linecap:round;stroke-linejoin:round;stroke-miterlimit:4;stroke-opacity:.77104378" id="path1061" d="M 177.13023,91.582973 C 185.23177,51.052913 295.93936,8.1366672 351.76464,30.840562 C 403.88245,-7.0923346 553.83394,49.229153 547.49017,92.426613 C 605.20945,111.89666 627.13593,205.33851 598.95248,265.37374 C 613.91055,314.02391 554.89683,402.04616 493.49692,411.32424 C 463.21252,443.82726 363.72869,454.85459 309.58242,426.50984 C 256.56928,449.57147 189.23903,432.06791 143.38445,377.57846 C 90.855221,354.81862 55.029304,280.75577 86.016621,219.81694 C 74.629552,162.75516 112.15932,102.11410 177.13023,91.582973 z"/></g></svg>