<svg xmlns="http://www.w3.org/2000/svg" xmlns:cc="http://web.resource.org/cc/" xmlns:svg="http://www.w3.org/2000/svg" xmlns:xlink="http://www.w3.org/1999/xlink" xmlns:xml="http://www.w3.org/XML/1998/namespace" id="svg2682" width="320" height="64"><defs id="defs3"><linearGradient id="linearGradient2873"><stop style="stop-color:#3f3f3f;stop-opacity:1" id="stop2875" offset="0"/><stop style="stop-color:silver;stop-opacity:1" id="stop2877" offset="1"/></linearGradient><linearGradient id="linearGradient2849"><stop style="stop-color:#5e5e5e;stop-opacity:1" id="stop2851" offset="0"/><stop style="stop-color:#1f1f1f;stop-opacity:1" id="stop2853" offset="1"/></linearGradient><linearGradient id="linearGradient2857"><stop style="stop-color:#3b2200;stop-opacity:1" id="stop2859" offset="0"/><stop style="stop-color:#855700;stop-opacity:1" id="stop2861" offset="1"/></linearGradient><linearGradient id="linearGradient5619"><stop id="stop5621" offset="0" style="stop-color:#4646db;stop-opacity:1"/><stop id="stop5623" offset="1" style="stop-color:#0000ad;stop-opacity:1"/></linearGradient><linearGradient id="linearGradient5611"><stop id="stop5613" offset="0" style="stop-color:#6a6ab9;stop-opacity:1"/><stop id="stop5615" offset="1" style="stop-color:#0000b9;stop-opacity:1"/></linearGradient><linearGradient id="linearGradient4305"><stop id="stop4307" offset="0" style="stop-color:#000;stop-opacity:.73333335"/><stop id="stop4309" offset="1" style="stop-color:#000;stop-opacity:0"/></linearGradient><linearGradient id="linearGradient4255"><stop id="stop4257" offset="0" style="stop-color:#f7ff6b;stop-opacity:1"/><stop id="stop4259" offset="1" style="stop-color:#bac320;stop-opacity:1"/></linearGradient><linearGradient id="linearGradient3618"><stop style="stop-color:red;stop-opacity:1" id="stop3619" offset="0"/><stop style="stop-color:#860000;stop-opacity:1" id="stop3620" offset="1"/></linearGradient><linearGradient id="linearGradient2250"><stop id="stop2252" offset="0" style="stop-color:#08ff00;stop-opacity:1"/><stop id="stop2254" offset="1" style="stop-color:#047c00;stop-opacity:1"/></linearGradient><linearGradient id="linearGradient5873"><stop id="stop5875" offset="0" style="stop-color:#cd0000;stop-opacity:1"/><stop id="stop5877" offset="1" style="stop-color:#5d0000;stop-opacity:1"/></linearGradient><linearGradient id="linearGradient6641"><stop id="stop6643" offset="0" style="stop-color:#cdcdcd;stop-opacity:1"/><stop id="stop6645" offset="1" style="stop-color:#7e7e7e;stop-opacity:1"/></linearGradient><linearGradient id="linearGradient7409"><stop id="stop7411" offset="0" style="stop-color:#fff;stop-opacity:1"/><stop id="stop7413" offset="1" style="stop-color:#dadada;stop-opacity:1"/></linearGradient><linearGradient id="linearGradient5083"><stop id="stop5085" offset="0" style="stop-color:#fff;stop-opacity:1"/><stop id="stop5087" offset="1" style="stop-color:#c7c7c7;stop-opacity:1"/></linearGradient><linearGradient id="linearGradient4960"><stop id="stop4962" offset="0" style="stop-color:#fff;stop-opacity:.73092371"/><stop id="stop4964" offset="1" style="stop-color:#fff;stop-opacity:0"/></linearGradient><radialGradient id="radialGradient4352" cx="30.045" cy="193.672" r="8.457" fx="30.045" fy="193.672" gradientTransform="scale(1.220067,0.819627)" gradientUnits="userSpaceOnUse" xlink:href="#linearGradient4305"/><radialGradient id="radialGradient4354" cx="28.442" cy="192.202" r="10.901" fx="28.442" fy="192.202" gradientTransform="scale(1.228200,0.814200)" gradientUnits="userSpaceOnUse" xlink:href="#linearGradient4255"/><radialGradient id="radialGradient4356" cx="28.442" cy="192.202" r="10.901" fx="28.442" fy="192.202" gradientTransform="scale(1.228200,0.814200)" gradientUnits="userSpaceOnUse" xlink:href="#linearGradient4255"/><radialGradient id="radialGradient4358" cx="30.045" cy="193.672" r="8.457" fx="30.045" fy="193.672" gradientTransform="scale(1.220067,0.819627)" gradientUnits="userSpaceOnUse" xlink:href="#linearGradient4305"/><radialGradient id="radialGradient4360" cx="28.442" cy="192.202" r="10.901" fx="28.442" fy="192.202" gradientTransform="scale(1.228200,0.814200)" gradientUnits="userSpaceOnUse" xlink:href="#linearGradient4255"/><radialGradient id="radialGradient4362" cx="28.442" cy="192.202" r="10.901" fx="28.442" fy="192.202" gradientTransform="scale(1.228200,0.814200)" gradientUnits="userSpaceOnUse" xlink:href="#linearGradient4255"/><radialGradient id="radialGradient4364" cx="30.045" cy="193.672" r="8.457" fx="30.045" fy="193.672" gradientTransform="scale(1.220067,0.819627)" gradientUnits="userSpaceOnUse" xlink:href="#linearGradient4305"/><radialGradient id="radialGradient4366" cx="28.442" cy="192.202" r="10.901" fx="28.442" fy="192.202" gradientTransform="scale(1.228200,0.814200)" gradientUnits="userSpaceOnUse" xlink:href="#linearGradient4255"/><radialGradient id="radialGradient4368" cx="28.442" cy="192.202" r="10.901" fx="28.442" fy="192.202" gradientTransform="scale(1.228200,0.814200)" gradientUnits="userSpaceOnUse" xlink:href="#linearGradient4255"/><radialGradient id="radialGradient4370" cx="30.045" cy="193.672" r="8.457" fx="30.045" fy="193.672" gradientTransform="scale(1.220067,0.819627)" gradientUnits="userSpaceOnUse" xlink:href="#linearGradient4305"/><radialGradient id="radialGradient4372" cx="28.442" cy="192.202" r="10.901" fx="28.442" fy="192.202" gradientTransform="scale(1.228200,0.814200)" gradientUnits="userSpaceOnUse" xlink:href="#linearGradient4255"/><radialGradient id="radialGradient4374" cx="28.442" cy="192.202" r="10.901" fx="28.442" fy="192.202" gradientTransform="scale(1.228200,0.814200)" gradientUnits="userSpaceOnUse" xlink:href="#linearGradient4255"/><radialGradient id="radialGradient4376" cx="30.045" cy="193.672" r="8.457" fx="30.045" fy="193.672" gradientTransform="scale(1.220067,0.819627)" gradientUnits="userSpaceOnUse" xlink:href="#linearGradient4305"/><radialGradient id="radialGradient4378" cx="28.442" cy="192.202" r="10.901" fx="28.442" fy="192.202" gradientTransform="scale(1.228200,0.814200)" gradientUnits="userSpaceOnUse" xlink:href="#linearGradient4255"/><radialGradient id="radialGradient4380" cx="28.442" cy="192.202" r="10.901" fx="28.442" fy="192.202" gradientTransform="scale(1.228200,0.814200)" gradientUnits="userSpaceOnUse" xlink:href="#linearGradient4255"/><radialGradient id="radialGradient4705" cx="20.373" cy="18.893" r="36.303" fx="20.373" fy="18.893" gradientTransform="matrix(0.960220,0.000000,0.000000,1.041428,-5.903246e-2,0.231249)" gradientUnits="userSpaceOnUse" xlink:href="#linearGradient2250"/><radialGradient id="radialGradient4767" cx="136.726" cy="182.328" r="223.025" fx="136.726" fy="182.328" gradientTransform="matrix(0.492483,0.000000,0.000000,0.204424,-42.57266,-39.20266)" gradientUnits="userSpaceOnUse" xlink:href="#linearGradient4960"/><linearGradient id="linearGradient4819" x1="120.206" x2="128.625" y1="21.868" y2="16.489" gradientTransform="matrix(0.254394,0.000000,0.000000,0.251549,21.80506,-121.6412)" gradientUnits="userSpaceOnUse" xlink:href="#linearGradient5083"/><linearGradient id="linearGradient4821" x1="-11.402" x2="147.379" y1="54.016" y2="105.803" gradientTransform="matrix(1.006060,0.000000,0.000000,0.993976,97.65298,-197.8742)" gradientUnits="userSpaceOnUse" xlink:href="#linearGradient5873"/><radialGradient id="radialGradient4823" cx="66.017" cy="130.171" r="32.321" fx="66.017" fy="130.171" gradientTransform="matrix(1.094547,0.000000,0.000000,0.913620,97.65298,-197.8742)" gradientUnits="userSpaceOnUse" xlink:href="#linearGradient6641"/><linearGradient id="linearGradient4825" x1="42.913" x2="108.553" y1="40.739" y2="67.411" gradientTransform="matrix(1.046660,0.000000,0.000000,0.955420,97.65298,-197.8742)" gradientUnits="userSpaceOnUse" xlink:href="#linearGradient7409"/><radialGradient id="radialGradient4827" cx="44.847" cy="21.519" r="16.362" fx="44.847" fy="21.519" gradientTransform="matrix(0.895747,0.000000,0.000000,1.116387,1.553001,-66.94390)" gradientUnits="userSpaceOnUse" xlink:href="#linearGradient2250"/><radialGradient id="radialGradient4851" cx="136.726" cy="182.328" r="223.025" fx="136.726" fy="182.328" gradientTransform="matrix(0.492483,0.000000,0.000000,0.204424,-42.57266,-39.20266)" gradientUnits="userSpaceOnUse" xlink:href="#linearGradient4960"/><linearGradient id="linearGradient5617" x1="43.171" x2="117.05" y1="-50.768" y2="204.515" gradientTransform="scale(2.267603,0.440994)" gradientUnits="userSpaceOnUse" xlink:href="#linearGradient5611"/><linearGradient id="linearGradient5625" x1="41.378" x2="102.704" y1="-104.701" y2="206.313" gradientTransform="scale(2.267604,0.440994)" gradientUnits="userSpaceOnUse" xlink:href="#linearGradient5619"/><linearGradient id="linearGradient5675" x1="120.206" x2="128.625" y1="21.868" y2="16.489" gradientTransform="matrix(0.254394,0.000000,0.000000,0.251549,21.80506,-121.6412)" gradientUnits="userSpaceOnUse" xlink:href="#linearGradient5083"/><radialGradient id="radialGradient5681" cx="20.373" cy="18.893" r="36.303" fx="20.373" fy="18.893" gradientTransform="matrix(0.960220,0.000000,0.000000,1.041428,328.5124,0.231249)" gradientUnits="userSpaceOnUse" xlink:href="#linearGradient2250"/><radialGradient id="radialGradient5735" cx="30.045" cy="193.672" r="8.457" fx="30.045" fy="193.672" gradientTransform="scale(1.220067,0.819627)" gradientUnits="userSpaceOnUse" xlink:href="#linearGradient4305"/><radialGradient id="radialGradient5737" cx="28.442" cy="192.202" r="10.901" fx="28.442" fy="192.202" gradientTransform="scale(1.228200,0.814200)" gradientUnits="userSpaceOnUse" xlink:href="#linearGradient4255"/><radialGradient id="radialGradient5739" cx="28.442" cy="192.202" r="10.901" fx="28.442" fy="192.202" gradientTransform="scale(1.228200,0.814200)" gradientUnits="userSpaceOnUse" xlink:href="#linearGradient4255"/><radialGradient id="radialGradient5741" cx="30.045" cy="193.672" r="8.457" fx="30.045" fy="193.672" gradientTransform="scale(1.220067,0.819627)" gradientUnits="userSpaceOnUse" xlink:href="#linearGradient4305"/><radialGradient id="radialGradient5743" cx="28.442" cy="192.202" r="10.901" fx="28.442" fy="192.202" gradientTransform="scale(1.228200,0.814200)" gradientUnits="userSpaceOnUse" xlink:href="#linearGradient4255"/><radialGradient id="radialGradient5745" cx="28.442" cy="192.202" r="10.901" fx="28.442" fy="192.202" gradientTransform="scale(1.228200,0.814200)" gradientUnits="userSpaceOnUse" xlink:href="#linearGradient4255"/><radialGradient id="radialGradient5747" cx="30.045" cy="193.672" r="8.457" fx="30.045" fy="193.672" gradientTransform="scale(1.220067,0.819627)" gradientUnits="userSpaceOnUse" xlink:href="#linearGradient4305"/><radialGradient id="radialGradient5749" cx="28.442" cy="192.202" r="10.901" fx="28.442" fy="192.202" gradientTransform="scale(1.228200,0.814200)" gradientUnits="userSpaceOnUse" xlink:href="#linearGradient4255"/><radialGradient id="radialGradient5751" cx="28.442" cy="192.202" r="10.901" fx="28.442" fy="192.202" gradientTransform="scale(1.228200,0.814200)" gradientUnits="userSpaceOnUse" xlink:href="#linearGradient4255"/><radialGradient id="radialGradient5753" cx="30.045" cy="193.672" r="8.457" fx="30.045" fy="193.672" gradientTransform="scale(1.220067,0.819627)" gradientUnits="userSpaceOnUse" xlink:href="#linearGradient4305"/><radialGradient id="radialGradient5755" cx="28.442" cy="192.202" r="10.901" fx="28.442" fy="192.202" gradientTransform="scale(1.228200,0.814200)" gradientUnits="userSpaceOnUse" xlink:href="#linearGradient4255"/><radialGradient id="radialGradient5757" cx="28.442" cy="192.202" r="10.901" fx="28.442" fy="192.202" gradientTransform="scale(1.228200,0.814200)" gradientUnits="userSpaceOnUse" xlink:href="#linearGradient4255"/><radialGradient id="radialGradient5759" cx="30.045" cy="193.672" r="8.457" fx="30.045" fy="193.672" gradientTransform="scale(1.220067,0.819627)" gradientUnits="userSpaceOnUse" xlink:href="#linearGradient4305"/><radialGradient id="radialGradient5761" cx="28.442" cy="192.202" r="10.901" fx="28.442" fy="192.202" gradientTransform="scale(1.228200,0.814200)" gradientUnits="userSpaceOnUse" xlink:href="#linearGradient4255"/><radialGradient id="radialGradient5763" cx="28.442" cy="192.202" r="10.901" fx="28.442" fy="192.202" gradientTransform="scale(1.228200,0.814200)" gradientUnits="userSpaceOnUse" xlink:href="#linearGradient4255"/><linearGradient id="linearGradient5772" x1="192.481" x2="370.322" y1="824.526" y2="1027.308" gradientTransform="matrix(0.111036,0.000000,0.000000,0.105483,-7.029064,68.69130)" gradientUnits="userSpaceOnUse" xlink:href="#linearGradient3618"/><linearGradient id="linearGradient5774" x1="63.394" x2="72.465" y1="712.43" y2="719.76" gradientTransform="matrix(0.733399,0.000000,0.000000,0.633508,-7.044215,-299.8652)" gradientUnits="userSpaceOnUse" xlink:href="#linearGradient4960"/><linearGradient id="linearGradient5776" x1="63.394" x2="72.465" y1="712.43" y2="719.76" gradientTransform="matrix(0.733399,0.000000,0.000000,0.633508,-23.30408,-298.9517)" gradientUnits="userSpaceOnUse" xlink:href="#linearGradient4960"/><linearGradient id="linearGradient5786" x1="192.481" x2="370.322" y1="824.526" y2="1027.308" gradientTransform="matrix(0.111036,0.000000,0.000000,0.105483,-7.029064,68.69130)" gradientUnits="userSpaceOnUse" xlink:href="#linearGradient3618"/><linearGradient id="linearGradient5788" x1="63.394" x2="72.465" y1="712.43" y2="719.76" gradientTransform="matrix(0.733399,0.000000,0.000000,0.633508,-7.044215,-299.8652)" gradientUnits="userSpaceOnUse" xlink:href="#linearGradient4960"/><linearGradient id="linearGradient5790" x1="63.394" x2="72.465" y1="712.43" y2="719.76" gradientTransform="matrix(0.733399,0.000000,0.000000,0.633508,-23.30408,-298.9517)" gradientUnits="userSpaceOnUse" xlink:href="#linearGradient4960"/><linearGradient id="linearGradient6576" x1="109.877" x2="39.943" y1="213.504" y2="-66.948" gradientTransform="scale(2.267604,0.440994)" gradientUnits="userSpaceOnUse" xlink:href="#linearGradient5611"/><radialGradient id="radialGradient6578" cx="136.726" cy="182.328" r="223.025" fx="136.726" fy="182.328" gradientTransform="matrix(0.492483,0.000000,0.000000,0.204424,-42.57266,-39.20266)" gradientUnits="userSpaceOnUse" xlink:href="#linearGradient4960"/><radialGradient id="radialGradient6582" cx="20.373" cy="18.893" r="36.303" fx="20.373" fy="18.893" gradientTransform="matrix(0.960220,0.000000,0.000000,1.041428,661.3695,0.231249)" gradientUnits="userSpaceOnUse" xlink:href="#linearGradient2250"/><radialGradient id="radialGradient10679" cx="136.726" cy="182.328" r="223.025" fx="136.726" fy="182.328" gradientTransform="matrix(0.492483,0.000000,0.000000,0.204424,617.4273,-39.20266)" gradientUnits="userSpaceOnUse" xlink:href="#linearGradient4960"/><linearGradient id="linearGradient10682" x1="109.877" x2="39.943" y1="213.504" y2="-66.948" gradientTransform="matrix(2.267604,0.000000,0.000000,0.440994,660.0000,0.000000)" gradientUnits="userSpaceOnUse" xlink:href="#linearGradient5611"/><radialGradient id="radialGradient11496" cx="20.373" cy="18.893" r="36.303" fx="20.373" fy="18.893" gradientTransform="matrix(0.960220,0.000000,0.000000,1.041428,659.8543,0.231249)" gradientUnits="userSpaceOnUse" xlink:href="#linearGradient2250"/><linearGradient id="linearGradient11569" x1="-11.402" x2="147.379" y1="54.016" y2="105.803" gradientTransform="matrix(1.006060,0.000000,0.000000,0.993976,97.65298,-197.8742)" gradientUnits="userSpaceOnUse" xlink:href="#linearGradient5873"/><radialGradient id="radialGradient11571" cx="66.017" cy="130.171" r="32.321" fx="66.017" fy="130.171" gradientTransform="matrix(1.094547,0.000000,0.000000,0.913620,97.65298,-197.8742)" gradientUnits="userSpaceOnUse" xlink:href="#linearGradient6641"/><linearGradient id="linearGradient11573" x1="42.913" x2="108.553" y1="40.739" y2="67.411" gradientTransform="matrix(1.046660,0.000000,0.000000,0.955420,97.65298,-197.8742)" gradientUnits="userSpaceOnUse" xlink:href="#linearGradient7409"/><radialGradient id="radialGradient11575" cx="44.847" cy="21.519" r="16.362" fx="44.847" fy="21.519" gradientTransform="matrix(0.895747,0.000000,0.000000,1.116387,1.553001,-66.94390)" gradientUnits="userSpaceOnUse" xlink:href="#linearGradient2250"/><linearGradient id="linearGradient11599" x1="120.206" x2="128.625" y1="21.868" y2="16.489" gradientTransform="matrix(0.254394,0.000000,0.000000,0.251549,21.80506,-121.6412)" gradientUnits="userSpaceOnUse" xlink:href="#linearGradient5083"/><linearGradient id="linearGradient11601" x1="120.206" x2="128.625" y1="21.868" y2="16.489" gradientTransform="matrix(0.254394,0.000000,0.000000,0.251549,21.80506,-121.6412)" gradientUnits="userSpaceOnUse" xlink:href="#linearGradient5083"/><linearGradient id="linearGradient11755" x1="43.171" x2="117.05" y1="-50.768" y2="204.515" gradientTransform="scale(2.267603,0.440994)" gradientUnits="userSpaceOnUse" xlink:href="#linearGradient5611"/><radialGradient id="radialGradient11757" cx="136.726" cy="182.328" r="223.025" fx="136.726" fy="182.328" gradientTransform="matrix(0.492483,0.000000,0.000000,0.204424,-42.57266,-39.20266)" gradientUnits="userSpaceOnUse" xlink:href="#linearGradient4960"/><radialGradient id="radialGradient11760" cx="20.373" cy="18.893" r="36.303" fx="20.373" fy="18.893" gradientTransform="matrix(0.960220,0.000000,0.000000,1.041428,328.5124,0.231249)" gradientUnits="userSpaceOnUse" xlink:href="#linearGradient2250"/><linearGradient id="linearGradient1603" x1="17.781" x2="21.395" y1="18.015" y2="14.851" gradientTransform="scale(0.910996,1.097699)" gradientUnits="userSpaceOnUse" xlink:href="#linearGradient2857"/><linearGradient id="linearGradient1605" x1="5.79" x2="11.45" y1="4.227" y2="9.774" gradientTransform="scale(1.035166,0.966029)" gradientUnits="userSpaceOnUse" xlink:href="#linearGradient2849"/><linearGradient id="linearGradient1607" x1="24.527" x2="15.225" y1="18.332" y2="7.018" gradientTransform="scale(1.020352,0.980054)" gradientUnits="userSpaceOnUse" xlink:href="#linearGradient2873"/><linearGradient id="linearGradient1623" x1="17.781" x2="21.395" y1="18.015" y2="14.851" gradientTransform="scale(0.910996,1.097699)" gradientUnits="userSpaceOnUse" xlink:href="#linearGradient2857"/><linearGradient id="linearGradient1625" x1="5.79" x2="11.45" y1="4.227" y2="9.774" gradientTransform="scale(1.035166,0.966029)" gradientUnits="userSpaceOnUse" xlink:href="#linearGradient2849"/><linearGradient id="linearGradient1627" x1="24.527" x2="15.225" y1="18.332" y2="7.018" gradientTransform="scale(1.020352,0.980054)" gradientUnits="userSpaceOnUse" xlink:href="#linearGradient2873"/><linearGradient id="linearGradient1643" x1="17.781" x2="21.395" y1="18.015" y2="14.851" gradientTransform="scale(0.910996,1.097699)" gradientUnits="userSpaceOnUse" xlink:href="#linearGradient2857"/><linearGradient id="linearGradient1645" x1="5.79" x2="11.45" y1="4.227" y2="9.774" gradientTransform="scale(1.035166,0.966029)" gradientUnits="userSpaceOnUse" xlink:href="#linearGradient2849"/><linearGradient id="linearGradient1647" x1="24.527" x2="15.225" y1="18.332" y2="7.018" gradientTransform="scale(1.020352,0.980054)" gradientUnits="userSpaceOnUse" xlink:href="#linearGradient2873"/></defs><metadata id="metadata4"/><g id="normal"><use id="load-button" width="320" height="64" x="0" y="0" transform="translate(0.000000,-67.68022)" xlink:href="#button"/><use id="quit-button" width="320" height="64" x="0" y="0" transform="translate(0.000000,134.3503)" xlink:href="#button"/><use id="credits-button" width="320" height="64" x="0" y="0" transform="translate(0.000000,68.69037)" xlink:href="#button"/><g id="button"><rect id="rect4141" width="316.668" height="60.53" x="2.857" y="3.431" rx="31.902" ry="30.265" style="fill:#000;fill-opacity:.5529412;fill-rule:nonzero;stroke:none;stroke-width:.95188034;stroke-linecap:round;stroke-linejoin:round;stroke-miterlimit:4;stroke-opacity:.55281693"/><rect id="scenarioselect" width="317.025" height="60.887" x=".782" y="1.079" rx="31.902" ry="30.444" style="fill:url(#linearGradient5625);fill-opacity:1;fill-rule:nonzero;stroke:#4494e1;stroke-width:.95188034;stroke-linecap:round;stroke-linejoin:round;stroke-miterlimit:4;stroke-opacity:.63667822"/><path id="path4200" d="M 8.6426211,37.334528 C 8.7472264,38.918800 4.8109087,6.4238298 28.713747,6.5833715 C 86.937389,6.9719911 104.52402,5.5392385 109.12234,6.2255747 C 114.36351,7.0078593 78.888617,7.9941159 30.930761,10.562009 C 17.578807,11.282301 7.6726019,22.643412 8.6426211,37.334528 z" style="fill:url(#radialGradient4767);fill-opacity:1;fill-rule:evenodd;stroke:none;stroke-width:.25pt;stroke-linecap:butt;stroke-linejoin:miter;stroke-opacity:1"/></g><g id="continue"><path style="fill:#000;fill-opacity:.51408452;fill-rule:evenodd;stroke:none;stroke-width:1px;stroke-linecap:butt;stroke-linejoin:round;stroke-opacity:1" id="path11778" d="M 39.226682,32.713392 C 44.962955,32.404284 50.106981,37.476958 50.298112,43.606250 C 50.529823,50.820386 45.089364,57.475310 35.565969,57.624106 C 28.852810,57.730998 17.559899,54.205836 17.440969,38.516963 C 17.348087,26.124817 29.442951,18.210396 41.012397,18.159820 C 44.652870,18.144148 45.603693,18.230492 50.565969,18.249107 L 48.869540,12.802678 L 58.690969,24.320535 L 49.673111,35.302679 L 50.030254,29.409821 C 47.550789,29.472788 44.643101,29.500105 42.173111,29.409821 C 36.802074,29.213495 28.435483,30.495578 28.869540,39.945535 C 28.969904,42.089299 31.285081,46.252485 36.637396,46.195535 C 39.339765,46.168681 40.504156,45.092609 40.387396,42.624106 C 40.316974,41.135259 38.931100,40.223186 38.155254,40.302678 C 37.115624,40.409198 35.099058,42.379169 34.048111,42.289285 C 32.837153,42.185716 30.911290,40.841689 31.369539,39.722321 C 32.339862,37.352106 35.204869,32.930114 39.226682,32.713392 z"/><path style="fill:url(#radialGradient4705);fill-opacity:1;fill-rule:evenodd;stroke:#000;stroke-width:1px;stroke-linecap:butt;stroke-linejoin:round;stroke-opacity:1" id="continue-arrow" d="M 38.155253,31.820535 C 43.891526,31.511427 49.035552,36.584101 49.226683,42.713393 C 49.458394,49.927529 44.017935,56.582453 34.494540,56.731249 C 27.781381,56.838141 16.488470,53.312979 16.369540,37.624106 C 16.276658,25.231960 28.371522,17.317539 39.940968,17.266963 C 43.581441,17.251291 44.532264,17.337635 49.494540,17.356250 L 47.798111,11.909821 L 57.619540,23.427678 L 48.601682,34.409822 L 48.958825,28.516964 C 46.479360,28.579931 43.571672,28.607248 41.101682,28.516964 C 35.730645,28.320638 27.364054,29.602721 27.798111,39.052678 C 27.898475,41.196442 30.213652,45.359628 35.565967,45.302678 C 38.268336,45.275824 39.432727,44.199752 39.315967,41.731249 C 39.245545,40.242402 37.859671,39.330329 37.083825,39.409821 C 36.044195,39.516341 34.027629,41.486312 32.976682,41.396428 C 31.765724,41.292859 29.839861,39.948832 30.298110,38.829464 C 31.268433,36.459249 34.133440,32.037257 38.155253,31.820535 z"/></g><g id="load" transform="translate(-5.808377,0.370735)"><g id="floppy" transform="matrix(0.257425,0.000000,0.000000,0.257425,-2.987299,-3.663871)"><path id="path8175" d="M 102.94849,-161.56214 C 110.19830,-121.34149 122.93273,-82.633861 137.74755,-43.737091 L 148.71682,-39.198084 C 184.90279,-53.067271 221.84527,-63.153951 258.40949,-70.592881 C 240.12738,-110.56135 227.32990,-151.09720 216.61280,-192.76781 C 177.96819,-185.95930 140.45834,-176.12478 102.94849,-161.56214 z M 108.05488,-158.53613 C 108.62225,-155.69925 109.18963,-152.01131 110.32438,-148.89074 C 112.59388,-149.86789 114.86339,-151.12872 117.32202,-151.16024 C 116.18726,-154.28081 115.24164,-157.87419 114.95795,-160.80563 C 112.87757,-160.49043 110.13526,-159.89153 108.05488,-158.53613 z M 207.44022,-184.72998 C 208.00760,-181.89311 208.57498,-178.20516 209.70973,-175.08459 C 211.97923,-176.06174 214.24873,-177.32258 216.70736,-177.35410 C 215.57261,-180.47467 214.62698,-184.06805 214.34330,-186.99949 C 212.26292,-186.68428 209.52060,-186.08538 207.44022,-184.72998 z" style="fill:#000;fill-opacity:.51851851;fill-rule:evenodd;stroke:none;stroke-width:2;stroke-linecap:butt;stroke-linejoin:bevel;stroke-miterlimit:4;stroke-opacity:1"/><path id="path2052" d="M 99.733367,-163.45339 C 106.98317,-123.23274 119.71761,-84.525101 134.53242,-45.628331 L 145.50169,-41.089321 C 181.68766,-54.958511 218.63014,-65.045191 255.19436,-72.484121 C 236.91225,-112.45260 224.11477,-152.98846 213.39767,-194.65906 C 174.75307,-187.85055 137.24322,-178.01604 99.733367,-163.45339 z M 104.83975,-160.42738 C 105.40713,-157.59050 105.97450,-153.90256 107.10925,-150.78199 C 109.37876,-151.75914 111.64826,-153.01998 114.10689,-153.05150 C 112.97214,-156.17207 112.02651,-159.76545 111.74282,-162.69689 C 109.66245,-162.38168 106.92013,-161.78278 104.83975,-160.42738 z M 204.22509,-186.62124 C 204.79247,-183.78436 205.35985,-180.09642 206.49460,-176.97585 C 208.76410,-177.95300 211.03360,-179.21383 213.49223,-179.24535 C 212.35748,-182.36592 211.41185,-185.95930 211.12817,-188.89074 C 209.04779,-188.57553 206.30547,-187.97663 204.22509,-186.62124 z" style="fill:url(#linearGradient11569);fill-opacity:1;fill-rule:evenodd;stroke:#000;stroke-width:2;stroke-linecap:butt;stroke-linejoin:bevel;stroke-miterlimit:4;stroke-opacity:1"/><path id="path2812" d="M 155.52533,-45.060951 C 148.90594,-59.371431 144.55606,-75.573161 140.77356,-90.829271 C 162.08168,-99.718165 183.38979,-106.71580 205.26529,-111.82218 C 208.48042,-94.863941 214.53242,-79.986091 221.15181,-64.919111 C 199.27632,-60.001851 177.40082,-52.436841 155.52533,-45.060951 z M 148.71682,-89.316271 C 151.80587,-74.123211 154.70579,-64.603891 160.63171,-51.112961 C 166.49460,-53.697671 170.27710,-55.336761 176.51824,-56.597601 C 171.03360,-69.016831 167.62935,-81.814291 164.79247,-94.990021 C 159.62304,-94.044401 153.69712,-91.774901 148.71682,-89.316271 z" style="fill:url(#radialGradient11571);fill-opacity:1;fill-rule:evenodd;stroke:#000;stroke-width:2;stroke-linecap:butt;stroke-linejoin:bevel;stroke-miterlimit:4;stroke-opacity:1"/><path style="fill:url(#linearGradient11573);fill-opacity:1;fill-rule:evenodd;stroke:#000;stroke-width:2;stroke-linecap:butt;stroke-linejoin:bevel;stroke-miterlimit:4;stroke-opacity:1" id="path3583" d="M 113.91776,-168.37065 C 118.96111,-143.72132 125.89570,-117.36986 134.72155,-94.422661 C 162.96426,-104.76151 191.01784,-114.72211 220.39530,-120.33282 C 211.69554,-143.46915 204.13052,-167.55110 198.26764,-191.82218 C 169.70972,-185.83322 140.96268,-178.52037 113.91776,-168.37065 z"/></g></g><g id="button-normal-new"><use id="new-button" width="320" height="64" x="0" y="0" transform="translate(0.000000,-133.3401)" xlink:href="#button"/><g id="new" transform="translate(-5.808377,2.159007)"><path id="path5847" d="M 28.520636,-118.39689 C 29.318011,-106.50008 31.362107,-96.579790 30.915577,-80.759870 C 40.197017,-82.577880 51.487845,-82.912770 60.530067,-81.286140 C 60.726548,-92.047190 57.887903,-105.53208 57.754660,-112.26678 C 57.722436,-113.89592 55.299394,-117.57822 50.926614,-118.37671 C 45.363895,-119.39250 32.926016,-118.95048 28.520636,-118.39689 z" style="fill:#000;fill-opacity:.38039216;fill-rule:evenodd;stroke:none;stroke-width:3;stroke-linecap:butt;stroke-linejoin:miter;stroke-miterlimit:4;stroke-opacity:1"/><path id="path2293" d="M 27.495486,-119.80803 C 28.292862,-107.91120 30.336957,-97.990920 29.890427,-82.171020 C 39.171867,-83.989020 50.462690,-84.323920 59.504921,-82.697270 C 59.701394,-93.458320 56.862748,-106.94321 56.729514,-113.67793 C 56.697281,-115.30706 54.274240,-118.98935 49.901468,-119.78785 C 44.338749,-120.80364 31.900864,-120.36161 27.495486,-119.80803 z" style="fill:#fff;fill-opacity:1;fill-rule:evenodd;stroke:#000;stroke-width:.5;stroke-linecap:butt;stroke-linejoin:miter;stroke-miterlimit:4;stroke-opacity:1"/><path id="path4315" d="M 49.180683,-119.58060 C 50.967236,-118.48329 48.842400,-113.37825 50.209467,-112.09305 C 51.185481,-111.17550 55.095767,-115.01786 56.241893,-113.51021 C 55.767574,-115.28142 53.725759,-118.52174 49.180683,-119.58060 z" style="fill:#000;fill-opacity:.38047138;fill-rule:evenodd;stroke:none;stroke-width:3;stroke-linecap:round;stroke-linejoin:round;stroke-miterlimit:4;stroke-opacity:1"/><path id="path2295" d="M 50.086709,-119.76606 C 51.327844,-118.50581 50.948127,-116.11999 50.898629,-113.21809 C 53.227613,-113.66083 55.452996,-115.80255 56.717340,-113.87966 C 56.283196,-115.52041 54.246855,-118.78519 50.086709,-119.76606 z" style="fill:url(#linearGradient11599);fill-opacity:1;fill-rule:evenodd;stroke:#000;stroke-width:.5;stroke-linecap:round;stroke-linejoin:round;stroke-miterlimit:4;stroke-opacity:1"/></g></g><g id="quit" transform="translate(0.714286,1.428571)"><path style="fill:#000;fill-opacity:.55102038;fill-rule:evenodd;stroke:none;stroke-width:5;stroke-linecap:round;stroke-linejoin:round;stroke-miterlimit:4;stroke-opacity:1" id="path4863" d="M 16.673622,162.71522 L 28.279067,149.33944 L 36.540580,160.35478 L 44.015270,148.74934 L 55.620714,161.33830 L 43.621866,168.61629 L 56.604220,177.07450 L 44.408676,189.27004 L 37.524088,176.28769 L 29.459280,188.67993 L 17.657130,177.66461 L 29.655989,169.00969 L 16.673622,162.71522 z"/><path style="fill:url(#linearGradient5772);fill-opacity:1;fill-rule:evenodd;stroke:#960000;stroke-width:.54111958;stroke-linecap:round;stroke-linejoin:round;stroke-miterlimit:4;stroke-opacity:1" id="path2992" d="M 15.985167,161.14159 L 27.590612,147.76582 L 35.852114,158.78116 L 43.326815,147.17572 L 54.932259,159.76467 L 42.933410,167.04266 L 55.915764,175.50087 L 43.720209,187.69642 L 36.835632,174.71407 L 28.770825,187.10630 L 16.968674,176.09098 L 28.967522,167.43607 L 15.985167,161.14159 z"/><path id="path5732" d="M 43.333661,149.08419 C 41.096585,150.54764 37.375768,158.41319 37.897195,158.02414 C 44.623046,153.00583 42.401917,150.85092 46.837156,152.58768 C 47.692887,152.92277 44.351205,148.41852 43.333661,149.08419 z" style="fill:url(#linearGradient5774);fill-opacity:1;fill-rule:evenodd;stroke:none;stroke-width:.25pt;stroke-linecap:butt;stroke-linejoin:miter;stroke-opacity:1"/><path id="path6502" d="M 27.073860,149.99750 C 24.706039,151.23834 22.205413,155.06277 23.207927,154.58829 C 28.969811,151.86127 26.987791,154.18044 30.818985,154.10505 C 31.737805,154.08752 28.574652,149.21103 27.073860,149.99750 z" style="fill:url(#linearGradient5776);fill-opacity:1;fill-rule:evenodd;stroke:none;stroke-width:.25pt;stroke-linecap:butt;stroke-linejoin:miter;stroke-opacity:1"/></g><g id="credits"><g id="g12619"><path id="path4321" d="M 48.613592 159.58568 A 11.237947 7.4498749 0 1 1 26.137697,159.58568 A 11.237947 7.4498749 0 1 1 48.613592 159.58568 z" transform="matrix(1.241573,0.000000,0.000000,0.677966,3.850498,7.071570)" style="fill:url(#radialGradient4352);fill-opacity:1;stroke:none;stroke-width:.60724795;stroke-linejoin:round;stroke-miterlimit:4;stroke-opacity:.6056338"/><path id="path4291" d="M 48.613592 159.58568 A 11.237947 7.4498749 0 1 1 26.137697,159.58568 A 11.237947 7.4498749 0 1 1 48.613592 159.58568 z" transform="matrix(1.000000,0.000000,0.000000,0.677966,9.848987,2.778440)" style="fill:url(#radialGradient4354);fill-opacity:1;stroke:#8e6b00;stroke-width:.60724795;stroke-linejoin:round;stroke-miterlimit:4;stroke-opacity:1"/><path id="path4293" d="M 48.613592 159.58568 A 11.237947 7.4498749 0 1 1 26.137697,159.58568 A 11.237947 7.4498749 0 1 1 48.613592 159.58568 z" transform="matrix(1.000000,0.000000,0.000000,0.677966,9.848987,1.515730)" style="fill:url(#radialGradient4356);fill-opacity:1;stroke:#8e6b00;stroke-width:.60724795;stroke-linejoin:round;stroke-miterlimit:4;stroke-opacity:1"/></g><g id="g12614"><path id="path4325" d="M 48.613592 159.58568 A 11.237947 7.4498749 0 1 1 26.137697,159.58568 A 11.237947 7.4498749 0 1 1 48.613592 159.58568 z" transform="matrix(1.241573,0.000000,0.000000,0.677966,-16.98390,5.177540)" style="fill:url(#radialGradient4358);fill-opacity:1;stroke:none;stroke-width:.60724795;stroke-linejoin:round;stroke-miterlimit:4;stroke-opacity:.6056338"/><path id="path4283" d="M 48.613592 159.58568 A 11.237947 7.4498749 0 1 1 26.137697,159.58568 A 11.237947 7.4498749 0 1 1 48.613592 159.58568 z" transform="matrix(1.000000,0.000000,0.000000,0.677966,-6.692262,0.631860)" style="fill:url(#radialGradient4360);fill-opacity:1;stroke:#8e6b00;stroke-width:.60724795;stroke-linejoin:round;stroke-miterlimit:4;stroke-opacity:1"/><path id="path4285" d="M 48.613592 159.58568 A 11.237947 7.4498749 0 1 1 26.137697,159.58568 A 11.237947 7.4498749 0 1 1 48.613592 159.58568 z" transform="matrix(1.000000,0.000000,0.000000,0.677966,-6.692261,-0.630850)" style="fill:url(#radialGradient4362);fill-opacity:1;stroke:#8e6b00;stroke-width:.60724795;stroke-linejoin:round;stroke-miterlimit:4;stroke-opacity:1"/></g><g id="g12609"><path id="path4317" d="M 48.613592 159.58568 A 11.237947 7.4498749 0 1 1 26.137697,159.58568 A 11.237947 7.4498749 0 1 1 48.613592 159.58568 z" transform="matrix(1.241573,0.000000,0.000000,0.677966,0.946309,-1.830390)" style="fill:url(#radialGradient4364);fill-opacity:1;stroke:none;stroke-width:.60724795;stroke-linejoin:round;stroke-miterlimit:4;stroke-opacity:.6056338"/><path id="path4275" d="M 48.613592 159.58568 A 11.237947 7.4498749 0 1 1 26.137697,159.58568 A 11.237947 7.4498749 0 1 1 48.613592 159.58568 z" transform="matrix(1.000000,0.000000,0.000000,0.677966,7.702413,-5.429050)" style="fill:url(#radialGradient4366);fill-opacity:1;stroke:#8e6b00;stroke-width:.60724795;stroke-linejoin:round;stroke-miterlimit:4;stroke-opacity:1"/><path id="path4277" d="M 48.613592 159.58568 A 11.237947 7.4498749 0 1 1 26.137697,159.58568 A 11.237947 7.4498749 0 1 1 48.613592 159.58568 z" transform="matrix(1.000000,0.000000,0.000000,0.677966,7.702413,-6.691760)" style="fill:url(#radialGradient4368);fill-opacity:1;stroke:#8e6b00;stroke-width:.60724795;stroke-linejoin:round;stroke-miterlimit:4;stroke-opacity:1"/></g><g id="g12604"><path id="path4313" d="M 48.613592 159.58568 A 11.237947 7.4498749 0 1 1 26.137697,159.58568 A 11.237947 7.4498749 0 1 1 48.613592 159.58568 z" transform="matrix(1.241573,0.000000,0.000000,0.677966,-19.31988,-4.545180)" style="fill:url(#radialGradient4370);fill-opacity:1;stroke:none;stroke-width:.60724795;stroke-linejoin:round;stroke-miterlimit:4;stroke-opacity:.6056338"/><path id="path4267" d="M 48.613592 159.58568 A 11.237947 7.4498749 0 1 1 26.137697,159.58568 A 11.237947 7.4498749 0 1 1 48.613592 159.58568 z" transform="matrix(1.000000,0.000000,0.000000,0.677966,-10.48033,-7.701900)" style="fill:url(#radialGradient4372);fill-opacity:1;stroke:#8e6b00;stroke-width:.60724795;stroke-linejoin:round;stroke-miterlimit:4;stroke-opacity:1"/><path id="path4269" d="M 48.613592 159.58568 A 11.237947 7.4498749 0 1 1 26.137697,159.58568 A 11.237947 7.4498749 0 1 1 48.613592 159.58568 z" transform="matrix(1.000000,0.000000,0.000000,0.677966,-10.48033,-8.964610)" style="fill:url(#radialGradient4374);fill-opacity:1;stroke:#8e6b00;stroke-width:.60724795;stroke-linejoin:round;stroke-miterlimit:4;stroke-opacity:1"/></g><g id="g12599"><path id="path4299" d="M 48.613592 159.58568 A 11.237947 7.4498749 0 1 1 26.137697,159.58568 A 11.237947 7.4498749 0 1 1 48.613592 159.58568 z" transform="matrix(1.241573,0.000000,0.000000,0.677966,-7.829402,-12.75267)" style="fill:url(#radialGradient4376);fill-opacity:1;stroke:none;stroke-width:.60724795;stroke-linejoin:round;stroke-miterlimit:4;stroke-opacity:.6056338"/><path id="path4263" d="M 48.613592 159.58568 A 11.237947 7.4498749 0 1 1 26.137697,159.58568 A 11.237947 7.4498749 0 1 1 48.613592 159.58568 z" transform="matrix(1.000000,0.000000,0.000000,0.677966,-4.516842e-7,-15.40432)" style="fill:url(#radialGradient4378);fill-opacity:1;stroke:#8e6b00;stroke-width:.60724795;stroke-linejoin:round;stroke-miterlimit:4;stroke-opacity:1"/><path id="path3485" d="M 48.613592 159.58568 A 11.237947 7.4498749 0 1 1 26.137697,159.58568 A 11.237947 7.4498749 0 1 1 48.613592 159.58568 z" transform="matrix(1.000000,0.000000,0.000000,0.677966,0.000000,-16.66703)" style="fill:url(#radialGradient4380);fill-opacity:1;stroke:#8e6b00;stroke-width:.60724795;stroke-linejoin:round;stroke-miterlimit:4;stroke-opacity:1"/></g></g><use id="use1824" width="320" height="64" x="0" y="0" transform="translate(0.000000,200.0686)" xlink:href="#button"/></g><g id="hover"><use id="use12656" width="320" height="64" x="0" y="0" transform="translate(0.000000,134.3503)" xlink:href="#button-hover"/><use id="use1500" width="320" height="64" x="0" y="0" transform="translate(328.5714,0.000000)" xlink:href="#quit"/><use id="use12650" width="320" height="64" x="0" y="0" transform="translate(0.000000,68.69037)" xlink:href="#button-hover"/><use id="use1494" width="320" height="64" x="0" y="0" transform="translate(328.5715,0.000000)" xlink:href="#credits"/><g id="button-hover" transform="translate(328.5714,0.000000)"><rect id="rect4845" width="316.668" height="60.53" x="2.857" y="3.431" rx="31.902" ry="30.265" style="fill:#000;fill-opacity:.5529412;fill-rule:nonzero;stroke:none;stroke-width:.95188034;stroke-linecap:round;stroke-linejoin:round;stroke-miterlimit:4;stroke-opacity:.55281693"/><rect id="rect4847" width="317.025" height="60.887" x=".782" y="1.079" rx="31.902" ry="30.444" style="fill:url(#linearGradient5617);fill-opacity:1;fill-rule:nonzero;stroke:#4494e1;stroke-width:.95188034;stroke-linecap:round;stroke-linejoin:round;stroke-miterlimit:4;stroke-opacity:.63667822"/><path id="path4849" d="M 8.6426211,37.334528 C 8.7472264,38.918800 4.8109087,6.4238298 28.713747,6.5833715 C 86.937389,6.9719911 104.52402,5.5392385 109.12234,6.2255747 C 114.36351,7.0078593 78.888617,7.9941159 30.930761,10.562009 C 17.578807,11.282301 7.6726019,22.643412 8.6426211,37.334528 z" style="fill:url(#radialGradient4851);fill-opacity:1;fill-rule:evenodd;stroke:none;stroke-width:.25pt;stroke-linecap:butt;stroke-linejoin:miter;stroke-opacity:1"/></g><use id="use1488" width="320" height="64" x="0" y="0" transform="translate(328.4673,0.000000)" xlink:href="#continue"/><use id="use12662" width="320" height="64" x="0" y="0" transform="translate(0.000000,-67.68022)" xlink:href="#button-hover"/><use id="use1482" width="320" height="64" x="0" y="0" transform="translate(328.6784,0.000000)" xlink:href="#load"/><use id="use12668" width="320" height="64" x="0" y="0" transform="translate(0.000000,-133.3401)" xlink:href="#button-hover"/><use id="use12672" width="320" height="64" x="0" y="0" transform="translate(328.4259,0.000000)" xlink:href="#new"/><use id="use1826" width="320" height="64" x="0" y="0" transform="translate(0.000000,200.0686)" xlink:href="#button-hover"/></g><g id="clicked"><use id="use12658" width="320" height="64" x="0" y="0" transform="translate(0.000000,134.3503)" xlink:href="#button-clicked"/><use id="use1503" width="320" height="64" x="0" y="0" transform="translate(660.0000,0.000000)" xlink:href="#quit"/><use id="use12652" width="320" height="64" x="0" y="0" transform="translate(0.000000,68.69037)" xlink:href="#button-clicked"/><use id="use1497" width="320" height="64" x="0" y="0" transform="translate(660.0001,0.000000)" xlink:href="#credits"/><g id="button-clicked"><rect id="rect6570" width="316.668" height="60.53" x="662.857" y="3.431" rx="31.902" ry="30.265" style="fill:#000;fill-opacity:.5529412;fill-rule:nonzero;stroke:none;stroke-width:.95188034;stroke-linecap:round;stroke-linejoin:round;stroke-miterlimit:4;stroke-opacity:.55281693"/><rect id="rect6572" width="317.025" height="60.887" x="660.782" y="1.079" rx="31.902" ry="30.444" style="fill:url(#linearGradient10682);fill-opacity:1;fill-rule:nonzero;stroke:#4494e1;stroke-width:.95188034;stroke-linecap:round;stroke-linejoin:round;stroke-miterlimit:4;stroke-opacity:.63667822"/><path id="path6574" d="M 668.64262,37.334528 C 668.74723,38.918800 664.81091,6.4238298 688.71375,6.5833715 C 746.93739,6.9719911 764.52402,5.5392385 769.12234,6.2255747 C 774.36351,7.0078593 738.88862,7.9941159 690.93076,10.562009 C 677.57881,11.282301 667.67260,22.643412 668.64262,37.334528 z" style="fill:url(#radialGradient10679);fill-opacity:1;fill-rule:evenodd;stroke:none;stroke-width:.25pt;stroke-linecap:butt;stroke-linejoin:miter;stroke-opacity:1"/></g><use id="use1491" width="320" height="64" x="0" y="0" transform="translate(659.9237,0.000000)" xlink:href="#continue"/><use id="use12664" width="320" height="64" x="0" y="0" transform="translate(0.000000,-67.68022)" xlink:href="#button-clicked"/><use id="use1485" width="320" height="64" x="0" y="0" transform="translate(660.0084,0.000000)" xlink:href="#load"/><use id="use12670" width="320" height="64" x="0" y="0" transform="translate(0.000000,-133.3401)" xlink:href="#button-clicked"/><use id="use12675" width="320" height="64" x="0" y="0" transform="translate(659.7558,0.000000)" xlink:href="#new"/><path style="fill:none;fill-opacity:.75;fill-rule:evenodd;stroke:#000;stroke-width:1px;stroke-linecap:butt;stroke-linejoin:miter;stroke-opacity:1" id="path1506" d="M -92.857143,6.1428563 L -44.285715,18.285714 L -47.142858,1.8571426 L -11.428572,32.571428 L -45.714286,64.000000 L -42.857143,48.999999 L -85.714293,63.285714 L -92.857143,6.1428563 z"/><text style="font-size:15.42397;font-style:normal;font-weight:400;fill:#000;fill-opacity:1;stroke:none;stroke-width:1px;stroke-linecap:butt;stroke-linejoin:miter;stroke-opacity:1;font-family:Bitstream Vera Sans" id="text1508" x="-259.276" y="9.459" xml:space="preserve"><tspan id="tspan1510" x="-259.276" y="9.459">This line holds the</tspan><tspan id="tspan1512" x="-259.276" y="24.883">master images, lines</tspan><tspan id="tspan1514" x="-259.276" y="40.306">above and below are</tspan><tspan id="tspan1516" x="-259.276" y="55.73">clones. So changes</tspan><tspan id="tspan1518" x="-259.276" y="71.154">stricly go to this line!</tspan></text><path style="fill:none;fill-opacity:.75;fill-rule:evenodd;stroke:#000;stroke-width:1px;stroke-linecap:butt;stroke-linejoin:miter;stroke-opacity:1" id="path1520" d="M 22.857143,-163.85715 L 7.8571433,-165.28572 L 35.714286,-138.85714 L 63.571429,-165.28572 L 47.142857,-163.14286 L 55.000000,-189.57143 L 17.142857,-192.42857 L 22.857143,-163.85715 z"/><text style="font-size:12;font-style:normal;font-weight:400;fill:#000;fill-opacity:1;stroke:none;stroke-width:1px;stroke-linecap:butt;stroke-linejoin:miter;stroke-opacity:1;font-family:Bitstream Vera Sans" id="text1522" x="-27.857" y="-226.714" xml:space="preserve"><tspan id="tspan1524" x="-27.857" y="-226.714">Row with master icons,</tspan><tspan id="tspan1526" x="-27.857" y="-214.714">others are clones, only</tspan><tspan id="tspan1528" x="-27.857" y="-202.714">change this row!</tspan></text><use id="use1828" width="320" height="64" x="0" y="0" transform="translate(0.000000,200.0686)" xlink:href="#button-clicked"/><g id="g1595" transform="matrix(1.050129,0.000000,0.000000,1.050129,-2.042235,-15.65078)"><g id="g2884" transform="matrix(1.403900,0.000000,0.000000,1.403900,18.13297,215.6414)"><path style="fill:url(#linearGradient1603);fill-opacity:1;fill-rule:evenodd;stroke:#000;stroke-width:1px;stroke-linecap:butt;stroke-linejoin:miter;stroke-opacity:1" id="path2083" d="M 5.0180647,5.8682592 L 23.969157,31.367706 L 28.309941,27.693375 L 9.0190610,3.0973719 L 5.0180647,5.8682592 z"/><path style="fill:url(#linearGradient1605);fill-opacity:1;fill-rule:evenodd;stroke:#000;stroke-width:1px;stroke-linecap:butt;stroke-linejoin:miter;stroke-opacity:1" id="path2081" d="M 0.77995049,16.609485 L 1.9916130,10.941229 L 14.513506,0.72158942 L 18.711980,6.7270350 L 5.4683806,17.389173 L 0.77995049,16.609485 z"/></g><g id="g2880" transform="matrix(1.403900,0.000000,0.000000,1.403900,18.13297,215.6414)"><path style="fill:#8e1515;fill-opacity:1;fill-rule:evenodd;stroke:#000;stroke-width:1px;stroke-linecap:butt;stroke-linejoin:miter;stroke-opacity:1" id="path2085" d="M 8.9375000,15.250000 L 1.3437500,20.937500 L 7.1875000,30.562500 L 14.687500,24.843750 L 8.9375000,15.250000 z M 6.8437500,19.062500 L 10.562500,25.625000 L 7.7812500,27.750000 L 3.8437500,21.375000 L 6.8437500,19.062500 z"/><path style="fill:url(#linearGradient1607);fill-opacity:1;fill-rule:evenodd;stroke:#000;stroke-width:1px;stroke-linecap:butt;stroke-linejoin:miter;stroke-opacity:1" id="path2089" d="M 9.5354864,15.647896 L 27.528877,3.2415750 L 31.025983,7.6065133 L 28.274385,8.7169420 L 26.867666,11.665838 L 24.054450,12.244412 L 22.709348,15.725162 L 19.578155,16.583122 L 18.551030,19.784485 L 15.437188,20.559587 L 14.392713,23.843809 L 9.5354864,15.647896 z"/></g></g><g id="g1609" transform="matrix(1.050129,0.000000,0.000000,1.050129,326.7227,-15.65078)"><g id="g1611" transform="matrix(1.403900,0.000000,0.000000,1.403900,18.13297,215.6414)"><path style="fill:url(#linearGradient1623);fill-opacity:1;fill-rule:evenodd;stroke:#000;stroke-width:1px;stroke-linecap:butt;stroke-linejoin:miter;stroke-opacity:1" id="path1613" d="M 5.0180647,5.8682592 L 23.969157,31.367706 L 28.309941,27.693375 L 9.0190610,3.0973719 L 5.0180647,5.8682592 z"/><path style="fill:url(#linearGradient1625);fill-opacity:1;fill-rule:evenodd;stroke:#000;stroke-width:1px;stroke-linecap:butt;stroke-linejoin:miter;stroke-opacity:1" id="path1615" d="M 0.77995049,16.609485 L 1.9916130,10.941229 L 14.513506,0.72158942 L 18.711980,6.7270350 L 5.4683806,17.389173 L 0.77995049,16.609485 z"/></g><g id="g1617" transform="matrix(1.403900,0.000000,0.000000,1.403900,18.13297,215.6414)"><path style="fill:#8e1515;fill-opacity:1;fill-rule:evenodd;stroke:#000;stroke-width:1px;stroke-linecap:butt;stroke-linejoin:miter;stroke-opacity:1" id="path1619" d="M 8.9375000,15.250000 L 1.3437500,20.937500 L 7.1875000,30.562500 L 14.687500,24.843750 L 8.9375000,15.250000 z M 6.8437500,19.062500 L 10.562500,25.625000 L 7.7812500,27.750000 L 3.8437500,21.375000 L 6.8437500,19.062500 z"/><path style="fill:url(#linearGradient1627);fill-opacity:1;fill-rule:evenodd;stroke:#000;stroke-width:1px;stroke-linecap:butt;stroke-linejoin:miter;stroke-opacity:1" id="path1621" d="M 9.5354864,15.647896 L 27.528877,3.2415750 L 31.025983,7.6065133 L 28.274385,8.7169420 L 26.867666,11.665838 L 24.054450,12.244412 L 22.709348,15.725162 L 19.578155,16.583122 L 18.551030,19.784485 L 15.437188,20.559587 L 14.392713,23.843809 L 9.5354864,15.647896 z"/></g></g><g id="g1629" transform="matrix(1.050129,0.000000,0.000000,1.050129,657.9676,-15.65078)"><g id="g1631" transform="matrix(1.403900,0.000000,0.000000,1.403900,18.13297,215.6414)"><path style="fill:url(#linearGradient1643);fill-opacity:1;fill-rule:evenodd;stroke:#000;stroke-width:1px;stroke-linecap:butt;stroke-linejoin:miter;stroke-opacity:1" id="path1633" d="M 5.0180647,5.8682592 L 23.969157,31.367706 L 28.309941,27.693375 L 9.0190610,3.0973719 L 5.0180647,5.8682592 z"/><path style="fill:url(#linearGradient1645);fill-opacity:1;fill-rule:evenodd;stroke:#000;stroke-width:1px;stroke-linecap:butt;stroke-linejoin:miter;stroke-opacity:1" id="path1635" d="M 0.77995049,16.609485 L 1.9916130,10.941229 L 14.513506,0.72158942 L 18.711980,6.7270350 L 5.4683806,17.389173 L 0.77995049,16.609485 z"/></g><g id="g1637" transform="matrix(1.403900,0.000000,0.000000,1.403900,18.13297,215.6414)"><path style="fill:#8e1515;fill-opacity:1;fill-rule:evenodd;stroke:#000;stroke-width:1px;stroke-linecap:butt;stroke-linejoin:miter;stroke-opacity:1" id="path1639" d="M 8.9375000,15.250000 L 1.3437500,20.937500 L 7.1875000,30.562500 L 14.687500,24.843750 L 8.9375000,15.250000 z M 6.8437500,19.062500 L 10.562500,25.625000 L 7.7812500,27.750000 L 3.8437500,21.375000 L 6.8437500,19.062500 z"/><path style="fill:url(#linearGradient1647);fill-opacity:1;fill-rule:evenodd;stroke:#000;stroke-width:1px;stroke-linecap:butt;stroke-linejoin:miter;stroke-opacity:1" id="path1641" d="M 9.5354864,15.647896 L 27.528877,3.2415750 L 31.025983,7.6065133 L 28.274385,8.7169420 L 26.867666,11.665838 L 24.054450,12.244412 L 22.709348,15.725162 L 19.578155,16.583122 L 18.551030,19.784485 L 15.437188,20.559587 L 14.392713,23.843809 L 9.5354864,15.647896 z"/></g></g></g></svg>