<svg xmlns="http://www.w3.org/2000/svg" xmlns:cc="http://web.resource.org/cc/" xmlns:svg="http://www.w3.org/2000/svg" xmlns:xlink="http://www.w3.org/1999/xlink" id="svg2" width="210mm" height="420"><defs id="defs3"><linearGradient id="linearGradient1738"><stop style="stop-color:#60ff45;stop-opacity:1" id="stop1739" offset="0"/><stop style="stop-color:#0bad00;stop-opacity:1" id="stop1740" offset="1"/></linearGradient><linearGradient id="linearGradient3453" x1="482.886" x2="197.875" y1="444.143" y2="303.581" gradientTransform="matrix(0.948836,0.000000,0.000000,0.738747,-133.7684,-70.90894)" gradientUnits="userSpaceOnUse" xlink:href="#linearGradient1738"/><linearGradient id="linearGradient3450" x1="680.291" x2="681.545" y1="721.964" y2="737.447" gradientTransform="matrix(5.683406,0.000000,0.000000,4.909315,-3569.570,-3436.947)" gradientUnits="userSpaceOnUse" xlink:href="#linearGradient4960"/><linearGradient id="linearGradient4960"><stop style="stop-color:#fff;stop-opacity:.73092371" id="stop4962" offset="0"/><stop style="stop-color:#fff;stop-opacity:0" id="stop4964" offset="1"/></linearGradient><linearGradient id="linearGradient3447" x1="651.095" x2="652.257" y1="720.266" y2="728.051" gradientTransform="matrix(5.683406,0.000000,0.000000,4.909315,-3569.240,-3440.256)" gradientUnits="userSpaceOnUse" xlink:href="#linearGradient4960"/><linearGradient id="linearGradient2101"><stop id="stop2103" offset="0" style="stop-color:#404040;stop-opacity:1"/><stop id="stop2105" offset="1" style="stop-color:#ababab;stop-opacity:1"/></linearGradient><linearGradient id="linearGradient2091"><stop id="stop2093" offset="0" style="stop-color:#313131;stop-opacity:1"/><stop id="stop2095" offset="1" style="stop-color:#000;stop-opacity:1"/></linearGradient><linearGradient id="linearGradient2978" x1="382.305" x2="667.919" y1="58.899" y2="345.994" gradientUnits="userSpaceOnUse" xlink:href="#linearGradient2101"/><linearGradient id="linearGradient2980" x1="674.285" x2="373.557" y1="350.729" y2="55.754" gradientUnits="userSpaceOnUse" xlink:href="#linearGradient2101"/><linearGradient id="linearGradient2982" x1="474.4" x2="628.728" y1="69.621" y2="262.038" gradientTransform="matrix(0.968482,0.000000,0.000000,0.968482,16.43406,6.287867)" gradientUnits="userSpaceOnUse" xlink:href="#linearGradient2091"/><linearGradient id="linearGradient2984" x1="425.064" x2="646.809" y1="50.686" y2="344.307" gradientTransform="matrix(0.968482,0.000000,0.000000,0.968482,16.43406,6.287867)" gradientUnits="userSpaceOnUse" xlink:href="#linearGradient2101"/></defs><metadata id="metadata4"/><g id="layer1"><g id="g3472"><use id="use2976" width="744.094" height="1052.362" x="0" y="0" transform="translate(-355.7142,0.000000)" xlink:href="#g2971"/><path style="fill:#000;fill-opacity:.55102038;fill-rule:evenodd;stroke:none;stroke-width:5;stroke-linecap:square;stroke-linejoin:round;stroke-miterlimit:4;stroke-opacity:.5529412" id="path3839" d="M 47.312152,145.93379 L 147.74452,346.79823 L 359.26089,165.71592 L 336.43542,129.19509 L 187.30868,212.88857 L 159.91806,104.84781 L 47.312152,145.93379 z"/><path style="fill:url(#linearGradient3453);fill-opacity:1;fill-rule:evenodd;stroke:#008409;stroke-width:4.1861291;stroke-linecap:round;stroke-linejoin:round;stroke-miterlimit:4;stroke-opacity:1" id="path3841" d="M 46.551392,125.39080 L 146.98366,326.25534 L 358.50003,145.17293 L 335.67456,108.65210 L 186.54782,192.34568 L 159.15720,84.304916 L 46.551392,125.39080 z"/><path style="fill:url(#linearGradient3450);fill-opacity:1;fill-rule:evenodd;stroke:none;stroke-width:.25pt;stroke-linecap:butt;stroke-linejoin:miter;stroke-opacity:1" id="path3843" d="M 330.12469,119.30179 C 320.54047,123.23026 283.71372,145.08190 267.10561,156.19669 C 250.49741,167.31147 260.86527,170.26653 264.49442,167.72816 C 316.76567,131.16716 312.97419,133.32403 347.34466,146.78282 C 353.97606,149.37957 338.67213,115.79834 330.12469,119.30179 z"/><path style="fill:url(#linearGradient3447);fill-opacity:1;fill-rule:evenodd;stroke:none;stroke-width:.25pt;stroke-linecap:butt;stroke-linejoin:miter;stroke-opacity:1" id="path3845" d="M 148.26240,96.071737 C 133.22321,97.081469 93.490521,116.87387 102.08484,116.75264 C 145.41200,116.14180 143.62341,105.31718 158.08695,125.25482 C 162.26878,131.01938 161.36340,95.192188 148.26240,96.071737 z"/></g><g id="g2971" transform="translate(35.71428,-1.428571)"><path id="path1330" d="M 392.86224,55.218750 C 384.14215,55.218750 377.13839,62.222501 377.13839,70.942594 L 377.13839,328.03318 C 377.13839,336.75327 384.14215,343.78572 392.86224,343.78572 L 649.95282,343.78572 C 658.67291,343.78572 665.70537,336.75326 665.70536,328.03318 L 665.70536,70.942594 C 665.70536,62.222501 658.67292,55.218750 649.95282,55.218750 L 392.86224,55.218750 z M 415.15681,77.513324 L 627.65825,77.513324 C 636.37833,77.513324 643.41078,84.517075 643.41078,93.237168 L 643.41078,305.73861 C 643.41077,314.45871 636.37834,321.49114 627.65825,321.49114 L 415.15681,321.49114 C 406.43672,321.49116 399.43297,314.45870 399.43297,305.73861 L 399.43297,93.237168 C 399.43297,84.517078 406.43672,77.513324 415.15681,77.513324 z" style="fill:url(#linearGradient2978);fill-opacity:1;stroke:none;stroke-width:1.0000002;stroke-linecap:round;stroke-linejoin:miter;stroke-miterlimit:4;stroke-opacity:.62323946"/><path id="rect1317" d="M 375.71875,36.642857 C 366.22161,36.642857 358.56250,44.301968 358.56250,53.799107 L 358.56250,345.20536 C 358.56250,354.70250 366.22161,362.36161 375.71875,362.36161 L 667.15625,362.36161 C 676.65339,362.36161 684.28122,354.70250 684.28125,345.20536 L 684.28125,53.799107 C 684.28125,44.301964 676.65339,36.642857 667.15625,36.642857 L 375.71875,36.642857 z M 405.71875,66.642857 L 637.15625,66.642857 C 646.65339,66.642857 654.28125,74.301964 654.28125,83.799107 L 654.28125,315.20536 C 654.28122,324.70250 646.65339,332.36161 637.15625,332.36161 L 405.71875,332.36161 C 396.22161,332.36161 388.56250,324.70250 388.56250,315.20536 L 388.56250,83.799107 C 388.56250,74.301968 396.22161,66.642857 405.71875,66.642857 z" style="fill:url(#linearGradient2980);fill-opacity:1;stroke:none;stroke-width:1.0000002;stroke-linecap:round;stroke-linejoin:miter;stroke-miterlimit:4;stroke-opacity:.62323946"/><path id="rect1319" d="M 385.81923,47.314330 C 376.62142,47.314330 369.23397,54.701774 369.23397,63.899588 L 369.23397,335.07461 C 369.23397,344.27242 376.62142,351.69014 385.81923,351.69014 L 656.99425,351.69014 C 666.19206,351.69014 673.60979,344.27242 673.60978,335.07461 L 673.60978,63.899588 C 673.60978,54.701774 666.19207,47.314330 656.99425,47.314330 L 385.81923,47.314330 z M 409.33519,70.830289 L 633.47829,70.830289 C 642.67610,70.830289 650.09382,78.217733 650.09382,87.415547 L 650.09382,311.55865 C 650.09381,320.75648 642.67611,328.17418 633.47829,328.17418 L 409.33519,328.17418 C 400.13738,328.17420 392.74993,320.75647 392.74993,311.55865 L 392.74993,87.415547 C 392.74993,78.217737 400.13738,70.830289 409.33519,70.830289 z" style="fill:url(#linearGradient2982);fill-opacity:1;stroke:url(#linearGradient2984);stroke-width:2.9054468;stroke-linecap:round;stroke-linejoin:miter;stroke-miterlimit:4;stroke-opacity:.62323946"/></g></g></svg>