<svg xmlns="http://www.w3.org/2000/svg" xmlns:cc="http://web.resource.org/cc/" xmlns:svg="http://www.w3.org/2000/svg" xmlns:xlink="http://www.w3.org/1999/xlink" id="svg2" width="210mm" height="297mm"><defs id="defs3"><linearGradient id="linearGradient2848"><stop id="stop2850" offset="0" style="stop-color:red;stop-opacity:1"/><stop id="stop2852" offset="1" style="stop-color:#780000;stop-opacity:1"/></linearGradient><linearGradient id="linearGradient2810"><stop id="stop2812" offset="0" style="stop-color:#bdbdbd;stop-opacity:1"/><stop id="stop2814" offset="1" style="stop-color:#757575;stop-opacity:1"/></linearGradient><radialGradient id="radialGradient2818" cx="481.809" cy="607.699" r="430.972" fx="481.809" fy="607.699" gradientUnits="userSpaceOnUse" xlink:href="#linearGradient2810"/><radialGradient id="radialGradient2822" cx="228.211" cy="278.021" r="361.971" fx="228.211" fy="278.021" gradientUnits="userSpaceOnUse" xlink:href="#linearGradient2810"/><radialGradient id="radialGradient2840" cx="481.809" cy="607.699" r="430.972" fx="481.809" fy="607.699" gradientUnits="userSpaceOnUse" xlink:href="#linearGradient2810"/><radialGradient id="radialGradient2842" cx="228.211" cy="278.021" r="361.971" fx="228.211" fy="278.021" gradientUnits="userSpaceOnUse" xlink:href="#linearGradient2810"/><linearGradient id="linearGradient2854" x1="351.94" x2="461.927" y1="554.542" y2="798.941" gradientTransform="scale(0.910280,1.098563)" gradientUnits="userSpaceOnUse" xlink:href="#linearGradient2848"/></defs><metadata id="metadata4"/><g id="layer1"><path id="path2824" d="M 560.00000 418.07648 A 222.85715 222.85715 0 1 1 114.28571,418.07648 A 222.85715 222.85715 0 1 1 560.00000 418.07648 z" transform="matrix(0.835182,0.000000,0.000000,0.835182,1.281415,-33.95075)" style="stroke-opacity:1;stroke-miterlimit:4;stroke-linejoin:round;stroke-linecap:round;stroke-width:5.9867191;stroke:none;fill-opacity:.63194442;fill:#000"/><path id="path1291" d="M 560.00000 418.07648 A 222.85715 222.85715 0 1 1 114.28571,418.07648 A 222.85715 222.85715 0 1 1 560.00000 418.07648 z" transform="matrix(0.835182,0.000000,0.000000,0.835182,-7.290014,-39.66504)" style="stroke-dasharray:none;stroke-opacity:1;stroke-miterlimit:4;stroke-linejoin:round;stroke-linecap:round;stroke-width:5.9867191;stroke:#555;fill-opacity:1;fill:url(#radialGradient2818)"/><path id="path2820" d="M 560.00000 418.07648 A 222.85715 222.85715 0 1 1 114.28571,418.07648 A 222.85715 222.85715 0 1 1 560.00000 418.07648 z" transform="matrix(0.340729,0.000000,0.000000,0.340729,159.4114,167.0542)" style="stroke-opacity:1;stroke-miterlimit:4;stroke-linejoin:round;stroke-linecap:round;stroke-width:14.674419;stroke:#555;fill-opacity:1;fill:url(#radialGradient2822);stroke-dasharray:none"/><path id="path2834" d="M 560.00000 418.07648 A 222.85715 222.85715 0 1 1 114.28571,418.07648 A 222.85715 222.85715 0 1 1 560.00000 418.07648 z" transform="matrix(0.835182,0.000000,0.000000,0.835182,1.281415,417.4778)" style="fill:#000;fill-opacity:.63194442;stroke:none;stroke-width:5.9867191;stroke-linecap:round;stroke-linejoin:round;stroke-miterlimit:4;stroke-opacity:1"/><path id="path2836" d="M 560.00000 418.07648 A 222.85715 222.85715 0 1 1 114.28571,418.07648 A 222.85715 222.85715 0 1 1 560.00000 418.07648 z" transform="matrix(0.835182,0.000000,0.000000,0.835182,-7.290014,411.7635)" style="fill:url(#radialGradient2840);fill-opacity:1;stroke:#555;stroke-width:5.9867191;stroke-linecap:round;stroke-linejoin:round;stroke-miterlimit:4;stroke-opacity:1"/><path id="path2838" d="M 560.00000 418.07648 A 222.85715 222.85715 0 1 1 114.28571,418.07648 A 222.85715 222.85715 0 1 1 560.00000 418.07648 z" transform="matrix(0.340729,0.000000,0.000000,0.340729,159.4114,618.4828)" style="fill:url(#radialGradient2842);fill-opacity:1;stroke:#555;stroke-width:14.674419;stroke-linecap:round;stroke-linejoin:round;stroke-miterlimit:4;stroke-opacity:1"/><path id="path2846" d="M 94.285719,860.93361 L 411.42857,595.21933 L 448.57142,646.64790 L 177.14286,938.07647 L 94.285719,860.93361 z" style="fill:url(#linearGradient2854);fill-opacity:1;fill-rule:evenodd;stroke:#000;stroke-width:2;stroke-linecap:butt;stroke-linejoin:miter;stroke-opacity:1;stroke-dasharray:none;stroke-miterlimit:4"/></g></svg>