<svg xmlns="http://www.w3.org/2000/svg" xmlns:cc="http://web.resource.org/cc/" xmlns:svg="http://www.w3.org/2000/svg" xmlns:xlink="http://www.w3.org/1999/xlink" id="svg2" width="1024" height="768"><defs id="defs3"><linearGradient id="linearGradient2758"><stop id="stop2760" offset="0" style="stop-color:#3eea27;stop-opacity:1"/><stop id="stop2762" offset="1" style="stop-color:#29b118;stop-opacity:1"/></linearGradient><linearGradient id="linearGradient2744"><stop id="stop2746" offset="0" style="stop-color:#294327;stop-opacity:1"/><stop id="stop2748" offset="1" style="stop-color:#000;stop-opacity:0"/></linearGradient><linearGradient id="linearGradient2734"><stop id="stop2736" offset="0" style="stop-color:#385fa8;stop-opacity:1"/><stop id="stop2738" offset="1" style="stop-color:#29457a;stop-opacity:1"/></linearGradient><linearGradient id="linearGradient18203"><stop style="stop-color:#bac320;stop-opacity:1" id="stop18205" offset="0"/><stop style="stop-color:#f7ff6b;stop-opacity:1" id="stop18209" offset=".5"/><stop style="stop-color:#bac320;stop-opacity:1" id="stop18207" offset="1"/></linearGradient><linearGradient id="linearGradient4850"><stop style="stop-color:#000;stop-opacity:1" id="stop4852" offset="0"/><stop style="stop-color:#000;stop-opacity:0" id="stop4854" offset="1"/></linearGradient><linearGradient id="linearGradient4255"><stop style="stop-color:#f7ff6b;stop-opacity:1" id="stop4257" offset="0"/><stop style="stop-color:#bac320;stop-opacity:1" id="stop4259" offset="1"/></linearGradient><linearGradient id="linearGradient4305"><stop style="stop-color:#000;stop-opacity:.73333335" id="stop4307" offset="0"/><stop style="stop-color:#000;stop-opacity:0" id="stop4309" offset="1"/></linearGradient><linearGradient id="linearGradient2380"><stop style="stop-color:#a9ab1d;stop-opacity:1" id="stop2382" offset="0"/><stop style="stop-color:#a9ab1d;stop-opacity:0" id="stop2384" offset="1"/></linearGradient><linearGradient id="linearGradient2542"><stop id="stop2544" offset="0" style="stop-color:#fff;stop-opacity:1"/><stop id="stop2546" offset="1" style="stop-color:#e2ecff;stop-opacity:1"/></linearGradient><radialGradient id="radialGradient2550" cx="823.915" cy="473.203" r="787.102" fx="823.915" fy="473.203" gradientTransform="matrix(1.162983,0.000000,0.000000,0.859900,8.931699e-3,1.615128e-2)" gradientUnits="userSpaceOnUse" xlink:href="#linearGradient2542"/><radialGradient id="radialGradient22165" cx="165.644" cy="422.405" r="82.462" fx="165.644" fy="422.405" gradientTransform="matrix(2.443798,0.000000,0.000000,0.652480,326.2565,-254.3486)" gradientUnits="userSpaceOnUse" xlink:href="#linearGradient19109"/><linearGradient id="linearGradient11999"><stop style="stop-color:#e2e2e2;stop-opacity:1" id="stop12001" offset="0"/><stop style="stop-color:#c9c9c9;stop-opacity:1" id="stop12003" offset="1"/></linearGradient><linearGradient id="linearGradient11991"><stop style="stop-color:#c9c9c9;stop-opacity:1" id="stop11993" offset="0"/><stop style="stop-color:#8b8b8b;stop-opacity:1" id="stop11995" offset="1"/></linearGradient><linearGradient id="linearGradient12007"><stop style="stop-color:#bababa;stop-opacity:1" id="stop12009" offset="0"/><stop style="stop-color:#888;stop-opacity:1" id="stop12011" offset="1"/></linearGradient><linearGradient id="linearGradient14361"><stop style="stop-color:#c3cde9;stop-opacity:1" id="stop14363" offset="0"/><stop style="stop-color:#698ef6;stop-opacity:1" id="stop14365" offset="1"/></linearGradient><linearGradient id="linearGradient19109"><stop style="stop-color:#000;stop-opacity:.45378152" id="stop19111" offset="0"/><stop style="stop-color:#000;stop-opacity:0" id="stop19113" offset="1"/></linearGradient><linearGradient id="linearGradient9030"><stop style="stop-color:#00bfff;stop-opacity:1" id="stop9032" offset="0"/><stop style="stop-color:#0021c8;stop-opacity:.51405621" id="stop9034" offset="1"/></linearGradient><linearGradient id="linearGradient4960"><stop style="stop-color:#fff;stop-opacity:.35294119" id="stop4962" offset="0"/><stop style="stop-color:#fff;stop-opacity:0" id="stop4964" offset="1"/></linearGradient><linearGradient id="linearGradient3617" x1="192.481" x2="370.322" y1="824.526" y2="1027.308" gradientTransform="matrix(0.162618,0.000000,0.000000,0.154485,-1.360206,385.5420)" gradientUnits="userSpaceOnUse" xlink:href="#linearGradient3618"/><linearGradient id="linearGradient1742" x1="482.886" x2="197.875" y1="444.143" y2="303.581" gradientTransform="matrix(0.179629,0.000000,0.000000,0.139856,648.7695,483.3827)" gradientUnits="userSpaceOnUse" xlink:href="#linearGradient1738"/><radialGradient id="radialGradient4812" cx="272.038" cy="469.375" r="469.635" fx="272.038" fy="469.375" gradientUnits="userSpaceOnUse" xlink:href="#linearGradient2304"/><radialGradient id="radialGradient4811" cx="615.292" cy="668.543" r="494.38" fx="615.292" fy="668.543" gradientUnits="userSpaceOnUse" xlink:href="#linearGradient2304"/><radialGradient id="radialGradient4810" cx="272.038" cy="469.375" r="469.635" fx="272.038" fy="469.375" gradientUnits="userSpaceOnUse" xlink:href="#linearGradient2304"/><radialGradient id="radialGradient3554" cx="272.038" cy="469.375" r="469.635" fx="272.038" fy="469.375" gradientUnits="userSpaceOnUse" xlink:href="#linearGradient2304"/><radialGradient id="radialGradient2931" cx="615.292" cy="668.543" r="494.38" fx="615.292" fy="668.543" gradientUnits="userSpaceOnUse" xlink:href="#linearGradient2304"/><radialGradient id="radialGradient2308" cx="272.038" cy="469.375" r="469.635" fx="272.038" fy="469.375" gradientUnits="userSpaceOnUse" xlink:href="#linearGradient2304"/><linearGradient id="linearGradient2304"><stop style="stop-color:#6a57ff;stop-opacity:1" id="stop2305" offset="0"/><stop style="stop-color:#1300a8;stop-opacity:1" id="stop2306" offset="1"/></linearGradient><linearGradient id="linearGradient4802"><stop style="stop-color:#8879ff;stop-opacity:1" id="stop4803" offset="0"/><stop style="stop-color:#4e42a8;stop-opacity:1" id="stop4804" offset="1"/></linearGradient><linearGradient id="linearGradient1738"><stop style="stop-color:#60ff45;stop-opacity:1" id="stop1739" offset="0"/><stop style="stop-color:#0bad00;stop-opacity:1" id="stop1740" offset="1"/></linearGradient><linearGradient id="linearGradient3618"><stop style="stop-color:red;stop-opacity:1" id="stop3619" offset="0"/><stop style="stop-color:#860000;stop-opacity:1" id="stop3620" offset="1"/></linearGradient><linearGradient id="linearGradient6500" x1="63.394" x2="72.465" y1="712.43" y2="719.76" gradientTransform="scale(1.075954,0.929408)" gradientUnits="userSpaceOnUse" xlink:href="#linearGradient4960"/><linearGradient id="linearGradient6504" x1="63.394" x2="72.465" y1="712.43" y2="719.76" gradientTransform="matrix(1.075954,0.000000,0.000000,0.929408,-23.99263,0.925278)" gradientUnits="userSpaceOnUse" xlink:href="#linearGradient4960"/><linearGradient id="linearGradient6508" x1="680.291" x2="681.545" y1="721.964" y2="737.447" gradientTransform="matrix(1.075954,0.000000,0.000000,0.929408,-6.266319e-2,0.626632)" gradientUnits="userSpaceOnUse" xlink:href="#linearGradient4960"/><linearGradient id="linearGradient6512" x1="651.095" x2="652.257" y1="720.266" y2="728.051" gradientTransform="scale(1.075954,0.929408)" gradientUnits="userSpaceOnUse" xlink:href="#linearGradient4960"/><linearGradient id="linearGradient12124" x1="3138.886" x2="2594.434" y1="100.327" y2="79.18" gradientTransform="scale(0.206219,4.849215)" gradientUnits="userSpaceOnUse" xlink:href="#linearGradient2304"/><linearGradient id="linearGradient13654" x1="3138.886" x2="2594.434" y1="100.327" y2="79.18" gradientTransform="matrix(0.206219,0.000000,0.000000,4.849215,0.224287,0.297193)" gradientUnits="userSpaceOnUse" xlink:href="#linearGradient4960"/><radialGradient id="radialGradient23468" cx="333.196" cy="450.403" r="40.587" fx="333.196" fy="450.403" gradientTransform="matrix(0.876328,0.000000,0.000000,1.141125,741.3971,-280.0799)" gradientUnits="userSpaceOnUse" xlink:href="#linearGradient14361"/><linearGradient id="linearGradient23470" x1="234.28" x2="235.348" y1="428.894" y2="412.359" gradientTransform="matrix(1.280351,-7.068357e-2,4.938903e-2,0.894625,755.6905,-135.5312)" gradientUnits="userSpaceOnUse" xlink:href="#linearGradient12007"/><linearGradient id="linearGradient23472" x1="476.781" x2="495.912" y1="183.692" y2="184.979" gradientTransform="matrix(0.603151,-3.329779e-2,0.104842,1.899084,755.6905,-135.5312)" gradientUnits="userSpaceOnUse" xlink:href="#linearGradient12007"/><linearGradient id="linearGradient23474" x1="367.535" x2="376.081" y1="254.705" y2="265.419" gradientTransform="matrix(0.817211,-4.511528e-2,7.737946e-2,1.401639,755.6905,-135.5312)" gradientUnits="userSpaceOnUse" spreadMethod="pad" xlink:href="#linearGradient14361"/><linearGradient id="linearGradient23476" x1="234.28" x2="235.348" y1="428.894" y2="412.359" gradientTransform="matrix(1.228141,-3.200691e-2,2.236432e-2,0.858144,749.5288,-149.6013)" gradientUnits="userSpaceOnUse" xlink:href="#linearGradient12007"/><linearGradient id="linearGradient23478" x1="476.781" x2="495.912" y1="183.692" y2="184.979" gradientTransform="matrix(0.578556,-1.507789e-2,4.747429e-2,1.821642,749.5288,-149.6013)" gradientUnits="userSpaceOnUse" xlink:href="#linearGradient12007"/><linearGradient id="linearGradient23480" x1="367.535" x2="376.081" y1="254.705" y2="265.419" gradientTransform="matrix(0.783885,-2.042908e-2,3.503894e-2,1.344482,749.5288,-149.6013)" gradientUnits="userSpaceOnUse" spreadMethod="pad" xlink:href="#linearGradient14361"/><linearGradient id="linearGradient23482" x1="234.28" x2="235.348" y1="428.894" y2="412.359" gradientTransform="matrix(1.194210,-7.087786e-2,4.952476e-2,0.834435,718.3285,-149.3086)" gradientUnits="userSpaceOnUse" xlink:href="#linearGradient12007"/><linearGradient id="linearGradient23484" x1="476.781" x2="495.912" y1="183.692" y2="184.979" gradientTransform="matrix(0.562571,-3.338931e-2,0.105130,1.771313,718.3285,-149.3086)" gradientUnits="userSpaceOnUse" xlink:href="#linearGradient12007"/><linearGradient id="linearGradient23486" x1="367.535" x2="376.081" y1="254.705" y2="265.419" gradientTransform="matrix(0.762229,-4.523925e-2,7.759215e-2,1.307337,718.3285,-149.3086)" gradientUnits="userSpaceOnUse" spreadMethod="pad" xlink:href="#linearGradient14361"/><linearGradient id="linearGradient23488" x1="234.28" x2="235.348" y1="428.894" y2="412.359" gradientTransform="matrix(1.281588,-4.272218e-2,2.985145e-2,0.895490,765.0778,-199.5904)" gradientUnits="userSpaceOnUse" xlink:href="#linearGradient12007"/><linearGradient id="linearGradient23490" x1="476.781" x2="495.912" y1="183.692" y2="184.979" gradientTransform="matrix(0.603734,-2.012567e-2,6.336779e-2,1.900919,765.0778,-199.5904)" gradientUnits="userSpaceOnUse" xlink:href="#linearGradient12007"/><linearGradient id="linearGradient23492" x1="367.535" x2="376.081" y1="254.705" y2="265.419" gradientTransform="matrix(0.818001,-2.726833e-2,4.676928e-2,1.402994,765.0778,-199.5904)" gradientUnits="userSpaceOnUse" spreadMethod="pad" xlink:href="#linearGradient14361"/><linearGradient id="linearGradient23494" x1="234.28" x2="235.348" y1="428.894" y2="412.359" gradientTransform="matrix(1.227597,-4.856174e-2,3.393173e-2,0.857764,745.7026,-201.9960)" gradientUnits="userSpaceOnUse" xlink:href="#linearGradient12007"/><linearGradient id="linearGradient23496" x1="476.781" x2="495.912" y1="183.692" y2="184.979" gradientTransform="matrix(0.578299,-2.287658e-2,7.202925e-2,1.820835,745.7026,-201.9960)" gradientUnits="userSpaceOnUse" xlink:href="#linearGradient12007"/><linearGradient id="linearGradient23498" x1="367.535" x2="376.081" y1="254.705" y2="265.419" gradientTransform="matrix(0.783539,-3.099551e-2,5.316198e-2,1.343887,745.7026,-201.9960)" gradientUnits="userSpaceOnUse" spreadMethod="pad" xlink:href="#linearGradient14361"/><linearGradient id="linearGradient23500" x1="234.28" x2="235.348" y1="428.894" y2="412.359" gradientTransform="matrix(1.194798,-6.013815e-2,4.202024e-2,0.834846,721.0845,-209.0808)" gradientUnits="userSpaceOnUse" xlink:href="#linearGradient12007"/><linearGradient id="linearGradient23502" x1="476.781" x2="495.912" y1="183.692" y2="184.979" gradientTransform="matrix(0.562848,-2.832981e-2,8.919912e-2,1.772186,721.0845,-209.0808)" gradientUnits="userSpaceOnUse" xlink:href="#linearGradient12007"/><linearGradient id="linearGradient23504" x1="367.535" x2="376.081" y1="254.705" y2="265.419" gradientTransform="matrix(0.762605,-3.838409e-2,6.583438e-2,1.307982,721.0845,-209.0808)" gradientUnits="userSpaceOnUse" spreadMethod="pad" xlink:href="#linearGradient14361"/><linearGradient id="linearGradient23506" x1="234.28" x2="235.348" y1="428.894" y2="412.359" gradientTransform="matrix(1.282300,0.000000,0.000000,0.895987,782.3408,-266.2137)" gradientUnits="userSpaceOnUse" xlink:href="#linearGradient12007"/><linearGradient id="linearGradient23508" x1="476.781" x2="495.912" y1="183.692" y2="184.979" gradientTransform="matrix(0.604069,0.000000,0.000000,1.901975,782.3408,-266.2137)" gradientUnits="userSpaceOnUse" xlink:href="#linearGradient12007"/><linearGradient id="linearGradient23510" x1="990.45" x2="1026.773" y1="122.825" y2="145.528" gradientTransform="scale(0.763570,1.309637)" gradientUnits="userSpaceOnUse" spreadMethod="pad" xlink:href="#linearGradient14361"/><linearGradient id="linearGradient23512" x1="234.28" x2="235.348" y1="428.894" y2="412.359" gradientTransform="matrix(1.228558,0.000000,0.000000,0.858435,763.4423,-270.0809)" gradientUnits="userSpaceOnUse" xlink:href="#linearGradient12007"/><linearGradient id="linearGradient23514" x1="476.781" x2="495.912" y1="183.692" y2="184.979" gradientTransform="matrix(0.578752,0.000000,0.000000,1.822260,763.4423,-270.0809)" gradientUnits="userSpaceOnUse" xlink:href="#linearGradient12007"/><linearGradient id="linearGradient23516" x1="367.535" x2="376.081" y1="254.705" y2="265.419" gradientTransform="matrix(0.784152,0.000000,0.000000,1.344939,763.4423,-270.0809)" gradientUnits="userSpaceOnUse" spreadMethod="pad" xlink:href="#linearGradient14361"/><linearGradient id="linearGradient23518" x1="234.28" x2="235.348" y1="428.894" y2="412.359" gradientTransform="matrix(1.196311,0.000000,0.000000,0.835903,741.3971,-280.0799)" gradientUnits="userSpaceOnUse" xlink:href="#linearGradient12007"/><linearGradient id="linearGradient23520" x1="476.781" x2="495.912" y1="183.692" y2="184.979" gradientTransform="matrix(0.563561,0.000000,0.000000,1.774430,741.3971,-280.0799)" gradientUnits="userSpaceOnUse" xlink:href="#linearGradient12007"/><linearGradient id="linearGradient23522" x1="367.535" x2="376.081" y1="254.705" y2="265.419" gradientTransform="matrix(0.763570,0.000000,0.000000,1.309638,741.3971,-280.0799)" gradientUnits="userSpaceOnUse" spreadMethod="pad" xlink:href="#linearGradient14361"/><linearGradient id="linearGradient23524" x1="655.032" x2="686.468" y1="215.959" y2="293.982" gradientTransform="matrix(0.667222,0.000000,0.000000,1.498751,741.3971,-280.0799)" gradientUnits="userSpaceOnUse" xlink:href="#linearGradient11991"/><linearGradient id="linearGradient23526" x1="394.278" x2="454.406" y1="230.83" y2="269.625" gradientTransform="matrix(0.647824,0.000000,0.000000,1.543629,741.3971,-280.0799)" gradientUnits="userSpaceOnUse" xlink:href="#linearGradient11999"/><radialGradient id="radialGradient23528" cx="248.4" cy="344.219" r="106.598" fx="248.4" fy="344.219" gradientTransform="matrix(1.323309,0.000000,0.000000,0.755681,741.3971,-280.0799)" gradientUnits="userSpaceOnUse" xlink:href="#linearGradient12007"/><radialGradient id="radialGradient23530" cx="202.216" cy="965.82" r="109.043" fx="202.216" fy="965.82" gradientTransform="matrix(2.146091,0.000000,0.000000,0.653803,364.2777,-102.2402)" gradientUnits="userSpaceOnUse" xlink:href="#linearGradient19109"/><radialGradient id="radialGradient28433" cx="60.051" cy="776.969" r="247.835" fx="60.051" fy="776.969" gradientTransform="matrix(1.883522,0.000000,0.000000,0.846568,19.44520,10.81907)" gradientUnits="userSpaceOnUse" xlink:href="#linearGradient28427"/><radialGradient id="radialGradient23847" cx="72.217" cy="823.559" r="279.1" fx="72.217" fy="823.559" gradientTransform="matrix(2.304414,0.000000,0.000000,0.691946,19.44520,10.81907)" gradientUnits="userSpaceOnUse" xlink:href="#linearGradient19109"/><linearGradient id="linearGradient23831" x1="33.55" x2="149.309" y1="611.942" y2="864.998" gradientTransform="matrix(1.709511,0.000000,0.000000,0.932741,19.44520,10.81907)" gradientUnits="userSpaceOnUse" spreadMethod="pad" xlink:href="#linearGradient23833"/><linearGradient id="linearGradient23057" x1="367.535" x2="376.081" y1="254.705" y2="265.419" gradientTransform="matrix(1.099226,-8.979644e-2,0.154015,1.885338,-361.4174,73.44542)" gradientUnits="userSpaceOnUse" spreadMethod="pad" xlink:href="#linearGradient14361"/><linearGradient id="linearGradient23055" x1="476.781" x2="495.912" y1="183.692" y2="184.979" gradientTransform="matrix(0.811295,-6.627516e-2,0.208675,2.554449,-361.4174,73.44542)" gradientUnits="userSpaceOnUse" xlink:href="#linearGradient12007"/><linearGradient id="linearGradient23053" x1="234.28" x2="235.348" y1="428.894" y2="412.359" gradientTransform="matrix(1.722194,-0.140686,9.830286e-2,1.203356,-361.4174,73.44542)" gradientUnits="userSpaceOnUse" xlink:href="#linearGradient12007"/><linearGradient id="linearGradient23051" x1="367.535" x2="376.081" y1="254.705" y2="265.419" gradientTransform="matrix(1.025909,-0.125048,0.214475,1.759586,-393.6883,88.65435)" gradientUnits="userSpaceOnUse" spreadMethod="pad" xlink:href="#linearGradient14361"/><linearGradient id="linearGradient23049" x1="476.781" x2="495.912" y1="183.692" y2="184.979" gradientTransform="matrix(0.757182,-9.229261e-2,0.290593,2.384068,-393.6883,88.65435)" gradientUnits="userSpaceOnUse" xlink:href="#linearGradient12007"/><linearGradient id="linearGradient23047" x1="234.28" x2="235.348" y1="428.894" y2="412.359" gradientTransform="matrix(1.607324,-0.195916,0.136893,1.123092,-393.6883,88.65435)" gradientUnits="userSpaceOnUse" xlink:href="#linearGradient12007"/><linearGradient id="linearGradient23033" x1="367.535" x2="376.081" y1="254.705" y2="265.419" gradientTransform="matrix(1.096066,-0.122485,0.210081,1.879917,-375.0624,7.047793)" gradientUnits="userSpaceOnUse" spreadMethod="pad" xlink:href="#linearGradient14361"/><linearGradient id="linearGradient23031" x1="476.781" x2="495.912" y1="183.692" y2="184.979" gradientTransform="matrix(0.808962,-9.040137e-2,0.284638,2.547103,-375.0624,7.047793)" gradientUnits="userSpaceOnUse" xlink:href="#linearGradient12007"/><linearGradient id="linearGradient23029" x1="234.28" x2="235.348" y1="428.894" y2="412.359" gradientTransform="matrix(1.717241,-0.191901,0.134089,1.199896,-375.0624,7.047793)" gradientUnits="userSpaceOnUse" xlink:href="#linearGradient12007"/><linearGradient id="linearGradient23027" x1="367.535" x2="376.081" y1="254.705" y2="265.419" gradientTransform="matrix(1.025112,-0.131424,0.225413,1.758220,-396.9023,11.47477)" gradientUnits="userSpaceOnUse" spreadMethod="pad" xlink:href="#linearGradient14361"/><linearGradient id="linearGradient23025" x1="476.781" x2="495.912" y1="183.692" y2="184.979" gradientTransform="matrix(0.756594,-9.699938e-2,0.305413,2.382215,-396.9023,11.47477)" gradientUnits="userSpaceOnUse" xlink:href="#linearGradient12007"/><linearGradient id="linearGradient23023" x1="234.28" x2="235.348" y1="428.894" y2="412.359" gradientTransform="matrix(1.606075,-0.205907,0.143875,1.122220,-396.9023,11.47477)" gradientUnits="userSpaceOnUse" xlink:href="#linearGradient12007"/><linearGradient id="linearGradient23009" x1="367.535" x2="376.081" y1="254.705" y2="265.419" gradientTransform="matrix(1.102882,-3.734009e-3,6.404399e-3,1.891608,-321.9816,-116.1682)" gradientUnits="userSpaceOnUse" spreadMethod="pad" xlink:href="#linearGradient14361"/><linearGradient id="linearGradient23007" x1="476.781" x2="495.912" y1="183.692" y2="184.979" gradientTransform="matrix(0.813993,-2.755912e-3,8.677855e-3,2.562943,-321.9816,-116.1682)" gradientUnits="userSpaceOnUse" xlink:href="#linearGradient12007"/><linearGradient id="linearGradient23005" x1="234.28" x2="235.348" y1="428.894" y2="412.359" gradientTransform="matrix(1.727920,-5.850188e-3,4.087732e-3,1.207358,-321.9816,-116.1682)" gradientUnits="userSpaceOnUse" xlink:href="#linearGradient12007"/><linearGradient id="linearGradient23003" x1="367.535" x2="376.081" y1="254.705" y2="265.419" gradientTransform="matrix(1.031931,-5.696918e-2,9.771068e-2,1.769915,-362.8642,-94.58430)" gradientUnits="userSpaceOnUse" spreadMethod="pad" xlink:href="#linearGradient14361"/><linearGradient id="linearGradient23001" x1="476.781" x2="495.912" y1="183.692" y2="184.979" gradientTransform="matrix(0.761627,-4.204668e-2,0.132389,2.398063,-362.8642,-94.58430)" gradientUnits="userSpaceOnUse" xlink:href="#linearGradient12007"/><linearGradient id="linearGradient22999" x1="234.28" x2="235.348" y1="428.894" y2="412.359" gradientTransform="matrix(1.616759,-8.925547e-2,6.236585e-2,1.129685,-362.8642,-94.58430)" gradientUnits="userSpaceOnUse" xlink:href="#linearGradient12007"/><linearGradient id="linearGradient22985" x1="367.535" x2="376.081" y1="254.705" y2="265.419" gradientTransform="matrix(1.031931,-5.696918e-2,9.771068e-2,1.769915,-357.3477,-175.1718)" gradientUnits="userSpaceOnUse" spreadMethod="pad" xlink:href="#linearGradient14361"/><linearGradient id="linearGradient22983" x1="476.781" x2="495.912" y1="183.692" y2="184.979" gradientTransform="matrix(0.761627,-4.204668e-2,0.132389,2.398063,-357.3477,-175.1718)" gradientUnits="userSpaceOnUse" xlink:href="#linearGradient12007"/><linearGradient id="linearGradient22981" x1="234.28" x2="235.348" y1="428.894" y2="412.359" gradientTransform="matrix(1.616759,-8.925547e-2,6.236585e-2,1.129685,-357.3477,-175.1718)" gradientUnits="userSpaceOnUse" xlink:href="#linearGradient12007"/><linearGradient id="linearGradient22973" x1="367.535" x2="376.081" y1="254.705" y2="265.419" gradientTransform="matrix(1.102882,-3.734009e-3,6.404399e-3,1.891608,-317.4543,-194.2829)" gradientUnits="userSpaceOnUse" spreadMethod="pad" xlink:href="#linearGradient14361"/><linearGradient id="linearGradient22971" x1="476.781" x2="495.912" y1="183.692" y2="184.979" gradientTransform="matrix(0.813993,-2.755912e-3,8.677855e-3,2.562943,-317.4543,-194.2829)" gradientUnits="userSpaceOnUse" xlink:href="#linearGradient12007"/><linearGradient id="linearGradient22969" x1="234.28" x2="235.348" y1="428.894" y2="412.359" gradientTransform="matrix(1.727920,-5.850188e-3,4.087732e-3,1.207358,-317.4543,-194.2829)" gradientUnits="userSpaceOnUse" xlink:href="#linearGradient12007"/><radialGradient id="radialGradient22961" cx="33.918" cy="134.692" r="101.668" fx="33.918" fy="134.692" gradientTransform="matrix(1.369330,0.000000,0.000000,1.164460,19.44520,10.81907)" gradientUnits="userSpaceOnUse" xlink:href="#linearGradient22931"/><linearGradient id="linearGradient22945" x1="-45.39" x2="42.257" y1="104.702" y2="171.452" gradientTransform="matrix(0.652578,0.000000,0.000000,2.443434,19.44520,10.81907)" gradientUnits="userSpaceOnUse" xlink:href="#linearGradient22939"/><linearGradient id="linearGradient22937" x1="92.894" x2="247.586" y1="135.31" y2="199.912" gradientTransform="matrix(0.654723,0.000000,0.000000,2.435427,19.44520,10.81907)" gradientUnits="userSpaceOnUse" xlink:href="#linearGradient22931"/><radialGradient id="radialGradient22171" cx="333.196" cy="450.403" r="40.587" fx="333.196" fy="450.403" gradientTransform="matrix(1.106581,0.000000,0.000000,1.440952,-214.8070,-47.29036)" gradientUnits="userSpaceOnUse" xlink:href="#linearGradient14361"/><linearGradient id="linearGradient22931"><stop id="stop22933" offset="0" style="stop-color:#c6bc96;stop-opacity:1"/><stop id="stop22935" offset="1" style="stop-color:#9f956f;stop-opacity:1"/></linearGradient><linearGradient id="linearGradient22939"><stop id="stop22941" offset="0" style="stop-color:#e0d6b3;stop-opacity:1"/><stop id="stop22943" offset="1" style="stop-color:#c6bc96;stop-opacity:1"/></linearGradient><linearGradient id="linearGradient23833"><stop id="stop23835" offset="0" style="stop-color:#545454;stop-opacity:1"/><stop id="stop23837" offset="1" style="stop-color:#949494;stop-opacity:1"/></linearGradient><linearGradient id="linearGradient26137"><stop id="stop26139" offset="0" style="stop-color:#000;stop-opacity:.40160644"/><stop id="stop26141" offset="1" style="stop-color:#000;stop-opacity:0"/></linearGradient><linearGradient id="linearGradient28427"><stop id="stop28429" offset="0" style="stop-color:#0fa900;stop-opacity:1"/><stop id="stop28431" offset="1" style="stop-color:#085400;stop-opacity:.97991967"/></linearGradient><radialGradient id="radialGradient28579" cx="202.216" cy="965.82" r="109.043" fx="202.216" fy="965.82" gradientTransform="matrix(1.824921,0.000000,0.000000,0.547969,434.5858,-14.91216)" gradientUnits="userSpaceOnUse" xlink:href="#linearGradient19109"/><radialGradient id="radialGradient28581" cx="248.4" cy="344.219" r="106.598" fx="248.4" fy="344.219" gradientTransform="matrix(1.323309,0.000000,0.000000,0.755681,434.5858,-14.91216)" gradientUnits="userSpaceOnUse" xlink:href="#linearGradient12007"/><linearGradient id="linearGradient28583" x1="394.278" x2="454.406" y1="230.83" y2="269.625" gradientTransform="matrix(0.647824,0.000000,0.000000,1.543629,434.5858,-14.91216)" gradientUnits="userSpaceOnUse" xlink:href="#linearGradient11999"/><linearGradient id="linearGradient28585" x1="655.032" x2="686.468" y1="215.959" y2="293.982" gradientTransform="matrix(0.667222,0.000000,0.000000,1.498751,434.5858,-14.91216)" gradientUnits="userSpaceOnUse" xlink:href="#linearGradient11991"/><linearGradient id="linearGradient28587" x1="367.535" x2="376.081" y1="254.705" y2="265.419" gradientTransform="matrix(0.763570,0.000000,0.000000,1.309638,434.5858,-14.91216)" gradientUnits="userSpaceOnUse" spreadMethod="pad" xlink:href="#linearGradient14361"/><linearGradient id="linearGradient28589" x1="476.781" x2="495.912" y1="183.692" y2="184.979" gradientTransform="matrix(0.563561,0.000000,0.000000,1.774430,434.5858,-14.91216)" gradientUnits="userSpaceOnUse" xlink:href="#linearGradient12007"/><linearGradient id="linearGradient28591" x1="234.28" x2="235.348" y1="428.894" y2="412.359" gradientTransform="matrix(1.196311,0.000000,0.000000,0.835903,434.5858,-14.91216)" gradientUnits="userSpaceOnUse" xlink:href="#linearGradient12007"/><linearGradient id="linearGradient28593" x1="367.535" x2="376.081" y1="254.705" y2="265.419" gradientTransform="matrix(0.784152,0.000000,0.000000,1.344939,456.6310,-4.913168)" gradientUnits="userSpaceOnUse" spreadMethod="pad" xlink:href="#linearGradient14361"/><linearGradient id="linearGradient28595" x1="476.781" x2="495.912" y1="183.692" y2="184.979" gradientTransform="matrix(0.578752,0.000000,0.000000,1.822260,456.6310,-4.913168)" gradientUnits="userSpaceOnUse" xlink:href="#linearGradient12007"/><linearGradient id="linearGradient28597" x1="234.28" x2="235.348" y1="428.894" y2="412.359" gradientTransform="matrix(1.228558,0.000000,0.000000,0.858435,456.6310,-4.913168)" gradientUnits="userSpaceOnUse" xlink:href="#linearGradient12007"/><linearGradient id="linearGradient28599" x1="367.535" x2="376.081" y1="254.705" y2="265.419" gradientTransform="matrix(0.818455,0.000000,0.000000,1.403773,475.5295,-1.046018)" gradientUnits="userSpaceOnUse" spreadMethod="pad" xlink:href="#linearGradient14361"/><linearGradient id="linearGradient28601" x1="476.781" x2="495.912" y1="183.692" y2="184.979" gradientTransform="matrix(0.604069,0.000000,0.000000,1.901975,475.5295,-1.046018)" gradientUnits="userSpaceOnUse" xlink:href="#linearGradient12007"/><linearGradient id="linearGradient28603" x1="234.28" x2="235.348" y1="428.894" y2="412.359" gradientTransform="matrix(1.282300,0.000000,0.000000,0.895987,475.5295,-1.046018)" gradientUnits="userSpaceOnUse" xlink:href="#linearGradient12007"/><linearGradient id="linearGradient28605" x1="367.535" x2="376.081" y1="254.705" y2="265.419" gradientTransform="matrix(0.762605,-3.838409e-2,6.583438e-2,1.307982,414.2732,56.08694)" gradientUnits="userSpaceOnUse" spreadMethod="pad" xlink:href="#linearGradient14361"/><linearGradient id="linearGradient28607" x1="476.781" x2="495.912" y1="183.692" y2="184.979" gradientTransform="matrix(0.562848,-2.832981e-2,8.919912e-2,1.772186,414.2732,56.08694)" gradientUnits="userSpaceOnUse" xlink:href="#linearGradient12007"/><linearGradient id="linearGradient28609" x1="234.28" x2="235.348" y1="428.894" y2="412.359" gradientTransform="matrix(1.194798,-6.013815e-2,4.202024e-2,0.834846,414.2732,56.08694)" gradientUnits="userSpaceOnUse" xlink:href="#linearGradient12007"/><linearGradient id="linearGradient28611" x1="367.535" x2="376.081" y1="254.705" y2="265.419" gradientTransform="matrix(0.783539,-3.099551e-2,5.316198e-2,1.343887,438.8913,63.17166)" gradientUnits="userSpaceOnUse" spreadMethod="pad" xlink:href="#linearGradient14361"/><linearGradient id="linearGradient28613" x1="476.781" x2="495.912" y1="183.692" y2="184.979" gradientTransform="matrix(0.578299,-2.287658e-2,7.202925e-2,1.820835,438.8913,63.17166)" gradientUnits="userSpaceOnUse" xlink:href="#linearGradient12007"/><linearGradient id="linearGradient28615" x1="234.28" x2="235.348" y1="428.894" y2="412.359" gradientTransform="matrix(1.227597,-4.856174e-2,3.393173e-2,0.857764,438.8913,63.17166)" gradientUnits="userSpaceOnUse" xlink:href="#linearGradient12007"/><linearGradient id="linearGradient28617" x1="367.535" x2="376.081" y1="254.705" y2="265.419" gradientTransform="matrix(0.818001,-2.726833e-2,4.676928e-2,1.402994,458.2665,65.57730)" gradientUnits="userSpaceOnUse" spreadMethod="pad" xlink:href="#linearGradient14361"/><linearGradient id="linearGradient28619" x1="476.781" x2="495.912" y1="183.692" y2="184.979" gradientTransform="matrix(0.603734,-2.012567e-2,6.336779e-2,1.900919,458.2665,65.57730)" gradientUnits="userSpaceOnUse" xlink:href="#linearGradient12007"/><linearGradient id="linearGradient28621" x1="234.28" x2="235.348" y1="428.894" y2="412.359" gradientTransform="matrix(1.281588,-4.272218e-2,2.985145e-2,0.895490,458.2665,65.57730)" gradientUnits="userSpaceOnUse" xlink:href="#linearGradient12007"/><linearGradient id="linearGradient28623" x1="367.535" x2="376.081" y1="254.705" y2="265.419" gradientTransform="matrix(0.762229,-4.523925e-2,7.759215e-2,1.307337,411.5172,115.8591)" gradientUnits="userSpaceOnUse" spreadMethod="pad" xlink:href="#linearGradient14361"/><linearGradient id="linearGradient28625" x1="476.781" x2="495.912" y1="183.692" y2="184.979" gradientTransform="matrix(0.562571,-3.338931e-2,0.105130,1.771313,411.5172,115.8591)" gradientUnits="userSpaceOnUse" xlink:href="#linearGradient12007"/><linearGradient id="linearGradient28627" x1="234.28" x2="235.348" y1="428.894" y2="412.359" gradientTransform="matrix(1.194210,-7.087786e-2,4.952476e-2,0.834435,411.5172,115.8591)" gradientUnits="userSpaceOnUse" xlink:href="#linearGradient12007"/><linearGradient id="linearGradient28629" x1="367.535" x2="376.081" y1="254.705" y2="265.419" gradientTransform="matrix(0.783885,-2.042908e-2,3.503894e-2,1.344482,442.7175,115.5664)" gradientUnits="userSpaceOnUse" spreadMethod="pad" xlink:href="#linearGradient14361"/><linearGradient id="linearGradient28631" x1="476.781" x2="495.912" y1="183.692" y2="184.979" gradientTransform="matrix(0.578556,-1.507789e-2,4.747429e-2,1.821642,442.7175,115.5664)" gradientUnits="userSpaceOnUse" xlink:href="#linearGradient12007"/><linearGradient id="linearGradient28633" x1="234.28" x2="235.348" y1="428.894" y2="412.359" gradientTransform="matrix(1.228141,-3.200691e-2,2.236432e-2,0.858144,442.7175,115.5664)" gradientUnits="userSpaceOnUse" xlink:href="#linearGradient12007"/><linearGradient id="linearGradient28635" x1="367.535" x2="376.081" y1="254.705" y2="265.419" gradientTransform="matrix(0.817211,-4.511528e-2,7.737946e-2,1.401639,448.8792,129.6365)" gradientUnits="userSpaceOnUse" spreadMethod="pad" xlink:href="#linearGradient14361"/><linearGradient id="linearGradient28637" x1="476.781" x2="495.912" y1="183.692" y2="184.979" gradientTransform="matrix(0.603151,-3.329779e-2,0.104842,1.899084,448.8792,129.6365)" gradientUnits="userSpaceOnUse" xlink:href="#linearGradient12007"/><linearGradient id="linearGradient28639" x1="234.28" x2="235.348" y1="428.894" y2="412.359" gradientTransform="matrix(1.280351,-7.068357e-2,4.938903e-2,0.894625,448.8792,129.6365)" gradientUnits="userSpaceOnUse" xlink:href="#linearGradient12007"/><radialGradient id="radialGradient28641" cx="333.196" cy="450.403" r="40.587" fx="333.196" fy="450.403" gradientTransform="matrix(0.876328,0.000000,0.000000,1.141125,434.5858,-14.91216)" gradientUnits="userSpaceOnUse" xlink:href="#linearGradient14361"/><radialGradient id="radialGradient28643" cx="165.644" cy="422.405" r="82.462" fx="165.644" fy="422.405" gradientTransform="matrix(2.443798,0.000000,0.000000,0.652480,326.2565,-254.3486)" gradientUnits="userSpaceOnUse" xlink:href="#linearGradient19109"/><linearGradient id="linearGradient28645" x1="712.849" x2="687.445" y1="357.658" y2="337.934" gradientTransform="matrix(0.763570,0.000000,0.000000,1.309637,309.6471,-268.0035)" gradientUnits="userSpaceOnUse" spreadMethod="pad" xlink:href="#linearGradient14361"/><linearGradient id="linearGradient28647" x1="444.734" x2="433.36" y1="572.726" y2="561.564" gradientTransform="matrix(1.196310,0.000000,0.000000,0.835903,309.6471,-268.0035)" gradientUnits="userSpaceOnUse" xlink:href="#linearGradient12007"/><linearGradient id="linearGradient28649" x1="980.058" x2="951.859" y1="252.734" y2="251.97" gradientTransform="matrix(0.563561,0.000000,0.000000,1.774431,309.6471,-268.0035)" gradientUnits="userSpaceOnUse" xlink:href="#linearGradient12007"/><linearGradient id="linearGradient28651" x1="712.849" x2="687.445" y1="357.658" y2="337.934" gradientTransform="matrix(0.716700,0.000000,0.000000,1.229248,388.1837,-260.9011)" gradientUnits="userSpaceOnUse" spreadMethod="pad" xlink:href="#linearGradient14361"/><linearGradient id="linearGradient28653" x1="444.734" x2="433.36" y1="572.726" y2="561.564" gradientTransform="matrix(1.122877,0.000000,0.000000,0.784593,388.1837,-260.9011)" gradientUnits="userSpaceOnUse" xlink:href="#linearGradient12007"/><linearGradient id="linearGradient28655" x1="980.058" x2="951.859" y1="252.734" y2="251.97" gradientTransform="matrix(0.528968,0.000000,0.000000,1.665511,388.1837,-260.9011)" gradientUnits="userSpaceOnUse" xlink:href="#linearGradient12007"/><linearGradient id="linearGradient28657" x1="712.849" x2="687.445" y1="357.658" y2="337.934" gradientTransform="matrix(0.763570,0.000000,0.000000,1.309637,295.3669,-193.6045)" gradientUnits="userSpaceOnUse" spreadMethod="pad" xlink:href="#linearGradient14361"/><linearGradient id="linearGradient28659" x1="444.734" x2="433.36" y1="572.726" y2="561.564" gradientTransform="matrix(1.196310,0.000000,0.000000,0.835903,295.3669,-193.6045)" gradientUnits="userSpaceOnUse" xlink:href="#linearGradient12007"/><linearGradient id="linearGradient28661" x1="980.058" x2="951.859" y1="252.734" y2="251.97" gradientTransform="matrix(0.563561,0.000000,0.000000,1.774431,295.3669,-193.6045)" gradientUnits="userSpaceOnUse" xlink:href="#linearGradient12007"/><linearGradient id="linearGradient28663" x1="712.849" x2="687.445" y1="357.658" y2="337.934" gradientTransform="matrix(0.716700,0.000000,0.000000,1.229248,373.9035,-186.5021)" gradientUnits="userSpaceOnUse" spreadMethod="pad" xlink:href="#linearGradient14361"/><linearGradient id="linearGradient28665" x1="444.734" x2="433.36" y1="572.726" y2="561.564" gradientTransform="matrix(1.122877,0.000000,0.000000,0.784593,373.9035,-186.5021)" gradientUnits="userSpaceOnUse" xlink:href="#linearGradient12007"/><linearGradient id="linearGradient28667" x1="980.058" x2="951.859" y1="252.734" y2="251.97" gradientTransform="matrix(0.528968,0.000000,0.000000,1.665511,373.9035,-186.5021)" gradientUnits="userSpaceOnUse" xlink:href="#linearGradient12007"/><linearGradient id="linearGradient28669" x1="712.849" x2="687.445" y1="357.658" y2="337.934" gradientTransform="matrix(0.763570,0.000000,0.000000,1.309637,287.5684,-121.2913)" gradientUnits="userSpaceOnUse" spreadMethod="pad" xlink:href="#linearGradient14361"/><linearGradient id="linearGradient28671" x1="444.734" x2="433.36" y1="572.726" y2="561.564" gradientTransform="matrix(1.196310,0.000000,0.000000,0.835903,287.5684,-121.2913)" gradientUnits="userSpaceOnUse" xlink:href="#linearGradient12007"/><linearGradient id="linearGradient28673" x1="980.058" x2="951.859" y1="252.734" y2="251.97" gradientTransform="matrix(0.563561,0.000000,0.000000,1.774431,287.5684,-121.2913)" gradientUnits="userSpaceOnUse" xlink:href="#linearGradient12007"/><linearGradient id="linearGradient28675" x1="712.849" x2="687.445" y1="357.658" y2="337.934" gradientTransform="matrix(0.716700,0.000000,0.000000,1.229248,366.1050,-114.1889)" gradientUnits="userSpaceOnUse" spreadMethod="pad" xlink:href="#linearGradient14361"/><linearGradient id="linearGradient28677" x1="444.734" x2="433.36" y1="572.726" y2="561.564" gradientTransform="matrix(1.122877,0.000000,0.000000,0.784593,366.1050,-114.1889)" gradientUnits="userSpaceOnUse" xlink:href="#linearGradient12007"/><linearGradient id="linearGradient28679" x1="980.058" x2="951.859" y1="252.734" y2="251.97" gradientTransform="matrix(0.528968,0.000000,0.000000,1.665511,366.1050,-114.1889)" gradientUnits="userSpaceOnUse" xlink:href="#linearGradient12007"/><linearGradient id="linearGradient28683" x1="192.481" x2="370.322" y1="824.526" y2="1027.308" gradientTransform="matrix(0.162618,0.000000,0.000000,0.154485,0.257046,540.0277)" gradientUnits="userSpaceOnUse" xlink:href="#linearGradient3618"/><linearGradient id="linearGradient28687" x1="482.886" x2="197.875" y1="444.143" y2="303.581" gradientTransform="matrix(0.179629,0.000000,0.000000,0.139856,650.3868,637.8684)" gradientUnits="userSpaceOnUse" xlink:href="#linearGradient1738"/><radialGradient id="radialGradient11099" cx="729.512" cy="252.417" r="400.521" fx="729.512" fy="252.417" gradientUnits="userSpaceOnUse" xlink:href="#linearGradient4255"/><linearGradient id="linearGradient11101" x1="984.807" x2="655.169" y1="653.021" y2="155.819" gradientUnits="userSpaceOnUse" xlink:href="#linearGradient19109"/><radialGradient id="radialGradient11103" cx="729.512" cy="252.417" r="400.521" fx="729.512" fy="252.417" gradientUnits="userSpaceOnUse" xlink:href="#linearGradient4255"/><radialGradient id="radialGradient11119" cx="919.442" cy="597.643" r="329.406" fx="919.442" fy="597.643" gradientUnits="userSpaceOnUse" xlink:href="#linearGradient4255"/><radialGradient id="radialGradient11147" cx="729.512" cy="252.417" r="400.521" fx="729.512" fy="252.417" gradientUnits="userSpaceOnUse" xlink:href="#linearGradient4255"/><linearGradient id="linearGradient11149" x1="984.807" x2="655.169" y1="653.021" y2="155.819" gradientUnits="userSpaceOnUse" xlink:href="#linearGradient19109"/><radialGradient id="radialGradient11151" cx="729.512" cy="252.417" r="400.521" fx="729.512" fy="252.417" gradientUnits="userSpaceOnUse" xlink:href="#linearGradient4255"/><linearGradient id="linearGradient11155" x1="1285.545" x2="1308.162" y1="224.214" y2="427.448" gradientTransform="scale(1.019681,0.980699)" gradientUnits="userSpaceOnUse" xlink:href="#linearGradient4255"/><radialGradient id="radialGradient11157" cx="729.512" cy="252.417" r="400.521" fx="729.512" fy="252.417" gradientUnits="userSpaceOnUse" xlink:href="#linearGradient4255"/><linearGradient id="linearGradient11159" x1="984.807" x2="655.169" y1="653.021" y2="155.819" gradientUnits="userSpaceOnUse" xlink:href="#linearGradient19109"/><radialGradient id="radialGradient11161" cx="729.512" cy="252.417" r="400.521" fx="729.512" fy="252.417" gradientUnits="userSpaceOnUse" xlink:href="#linearGradient4255"/><linearGradient id="linearGradient11929" x1="1382.77" x2="1338.944" y1="450.882" y2="281.17" gradientTransform="scale(1.019681,0.980698)" gradientUnits="userSpaceOnUse" xlink:href="#linearGradient4255"/><linearGradient id="linearGradient11939" x1="1483.828" x2="1517.294" y1="127.657" y2="163.187" gradientTransform="scale(0.724296,1.380651)" gradientUnits="userSpaceOnUse" xlink:href="#linearGradient4255"/><linearGradient id="linearGradient11941" x1="1190.448" x2="1204.22" y1="256.721" y2="275.255" gradientTransform="scale(0.875390,1.142348)" gradientUnits="userSpaceOnUse" xlink:href="#linearGradient4255"/><linearGradient id="linearGradient11943" x1="1084.22" x2="1104.373" y1="261.093" y2="285.894" gradientTransform="scale(0.967340,1.033763)" gradientUnits="userSpaceOnUse" xlink:href="#linearGradient4255"/><linearGradient id="linearGradient15124" x1="-219.634" x2="-216.755" y1="303.99" y2="308.885" gradientTransform="matrix(1.771563,0.000000,0.000000,1.120233,510.5786,-78.86733)" gradientUnits="userSpaceOnUse" xlink:href="#linearGradient4255"/><linearGradient id="linearGradient15127" x1="-230.624" x2="-276.399" y1="251.239" y2="184.972" gradientTransform="matrix(1.476166,0.000000,0.000000,1.344403,510.5786,-78.86733)" gradientUnits="userSpaceOnUse" xlink:href="#linearGradient4255"/><linearGradient id="linearGradient15130" x1="-207.066" x2="-203.738" y1="328.315" y2="334.508" gradientTransform="matrix(1.815633,0.000000,0.000000,1.093041,510.5786,-78.86733)" gradientUnits="userSpaceOnUse" xlink:href="#linearGradient4255"/><linearGradient id="linearGradient15133" x1="-217.001" x2="-212.14" y1="307.27" y2="314.999" gradientTransform="matrix(1.759186,0.000000,0.000000,1.128115,510.5786,-78.86733)" gradientUnits="userSpaceOnUse" xlink:href="#linearGradient4255"/><linearGradient id="linearGradient15136" x1="-376.123" x2="-348.236" y1="156.366" y2="184.878" gradientTransform="matrix(1.079557,0.000000,0.000000,1.838314,510.5786,-78.86733)" gradientUnits="userSpaceOnUse" xlink:href="#linearGradient4255"/><radialGradient id="radialGradient16669" cx="729.512" cy="252.417" r="400.521" fx="729.512" fy="252.417" gradientUnits="userSpaceOnUse" xlink:href="#linearGradient4255"/><linearGradient id="linearGradient16671" x1="984.807" x2="655.169" y1="653.021" y2="155.819" gradientUnits="userSpaceOnUse" xlink:href="#linearGradient19109"/><radialGradient id="radialGradient16673" cx="729.512" cy="252.417" r="400.521" fx="729.512" fy="252.417" gradientUnits="userSpaceOnUse" xlink:href="#linearGradient4255"/><radialGradient id="radialGradient18211" cx="-176.342" cy="450.778" r="39.028" fx="-176.342" fy="450.778" gradientTransform="matrix(1.642849,0.000000,0.000000,0.808385,658.6872,-96.34662)" gradientUnits="userSpaceOnUse" xlink:href="#linearGradient4255"/><linearGradient id="linearGradient18219" x1="-214.179" x2="-183.006" y1="426.79" y2="429.947" gradientTransform="matrix(1.480110,0.000000,0.000000,0.897269,658.6872,-96.34662)" gradientUnits="userSpaceOnUse" xlink:href="#linearGradient4255"/><linearGradient id="linearGradient1612" x1="-267.052" x2="-270.527" y1="314.152" y2="293.607" gradientTransform="matrix(1.334991,2.393726e-7,1.888070e-8,0.994804,427.3264,240.0520)" gradientUnits="userSpaceOnUse" xlink:href="#linearGradient4255"/><radialGradient id="radialGradient5648" cx="729.512" cy="252.417" r="400.521" fx="729.512" fy="252.417" gradientUnits="userSpaceOnUse" xlink:href="#linearGradient4255"/><linearGradient id="linearGradient7180" x1="768.987" x2="784.017" y1="390.782" y2="413.27" gradientUnits="userSpaceOnUse" xlink:href="#linearGradient4255"/><radialGradient id="radialGradient7940" cx="637.989" cy="258.652" r="461.881" fx="637.989" fy="258.652" gradientUnits="userSpaceOnUse" xlink:href="#linearGradient4255"/><linearGradient id="linearGradient8732" x1="504.381" x2="530.021" y1="258.332" y2="280.706" gradientTransform="scale(1.131006,0.884169)" gradientUnits="userSpaceOnUse" xlink:href="#linearGradient4960"/><linearGradient id="linearGradient8800" x1="1084.22" x2="1104.373" y1="261.093" y2="285.894" gradientTransform="matrix(0.645794,0.000000,0.000000,0.690138,-87.16362,145.5283)" gradientUnits="userSpaceOnUse" xlink:href="#linearGradient4255"/><linearGradient id="linearGradient8803" x1="1190.448" x2="1204.22" y1="256.721" y2="275.255" gradientTransform="matrix(0.584409,0.000000,0.000000,0.762629,-87.16362,145.5283)" gradientUnits="userSpaceOnUse" xlink:href="#linearGradient4255"/><linearGradient id="linearGradient8806" x1="1483.828" x2="1517.294" y1="127.657" y2="163.187" gradientTransform="matrix(0.483539,0.000000,0.000000,0.921720,-87.16362,145.5283)" gradientUnits="userSpaceOnUse" xlink:href="#linearGradient4255"/><radialGradient id="radialGradient1675" cx="823.915" cy="473.203" r="787.102" fx="823.915" fy="473.203" gradientTransform="matrix(1.162983,0.000000,0.000000,0.859900,8.931699e-3,1.615128e-2)" gradientUnits="userSpaceOnUse" xlink:href="#linearGradient2542"/><linearGradient id="linearGradient1689" x1="768.987" x2="784.017" y1="390.782" y2="413.27" gradientUnits="userSpaceOnUse" xlink:href="#linearGradient4255"/><radialGradient id="radialGradient1691" cx="637.989" cy="258.652" r="461.881" fx="637.989" fy="258.652" gradientUnits="userSpaceOnUse" xlink:href="#linearGradient4255"/><radialGradient id="radialGradient1693" cx="919.442" cy="597.643" r="329.406" fx="919.442" fy="597.643" gradientUnits="userSpaceOnUse" xlink:href="#linearGradient4255"/><radialGradient id="radialGradient1695" cx="729.512" cy="252.417" r="400.521" fx="729.512" fy="252.417" gradientUnits="userSpaceOnUse" xlink:href="#linearGradient4255"/><radialGradient id="radialGradient2742" cx="131.271" cy="-58.85" r="368.904" fx="131.271" fy="-58.85" gradientTransform="scale(0.938891,1.065086)" gradientUnits="userSpaceOnUse" xlink:href="#linearGradient2734"/><radialGradient id="radialGradient2766" cx="183.493" cy="397.329" r="197.46" fx="183.493" fy="397.329" gradientTransform="scale(0.998003,1.002001)" gradientUnits="userSpaceOnUse" xlink:href="#linearGradient2758"/></defs><metadata id="metadata4"/><g id="layer1"><rect style="fill:url(#radialGradient1675);fill-opacity:1;fill-rule:nonzero;stroke:none;stroke-width:1.2557396;stroke-linecap:round;stroke-linejoin:bevel;stroke-miterlimit:4;stroke-opacity:1" id="rect8854" width="1024.005" height="767.997" x="-.009" y="0" rx="0" ry="0"/><g id="author"><path style="fill:#000;fill-opacity:.75;fill-rule:nonzero;stroke:none;stroke-width:1pt;stroke-linecap:butt;stroke-linejoin:miter;stroke-opacity:1" id="path11198" d="M 980.42466,753.53931 C 980.37165,753.48462 980.61184,753.56660 980.65365,753.57454 C 981.92987,753.75043 983.23382,753.61758 984.49357,753.38307 C 985.05016,753.26703 985.60766,753.12814 986.12767,752.89333 C 986.37610,752.78116 986.58578,752.64843 986.46480,752.71688 C 984.69118,753.72043 985.83495,753.24740 985.84932,752.93053 C 985.18755,752.42479 983.72740,752.62382 982.96097,752.70202 C 982.12073,752.80795 981.27503,752.96659 980.49083,753.29718 C 980.15244,753.43983 979.94188,753.57157 980.00351,753.53472 C 980.19081,753.42268 980.37906,753.31178 980.57295,753.21160 C 980.64174,753.17603 980.44254,753.29530 980.37957,753.34040 C 980.21733,753.45665 980.18589,753.49162 980.03844,753.62306 C 979.28795,754.33190 979.15044,755.32011 979.47115,756.26928 C 979.92941,757.46858 981.11699,757.85839 982.30676,757.85551 C 983.08868,757.81924 983.86162,757.62874 984.56782,757.28949 C 984.66360,757.24350 984.94040,757.08567 984.85093,757.14301 C 983.84426,757.78833 984.62833,757.25251 984.81259,757.10078 C 984.98290,756.96048 985.12774,756.80493 985.26895,756.63644 C 985.37056,756.51376 985.44195,756.37453 985.50727,756.23077 L 986.46047,755.79883 C 986.37503,755.96137 986.28395,756.11961 986.16204,756.25864 C 985.04206,757.53044 983.30448,758.22279 981.64031,758.34054 C 980.38908,758.35734 979.12410,758.00264 978.62944,756.73382 C 978.28845,755.75481 978.38125,754.73172 979.15640,753.98321 C 980.38581,752.85774 981.99798,752.39731 983.61410,752.21694 C 984.42210,752.12920 986.17082,751.87175 986.86692,752.36816 C 986.93589,752.54441 986.83102,752.68107 986.67483,752.77476 C 985.75930,753.32389 984.92267,753.74527 983.85252,753.86598 C 982.49842,754.08597 981.12751,754.20761 979.75531,754.21511 C 979.61577,754.21343 979.39147,754.25560 979.32101,754.10166 L 980.42466,753.53931 z"/><path style="fill:#000;fill-opacity:.75;fill-rule:nonzero;stroke:none;stroke-width:1pt;stroke-linecap:butt;stroke-linejoin:miter;stroke-opacity:1" id="path11202" d="M 990.52877,753.26033 C 990.53523,753.27150 990.54130,753.28289 990.54814,753.29381 C 990.55635,753.30688 990.53267,753.26691 990.52261,753.25524 C 990.46146,753.18432 990.38947,753.12772 990.30924,753.07931 C 990.01682,752.90293 989.70188,752.81351 989.36938,752.74806 C 988.19488,752.60465 986.97083,752.86353 985.94880,753.46297 C 985.87637,753.50546 986.22402,753.28467 986.17562,753.35331 C 986.09699,753.46480 985.95455,753.51372 985.85065,753.60217 C 985.55251,753.85597 985.34079,754.13841 985.13385,754.46669 C 984.26273,756.32174 985.72602,757.41573 987.44257,757.60038 C 989.50654,757.56153 990.83964,757.10980 991.64925,755.27914 C 991.84950,754.68928 991.91432,754.00721 991.63496,753.42814 C 991.57178,753.29714 991.47260,753.13151 991.32922,753.07273 C 991.27830,753.05185 991.11839,753.12920 991.16698,753.10334 C 992.10272,752.60506 992.28192,752.34080 991.98964,752.72216 C 991.51808,754.36724 992.20982,756.67351 992.57848,758.31210 C 992.74225,759.37013 993.66286,761.62286 992.51857,762.39266 C 992.17263,762.57736 991.83549,762.77956 991.48076,762.94675 C 991.03383,763.15737 990.23866,762.90415 989.80456,762.78488 C 988.67839,762.47547 987.61118,762.00136 986.55685,761.50607 C 984.95835,760.72403 983.39362,759.85622 981.93854,758.82806 C 981.20017,758.30632 980.34602,757.71623 980.07051,756.81457 C 980.07243,756.44910 980.25204,756.22404 980.56672,756.04271 C 980.90233,755.84936 981.24147,755.65878 981.59773,755.50682 C 982.32114,755.19826 984.11537,755.28120 984.90494,755.28818 C 986.64249,755.30355 988.37945,755.33513 990.11671,755.36926 C 992.65488,755.44519 995.19596,755.43576 997.72346,755.17250 L 997.25764,755.51458 C 994.87043,755.48596 992.48425,755.39354 990.09665,755.38378 C 987.74799,755.33765 985.37198,755.19189 983.03357,755.48745 C 982.57512,755.54539 982.05219,755.63274 981.60286,755.75566 C 981.41718,755.80646 981.24709,755.94184 981.05466,755.93731 C 980.94980,755.93483 981.27777,755.84956 981.30649,755.74868 C 981.33527,755.64754 980.62958,756.43256 980.81634,756.41762 C 980.87395,757.35588 981.58168,758.04818 982.28043,758.61066 C 983.67675,759.73469 985.31218,760.52894 986.94132,761.25029 C 987.94034,761.65706 988.95319,762.03326 990.00845,762.26799 C 990.57956,762.39502 991.18419,762.49642 991.77127,762.44161 C 992.14793,762.40646 992.28360,762.31668 992.25067,762.34283 C 992.04864,762.50334 991.81193,762.61455 991.59254,762.75039 C 992.87227,762.05886 992.20124,759.70442 992.04339,758.59900 C 991.68314,756.79719 991.11845,755.00570 991.01314,753.16846 C 991.10197,752.69923 991.90265,752.11317 992.24588,752.51097 C 992.62844,752.95437 992.64815,753.77697 992.55654,754.31488 C 992.50706,754.60537 992.47400,754.66484 992.37820,754.94614 C 991.43294,756.96686 989.01133,758.01893 986.86837,758.00899 C 985.00533,757.84126 983.47298,756.79568 984.43429,754.77444 C 985.60833,752.95456 987.99554,752.17027 990.07860,752.24777 C 990.54454,752.29109 991.27179,752.34857 991.63216,752.69812 L 990.52877,753.26033 z"/><path style="fill:#000;fill-opacity:.75;fill-rule:nonzero;stroke:none;stroke-width:1pt;stroke-linecap:butt;stroke-linejoin:miter;stroke-opacity:1" id="path11204" d="M 996.24929,754.08555 C 995.94918,753.71415 995.44354,753.52930 995.00861,753.37437 C 994.25293,753.13098 993.43241,753.06749 992.67136,753.32648 C 992.32552,753.44416 992.10498,753.58591 992.15038,753.55708 C 992.30968,753.45589 992.47056,753.35442 992.64365,753.27925 C 992.82262,753.20153 992.32855,753.50991 992.17902,753.63523 C 991.03059,754.73993 991.00598,756.07740 992.23952,757.11392 C 994.03807,758.30460 996.50626,758.42720 998.44187,757.50504 C 998.35410,757.55081 998.15022,757.73712 998.17858,757.64230 C 998.21418,757.52330 998.37866,757.49432 998.47019,757.41034 C 998.55842,757.32940 998.64140,757.24217 998.71641,757.14885 C 998.93865,756.87242 999.09150,756.54435 999.15989,756.19631 C 999.47094,754.61401 996.85621,753.58689 995.75156,753.14362 C 993.09520,752.29441 989.29999,751.46899 986.56805,752.45865 C 985.73525,752.93499 987.37513,751.84676 986.91674,752.28974 L 985.94807,752.68953 C 986.31139,752.33309 986.77499,752.08349 987.25780,751.92553 C 988.05008,751.73751 988.87199,751.75578 989.67998,751.81248 C 991.78452,751.96012 993.85971,752.42861 995.86633,753.06638 C 997.02395,753.47279 998.95165,754.05166 999.70364,755.09944 C 999.92074,755.40189 999.91454,755.51921 999.86134,755.86134 C 999.69534,756.92894 998.78085,757.47827 997.89734,757.93757 C 995.92178,758.80471 993.44726,758.55944 991.57789,757.53087 C 990.19652,756.53701 990.21620,755.13816 991.37904,753.95954 C 992.65268,752.83730 994.15781,752.35780 995.78962,752.84323 C 996.30796,752.99330 996.81368,753.17830 997.29390,753.42486 L 996.24929,754.08555 z"/><path style="fill:#000;fill-opacity:.75;fill-rule:nonzero;stroke:none;stroke-width:1pt;stroke-linecap:butt;stroke-linejoin:miter;stroke-opacity:1" id="path11212" d="M 998.04285,759.83236 C 998.12338,759.36467 998.12776,758.88106 998.14374,758.40689 C 998.18020,756.93597 998.10954,755.44149 997.73091,754.01316 C 997.48496,753.21467 997.28404,753.48371 998.61205,752.90548 C 998.61299,752.90506 998.81612,753.18683 998.82117,753.19303 C 999.05934,753.48547 999.34012,753.72091 999.64384,753.94208 C 1000.5716,754.56711 1001.7222,754.78408 1002.7663,754.33449 L 1001.9793,754.95228 C 1000.9199,755.32025 999.81264,754.99835 998.88755,754.42502 C 998.55641,754.21140 998.24630,753.97579 997.92914,753.74278 C 997.88359,753.70933 997.76137,753.61956 997.70081,753.59365 C 997.67958,753.58456 997.61336,753.59293 997.63277,753.58040 C 999.04071,752.67136 998.47821,752.78334 998.55731,753.57380 C 998.69585,755.04380 998.86707,756.51083 998.96719,757.98442 C 999.00732,758.41218 999.03186,758.85524 999.14650,759.27004 L 998.04285,759.83236 z"/><path style="fill:#000;fill-opacity:.75;fill-rule:nonzero;stroke:none;stroke-width:1pt;stroke-linecap:butt;stroke-linejoin:miter;stroke-opacity:1" id="path11219" d="M 1001.9270,755.16131 C 1002.4402,755.46052 1003.1012,755.51451 1003.6807,755.56740 C 1004.3003,755.59835 1004.9456,755.58956 1005.5336,755.36540 C 1005.6209,755.33213 1005.8676,755.19931 1005.7887,755.24927 C 1005.6076,755.36385 1005.4230,755.47599 1005.2259,755.56011 C 1005.1580,755.58907 1005.3437,755.47042 1005.3949,755.41736 C 1005.6697,755.13247 1005.6718,754.80086 1005.5725,754.44269 C 1004.6862,752.72346 1002.3158,752.81667 1000.8397,753.61878 C 1000.9143,753.59174 1001.0932,753.46410 1001.0634,753.53763 C 1001.0106,753.66817 1000.8504,753.72292 1000.7555,753.82689 C 1000.4801,754.12824 1000.2777,754.49165 1000.1838,754.89016 C 999.82214,756.42643 1001.0796,757.54528 1002.2772,758.21981 C 1002.7584,758.43167 1002.8589,758.49489 1003.3676,758.64215 C 1004.4483,758.95513 1005.6157,759.01563 1006.7186,758.78471 C 1007.1658,758.69104 1007.6047,758.54648 1008.0135,758.34115 C 1008.1298,758.28271 1008.4824,758.13004 1008.3537,758.14921 C 1008.2066,758.17111 1008.0881,758.28293 1007.9554,758.34981 L 1008.7098,758.05406 C 1008.4829,758.19111 1007.8292,758.61639 1007.4471,758.78840 C 1005.6773,759.58505 1003.5749,759.22296 1001.8539,758.49646 C 1000.9468,758.02725 999.99994,757.44508 999.62244,756.43650 C 999.07493,754.97401 1000.1649,753.83698 1001.3636,753.19766 C 1002.9234,752.39025 1005.3137,752.38116 1006.3928,753.99081 C 1006.5678,754.43936 1006.5354,754.94442 1006.0810,755.22957 C 1004.9997,755.90817 1004.2554,756.15192 1002.9957,756.05758 C 1002.2923,756.01917 1001.5868,755.96073 1000.8925,755.84194 L 1001.9270,755.16131 z"/><path style="fill:#000;fill-opacity:.75;fill-rule:nonzero;stroke:none;stroke-width:1pt;stroke-linecap:butt;stroke-linejoin:miter;stroke-opacity:1" id="path11227" d="M 1011.6830,751.23561 C 1011.7519,751.02469 1011.7193,750.82641 1011.6123,750.62849 C 1010.6233,749.43325 1008.6457,749.88419 1007.4477,750.46123 C 1007.5286,750.41766 1007.7470,750.25803 1007.6905,750.33052 C 1007.6076,750.43684 1007.4681,750.48360 1007.3637,750.56894 C 1007.1592,750.73615 1006.9803,750.91816 1006.8211,751.12917 C 1006.0176,752.19425 1006.1581,753.45914 1007.0233,754.41922 C 1008.1277,755.40078 1009.7265,755.64086 1011.1261,755.22475 C 1011.4207,755.19056 1011.6490,754.98815 1011.9213,754.89956 C 1012.0148,754.86911 1011.6121,755.12444 1011.6616,755.03948 C 1011.7269,754.92751 1011.8701,754.88553 1011.9744,754.80854 C 1013.0622,753.86732 1013.5596,752.15486 1012.7659,750.86906 C 1012.8446,750.67038 1012.3349,750.67111 1012.3408,750.66777 C 1012.6275,750.50542 1012.9142,750.34239 1013.2099,750.19706 C 1013.3110,750.14735 1013.1450,750.16650 1012.9966,750.45445 C 1012.9195,750.60407 1012.8658,750.77974 1012.8290,750.94236 C 1012.6811,751.59622 1012.7106,752.27220 1012.7468,752.93583 C 1012.8996,754.74963 1013.3675,756.52409 1014.0232,758.21804 L 1013.3950,758.56364 C 1012.9162,756.80547 1012.4657,755.03509 1012.1731,753.23518 C 1012.1519,753.08461 1012.1284,752.93434 1012.1093,752.78349 C 1012.0536,752.34418 1011.6582,749.22349 1013.3450,750.03521 C 1013.4831,750.10163 1013.5479,750.26127 1013.6150,750.38601 C 1014.1804,751.83316 1013.8344,753.50580 1012.6540,754.53846 C 1010.7493,755.97246 1008.3546,756.36291 1006.3877,754.80577 C 1005.1778,753.55627 1005.3798,751.93360 1006.7000,750.83230 C 1007.1107,750.48964 1007.4991,750.31347 1007.9938,750.02639 C 1009.3353,749.40628 1011.3002,749.05420 1012.5385,750.08229 C 1012.6791,750.24295 1012.7972,750.47928 1012.7867,750.67328 L 1011.6830,751.23561 z"/><path style="fill:#000;fill-opacity:.75;fill-rule:nonzero;stroke:none;stroke-width:1pt;stroke-linecap:butt;stroke-linejoin:miter;stroke-opacity:1" id="path11229" d="M 1014.6971,749.34919 C 1014.5756,749.93164 1014.6354,750.54346 1014.6866,751.13058 C 1014.9423,753.36470 1015.6072,755.55327 1016.7036,757.51882 C 1016.7745,757.63502 1016.8454,757.75125 1016.9162,757.86745 L 1016.2961,758.22340 C 1016.2366,758.09992 1016.1770,757.97647 1016.1174,757.85299 C 1015.1875,755.81842 1014.5079,753.67968 1013.9701,751.51047 C 1013.8391,750.97903 1013.7284,750.44120 1013.5934,749.91154 L 1014.6971,749.34919 z"/><path style="fill:#000;fill-opacity:.75;fill-rule:nonzero;stroke:none;stroke-width:1pt;stroke-linecap:butt;stroke-linejoin:miter;stroke-opacity:1" id="path11231" d="M 1016.4801,748.90961 C 1016.3438,749.40948 1016.3545,749.94539 1016.3600,750.46182 C 1016.4205,752.57947 1016.9087,754.66561 1017.7539,756.60476 C 1018.0278,757.22562 1018.3743,757.80791 1018.7596,758.36496 L 1018.0720,758.76389 C 1017.7552,758.15983 1017.4601,757.54451 1017.2090,756.90987 C 1016.4422,754.96171 1015.8984,752.93429 1015.5889,750.86276 C 1015.5168,750.41108 1015.4441,749.90422 1015.3765,749.47194 L 1016.4801,748.90961 z"/></g><g id="LinCity" transform="translate(-593.7724,575.8895)"><path style="fill:#000;fill-opacity:1;fill-rule:nonzero;stroke:none;stroke-width:1pt;stroke-linecap:butt;stroke-linejoin:miter;stroke-opacity:1" id="path1449" d="M 674.80639,26.179618 C 673.20472,44.103194 673.89393,57.134166 671.70559,69.841125 C 668.85961,86.367873 660.20108,113.42412 650.61203,122.98226 C 645.57355,128.45627 639.62626,131.54895 633.08750,135.22725 C 631.63560,136.04402 630.03178,136.65067 628.51472,137.33854 C 628.27025,137.44938 627.57069,137.83991 627.78422,137.67726 C 631.01660,135.21485 633.96865,130.61176 638.20289,130.50036 C 652.70301,129.17406 667.14240,130.76476 681.18263,134.46334 C 692.91216,137.87518 704.58058,142.38719 714.43771,149.75187 C 719.71561,154.07281 719.40459,151.27519 706.91047,158.06445 C 706.34085,158.37399 706.46270,156.84620 706.19235,156.25697 C 705.18253,154.05640 704.09404,151.89072 703.06503,149.69895 C 699.42958,141.50317 689.24957,129.53371 693.39175,117.23135 L 703.84212,112.46550 C 698.58190,129.59785 707.32200,137.01019 711.65903,144.77276 C 712.72088,146.51704 713.79648,148.24112 715.09661,149.82144 C 715.49197,150.30204 715.91474,150.78168 716.38044,151.19805 C 716.59195,151.38723 717.35995,151.46621 717.12066,151.61878 C 703.13031,160.53839 709.63977,160.39524 705.48723,155.30485 C 697.56703,146.69612 685.95039,142.19567 675.11715,138.63153 C 660.37559,134.59663 644.46814,133.03040 629.53931,137.08469 C 623.83485,139.00258 627.30639,137.53326 636.89683,130.58607 C 637.78416,129.94327 641.18083,128.82082 640.44932,129.28300 C 638.45254,130.54459 636.39552,131.70866 634.34810,132.88612 C 633.27931,133.50073 635.86214,132.14599 638.61581,130.03340 C 641.88001,127.52921 644.77511,124.57698 647.28204,121.31800 C 657.17364,107.37276 661.27505,90.353818 663.97278,73.633557 C 666.21580,59.730864 666.30747,57.715170 662.60043,32.482403 L 674.80639,26.179618 z"/><path style="fill:#000;fill-opacity:1;fill-rule:nonzero;stroke:none;stroke-width:1pt;stroke-linecap:butt;stroke-linejoin:miter;stroke-opacity:1" id="path1451" d="M 731.16367,91.881031 C 729.85193,97.733445 729.33433,103.76040 728.76029,109.72389 C 727.65589,122.67788 726.88145,135.70860 727.43011,148.71218 C 727.54439,150.58761 727.47910,149.68961 727.62078,151.40654 L 718.23428,156.15989 C 718.46536,154.25205 718.34793,155.24563 718.58495,153.17892 C 720.00958,140.03149 720.80334,126.81590 721.06018,113.59502 C 721.11322,108.24585 721.42524,102.66430 720.30771,97.412378 L 731.16367,91.881031 z"/><path style="fill:#000;fill-opacity:1;fill-rule:nonzero;stroke:none;stroke-width:1pt;stroke-linecap:butt;stroke-linejoin:miter;stroke-opacity:1" id="path1453" d="M 731.97512,77.092466 C 731.48391,79.151493 731.33061,81.277767 731.20989,83.386813 C 731.13855,84.669679 731.11329,85.954320 731.10256,87.238906 L 721.04629,92.315938 C 721.13102,91.012280 721.20830,89.708032 721.25427,88.402341 C 721.31942,86.487472 721.43749,84.515187 721.11915,82.623815 L 731.97512,77.092466 z"/><path style="fill:#000;fill-opacity:1;fill-rule:nonzero;stroke:none;stroke-width:1pt;stroke-linecap:butt;stroke-linejoin:miter;stroke-opacity:1" id="path1466" d="M 749.17045,82.620752 C 747.69758,89.689483 747.68571,97.036566 747.51511,104.23306 C 747.19766,117.68301 747.65553,131.13002 748.06478,144.57192 C 748.05746,147.98498 748.40169,151.48494 747.57774,154.83355 L 735.52924,159.68164 C 738.54039,158.77368 737.76734,151.63238 738.48117,149.41598 C 739.72851,135.82010 739.47457,122.13432 739.14739,108.50280 C 738.90772,101.90168 738.93247,95.069074 737.37247,88.632110 L 749.17045,82.620752 z"/><path style="fill:#000;fill-opacity:1;fill-rule:nonzero;stroke:none;stroke-width:1pt;stroke-linecap:butt;stroke-linejoin:miter;stroke-opacity:1" id="path1470" d="M 738.54733,103.24392 C 738.64772,102.02452 739.16229,100.92351 739.73154,99.855620 C 745.71405,91.386209 756.39500,85.270109 766.71025,84.200962 C 780.40083,83.721702 784.90353,97.873569 786.54713,109.03929 C 787.78916,119.77566 782.76154,143.37427 776.25902,154.25508 L 767.24856,158.53293 C 773.64652,142.79515 780.26559,124.07454 778.66279,113.22337 C 776.60792,102.39228 771.08997,89.555698 758.00147,90.700092 C 755.53419,91.080815 753.21578,91.667955 750.93147,92.700399 C 750.39279,92.943832 748.83594,93.791990 749.34180,93.486202 C 765.90715,83.472096 753.30556,90.253408 751.02466,94.754406 C 750.66049,95.519621 750.24012,96.358384 750.36488,97.222598 L 738.54733,103.24392 z"/><path style="fill:#000;fill-opacity:1;fill-rule:nonzero;stroke:none;stroke-width:1pt;stroke-linecap:butt;stroke-linejoin:miter;stroke-opacity:1" id="path1478" d="M 879.86009,68.558703 C 879.53973,65.710702 875.08350,62.141957 872.53439,60.193302 C 856.44825,48.959808 836.09113,48.582990 818.46331,56.179960 C 805.88799,62.633407 794.24319,82.622344 794.39169,103.83266 C 795.12939,120.89440 805.03778,134.30832 819.98378,141.85074 C 837.32382,149.61401 856.69878,147.35161 874.09590,141.05886 C 877.62528,139.68318 881.06652,138.08409 884.37946,136.24645 C 885.36314,135.70080 888.29360,134.03012 887.29110,134.54027 C 876.50699,140.02761 882.92604,136.84395 885.58463,134.68349 L 895.04197,130.89211 C 886.80431,137.30587 877.40645,142.27938 867.69175,146.05066 C 850.01115,152.06749 830.16178,154.27473 812.57436,146.72407 C 797.17213,139.02575 787.30149,125.06984 787.14251,107.51991 C 787.66112,82.354985 801.01543,62.219408 824.07698,51.746995 C 842.71133,43.978845 863.22213,45.302226 881.07409,54.711727 C 884.86612,56.818355 888.95414,59.064170 891.67763,62.537378 L 879.86009,68.558703 z"/><path style="fill:#000;fill-opacity:1;fill-rule:nonzero;stroke:none;stroke-width:1pt;stroke-linecap:butt;stroke-linejoin:miter;stroke-opacity:1" id="path1484" d="M 890.98224,88.478526 C 890.28495,91.679124 889.97848,94.941049 889.63236,98.178514 C 888.36191,112.20554 887.88447,126.28042 887.65755,140.34282 C 887.79128,144.03654 887.32128,147.78164 887.84747,151.46208 L 876.34422,155.92105 C 879.13313,152.50656 878.15866,147.46236 879.45247,143.69190 C 881.35177,129.84976 881.79462,115.86030 880.48666,101.96726 C 880.18020,99.101062 879.90391,96.192733 879.16469,93.378820 L 890.98224,88.478526 z"/><path style="fill:#000;fill-opacity:1;fill-rule:nonzero;stroke:none;stroke-width:1pt;stroke-linecap:butt;stroke-linejoin:miter;stroke-opacity:1" id="path1486" d="M 893.84602,67.021368 C 893.32350,68.697185 892.49210,70.958448 892.02969,72.877211 C 891.17418,76.838365 890.48661,80.881734 890.46476,84.945902 L 879.33024,90.516404 C 879.88989,86.381258 880.56331,82.262010 881.18711,78.136316 C 881.37791,76.908266 881.74461,73.406632 882.02860,73.042693 L 893.84602,67.021368 z"/><path style="fill:#000;fill-opacity:1;fill-rule:nonzero;stroke:none;stroke-width:1pt;stroke-linecap:butt;stroke-linejoin:miter;stroke-opacity:1" id="path1490" d="M 915.61136,46.858420 C 914.37324,53.183960 914.08079,59.695486 913.66206,66.118654 C 912.37949,90.037582 912.56776,114.02710 913.74628,137.94650 C 913.93178,141.56615 913.92029,141.50784 914.12814,144.96826 C 914.26856,147.30346 914.41289,149.64060 914.62793,151.97043 C 914.68046,152.53920 914.79398,153.67428 914.91281,154.30283 C 914.96951,154.60248 915.51160,155.01447 915.24175,155.15658 C 903.23972,161.47697 903.48747,164.76316 903.48811,158.04163 L 914.08432,152.48806 C 915.58459,158.38690 918.30139,152.08566 903.34857,160.31093 C 903.01230,160.49589 904.07402,159.92252 904.23212,159.57283 C 904.58265,158.79769 904.88243,157.55904 905.04937,156.77804 C 906.12270,151.75527 906.40581,146.59554 906.78943,141.48881 C 908.03033,117.68301 907.74255,93.787646 906.03709,70.012553 C 905.52567,64.298704 905.15695,58.460545 903.79394,52.879746 L 915.61136,46.858420 z"/><path style="fill:#000;fill-opacity:1;fill-rule:nonzero;stroke:none;stroke-width:1pt;stroke-linecap:butt;stroke-linejoin:miter;stroke-opacity:1" id="path1492" d="M 904.03513,124.57025 C 906.82024,125.61746 911.17710,126.83426 913.87508,127.18075 C 923.52563,128.29296 933.17099,127.49016 942.86422,126.63510 L 950.28210,126.37465 C 942.23790,131.15847 941.04119,133.67222 933.66839,133.37992 C 924.07555,133.35272 914.62149,133.65743 905.04886,133.10609 C 901.47402,132.89023 895.05750,132.77720 892.21771,130.59157 L 904.03513,124.57025 z"/><path style="fill:#000;fill-opacity:1;fill-rule:nonzero;stroke:none;stroke-width:1pt;stroke-linecap:butt;stroke-linejoin:miter;stroke-opacity:1" id="path1496" d="M 979.55674,99.509861 C 977.22218,105.55669 975.12602,111.69609 972.99463,117.81624 C 965.89824,138.44577 957.69266,159.85530 940.60491,174.32142 C 930.77266,181.62396 918.28258,189.07642 906.02509,183.47843 L 915.21915,177.41043 C 919.67084,179.68911 924.45211,180.06111 929.28704,178.70747 C 932.58483,177.78414 934.69361,176.48350 934.47806,176.64940 C 933.01138,177.77820 931.37650,178.68981 929.70879,179.49237 C 928.60995,180.02116 931.74371,178.14790 932.76111,177.47566 C 950.64514,163.51967 960.17156,142.45108 966.13614,121.05193 C 968.07547,114.08088 969.83662,107.08259 971.07159,99.949884 C 971.08535,99.870350 971.47807,95.978066 971.48691,95.973337 C 975.37806,93.902022 979.36291,92.011523 983.30091,90.030615 C 983.30091,90.030615 980.32576,97.518022 979.55674,99.509861 z"/><path style="fill:#000;fill-opacity:1;fill-rule:nonzero;stroke:none;stroke-width:1pt;stroke-linecap:butt;stroke-linejoin:miter;stroke-opacity:1" id="path1502" d="M 919.49974,98.740702 C 927.16739,93.589136 929.97460,90.786311 937.99128,91.979510 C 948.36298,93.940678 956.42233,100.87843 961.47105,109.91508 C 966.21102,119.45797 966.74693,130.47127 963.77872,140.62785 C 963.47137,141.68879 963.02877,142.69567 962.55625,143.69026 L 951.58172,148.54436 C 952.31386,147.56143 953.00079,146.55422 953.49327,145.42329 C 957.73875,135.66884 957.66563,124.41817 952.89169,114.85727 C 947.75800,105.85771 939.12977,99.311465 928.52472,98.746124 L 919.49974,98.740702 z"/><path style="fill:#000;fill-opacity:1;fill-rule:nonzero;stroke:none;stroke-width:1pt;stroke-linecap:butt;stroke-linejoin:miter;stroke-opacity:1" id="path8379" d="M 621.93884,154.71769 C 642.96597,157.90784 671.03962,159.58347 692.77149,161.01458 C 790.95563,166.94131 886.00803,172.26351 984.62263,175.32268 C 989.22875,175.47062 993.83500,175.61856 998.44112,175.76652 L 986.16912,180.35443 C 982.22442,179.96204 978.27960,179.56964 974.33491,179.17724 C 877.05136,170.61033 778.11349,168.27459 679.63943,167.64087 C 652.68294,167.52557 624.68569,167.13004 598.11296,168.27664 L 621.93884,154.71769 z"/><path style="fill:#000;fill-opacity:.51211071;fill-rule:nonzero;stroke:#000;stroke-width:2.5254941;stroke-linecap:round;stroke-linejoin:round;stroke-miterlimit:4;stroke-opacity:.18685122" id="path9139" d="M 676.28456,26.890209 C 674.68289,44.813791 675.37210,57.844760 673.18389,70.551720 C 670.33778,87.078464 661.67925,114.13471 652.09033,123.69285 C 647.05172,129.16685 641.10456,132.25954 634.56567,135.93784 C 633.11377,136.75461 631.50995,137.36126 629.99302,138.04913 C 629.74855,138.15997 629.04899,138.55050 629.26252,138.38785 C 632.49477,135.92544 635.44682,131.32235 639.68106,131.21095 C 654.18131,129.88465 668.62057,131.47534 682.66080,135.17393 C 694.39033,138.58577 706.05887,143.09779 715.91588,150.46247 C 721.19378,154.78340 720.88289,151.98579 708.38877,158.77505 C 707.81914,159.08458 707.94100,157.55680 707.67064,156.96756 C 706.66070,154.76700 705.57234,152.60131 704.54320,150.40955 C 700.90775,142.21377 690.72774,130.24429 694.86993,117.94195 L 705.32029,113.17609 C 700.06007,130.30844 708.80030,137.72077 713.13720,145.48336 C 714.19905,147.22764 715.27478,148.95172 716.57491,150.53204 C 716.97027,151.01264 717.39304,151.49228 717.85861,151.90865 C 718.07025,152.09783 718.83825,152.17680 718.59884,152.32938 C 704.60848,161.24898 711.11794,161.10584 706.96540,156.01545 C 699.04532,147.40671 687.42856,142.90627 676.59532,139.34212 C 661.85376,135.30721 645.94631,133.74099 631.01761,137.79528 C 625.31315,139.71316 628.78457,138.24384 638.37500,131.29665 C 639.26246,130.65385 642.65913,129.53141 641.92762,129.99359 C 639.93083,131.25517 637.87382,132.41925 635.82628,133.59671 C 634.75749,134.21133 637.34031,132.85659 640.09411,130.74399 C 643.35818,128.23981 646.25328,125.28757 648.76034,122.02859 C 658.65194,108.08335 662.75322,91.064413 665.45095,74.344153 C 667.69409,60.441460 667.78564,58.425762 664.07872,33.192996 L 676.28456,26.890209 z"/><path style="fill:#000;fill-opacity:.51211071;fill-rule:nonzero;stroke:#000;stroke-width:2.5254941;stroke-linecap:round;stroke-linejoin:round;stroke-miterlimit:4;stroke-opacity:.18685122" id="path9141" d="M 732.64185,92.591630 C 731.33023,98.444033 730.81250,104.47100 730.23846,110.43447 C 729.13419,123.38848 728.35974,136.41919 728.90828,149.42278 C 729.02256,151.29821 728.95728,150.40021 729.09908,152.11714 L 719.71258,156.87048 C 719.94354,154.96265 719.82623,155.95623 720.06312,153.88952 C 721.48775,140.74207 722.28151,127.52648 722.53848,114.30561 C 722.59152,108.95644 722.90354,103.37490 721.78601,98.122967 L 732.64185,92.591630 z"/><path style="fill:#000;fill-opacity:.51211071;fill-rule:nonzero;stroke:#000;stroke-width:2.5254941;stroke-linecap:round;stroke-linejoin:round;stroke-miterlimit:4;stroke-opacity:.18685122" id="path9143" d="M 733.45329,77.803057 C 732.96208,79.862092 732.80891,81.988356 732.68806,84.097409 C 732.61684,85.380271 732.59146,86.664914 732.58085,87.949494 L 722.52459,93.026533 C 722.60919,91.722873 722.68647,90.418632 722.73256,89.112939 C 722.79760,87.198071 722.91566,85.225787 722.59745,83.334407 L 733.45329,77.803057 z"/><path style="fill:#000;fill-opacity:.51211071;fill-rule:nonzero;stroke:#000;stroke-width:2.5254941;stroke-linecap:round;stroke-linejoin:round;stroke-miterlimit:4;stroke-opacity:.18685122" id="path9145" d="M 750.64874,83.331351 C 749.17588,90.400082 749.16401,97.747161 748.99341,104.94366 C 748.67595,118.39361 749.13383,131.84061 749.54308,145.28252 C 749.53576,148.69557 749.87998,152.19554 749.05591,155.54415 L 737.00741,160.39224 C 740.01856,159.48428 739.24563,152.34298 739.95946,150.12658 C 741.20668,136.53070 740.95287,122.84492 740.62556,109.21340 C 740.38589,102.61227 740.41064,95.779662 738.85077,89.342708 L 750.64874,83.331351 z"/><path style="fill:#000;fill-opacity:.51211071;fill-rule:nonzero;stroke:#000;stroke-width:2.5254941;stroke-linecap:round;stroke-linejoin:round;stroke-miterlimit:4;stroke-opacity:.18685122" id="path9147" d="M 740.02551,103.95452 C 740.12602,102.73511 740.64046,101.63411 741.20971,100.56622 C 747.19235,92.096797 757.87317,85.980708 768.18843,84.911552 C 781.87900,84.432302 786.38171,98.584160 788.02542,109.74989 C 789.26734,120.48626 784.23971,144.08487 777.73732,154.96568 L 768.72686,159.24353 C 775.12470,143.50575 781.74389,124.78513 780.14096,113.93396 C 778.08622,103.10287 772.56814,90.266294 759.47977,91.410684 C 757.01236,91.791415 754.69408,92.378554 752.40964,93.410989 C 751.87096,93.654421 750.31424,94.502583 750.81997,94.196796 C 767.38532,84.182695 754.78386,90.964000 752.50284,95.464998 C 752.13879,96.230210 751.71829,97.068977 751.84305,97.933189 L 740.02551,103.95452 z"/><path style="fill:#000;fill-opacity:.51211071;fill-rule:nonzero;stroke:#000;stroke-width:2.5254941;stroke-linecap:round;stroke-linejoin:round;stroke-miterlimit:4;stroke-opacity:.18685122" id="path9149" d="M 881.33839,69.269299 C 881.01790,66.421299 876.56179,62.852549 874.01256,60.903891 C 857.92655,49.670405 837.56930,49.293589 819.94148,56.890552 C 807.36616,63.343998 795.72136,83.332942 795.86986,104.54325 C 796.60756,121.60499 806.51595,135.01890 821.46208,142.56134 C 838.80200,150.32461 858.17695,148.06221 875.57420,141.76946 C 879.10345,140.39377 882.54482,138.79468 885.85763,136.95705 C 886.84131,136.41138 889.77190,134.74072 888.76927,135.25087 C 877.98516,140.73820 884.40421,137.55453 887.06280,135.39409 L 896.52014,131.60270 C 888.28261,138.01646 878.88462,142.98998 869.16993,146.76126 C 851.48932,152.77809 831.63995,154.98533 814.05253,147.43467 C 798.65043,139.73633 788.77966,125.78043 788.62068,108.23050 C 789.13942,83.065580 802.49373,62.930006 825.55528,52.457591 C 844.18951,44.689436 864.70031,46.012820 882.55227,55.422318 C 886.34429,57.528947 890.43231,59.774767 893.15593,63.247966 L 881.33839,69.269299 z"/><path style="fill:#000;fill-opacity:.51211071;fill-rule:nonzero;stroke:#000;stroke-width:2.5254941;stroke-linecap:round;stroke-linejoin:round;stroke-miterlimit:4;stroke-opacity:.18685122" id="path9151" d="M 892.46054,89.189120 C 891.76325,92.389717 891.45678,95.651645 891.11053,98.889114 C 889.84008,112.91614 889.36277,126.99101 889.13572,141.05343 C 889.26945,144.74714 888.79945,148.49223 889.32564,152.17267 L 877.82252,156.63165 C 880.61130,153.21716 879.63696,148.17296 880.93077,144.40250 C 882.82994,130.56034 883.27279,116.57089 881.96484,102.67785 C 881.65837,99.811651 881.38220,96.903330 880.64299,94.089412 L 892.46054,89.189120 z"/><path style="fill:#000;fill-opacity:.51211071;fill-rule:nonzero;stroke:#000;stroke-width:2.5254941;stroke-linecap:round;stroke-linejoin:round;stroke-miterlimit:4;stroke-opacity:.18685122" id="path9153" d="M 895.32432,67.731968 C 894.80167,69.407785 893.97028,71.669036 893.50786,73.587805 C 892.65247,77.548954 891.96478,81.592333 891.94294,85.656497 L 880.80841,91.226992 C 881.36819,87.091849 882.04161,82.972604 882.66528,78.846907 C 882.85608,77.618860 883.22278,74.117225 883.50678,73.753288 L 895.32432,67.731968 z"/><path style="fill:#000;fill-opacity:.51211071;fill-rule:nonzero;stroke:#000;stroke-width:2.5254941;stroke-linecap:round;stroke-linejoin:round;stroke-miterlimit:4;stroke-opacity:.18685122" id="path9155" d="M 917.08966,47.569017 C 915.85154,53.894559 915.55896,60.406078 915.14036,66.829243 C 913.85766,90.748171 914.04593,114.73769 915.22446,138.65709 C 915.40995,142.27675 915.39846,142.21844 915.60644,145.67886 C 915.74673,148.01406 915.89106,150.35120 916.10623,152.68103 C 916.15864,153.24980 916.27216,154.38488 916.39111,155.01343 C 916.44780,155.31308 916.98990,155.72507 916.72005,155.86718 C 904.71789,162.18757 904.96565,165.47376 904.96628,158.75223 L 915.56249,153.19866 C 917.06276,159.09750 919.77956,152.79626 904.82674,161.02153 C 904.49047,161.20649 905.55219,160.63312 905.71041,160.28342 C 906.06095,159.50829 906.36060,158.26963 906.52754,157.48864 C 907.60100,152.46587 907.88398,147.30614 908.26760,142.19941 C 909.50850,118.39361 909.22072,94.498239 907.51526,70.723150 C 907.00385,65.009296 906.63512,59.171137 905.27211,53.590338 L 917.08966,47.569017 z"/><path style="fill:#000;fill-opacity:.51211071;fill-rule:nonzero;stroke:#000;stroke-width:2.5254941;stroke-linecap:round;stroke-linejoin:round;stroke-miterlimit:4;stroke-opacity:.18685122" id="path9157" d="M 905.51343,125.28084 C 908.29841,126.32806 912.65527,127.54484 915.35338,127.89134 C 925.00380,129.00354 934.64917,128.20075 944.34252,127.34568 L 951.76027,127.08524 C 943.71607,131.86906 942.51936,134.38282 935.14656,134.09051 C 925.55385,134.06332 916.09979,134.36802 906.52703,133.81668 C 902.95232,133.60083 896.53580,133.48778 893.69588,131.30216 L 905.51343,125.28084 z"/><path style="fill:#000;fill-opacity:.51211071;fill-rule:nonzero;stroke:#000;stroke-width:2.5254941;stroke-linecap:round;stroke-linejoin:round;stroke-miterlimit:4;stroke-opacity:.18685122" id="path9159" d="M 981.03491,100.22045 C 978.70047,106.26728 976.60431,112.40668 974.47280,118.52684 C 967.37641,139.15635 959.17096,160.56590 942.08308,175.03202 C 932.25083,182.33456 919.76075,189.78702 907.50326,184.18903 L 916.69732,178.12103 C 921.14914,180.39970 925.93040,180.77171 930.76521,179.41807 C 934.06313,178.49474 936.17191,177.19409 935.95636,177.35999 C 934.48968,178.48880 932.85480,179.40040 931.18709,180.20297 C 930.08825,180.73176 933.22188,178.85850 934.23940,178.18626 C 952.12344,164.23027 961.64985,143.16167 967.61431,121.76253 C 969.55364,114.79147 971.31492,107.79319 972.54976,100.66048 C 972.56352,100.58094 972.95624,96.688663 972.96520,96.683928 C 976.85636,94.612619 980.84108,92.722122 984.77909,90.741213 C 984.77909,90.741213 981.80393,98.228621 981.03491,100.22045 z"/><path style="fill:#000;fill-opacity:.51211071;fill-rule:nonzero;stroke:#000;stroke-width:2.5254941;stroke-linecap:round;stroke-linejoin:round;stroke-miterlimit:4;stroke-opacity:.18685122" id="path9161" d="M 920.97791,99.451301 C 928.64569,94.299735 931.45277,91.496904 939.46945,92.690099 C 949.84128,94.651271 957.90051,101.58902 962.94935,110.62568 C 967.68932,120.16856 968.22510,131.18186 965.25702,141.33844 C 964.94954,142.39939 964.50695,143.40627 964.03443,144.40086 L 953.06002,149.25496 C 953.79203,148.27202 954.47897,147.26482 954.97144,146.13389 C 959.21705,136.37943 959.14381,125.12876 954.36999,115.56787 C 949.23617,106.56831 940.60807,100.02206 930.00289,99.456718 L 920.97791,99.451301 z"/><path style="fill:#000;fill-opacity:.51211071;fill-rule:nonzero;stroke:#000;stroke-width:2.5254941;stroke-linecap:round;stroke-linejoin:round;stroke-miterlimit:4;stroke-opacity:.18685122" id="path9163" d="M 623.41701,155.42829 C 644.44414,158.61844 672.51779,160.29407 694.24979,161.72518 C 792.43393,167.65191 887.48620,172.97411 986.10093,176.03328 C 990.70705,176.18122 995.31317,176.32916 999.91930,176.47712 L 987.64729,181.06503 C 983.70259,180.67263 979.75790,180.28024 975.81308,179.88784 C 878.52966,171.32093 779.59166,168.98519 681.11773,168.35147 C 654.16111,168.23617 626.16399,167.84064 599.59118,168.98724 L 623.41701,155.42829 z"/></g><path style="fill:#000;fill-opacity:.64583331;fill-rule:evenodd;stroke:none;stroke-width:4;stroke-linecap:butt;stroke-linejoin:round;stroke-miterlimit:4;stroke-opacity:.75" id="path2768" d="M 265.39912,328.97902 C 265.39912,328.97902 235.46800,369.99168 234.74287,369.97902 C 229.19229,369.88211 223.70493,370.42161 218.33662,371.41652 L 183.71162,334.13527 L 170.93037,341.13527 L 177.71162,391.54152 C 173.09651,395.73002 168.94652,400.46899 165.33662,405.69777 L 114.30537,406.01027 L 110.21162,420.01027 L 150.68037,450.72902 C 150.53884,456.95826 151.16926,463.08030 152.39912,469.07277 L 117.05537,504.85402 L 124.05537,517.63527 L 174.11787,510.19777 C 177.85000,514.04079 181.97066,517.51306 186.46162,520.60402 L 186.74287,571.54152 L 200.74287,575.63527 L 231.58662,535.19777 C 236.55472,535.30124 241.44410,534.91076 246.27412,534.13527 L 282.61787,570.54152 L 295.39912,563.54152 L 289.08662,513.47902 C 293.22006,509.70130 296.97604,505.50543 300.30537,500.88527 L 351.77412,500.88527 L 355.86787,486.91652 L 315.80537,455.79152 C 316.02615,450.14583 315.68712,444.57655 314.77412,439.10402 L 350.93037,402.51027 L 343.93037,389.69777 L 293.55537,396.04152 C 289.43629,391.64014 284.76534,387.74417 279.68037,384.29152 L 279.36787,333.07277 L 265.39912,328.97902 z M 233.05537,432.04152 C 244.24272,432.04152 253.30537,441.10417 253.30537,452.29152 C 253.30537,463.47886 244.24272,472.57277 233.05537,472.57277 C 221.86803,472.57276 212.77412,463.47887 212.77412,452.29152 C 212.77413,441.10417 221.86802,432.04152 233.05537,432.04152 z"/><path style="fill:url(#radialGradient2766);fill-opacity:1;fill-rule:evenodd;stroke:#106400;stroke-width:4;stroke-linecap:butt;stroke-linejoin:round;stroke-opacity:.75;stroke-dasharray:none;stroke-miterlimit:4" id="path8834" d="M 261.13884,326.13884 C 261.13884,326.13884 231.20772,367.15150 230.48259,367.13884 C 224.93201,367.04193 219.44465,367.58143 214.07634,368.57634 L 179.45134,331.29509 L 166.67009,338.29509 L 173.45134,388.70134 C 168.83623,392.88984 164.68624,397.62881 161.07634,402.85759 L 110.04509,403.17009 L 105.95134,417.17009 L 146.42009,447.88884 C 146.27856,454.11808 146.90898,460.24012 148.13884,466.23259 L 112.79509,502.01384 L 119.79509,514.79509 L 169.85759,507.35759 C 173.58972,511.20061 177.71038,514.67288 182.20134,517.76384 L 182.48259,568.70134 L 196.48259,572.79509 L 227.32634,532.35759 C 232.29444,532.46106 237.18382,532.07058 242.01384,531.29509 L 278.35759,567.70134 L 291.13884,560.70134 L 284.82634,510.63884 C 288.95978,506.86112 292.71576,502.66525 296.04509,498.04509 L 347.51384,498.04509 L 351.60759,484.07634 L 311.54509,452.95134 C 311.76587,447.30565 311.42684,441.73637 310.51384,436.26384 L 346.67009,399.67009 L 339.67009,386.85759 L 289.29509,393.20134 C 285.17601,388.79996 280.50506,384.90399 275.42009,381.45134 L 275.10759,330.23259 L 261.13884,326.13884 z M 228.79509,429.20134 C 239.98244,429.20134 249.04509,438.26399 249.04509,449.45134 C 249.04509,460.63868 239.98244,469.73259 228.79509,469.73259 C 217.60775,469.73258 208.51384,460.63869 208.51384,449.45134 C 208.51385,438.26399 217.60774,429.20134 228.79509,429.20134 z"/><path style="fill:#000;fill-opacity:.64583331;fill-rule:evenodd;stroke:none;stroke-width:4;stroke-linecap:butt;stroke-linejoin:round;stroke-miterlimit:4;stroke-opacity:.75347221" id="path2770" d="M 72.131717,-82.208471 L 55.725467,-24.614721 C -28.849126,-10.594689 -93.462033,62.729295 -93.462033,151.26027 C -93.462033,220.76752 -53.586630,280.87782 4.4442166,310.35402 L 7.3504664,364.57277 L 31.506717,373.94777 L 62.850467,328.22902 C 70.133183,329.13485 83.466773,330.05893 90.037967,329.51027 L 115.06922,377.97902 L 140.91297,376.57277 L 151.31922,316.88527 C 160.18149,313.33236 168.63072,309.03366 176.72547,304.16652 L 223.69422,333.94777 L 245.31922,319.69777 L 224.16297,262.91652 C 231.00223,254.40666 237.11196,245.28871 242.31922,235.60402 L 293.19422,240.16652 L 305.91297,217.60402 L 261.50672,176.69777 C 262.69950,168.36932 263.53797,159.91701 263.53797,151.26027 L 312.10047,117.29152 L 309.72547,91.479029 L 249.94422,83.041529 C 244.22526,69.242517 236.73891,56.404718 227.91297,44.604029 L 253.13172,-0.86472009 L 237.63172,-21.645971 L 182.94422,2.1040299 C 162.23542,-11.522319 138.50677,-20.806347 113.00672,-24.833471 L 97.944213,-79.895971 L 72.131717,-82.208471 z M 85.037967,115.32277 C 104.87009,115.32277 120.97547,131.42815 120.97547,151.26027 C 120.97547,171.09238 104.87008,187.19777 85.037967,187.19777 C 65.205853,187.19776 49.100467,171.09239 49.100467,151.26027 C 49.100467,131.42815 65.205849,115.32277 85.037967,115.32277 z"/><path style="stroke-miterlimit:4;stroke-dasharray:none;stroke-opacity:.75347221;stroke-linejoin:round;stroke-linecap:butt;stroke-width:4;stroke:#000764;fill-rule:evenodd;fill-opacity:1;fill:url(#radialGradient2742)" id="path1600" d="M 67.871437,-85.048657 L 51.465187,-27.454907 C -33.109406,-13.434875 -97.722313,59.889109 -97.722313,148.42009 C -97.722313,217.92734 -57.846910,278.03764 0.18393663,307.51384 L 3.0901866,361.73259 L 27.246437,371.10759 L 58.590187,325.38884 C 65.872903,326.29467 79.206493,327.21875 85.777687,326.67009 L 110.80894,375.13884 L 136.65269,373.73259 L 147.05894,314.04509 C 155.92121,310.49218 164.37044,306.19348 172.46519,301.32634 L 219.43394,331.10759 L 241.05894,316.85759 L 219.90269,260.07634 C 226.74195,251.56648 232.85168,242.44853 238.05894,232.76384 L 288.93394,237.32634 L 301.65269,214.76384 L 257.24644,173.85759 C 258.43922,165.52914 259.27769,157.07683 259.27769,148.42009 L 307.84019,114.45134 L 305.46519,88.638843 L 245.68394,80.201343 C 239.96498,66.402331 232.47863,53.564532 223.65269,41.763843 L 248.87144,-3.7049067 L 233.37144,-24.486157 L 178.68394,-0.73615669 C 157.97514,-14.362505 134.24649,-23.646533 108.74644,-27.673657 L 93.683937,-82.736157 L 67.871437,-85.048657 z M 80.777687,112.48259 C 100.60981,112.48259 116.71519,128.58797 116.71519,148.42009 C 116.71519,168.25220 100.60980,184.35759 80.777687,184.35759 C 60.945573,184.35758 44.840187,168.25221 44.840187,148.42009 C 44.840187,128.58797 60.945569,112.48259 80.777687,112.48259 z"/></g></svg>