<svg xmlns="http://www.w3.org/2000/svg" xmlns:cc="http://web.resource.org/cc/" xmlns:svg="http://www.w3.org/2000/svg" xmlns:xlink="http://www.w3.org/1999/xlink" id="svg4380" width="593.333" height="100"><defs id="defs3"><linearGradient id="linearGradient15071"><stop id="stop15073" offset="0" style="stop-color:#3f5dc9;stop-opacity:1"/><stop id="stop15075" offset="1" style="stop-color:#2246c9;stop-opacity:1"/></linearGradient><linearGradient id="linearGradient14305"><stop id="stop14307" offset="0" style="stop-color:#547aff;stop-opacity:1"/><stop id="stop14309" offset="1" style="stop-color:#244cda;stop-opacity:1"/></linearGradient><linearGradient id="linearGradient11254"><stop id="stop11256" offset="0" style="stop-color:#fff;stop-opacity:1"/><stop id="stop11258" offset="1" style="stop-color:#fff;stop-opacity:0"/></linearGradient><linearGradient id="linearGradient10486"><stop id="stop10488" offset="0" style="stop-color:#42b327;stop-opacity:1"/><stop id="stop10490" offset="1" style="stop-color:#31841d;stop-opacity:1"/></linearGradient><linearGradient id="linearGradient10492" x1="146.198" x2="181.714" y1="321.525" y2="351.898" gradientTransform="scale(0.830214,1.204508)" gradientUnits="userSpaceOnUse" xlink:href="#linearGradient10486"/><linearGradient id="linearGradient11260" x1="143.493" x2="161.001" y1="337.331" y2="358.404" gradientTransform="scale(0.890083,1.123491)" gradientUnits="userSpaceOnUse" xlink:href="#linearGradient11254"/><linearGradient id="linearGradient14311" x1="89.594" x2="204.219" y1="1142.161" y2="1202.185" gradientTransform="scale(2.825481,0.353922)" gradientUnits="userSpaceOnUse" xlink:href="#linearGradient14305"/><linearGradient id="linearGradient15077" x1="104.828" x2="210.123" y1="1014.578" y2="1139.842" gradientTransform="scale(2.632584,0.379855)" gradientUnits="userSpaceOnUse" xlink:href="#linearGradient15071"/><linearGradient id="linearGradient15226" x1="146.198" x2="181.714" y1="321.525" y2="351.898" gradientTransform="scale(0.830214,1.204508)" gradientUnits="userSpaceOnUse" xlink:href="#linearGradient10486"/><linearGradient id="linearGradient15228" x1="143.493" x2="161.001" y1="337.331" y2="358.404" gradientTransform="scale(0.890083,1.123491)" gradientUnits="userSpaceOnUse" xlink:href="#linearGradient11254"/><linearGradient id="linearGradient15230" x1="104.828" x2="210.123" y1="1014.578" y2="1139.842" gradientTransform="scale(2.632584,0.379855)" gradientUnits="userSpaceOnUse" xlink:href="#linearGradient15071"/><linearGradient id="linearGradient15232" x1="89.594" x2="204.219" y1="1142.161" y2="1202.185" gradientTransform="scale(2.825481,0.353922)" gradientUnits="userSpaceOnUse" xlink:href="#linearGradient14305"/><linearGradient id="linearGradient15244" x1="104.828" x2="210.123" y1="1014.578" y2="1139.842" gradientTransform="scale(2.632584,0.379855)" gradientUnits="userSpaceOnUse" xlink:href="#linearGradient15071"/><linearGradient id="linearGradient15246" x1="89.594" x2="204.219" y1="1142.161" y2="1202.185" gradientTransform="scale(2.825481,0.353922)" gradientUnits="userSpaceOnUse" xlink:href="#linearGradient14305"/><linearGradient id="linearGradient15249" x1="89.594" x2="204.219" y1="1142.161" y2="1202.185" gradientTransform="matrix(2.825481,0.000000,0.000000,0.353922,-52.86224,-203.9000)" gradientUnits="userSpaceOnUse" xlink:href="#linearGradient14305"/><linearGradient id="linearGradient15253" x1="104.828" x2="210.123" y1="1014.578" y2="1139.842" gradientTransform="matrix(2.632584,0.000000,0.000000,0.379855,-52.86224,-203.9000)" gradientUnits="userSpaceOnUse" xlink:href="#linearGradient15071"/></defs><metadata id="metadata4"/><g id="layer1"><rect id="rect15236" width="531.826" height="86.487" x="11.781" y="7.748" rx="13.474" ry="13.271" style="fill:#000;fill-opacity:.55633801;stroke:none;stroke-width:.60724795;stroke-linejoin:round;stroke-miterlimit:4;stroke-opacity:.35915491"/><g id="g15086" transform="translate(-100.0051,-359.6143)"><rect id="rect4400" width="531.826" height="86.487" x="110" y="365.219" rx="13.474" ry="13.271" style="fill:#708fff;fill-opacity:1;stroke:none;stroke-width:.60724795;stroke-linejoin:round;stroke-miterlimit:4;stroke-opacity:.35915491"/><rect id="rect5160" width="529.058" height="83.629" x="111.429" y="366.648" rx="12.492" ry="12.11" style="fill:url(#linearGradient15230);fill-opacity:1;stroke:none;stroke-width:.60724795;stroke-linejoin:round;stroke-miterlimit:4;stroke-opacity:.35915491"/><rect id="rect5920" width="516.647" height="72.379" x="117.857" y="372.362" rx="10.528" ry="10.503" style="fill:#b6c6ff;fill-opacity:1;stroke:none;stroke-width:.60724795;stroke-linejoin:round;stroke-miterlimit:4;stroke-opacity:.35915491"/><rect id="rect6680" width="514.968" height="70.813" x="118.683" y="373.078" rx="10.472" ry="9.774" style="fill:url(#linearGradient15232);fill-opacity:1;stroke:none;stroke-width:.60724795;stroke-linejoin:round;stroke-miterlimit:4;stroke-opacity:.35915491"/></g><g id="g15079" transform="translate(-100.0051,-359.6143)"><rect id="rect12025" width="46.25" height="66.161" x="122.89" y="376.266" rx="10.472" ry="9.774" style="fill:#000;fill-opacity:.57042253;stroke:none;stroke-width:.60724795;stroke-linejoin:round;stroke-miterlimit:4;stroke-opacity:.35915491"/><rect id="rect6688" width="46.25" height="66.161" x="122.321" y="375.635" rx="10.472" ry="9.774" style="fill:#319c17;fill-opacity:1;stroke:none;stroke-width:.60724795;stroke-linejoin:round;stroke-miterlimit:4;stroke-opacity:.35915491"/><rect id="rect7448" width="45.268" height="65.202" x="122.857" y="376.082" rx="10.472" ry="9.774" style="fill:#81e469;fill-opacity:1;stroke:none;stroke-width:.60724795;stroke-linejoin:round;stroke-miterlimit:4;stroke-opacity:.35915491"/><rect id="rect8208" width="44.018" height="63.863" x="123.482" y="376.707" rx="9.49" ry="9.328" style="fill:url(#linearGradient15226);fill-opacity:1;stroke:none;stroke-width:.60724795;stroke-linejoin:round;stroke-miterlimit:4;stroke-opacity:.35915491"/><path style="opacity:.79807693;fill:url(#linearGradient15228);fill-opacity:1;fill-rule:evenodd;stroke:none;stroke-width:1px;stroke-linecap:butt;stroke-linejoin:miter;stroke-opacity:1" id="path10494" d="M 126.20593,402.77096 C 124.59987,404.82713 123.29191,385.17264 126.71101,380.80014 C 129.85791,376.77575 148.18802,377.32395 146.40899,379.34805 C 144.11551,381.95746 135.92129,379.70973 131.79778,384.46005 C 127.67426,389.21037 127.62145,400.95873 126.20593,402.77096 z M 126.52160,385.53523 C 126.03215,385.83606 127.07541,382.31928 127.84743,381.49462 C 128.92736,380.34106 133.36944,379.47840 133.02446,379.85312 C 132.64543,380.26483 130.01995,380.72734 128.65203,381.94473 C 127.28410,383.16213 127.17373,385.13442 126.52160,385.53523 z"/></g><use id="use1336" x="0" y="0" transform="translate(51.03185,0.000000)" xlink:href="#g15079"/><use id="use1338" x="0" y="0" transform="translate(102.0637,0.000000)" xlink:href="#g15079"/><use id="use1340" x="0" y="0" transform="translate(153.0955,0.000000)" xlink:href="#g15079"/><use id="use1342" x="0" y="0" transform="translate(204.1274,0.000000)" xlink:href="#g15079"/><use id="use1344" x="0" y="0" transform="translate(255.1592,0.000000)" xlink:href="#g15079"/><use id="use1346" x="0" y="0" transform="translate(306.1911,0.000000)" xlink:href="#g15079"/><use id="use1348" x="0" y="0" transform="translate(357.2229,0.000000)" xlink:href="#g15079"/><use id="use1350" x="0" y="0" transform="translate(408.2548,0.000000)" xlink:href="#g15079"/><use id="use1352" x="0" y="0" transform="translate(459.2866,0.000000)" xlink:href="#g15079"/></g></svg>