<svg xmlns="http://www.w3.org/2000/svg" xmlns:cc="http://web.resource.org/cc/" xmlns:svg="http://www.w3.org/2000/svg" xmlns:xlink="http://www.w3.org/1999/xlink" id="svg2" width="704pt" height="704pt" version="1.0"><defs id="defs3"><linearGradient id="linearGradient5641"><stop style="stop-color:black;stop-opacity:.50196081" id="stop5643" offset="0"/><stop style="stop-color:black;stop-opacity:0" id="stop5645" offset="1"/></linearGradient><marker id="Arrow1Lstart" orient="auto" refX="0" refY="0" style="overflow:visible"><path id="path5632" d="M 0,0 L 5,-5 L -12.5,0 L 5,5 L 0,0 z" transform="matrix(0.8,0,0,0.8,10,0)" style="fill-rule:evenodd;stroke:#000;stroke-width:1pt;marker-start:none"/></marker><linearGradient id="linearGradient2778"><stop style="stop-color:#593f17;stop-opacity:1" id="stop2780" offset="0"/><stop style="stop-color:#807e00;stop-opacity:1" id="stop2782" offset="1"/></linearGradient><linearGradient id="linearGradient2784" x1="192.062" x2="489.626" y1="450.304" y2="638.552" gradientUnits="userSpaceOnUse" xlink:href="#linearGradient2778"/><radialGradient id="radialGradient5647" cx="302.932" cy="378.353" r="52.684" fx="302.932" fy="378.353" gradientUnits="userSpaceOnUse" xlink:href="#linearGradient5641"/><radialGradient id="radialGradient5651" cx="302.932" cy="378.353" r="52.684" fx="302.932" fy="378.353" gradientUnits="userSpaceOnUse" xlink:href="#linearGradient5641"/><radialGradient id="radialGradient5655" cx="302.932" cy="378.353" r="52.684" fx="302.932" fy="378.353" gradientUnits="userSpaceOnUse" xlink:href="#linearGradient5641"/><radialGradient id="radialGradient5659" cx="302.932" cy="378.353" r="52.684" fx="302.932" fy="378.353" gradientUnits="userSpaceOnUse" xlink:href="#linearGradient5641"/><linearGradient id="linearGradient6162" x1="237.203" x2="489.626" y1="494.034" y2="638.552" gradientTransform="matrix(2.368194,0,0,2.368194,-380.1966,-687.6202)" gradientUnits="userSpaceOnUse" xlink:href="#linearGradient2778"/></defs><metadata id="metadata6"/><g id="layer1"><g id="g5661" transform="matrix(2.368194,0,0,2.368194,-380.1966,-687.6203)"><path style="opacity:1;fill:url(#radialGradient5647);fill-opacity:1;stroke:none;stroke-width:1;stroke-linecap:round;stroke-linejoin:miter;stroke-miterlimit:4;stroke-dasharray:none;stroke-dashoffset:8.7;stroke-opacity:1" id="path5639" d="M 355.61572 378.35303 A 52.683807 52.683807 0 1 1 250.24811,378.35303 A 52.683807 52.683807 0 1 1 355.61572 378.35303 z" transform="translate(25.19661,45.81201)"/><path style="opacity:1;fill:url(#radialGradient5651);fill-opacity:1;stroke:none;stroke-width:1;stroke-linecap:round;stroke-linejoin:miter;stroke-miterlimit:4;stroke-dasharray:none;stroke-dashoffset:8.7;stroke-opacity:1" id="path5649" d="M 355.61572 378.35303 A 52.683807 52.683807 0 1 1 250.24811,378.35303 A 52.683807 52.683807 0 1 1 355.61572 378.35303 z" transform="translate(78.45307,12.59831)"/><path style="opacity:1;fill:url(#radialGradient5655);fill-opacity:1;stroke:none;stroke-width:1;stroke-linecap:round;stroke-linejoin:miter;stroke-miterlimit:4;stroke-dasharray:none;stroke-dashoffset:8.7;stroke-opacity:1" id="path5653" d="M 355.61572 378.35303 A 52.683807 52.683807 0 1 1 250.24811,378.35303 A 52.683807 52.683807 0 1 1 355.61572 378.35303 z" transform="translate(8.589758,-10.30769)"/><path style="opacity:1;fill:url(#radialGradient5659);fill-opacity:1;stroke:none;stroke-width:1;stroke-linecap:round;stroke-linejoin:miter;stroke-miterlimit:4;stroke-dasharray:none;stroke-dashoffset:8.7;stroke-opacity:1" id="path5657" d="M 355.61572 378.35303 A 52.683807 52.683807 0 1 1 250.24811,378.35303 A 52.683807 52.683807 0 1 1 355.61572 378.35303 z" transform="translate(73.29922,60.70092)"/></g><path style="opacity:1;fill:url(#linearGradient6162);fill-opacity:1;fill-rule:evenodd;stroke:#000;stroke-width:2.3681941;stroke-linecap:round;stroke-linejoin:miter;marker-start:none;marker-mid:none;stroke-miterlimit:4;stroke-dasharray:none;stroke-dashoffset:8.7;stroke-opacity:1" id="path1883" d="M 778.14813,774.67622 C 398.82143,774.67622 475.47581,823.41069 75.826805,823.41069 C 123.32193,823.41069 249.37292,380.12224 425.63132,379.96998 C 601.88973,379.81773 685.83904,774.67622 778.14813,774.67622 z"/></g></svg>