<svg xmlns="http://www.w3.org/2000/svg" xmlns:cc="http://web.resource.org/cc/" xmlns:xlink="http://www.w3.org/1999/xlink" id="svg1" width="708.661" height="708.661" x="0" y="0" version="1.0"><defs id="defs3"><linearGradient id="linearGradient19891"><stop style="stop-color:#fcff00;stop-opacity:1" id="stop19892" offset="0"/><stop style="stop-color:#917e00;stop-opacity:1" id="stop19893" offset="1"/></linearGradient><linearGradient id="linearGradient19255"><stop style="stop-color:#555;stop-opacity:1" id="stop19256" offset="0"/><stop style="stop-color:#000;stop-opacity:0" id="stop19257" offset="1"/></linearGradient><linearGradient id="linearGradient11708"><stop style="stop-color:#5d5d5d;stop-opacity:1" id="stop11709" offset="0"/><stop style="stop-color:#292929;stop-opacity:1" id="stop11710" offset="1"/></linearGradient><linearGradient id="linearGradient6683"><stop style="stop-color:#000;stop-opacity:1" id="stop6684" offset="0"/><stop style="stop-color:#000;stop-opacity:0" id="stop6685" offset="1"/></linearGradient><linearGradient id="linearGradient6048"><stop style="stop-color:#cfcfcf;stop-opacity:1" id="stop6049" offset="0"/><stop style="stop-color:#5d5d5d;stop-opacity:1" id="stop6050" offset="1"/></linearGradient><radialGradient id="radialGradient6052" cx="585.984" cy="470.348" r="52.277" fx="585.984" fy="470.348" gradientTransform="scale(0.719013,1.390795)" gradientUnits="userSpaceOnUse" xlink:href="#linearGradient6048"/><linearGradient id="linearGradient6056" x1="328.518" x2="333.609" y1="445.101" y2="458.295" gradientTransform="matrix(1.233745,0.000000,0.000000,1.755529,-243.4128,-461.5797)" gradientUnits="userSpaceOnUse" xlink:href="#linearGradient6048"/><linearGradient id="linearGradient6682" x1="139.116" x2="156.262" y1="859.616" y2="875.358" gradientTransform="matrix(2.447112,0.000000,0.000000,0.885074,-243.4128,-461.5797)" gradientUnits="userSpaceOnUse" xlink:href="#linearGradient6048"/><linearGradient id="linearGradient6686" x1="176.894" x2="186.851" y1="878.462" y2="890.487" gradientTransform="matrix(2.447112,0.000000,0.000000,0.885074,-243.4128,-461.5797)" gradientUnits="userSpaceOnUse" xlink:href="#linearGradient6048"/><linearGradient id="linearGradient7313" x1="355.224" x2="622.901" y1="311.305" y2="312.835" gradientTransform="matrix(0.776691,0.000000,0.000000,2.788592,-243.4128,-461.5797)" gradientUnits="userSpaceOnUse" xlink:href="#linearGradient6048"/><linearGradient id="linearGradient7939" x1="162.943" x2="332.328" y1="580.002" y2="588.275" gradientTransform="matrix(1.382170,0.000000,0.000000,1.567010,-243.4128,-461.5797)" gradientUnits="userSpaceOnUse" xlink:href="#linearGradient6048"/><linearGradient id="linearGradient8564" x1="217.052" x2="226.18" y1="970.606" y2="938.22" gradientTransform="matrix(2.106406,0.000000,0.000000,1.028232,-243.4128,-461.5797)" gradientUnits="userSpaceOnUse" xlink:href="#linearGradient6048"/><linearGradient id="linearGradient8566" x1="176.894" x2="186.851" y1="878.462" y2="890.487" gradientTransform="matrix(2.447112,0.000000,0.000000,0.885074,-138.5273,-244.9784)" gradientUnits="userSpaceOnUse" xlink:href="#linearGradient6048"/><linearGradient id="linearGradient9815" x1="141.552" x2="191.151" y1="817.927" y2="831.154" gradientTransform="matrix(1.904069,0.000000,0.000000,1.137498,-243.4128,-461.5797)" gradientUnits="userSpaceOnUse" xlink:href="#linearGradient6048"/><linearGradient id="linearGradient9817" x1="139.116" x2="156.262" y1="859.616" y2="875.358" gradientTransform="matrix(2.447112,0.000000,0.000000,0.885074,-210.9924,-455.3770)" gradientUnits="userSpaceOnUse" xlink:href="#linearGradient6048"/><linearGradient id="linearGradient9819" x1="156.275" x2="162.136" y1="928.824" y2="933.098" gradientTransform="matrix(2.447112,0.000000,0.000000,0.885074,-243.4128,-461.5797)" gradientUnits="userSpaceOnUse" xlink:href="#linearGradient6048"/><linearGradient id="linearGradient11082" x1="130.169" x2="357.634" y1="495.551" y2="622.312" gradientTransform="matrix(1.431202,0.000000,0.000000,1.513326,-243.4128,-461.5797)" gradientUnits="userSpaceOnUse" xlink:href="#linearGradient6048"/><linearGradient id="linearGradient11707" x1="449.022" x2="498.87" y1="487.451" y2="610.278" gradientTransform="matrix(1.547230,0.000000,0.000000,1.399840,-243.4128,-461.5797)" gradientUnits="userSpaceOnUse" xlink:href="#linearGradient11708"/><linearGradient id="linearGradient11714" x1="254.382" x2="313.918" y1="734.846" y2="789.951" gradientTransform="matrix(2.586092,0.000000,0.000000,0.837508,-243.4128,-461.5797)" gradientUnits="userSpaceOnUse" xlink:href="#linearGradient6048"/><linearGradient id="linearGradient11718" x1="181.081" x2="242.923" y1="717.418" y2="781.552" gradientTransform="matrix(2.589692,0.000000,0.000000,0.836344,-243.4128,-461.5797)" gradientUnits="userSpaceOnUse" xlink:href="#linearGradient11708"/><linearGradient id="linearGradient12964" x1="177.628" x2="180.963" y1="913.292" y2="920.228" gradientTransform="matrix(2.030149,0.000000,0.000000,1.066855,-243.4128,-461.5797)" gradientUnits="userSpaceOnUse" xlink:href="#linearGradient11708"/><linearGradient id="linearGradient14211" x1="188.757" x2="203.492" y1="836.899" y2="844.195" gradientTransform="matrix(1.828164,0.000000,0.000000,1.184727,-243.4128,-461.5797)" gradientUnits="userSpaceOnUse" xlink:href="#linearGradient6048"/><linearGradient id="linearGradient14215" x1="328.871" x2="340.416" y1="528.679" y2="535.123" gradientTransform="matrix(1.163397,0.000000,0.000000,1.861680,-243.4128,-461.5797)" gradientUnits="userSpaceOnUse" xlink:href="#linearGradient11708"/><linearGradient id="linearGradient14217" x1="215.41" x2="313.975" y1="990.955" y2="1042.776" gradientTransform="matrix(2.447112,0.000000,0.000000,0.885074,-243.4128,-461.5797)" gradientUnits="userSpaceOnUse" xlink:href="#linearGradient6048"/><linearGradient id="linearGradient14235" x1="176.894" x2="186.851" y1="878.462" y2="890.487" gradientTransform="matrix(2.447112,0.000000,0.000000,0.885074,207.3883,-424.3939)" gradientUnits="userSpaceOnUse" xlink:href="#linearGradient6048"/><linearGradient id="linearGradient14237" x1="355.224" x2="622.901" y1="311.305" y2="312.835" gradientTransform="matrix(0.776691,0.000000,0.000000,2.788592,102.5026,-640.9953)" gradientUnits="userSpaceOnUse" xlink:href="#linearGradient6048"/><linearGradient id="linearGradient14247" x1="217.052" x2="226.18" y1="970.606" y2="938.22" gradientTransform="matrix(2.106406,0.000000,0.000000,1.028232,102.5026,-640.9953)" gradientUnits="userSpaceOnUse" xlink:href="#linearGradient6048"/><linearGradient id="linearGradient14251" x1="162.943" x2="332.328" y1="580.002" y2="588.275" gradientTransform="matrix(1.382170,0.000000,0.000000,1.567010,102.5026,-640.9953)" gradientUnits="userSpaceOnUse" xlink:href="#linearGradient6048"/><linearGradient id="linearGradient14874" x1="215.41" x2="313.975" y1="990.955" y2="1042.776" gradientTransform="matrix(2.447112,0.000000,0.000000,0.885074,-265.0692,-488.8545)" gradientUnits="userSpaceOnUse" xlink:href="#linearGradient6048"/><radialGradient id="radialGradient15499" cx="876.84" cy="328.014" r="167.691" fx="876.84" fy="328.014" gradientTransform="scale(0.547099,1.827822)" gradientUnits="userSpaceOnUse" xlink:href="#linearGradient6048"/><radialGradient id="radialGradient15503" cx="974.293" cy="320.047" r="42.668" fx="974.293" fy="320.047" gradientTransform="scale(0.547099,1.827822)" gradientUnits="userSpaceOnUse" xlink:href="#linearGradient6048"/><radialGradient id="radialGradient16750" cx="876.84" cy="328.014" r="167.691" fx="876.84" fy="328.014" gradientTransform="scale(0.547099,1.827822)" gradientUnits="userSpaceOnUse" xlink:href="#linearGradient6048"/><radialGradient id="radialGradient17373" cx="889.968" cy="325.699" r="123.731" fx="889.968" fy="325.699" gradientTransform="scale(0.547099,1.827822)" gradientUnits="userSpaceOnUse" xlink:href="#linearGradient6048"/><linearGradient id="linearGradient17995" x1="950.229" x2="992.74" y1="339.08" y2="366.243" gradientTransform="scale(0.554968,1.801905)" gradientUnits="userSpaceOnUse" xlink:href="#linearGradient6048"/><linearGradient id="linearGradient17999" x1="879.777" x2="907.353" y1="365.684" y2="378.452" gradientTransform="matrix(0.896751,0.132570,-0.349418,2.363591,-104.4107,-572.1006)" gradientUnits="userSpaceOnUse" xlink:href="#linearGradient6048"/><radialGradient id="radialGradient18006" cx="889.968" cy="325.699" r="123.731" fx="889.968" fy="325.699" gradientTransform="scale(0.547099,1.827822)" gradientUnits="userSpaceOnUse" xlink:href="#linearGradient6048"/><radialGradient id="radialGradient18007" cx="876.84" cy="328.014" r="167.691" fx="876.84" fy="328.014" gradientTransform="scale(0.547099,1.827822)" gradientUnits="userSpaceOnUse" xlink:href="#linearGradient6048"/><radialGradient id="radialGradient18008" cx="974.293" cy="320.047" r="42.668" fx="974.293" fy="320.047" gradientTransform="scale(0.547099,1.827822)" gradientUnits="userSpaceOnUse" xlink:href="#linearGradient6048"/><linearGradient id="linearGradient18009" x1="879.777" x2="907.353" y1="365.684" y2="378.452" gradientTransform="matrix(1.034524,0.112267,-0.295907,2.726726,-431.8589,-598.1391)" gradientUnits="userSpaceOnUse" xlink:href="#linearGradient6048"/><linearGradient id="linearGradient18010" x1="950.229" x2="992.74" y1="339.08" y2="366.243" gradientTransform="scale(0.554968,1.801905)" gradientUnits="userSpaceOnUse" xlink:href="#linearGradient6048"/><radialGradient id="radialGradient18011" cx="876.84" cy="328.014" r="167.691" fx="876.84" fy="328.014" gradientTransform="scale(0.547099,1.827822)" gradientUnits="userSpaceOnUse" xlink:href="#linearGradient6048"/><radialGradient id="radialGradient19258" cx="421.105" cy="1002.081" r="118.809" fx="421.105" fy="1002.081" gradientTransform="scale(1.384399,0.722335)" gradientUnits="userSpaceOnUse" xlink:href="#linearGradient19255"/><linearGradient id="linearGradient21772" x1="278.434" x2="254.63" y1="675.683" y2="726.864" gradientTransform="matrix(2.142385,0.000000,0.000000,1.010964,-243.4128,-461.5797)" gradientUnits="userSpaceOnUse" xlink:href="#linearGradient19891"/><linearGradient id="linearGradient21773" x1="366.796" x2="355.54" y1="490.907" y2="536.1" gradientTransform="matrix(1.694095,0.000000,0.000000,1.278483,-243.4128,-461.5797)" gradientUnits="userSpaceOnUse" xlink:href="#linearGradient19891"/><linearGradient id="linearGradient21774" x1="356.591" x2="411.768" y1="500.319" y2="596.463" gradientTransform="matrix(1.824467,0.000000,0.000000,1.187127,-243.4128,-461.5797)" gradientUnits="userSpaceOnUse" xlink:href="#linearGradient19891"/><linearGradient id="linearGradient21775" x1="283.144" x2="310.213" y1="544.044" y2="621.524" gradientTransform="matrix(2.020132,0.000000,0.000000,1.072146,-243.4128,-461.5797)" gradientUnits="userSpaceOnUse" xlink:href="#linearGradient19891"/></defs><metadata id="metadata4"/><g id="layer1"><path style="fill:url(#radialGradient19258);fill-opacity:1;fill-rule:nonzero;stroke:none;stroke-width:3.4942012;stroke-linecap:round;stroke-linejoin:round;stroke-miterlimit:4;stroke-opacity:1" id="path18633" d="M 798.23984 706.50623 A 211.97623 109.76698 0 1 1 374.28738,706.50623 A 211.97623 109.76698 0 1 1 798.23984 706.50623 z" transform="matrix(1.990749,-0.716695,0.803443,1.775805,-1357.935,-397.1520)"/><path style="fill:url(#linearGradient14247);fill-opacity:1;fill-rule:evenodd;stroke:#000;stroke-width:5.5188427;stroke-linecap:round;stroke-linejoin:round;stroke-miterlimit:4;stroke-opacity:1" id="path14220" d="M 592.37318,303.37715 C 612.34752,321.97826 651.79683,322.97697 671.77117,341.57807 L 615.96787,369.29248 L 530.95211,332.58963 L 592.37318,303.37715 z"/><path style="fill:url(#linearGradient14251);fill-opacity:1;fill-rule:evenodd;stroke:#000;stroke-width:5.5188427;stroke-linecap:round;stroke-linejoin:round;stroke-miterlimit:4;stroke-opacity:1" id="path14224" d="M 445.79411,136.68332 L 477.25369,143.23739 L 482.49696,191.92485 L 516.20365,199.41522 L 521.44691,149.22970 L 552.90648,155.22201 L 544.66707,324.50449 C 564.64141,343.10559 605.21428,345.97690 625.18862,364.57800 L 627.81025,418.50872 L 382.12593,358.58572 L 379.87880,321.13383 C 392.61243,311.02183 418.45423,315.14154 442.79795,298.66271 L 445.79411,136.68332 z"/><path style="fill:url(#linearGradient14217);fill-opacity:1;fill-rule:evenodd;stroke:#000;stroke-width:5.5188427;stroke-linecap:butt;stroke-linejoin:round;stroke-miterlimit:4;stroke-opacity:1" id="path14216" d="M 613.15395,388.56995 L 613.28059,411.76999 L 327.57847,562.46629 L 326.67847,538.14273 L 613.15395,388.56995 z"/><path style="fill:url(#linearGradient14237);fill-opacity:1;fill-rule:evenodd;stroke:#000;stroke-width:5.5188427;stroke-linecap:butt;stroke-linejoin:round;stroke-miterlimit:4;stroke-opacity:1" id="path14231" d="M 544.71131,323.87470 L 553.23437,157.24345 L 587.13194,140.29467 L 591.86114,303.76361 L 544.71131,323.87470 z"/><path style="fill:url(#linearGradient14235);fill-opacity:1;fill-rule:evenodd;stroke:#000;stroke-width:5.5188427;stroke-linecap:butt;stroke-linejoin:round;stroke-miterlimit:4;stroke-opacity:1" id="path14233" d="M 671.94510,342.23671 L 673.13103,391.91922 L 627.88982,418.67753 L 625.40086,364.69359 L 671.94510,342.23671 z"/><path style="fill:url(#linearGradient11714);fill-opacity:1;fill-rule:evenodd;stroke:#000;stroke-width:5.5188427;stroke-linecap:round;stroke-linejoin:round;stroke-miterlimit:4;stroke-opacity:1" id="path1061" d="M 72.317342,252.38112 L 335.13221,301.86170 L 679.58305,155.26326 L 393.26894,108.92939 L 72.317342,252.38112 z"/><path style="fill:url(#linearGradient9815);fill-opacity:1;fill-rule:evenodd;stroke:#000;stroke-width:5.5188427;stroke-linecap:round;stroke-linejoin:round;stroke-miterlimit:4;stroke-opacity:1" id="path8569" d="M 33.593696,499.26148 L 81.526982,476.48655 C 87.617954,471.63143 103.50745,470.21903 116.21903,466.42320 L 63.518908,513.56203 L 33.593696,499.26148 z"/><path style="fill:url(#linearGradient11082);fill-opacity:1;fill-rule:evenodd;stroke:#000;stroke-width:5.5188427;stroke-linecap:round;stroke-linejoin:round;stroke-miterlimit:4;stroke-opacity:1" id="path1062" d="M 71.182756,252.74461 C 80.171215,334.38971 91.406765,386.07330 113.12887,451.23958 C 142.43177,539.14824 271.51977,556.83338 297.05983,490.68153 C 315.53608,442.82576 330.26716,415.94304 333.76266,301.42291 L 71.182756,252.74461 z"/><path style="fill:url(#linearGradient14874);fill-opacity:1;fill-rule:evenodd;stroke:#000;stroke-width:5.5188427;stroke-linecap:butt;stroke-linejoin:round;stroke-miterlimit:4;stroke-opacity:1" id="path14873" d="M 578.76398,381.89379 L 612.22280,388.24047 L 323.52452,539.31129 L 307.26925,523.60167 L 578.76398,381.89379 z"/><path style="fill:url(#linearGradient11707);fill-opacity:1;fill-rule:evenodd;stroke:#000;stroke-width:5.5188427;stroke-linecap:round;stroke-linejoin:round;stroke-miterlimit:4;stroke-opacity:1" id="path1063" d="M 335.13221,300.36363 L 277.79777,517.51837 L 604.21847,357.07377 C 663.91690,323.90624 672.68075,226.32145 679.94655,154.20395 L 335.13221,300.36363 z"/><path style="fill:url(#linearGradient8564);fill-opacity:1;fill-rule:evenodd;stroke:#000;stroke-width:5.5188427;stroke-linecap:round;stroke-linejoin:round;stroke-miterlimit:4;stroke-opacity:1" id="path7314" d="M 246.45758,482.79276 C 266.43192,501.39387 305.88123,502.39258 325.85558,520.99369 L 270.05227,548.70809 L 185.03651,512.00524 L 246.45758,482.79276 z"/><path style="fill:url(#linearGradient9817);fill-opacity:1;fill-rule:evenodd;stroke:#000;stroke-width:5.5188427;stroke-linecap:butt;stroke-linejoin:round;stroke-miterlimit:4;stroke-opacity:1" id="path9816" d="M 166.08917,307.74771 L 171.54861,356.93308 L 137.76623,371.92619 L 131.06804,322.54027 L 166.08917,307.74771 z"/><path style="fill:url(#linearGradient6056);fill-opacity:1;fill-rule:evenodd;stroke:#000;stroke-width:5.5188427;stroke-linecap:round;stroke-linejoin:round;stroke-miterlimit:4;stroke-opacity:1" id="path1696" d="M 149.99787,322.75300 L 184.48023,309.38781 C 206.69280,321.37944 183.43347,346.66098 183.17493,363.70863 L 151.49596,377.05824 L 149.99787,322.75300 z"/><path style="fill:url(#linearGradient9819);fill-opacity:1;fill-rule:evenodd;stroke:#000;stroke-width:5.5188427;stroke-linecap:butt;stroke-linejoin:round;stroke-miterlimit:4;stroke-opacity:1" id="path9818" d="M 179.09610,360.37583 L 170.20724,378.94406 L 143.38239,373.65147 L 179.09610,360.37583 z"/><path style="fill:url(#linearGradient7939);fill-opacity:1;fill-rule:evenodd;stroke:#000;stroke-width:5.5188427;stroke-linecap:round;stroke-linejoin:round;stroke-miterlimit:4;stroke-opacity:1" id="path1065" d="M 99.878500,316.09893 L 131.33809,322.65300 L 136.58135,371.34046 L 170.28806,378.83083 L 175.53131,328.64531 L 206.99088,334.63762 L 198.75147,503.92010 C 218.72581,522.52121 259.29868,525.39251 279.27302,543.99361 L 281.89464,597.92434 L 36.210319,538.00133 L 33.963194,500.54944 C 46.696827,490.43744 72.538626,494.55715 96.882343,478.07832 L 99.878500,316.09893 z"/><path style="fill:url(#radialGradient15499);fill-opacity:1;fill-rule:nonzero;stroke:#000;stroke-width:4.0111141;stroke-linecap:round;stroke-linejoin:round;stroke-miterlimit:4;stroke-opacity:1" id="path1068" d="M 574.11111 629.92224 A 16.795803 59.039795 0 1 1 540.51950,629.92224 A 16.795803 59.039795 0 1 1 574.11111 629.92224 z" transform="matrix(1.610214,0.238043,-0.170084,1.150518,-220.0969,-430.1750)"/><path style="fill:none;fill-opacity:.75;fill-rule:evenodd;stroke:#000;stroke-width:3.6792285;stroke-linecap:round;stroke-linejoin:round;stroke-miterlimit:4;stroke-opacity:1" id="path1069" d="M 124.05808,500.93699 L 95.205209,521.51279 L 136.34903,532.88466 L 158.82018,508.91547 L 124.05808,500.93699 z"/><path style="fill:url(#linearGradient12964);fill-opacity:1;fill-rule:evenodd;stroke:#000;stroke-width:3.6792285;stroke-linecap:round;stroke-linejoin:round;stroke-miterlimit:4;stroke-opacity:1" id="path1070" d="M 111.06237,518.42300 L 133.80222,524.21979 L 145.60234,513.06179 L 125.69635,507.81463 L 111.06237,518.42300 z"/><path style="fill:url(#linearGradient14211);fill-opacity:1;fill-rule:evenodd;stroke:#000;stroke-width:3.6792285;stroke-linecap:round;stroke-linejoin:round;stroke-miterlimit:4;stroke-opacity:1" id="path1071" d="M 95.023482,521.56212 L 94.452261,536.35334 L 136.17509,547.35917 L 136.25816,532.62764 L 95.023482,521.56212 z"/><path style="fill:url(#linearGradient14215);fill-opacity:1;fill-rule:evenodd;stroke:#000;stroke-width:3.6792285;stroke-linecap:round;stroke-linejoin:round;stroke-miterlimit:4;stroke-opacity:1" id="path1072" d="M 136.34903,532.80938 L 136.36236,547.33026 L 158.54480,520.55768 L 158.90829,509.02240 L 136.34903,532.80938 z"/><path style="fill:url(#linearGradient11718);fill-opacity:1;fill-rule:evenodd;stroke:#000;stroke-width:5.5188427;stroke-linecap:round;stroke-linejoin:round;stroke-miterlimit:4;stroke-opacity:1" id="path1695" d="M 109.86011,248.79563 L 332.22694,288.53872 L 639.97494,159.16815 L 396.35596,121.07370 L 109.86011,248.79563 z"/><path style="fill:url(#radialGradient6052);fill-opacity:1;fill-rule:nonzero;stroke:#000;stroke-width:11.045709;stroke-linecap:round;stroke-linejoin:round;stroke-miterlimit:4;stroke-opacity:1" id="path1067" d="M 471.30043 698.12341 A 32.064716 67.183212 0 1 1 407.17100,698.12341 A 32.064716 67.183212 0 1 1 471.30043 698.12341 z" transform="matrix(0.618346,0.000000,0.000000,0.403717,-121.1810,68.35786)"/><path style="fill:url(#linearGradient6686);fill-opacity:1;fill-rule:evenodd;stroke:#000;stroke-width:5.5188427;stroke-linecap:butt;stroke-linejoin:round;stroke-miterlimit:4;stroke-opacity:1" id="path4181" d="M 210.28279,314.03927 L 241.43022,319.52854 L 207.38303,334.25682 L 175.79131,327.77252 L 210.28279,314.03927 z"/><path style="fill:url(#linearGradient7313);fill-opacity:1;fill-rule:evenodd;stroke:#000;stroke-width:5.5188427;stroke-linecap:butt;stroke-linejoin:round;stroke-miterlimit:4;stroke-opacity:1" id="path4182" d="M 198.79571,503.29031 L 207.31877,336.65906 L 241.21634,319.71028 L 245.94554,483.17922 L 198.79571,503.29031 z"/><path style="fill:url(#linearGradient6682);fill-opacity:1;fill-rule:evenodd;stroke:#000;stroke-width:5.5188427;stroke-linecap:butt;stroke-linejoin:round;stroke-miterlimit:4;stroke-opacity:1" id="path6057" d="M 134.46313,301.80980 L 165.61058,307.29908 L 131.56337,322.02736 L 99.971664,315.54305 L 134.46313,301.80980 z"/><path style="fill:url(#linearGradient8566);fill-opacity:1;fill-rule:evenodd;stroke:#000;stroke-width:5.5188427;stroke-linecap:butt;stroke-linejoin:round;stroke-miterlimit:4;stroke-opacity:1" id="path8565" d="M 326.02949,521.65232 L 327.21543,571.33483 L 281.97422,598.09314 L 279.48527,544.10920 L 326.02949,521.65232 z"/><path style="fill:none;fill-opacity:.75;fill-rule:evenodd;stroke:#000;stroke-width:3.6792285;stroke-linecap:round;stroke-linejoin:round;stroke-miterlimit:4;stroke-opacity:1" id="path12965" d="M 125.48800,509.19636 L 125.76888,520.24466"/><path style="fill:url(#linearGradient17995);fill-opacity:1;fill-rule:nonzero;stroke:#000;stroke-width:4.0111141;stroke-linecap:round;stroke-linejoin:round;stroke-miterlimit:4;stroke-opacity:1" id="path15500" d="M 574.11111 629.92224 A 16.795803 59.039795 0 1 1 540.51950,629.92224 A 16.795803 59.039795 0 1 1 574.11111 629.92224 z" transform="matrix(1.610214,0.238043,-0.170084,1.150518,-212.8736,-428.7393)"/><path style="fill:url(#linearGradient17999);fill-opacity:1;fill-rule:evenodd;stroke:#000;stroke-width:5.5188427;stroke-linecap:round;stroke-linejoin:round;stroke-miterlimit:4;stroke-opacity:1" id="path15506" d="M 598.27703,393.18860 L 586.16033,390.64018 C 563.35623,392.94781 558.79600,466.47714 573.79500,471.72319 L 587.86080,476.45271 L 598.27703,393.18860 z"/><path style="fill:url(#radialGradient15503);fill-opacity:1;fill-rule:nonzero;stroke:#000;stroke-width:6.5389576;stroke-linecap:round;stroke-linejoin:round;stroke-miterlimit:4;stroke-opacity:1" id="path15502" d="M 574.11111 629.92224 A 16.795803 59.039795 0 1 1 540.51950,629.92224 A 16.795803 59.039795 0 1 1 574.11111 629.92224 z" transform="matrix(0.987734,0.146020,-0.104333,0.705749,110.5845,-91.41637)"/><path style="fill:url(#radialGradient16750);fill-opacity:1;fill-rule:nonzero;stroke:#000;stroke-width:19.887169;stroke-linecap:round;stroke-linejoin:round;stroke-miterlimit:4;stroke-opacity:1" id="path16749" d="M 574.11111 629.92224 A 16.795803 59.039795 0 1 1 540.51950,629.92224 A 16.795803 59.039795 0 1 1 574.11111 629.92224 z" transform="matrix(0.324769,4.801160e-2,-3.430507e-2,0.232053,438.2320,263.1032)"/><path style="fill:url(#radialGradient17373);fill-opacity:1;fill-rule:nonzero;stroke:#000;stroke-width:19.887169;stroke-linecap:round;stroke-linejoin:round;stroke-miterlimit:4;stroke-opacity:1" id="path17372" d="M 574.11111 629.92224 A 16.795803 59.039795 0 1 1 540.51950,629.92224 A 16.795803 59.039795 0 1 1 574.11111 629.92224 z" transform="matrix(0.324769,4.801160e-2,-3.430507e-2,0.232053,441.6360,263.3442)"/><path style="fill:url(#radialGradient18011);fill-opacity:1;fill-rule:nonzero;stroke:#000;stroke-width:3.4942012;stroke-linecap:round;stroke-linejoin:round;stroke-miterlimit:4;stroke-opacity:1" id="path18000" d="M 574.11111 629.92224 A 16.795803 59.039795 0 1 1 540.51950,629.92224 A 16.795803 59.039795 0 1 1 574.11111 629.92224 z" transform="matrix(1.857603,0.201589,-0.144038,1.327280,-558.2606,-430.2055)"/><path style="fill:url(#linearGradient18010);fill-opacity:1;fill-rule:nonzero;stroke:#000;stroke-width:3.4942012;stroke-linecap:round;stroke-linejoin:round;stroke-miterlimit:4;stroke-opacity:1" id="path18001" d="M 574.11111 629.92224 A 16.795803 59.039795 0 1 1 540.51950,629.92224 A 16.795803 59.039795 0 1 1 574.11111 629.92224 z" transform="matrix(1.857603,0.201589,-0.144038,1.327280,-549.9113,-428.8791)"/><path style="fill:url(#linearGradient18009);fill-opacity:1;fill-rule:evenodd;stroke:#000;stroke-width:5.5188427;stroke-linecap:round;stroke-linejoin:round;stroke-miterlimit:4;stroke-opacity:1" id="path18002" d="M 417.01890,477.93434 L 403.00703,475.54884 C 376.95141,479.20797 374.98385,563.75410 392.42168,569.10605 L 408.76611,573.90689 L 417.01890,477.93434 z"/><path style="fill:url(#radialGradient18008);fill-opacity:1;fill-rule:nonzero;stroke:#000;stroke-width:5.696281;stroke-linecap:round;stroke-linejoin:round;stroke-miterlimit:4;stroke-opacity:1" id="path18003" d="M 574.11111 629.92224 A 16.795803 59.039795 0 1 1 540.51950,629.92224 A 16.795803 59.039795 0 1 1 574.11111 629.92224 z" transform="matrix(1.139487,0.123658,-8.835530e-2,0.814178,-163.9093,-56.29975)"/><path style="fill:url(#radialGradient18007);fill-opacity:1;fill-rule:nonzero;stroke:#000;stroke-width:17.324314;stroke-linecap:round;stroke-linejoin:round;stroke-miterlimit:4;stroke-opacity:1" id="path18004" d="M 574.11111 629.92224 A 16.795803 59.039795 0 1 1 540.51950,629.92224 A 16.795803 59.039795 0 1 1 574.11111 629.92224 z" transform="matrix(0.374666,4.065912e-2,-2.905151e-2,0.267704,227.6618,335.8196)"/><path style="fill:url(#radialGradient18006);fill-opacity:1;fill-rule:nonzero;stroke:#000;stroke-width:17.324314;stroke-linecap:round;stroke-linejoin:round;stroke-miterlimit:4;stroke-opacity:1" id="path18005" d="M 574.11111 629.92224 A 16.795803 59.039795 0 1 1 540.51950,629.92224 A 16.795803 59.039795 0 1 1 574.11111 629.92224 z" transform="matrix(0.374666,4.065912e-2,-2.905151e-2,0.267704,231.5771,335.9451)"/><path style="fill:url(#linearGradient21775);fill-opacity:1;fill-rule:nonzero;stroke:#000;stroke-width:5.5188427;stroke-linecap:round;stroke-linejoin:round;stroke-miterlimit:4;stroke-opacity:1" id="path19259" d="M 224.79721,253.50409 C 230.00543,240.61595 214.69775,244.90128 230.54210,226.73266 C 246.38644,208.56404 254.18873,175.35655 273.83794,157.39660 C 293.48712,139.43663 321.80532,176.97756 338.42808,164.71537 C 355.05085,152.45319 348.32593,129.58203 393.22577,105.20220 C 416.59093,92.515334 478.32279,150.04587 510.80796,193.12402 C 457.48991,201.59842 278.11527,245.02970 224.79721,253.50409 z"/><path style="fill:url(#linearGradient21774);fill-opacity:1;fill-rule:nonzero;stroke:#000;stroke-width:5.5188427;stroke-linecap:round;stroke-linejoin:round;stroke-miterlimit:4;stroke-opacity:1" id="path19260" d="M 334.43465,280.51621 C 376.45352,229.66984 479.54482,125.91796 516.10445,117.91379 C 539.21867,112.85328 563.59636,143.69007 588.13679,179.88279 C 532.70014,201.95152 394.10850,267.45152 334.43465,280.51621 z"/><path style="fill:url(#linearGradient21773);fill-opacity:1;fill-rule:nonzero;stroke:#000;stroke-width:5.5188427;stroke-linecap:round;stroke-linejoin:round;stroke-miterlimit:4;stroke-opacity:1" id="path19261" d="M 253.92793,268.86392 C 283.23521,236.02565 321.25533,156.66622 348.73521,159.22647 C 378.10439,161.96272 390.57752,213.25072 418.11929,251.38549 C 328.96162,290.04990 332.49262,286.87200 253.92793,268.86392 z"/><path style="fill:url(#linearGradient21772);fill-opacity:1;fill-rule:nonzero;stroke:#000;stroke-width:5.5188427;stroke-linecap:round;stroke-linejoin:round;stroke-miterlimit:4;stroke-opacity:1" id="path19262" d="M 173.42120,258.80057 C 194.60719,237.61458 221.69625,197.35297 245.98318,198.42052 C 285.96040,200.17776 327.37267,248.56069 370.45082,272.57146 L 333.64018,288.46096 L 173.42120,258.80057 z"/></g></svg>