<svg xmlns="http://www.w3.org/2000/svg" xmlns:cc="http://web.resource.org/cc/" xmlns:xlink="http://www.w3.org/1999/xlink" id="svg14881" width="755.906" height="755.906"><defs id="defs3"><linearGradient id="linearGradient4224"><stop style="stop-color:#fff;stop-opacity:.56470591" id="stop4225" offset="0"/><stop style="stop-color:#fff;stop-opacity:0" id="stop4226" offset="1"/></linearGradient><linearGradient id="linearGradient3071"><stop style="stop-color:red;stop-opacity:1" id="stop3072" offset="0"/><stop style="stop-color:#fff;stop-opacity:1" id="stop3073" offset="1"/></linearGradient><linearGradient id="linearGradient1818"><stop style="stop-color:#787878;stop-opacity:1" id="stop1819" offset="0"/><stop style="stop-color:#e5e5e5;stop-opacity:1" id="stop1820" offset="1"/></linearGradient><linearGradient id="linearGradient22986"><stop style="stop-color:#15a329;stop-opacity:1" id="stop22987" offset="0"/><stop style="stop-color:#0a5314;stop-opacity:1" id="stop22988" offset="1"/></linearGradient><radialGradient id="radialGradient3598" cx="276.82" cy="382.394" r="407.43" fx="276.82" fy="382.394" gradientTransform="matrix(1.396796,0.000000,0.000000,0.715924,0.000000,39.37209)" gradientUnits="userSpaceOnUse" xlink:href="#linearGradient22986"/><radialGradient id="radialGradient3599" cx="276.82" cy="382.394" r="407.43" fx="276.82" fy="382.394" gradientTransform="matrix(1.396796,0.000000,0.000000,0.715924,0.000000,39.37209)" gradientUnits="userSpaceOnUse" xlink:href="#linearGradient22986"/><radialGradient id="radialGradient3600" cx="276.82" cy="382.394" r="407.43" fx="276.82" fy="382.394" gradientTransform="matrix(1.396796,0.000000,0.000000,0.715924,0.000000,39.37209)" gradientUnits="userSpaceOnUse" xlink:href="#linearGradient22986"/><linearGradient id="linearGradient4227" x1="269.543" x2="93.74" y1="271.193" y2="185.102" gradientTransform="scale(1.080899,0.925156)" gradientUnits="userSpaceOnUse" xlink:href="#linearGradient4224"/><linearGradient id="linearGradient4229" x1="417.926" x2="186.372" y1="705.744" y2="616.89" gradientTransform="scale(1.080899,0.925156)" gradientUnits="userSpaceOnUse" xlink:href="#linearGradient4224"/><linearGradient id="linearGradient4852" x1="831.085" x2="172.962" y1="468.022" y2="162.828" gradientTransform="scale(1.080899,0.925156)" gradientUnits="userSpaceOnUse" xlink:href="#linearGradient4224"/></defs><metadata id="metadata4"/><g id="layer1"><path style="fill:url(#radialGradient3600);fill-opacity:1;fill-rule:evenodd;stroke:#235802;stroke-width:3.75;stroke-linecap:butt;stroke-linejoin:round;stroke-miterlimit:4;stroke-opacity:1" id="path2341" d="M 162.96814,413.13144 C 152.00075,317.79960 210.91113,205.57006 353.48704,199.66455 L 345.93663,281.51713 C 378.83877,254.80172 425.66618,182.96224 437.06780,144.58056 C 428.51246,106.37773 383.33821,43.963587 347.62393,11.623881 L 353.73414,81.801407 C 121.55404,85.175986 19.472052,290.46081 44.653202,434.63923 L 95.868419,391.48618 L 162.96814,413.13144 z"/><path style="fill:url(#radialGradient3599);fill-opacity:1;fill-rule:evenodd;stroke:#235802;stroke-width:3.75;stroke-linecap:butt;stroke-linejoin:round;stroke-miterlimit:4;stroke-opacity:1" id="path2969" d="M 427.72470,218.89809 C 514.85720,259.10220 580.08709,367.78046 510.99259,492.63523 L 445.00282,443.62295 C 450.71335,485.61882 487.72637,562.97355 514.58202,592.67077 C 551.66243,605.22834 628.46506,599.09694 674.65990,585.40742 L 611.53915,554.13459 C 729.38925,354.05875 607.12347,160.11633 470.87663,106.65317 L 481.10496,172.83901 L 427.72470,218.89809 z"/><path style="fill:url(#radialGradient3598);fill-opacity:1;fill-rule:evenodd;stroke:#235802;stroke-width:3.75;stroke-linecap:butt;stroke-linejoin:round;stroke-miterlimit:4;stroke-opacity:1" id="path2970" d="M 465.78981,539.13891 C 389.31312,597.10234 262.72424,603.51771 185.07114,483.79820 L 259.37065,448.63519 C 219.62788,433.91184 133.95576,430.16972 95.114563,439.89143 C 66.585241,466.70052 35.854159,537.35347 26.195263,584.55593 L 83.492082,543.57672 C 204.57430,741.71324 433.23651,725.09453 544.52431,630.03384 L 481.31130,607.91371 L 465.78981,539.13891 z"/><path style="fill:url(#linearGradient4227);fill-opacity:1;fill-rule:evenodd;stroke:none;stroke-width:.25pt;stroke-linecap:butt;stroke-linejoin:miter;stroke-opacity:1" id="path3602" d="M 125.27481,226.05507 C 117.64899,236.81790 141.38503,318.45553 167.03309,279.74427 C 200.44914,229.30859 264.13010,188.26733 302.44920,181.91060 C 318.20256,179.29728 339.46500,129.29613 275.00805,123.44902 C 220.47862,118.50247 150.47148,190.49331 125.27481,226.05507 z"/><path style="fill:url(#linearGradient4229);fill-opacity:1;fill-rule:evenodd;stroke:none;stroke-width:.25pt;stroke-linecap:butt;stroke-linejoin:miter;stroke-opacity:1" id="path4228" d="M 246.45505,577.05698 C 237.74409,573.15928 191.79133,621.31117 235.90738,635.80804 C 292.94547,654.55121 353.65739,668.78514 392.41460,666.20834 C 457.09934,661.90773 436.17956,595.87734 411.37389,599.31031 C 357.13750,606.81634 268.79252,587.05184 246.45505,577.05698 z"/><path style="fill:url(#linearGradient4852);fill-opacity:1;fill-rule:evenodd;stroke:none;stroke-width:.25pt;stroke-linecap:butt;stroke-linejoin:miter;stroke-opacity:1" id="path4851" d="M 557.15408,419.65467 C 538.49500,473.75770 615.02257,437.48679 620.98459,408.91683 C 633.34381,349.69149 601.09359,268.72507 588.77107,243.07683 C 550.34840,163.10343 504.04237,238.69634 514.79927,257.99050 C 543.98727,310.34369 577.49622,360.67154 557.15408,419.65467 z"/></g></svg>