<svg xmlns="http://www.w3.org/2000/svg" xmlns:cc="http://web.resource.org/cc/" xmlns:xlink="http://www.w3.org/1999/xlink" id="svg1" width="755.906" height="755.906"><defs id="defs3"><linearGradient id="linearGradient7389"><stop style="stop-color:#d10000;stop-opacity:1" id="stop7390" offset="0"/><stop style="stop-color:#f6ff00;stop-opacity:1" id="stop7391" offset="1"/></linearGradient><linearGradient id="linearGradient6140"><stop style="stop-color:#ebf907;stop-opacity:1" id="stop6141" offset="0"/><stop style="stop-color:#c2c94b;stop-opacity:1" id="stop6142" offset="1"/></linearGradient><linearGradient id="linearGradient3638"><stop style="stop-color:#483100;stop-opacity:1" id="stop3639" offset="0"/><stop style="stop-color:#929d13;stop-opacity:1" id="stop3640" offset="1"/></linearGradient><linearGradient id="linearGradient3008"><stop style="stop-color:#d3d795;stop-opacity:1" id="stop3009" offset="0"/><stop style="stop-color:#c2c94b;stop-opacity:1" id="stop3010" offset="1"/></linearGradient><linearGradient id="linearGradient1761"><stop style="stop-color:#000;stop-opacity:.8392157" id="stop1762" offset="0"/><stop style="stop-color:#000;stop-opacity:0" id="stop1763" offset="1"/></linearGradient><linearGradient id="linearGradient12301"><stop style="stop-color:#0500a6;stop-opacity:1" id="stop12302" offset="0"/><stop style="stop-color:#030055;stop-opacity:1" id="stop12303" offset="1"/></linearGradient><linearGradient id="linearGradient4824"><stop style="stop-color:#5e5e5e;stop-opacity:1" id="stop4825" offset="0"/><stop style="stop-color:#414141;stop-opacity:1" id="stop4828" offset=".5"/><stop style="stop-color:#bfbfbf;stop-opacity:1" id="stop4826" offset="1"/></linearGradient><linearGradient id="linearGradient2938"><stop style="stop-color:#5a5a5a;stop-opacity:1" id="stop2939" offset="0"/><stop style="stop-color:#3f3f3f;stop-opacity:1" id="stop2940" offset="1"/></linearGradient><linearGradient id="linearGradient1685"><stop style="stop-color:#404040;stop-opacity:1" id="stop1686" offset="0"/><stop style="stop-color:#aaa;stop-opacity:1" id="stop1687" offset="1"/></linearGradient><linearGradient id="linearGradient1688" x1="190.945" x2="594.038" y1="371.952" y2="371.952" gradientTransform="matrix(1.308814,0.000000,0.000000,1.466566,-164.4577,-160.4523)" gradientUnits="userSpaceOnUse" xlink:href="#linearGradient1685"/><linearGradient id="linearGradient2316" x1="71.359" x2="276.744" y1="219.389" y2="219.389" gradientTransform="scale(1.844320,0.542205)" gradientUnits="userSpaceOnUse" xlink:href="#linearGradient2938"/><linearGradient id="linearGradient4827" x1="1584.747" x2="1348.137" y1="149.398" y2="140.486" gradientTransform="matrix(0.543387,0.000000,0.000000,3.532402,-162.1199,-161.6210)" gradientUnits="userSpaceOnUse" xlink:href="#linearGradient4824"/><linearGradient id="linearGradient5453" x1="1254.581" x2="893.713" y1="172.147" y2="165.385" gradientTransform="matrix(0.618472,0.000000,0.000000,3.069525,-165.6264,-163.6399)" gradientUnits="userSpaceOnUse" xlink:href="#linearGradient4824"/><linearGradient id="linearGradient5455" x1="941.452" x2="739.104" y1="188.388" y2="175.253" gradientTransform="matrix(0.655349,0.000000,0.000000,2.907507,-166.7952,-161.3573)" gradientUnits="userSpaceOnUse" xlink:href="#linearGradient4824"/><linearGradient id="linearGradient5457" x1="921.967" x2="555.712" y1="178.906" y2="169.89" gradientTransform="matrix(0.618472,0.000000,0.000000,3.086540,-169.1328,-162.0653)" gradientUnits="userSpaceOnUse" xlink:href="#linearGradient4824"/><linearGradient id="linearGradient5459" x1="1004.998" x2="406.393" y1="191.742" y2="189.674" gradientTransform="matrix(0.567549,0.000000,0.000000,3.382016,-167.9641,-161.6210)" gradientUnits="userSpaceOnUse" xlink:href="#linearGradient4824"/><linearGradient id="linearGradient5463" x1="769.519" x2="337.707" y1="169.038" y2="170.028" gradientTransform="matrix(0.543387,0.000000,0.000000,3.532402,-164.4575,-160.4522)" gradientUnits="userSpaceOnUse" xlink:href="#linearGradient4824"/><linearGradient id="linearGradient5464" x1="1407.272" x2="1143.666" y1="174.164" y2="170.027" gradientTransform="matrix(0.567549,0.000000,0.000000,3.382015,-163.2888,-165.1275)" gradientUnits="userSpaceOnUse" xlink:href="#linearGradient4824"/><linearGradient id="linearGradient12304" x1="284.807" x2="223.81" y1="187.382" y2="269.059" gradientTransform="matrix(1.707692,0.000000,0.000000,1.124011,-164.4577,-160.4523)" gradientUnits="userSpaceOnUse" xlink:href="#linearGradient12301"/><linearGradient id="linearGradient12305" x1="284.807" x2="223.81" y1="187.382" y2="269.059" gradientTransform="matrix(1.707692,0.000000,0.000000,1.124011,-164.4577,-160.4523)" gradientUnits="userSpaceOnUse" xlink:href="#linearGradient12301"/><linearGradient id="linearGradient12306" x1="284.807" x2="223.81" y1="187.382" y2="269.059" gradientTransform="matrix(1.707692,0.000000,0.000000,1.124011,-164.4577,-160.4523)" gradientUnits="userSpaceOnUse" xlink:href="#linearGradient12301"/><radialGradient id="radialGradient1764" cx="201.939" cy="1064.955" r="194.701" fx="201.939" fy="1064.955" gradientTransform="scale(1.748376,0.571959)" gradientUnits="userSpaceOnUse" xlink:href="#linearGradient1761"/><radialGradient id="radialGradient3013" cx="461.415" cy="188.565" r="169.276" fx="461.415" fy="188.565" gradientTransform="scale(0.803400,1.244709)" gradientUnits="userSpaceOnUse" xlink:href="#linearGradient3008"/><radialGradient id="radialGradient3015" cx="562.833" cy="144.257" r="57.264" fx="562.833" fy="144.257" gradientTransform="scale(0.803400,1.244709)" gradientUnits="userSpaceOnUse" xlink:href="#linearGradient6140"/><radialGradient id="radialGradient3642" cx="471.37" cy="151.217" r="22.657" fx="471.37" fy="151.217" gradientTransform="scale(0.711928,1.404636)" gradientUnits="userSpaceOnUse" xlink:href="#linearGradient3638"/><radialGradient id="radialGradient3644" cx="463.855" cy="211.086" r="27.403" fx="463.855" fy="211.086" gradientTransform="scale(0.711928,1.404636)" gradientUnits="userSpaceOnUse" xlink:href="#linearGradient3638"/><radialGradient id="radialGradient5516" cx="463.855" cy="211.086" r="27.403" fx="463.855" fy="211.086" gradientTransform="matrix(0.711928,0.000000,0.000000,1.404636,101.3214,-101.1692)" gradientUnits="userSpaceOnUse" xlink:href="#linearGradient3638"/><radialGradient id="radialGradient5518" cx="463.855" cy="211.086" r="27.403" fx="463.855" fy="211.086" gradientTransform="matrix(0.711928,0.000000,0.000000,1.404636,80.28517,-148.1324)" gradientUnits="userSpaceOnUse" xlink:href="#linearGradient3638"/><linearGradient id="linearGradient8654" x1="950.968" x2="906.224" y1="30.577" y2="30.277" gradientTransform="scale(0.677728,1.475518)" gradientUnits="userSpaceOnUse" xlink:href="#linearGradient3008"/><linearGradient id="linearGradient8655" x1="316.788" x2="327.978" y1="19.141" y2="29.718" gradientTransform="matrix(2.430949,7.537932e-17,-4.733246e-17,0.806214,-155.9275,-5.865742)" gradientUnits="userSpaceOnUse" xlink:href="#linearGradient7389"/><linearGradient id="linearGradient8656" x1="430.74" x2="449.596" y1="102.153" y2="113.164" gradientTransform="scale(1.447084,0.691045)" gradientUnits="userSpaceOnUse" xlink:href="#linearGradient7389"/><linearGradient id="linearGradient9282" x1="714.628" x2="710.52" y1="34.296" y2="26.153" gradientTransform="scale(0.627873,1.592678)" gradientUnits="userSpaceOnUse" xlink:href="#linearGradient3638"/></defs><metadata id="metadata4"/><g id="layer1"><path style="fill:url(#radialGradient1764);fill-opacity:1;fill-rule:nonzero;stroke:none;stroke-width:1.25;stroke-linecap:round;stroke-linejoin:round;stroke-miterlimit:4;stroke-opacity:.7845118" id="path1135" d="M 693.47577 609.11133 A 340.41055 111.36108 0 1 1 12.654663,609.11133 A 340.41055 111.36108 0 1 1 693.47577 609.11133 z" transform="matrix(1.013641,0.000000,0.000000,1.115872,-6.078129,-88.54401)"/><path style="fill:url(#linearGradient1688);fill-opacity:1;fill-rule:evenodd;stroke:#000;stroke-width:5.1954236;stroke-linecap:round;stroke-linejoin:round;stroke-miterlimit:4;stroke-opacity:1" id="path1061" d="M 86.839594,89.676143 L 85.670761,589.93286 C 117.22902,684.21800 550.86276,689.67252 615.14810,595.77697 L 612.81045,94.351417 L 86.839594,89.676143 z"/><path style="fill:url(#linearGradient2316);fill-opacity:1;fill-rule:nonzero;stroke:#000;stroke-width:3.75;stroke-linecap:round;stroke-linejoin:round;stroke-miterlimit:4;stroke-opacity:1" id="path1691" d="M 510.40494 118.95387 A 189.39819 55.680538 0 1 1 131.60855,118.95387 A 189.39819 55.680538 0 1 1 510.40494 118.95387 z" transform="matrix(1.385447,0.000000,0.000000,1.385447,-94.32811,-75.12806)"/><path style="fill:url(#linearGradient9282);fill-opacity:1;fill-rule:evenodd;stroke:#000;stroke-width:.25pt;stroke-linecap:butt;stroke-linejoin:miter;stroke-opacity:1" id="path8657" d="M 452.02604,64.759593 C 456.11340,59.105569 458.48570,46.330269 458.17353,37.917217 C 460.02701,37.788306 461.65679,38.330510 462.39175,38.760861 C 462.86378,46.296152 458.45158,61.027288 452.02604,64.759593 z"/><g id="g8650" transform="matrix(0.991041,0.626658,-0.636589,0.975580,-158.9094,-343.1738)"><path style="fill:url(#linearGradient8654);fill-opacity:1;fill-rule:evenodd;stroke:#000;stroke-width:.25pt;stroke-linecap:butt;stroke-linejoin:miter;stroke-opacity:1" id="path6765" d="M 612.95178,12.491326 C 627.46775,28.995785 624.38560,53.851894 610.86387,69.163264 C 619.71265,69.660384 628.56142,70.157514 637.41020,70.654634 C 627.07006,59.519094 622.99365,34.066433 636.81365,13.982693 C 633.03552,13.783844 617.12761,12.789599 612.95178,12.491326 z"/><path style="fill:url(#linearGradient8655);fill-opacity:1;fill-rule:evenodd;stroke:#000;stroke-width:.34998791pt;stroke-linecap:butt;stroke-linejoin:miter;stroke-opacity:1" id="path6766" d="M 607.99053,14.456749 C 609.44159,9.7203420 614.05860,4.9839350 626.45858,9.5000443 C 636.70395,6.4158720 643.51955,14.732123 645.45430,19.743901 C 642.02451,17.045252 637.40750,15.172717 632.39474,18.091666 C 629.09687,15.503164 620.78625,13.575556 614.58626,17.761217 C 614.23449,14.346599 610.45294,13.410333 607.99053,14.456749 z"/><path style="fill:url(#linearGradient8656);fill-opacity:1;fill-rule:evenodd;stroke:#000;stroke-width:.25pt;stroke-linecap:butt;stroke-linejoin:miter;stroke-opacity:1" id="path6767" d="M 623.98056,63.695159 C 628.69091,67.983685 632.76852,73.959500 642.01346,68.229748 C 639.30677,73.607981 628.48000,81.728060 622.82055,77.720748 C 615.86048,80.005619 609.21678,68.686722 607.84586,62.640603 C 613.64592,64.292740 619.86779,66.366700 623.98056,63.695159 z"/></g><rect style="fill:url(#linearGradient4827);fill-opacity:1;fill-rule:nonzero;stroke:none;stroke-width:3.75;stroke-linecap:round;stroke-linejoin:round;stroke-miterlimit:4;stroke-opacity:1" id="rect4202" width="51.428" height="461.685" x="554.369" y="138.767" rx="19.404" ry="19.404"/><rect style="fill:url(#linearGradient5464);fill-opacity:1;fill-rule:nonzero;stroke:none;stroke-width:3.75;stroke-linecap:round;stroke-linejoin:round;stroke-miterlimit:4;stroke-opacity:1" id="rect5450" width="56.104" height="461.685" x="488.915" y="168.572" rx="19.404" ry="19.404"/><rect style="fill:url(#linearGradient5453);fill-opacity:1;fill-rule:nonzero;stroke:none;stroke-width:3.75;stroke-linecap:round;stroke-linejoin:round;stroke-miterlimit:4;stroke-opacity:1" id="rect5452" width="66.623" height="456.624" x="407.097" y="181.429" rx="19.404" ry="19.404"/><rect style="fill:url(#linearGradient5455);fill-opacity:1;fill-rule:nonzero;stroke:none;stroke-width:3.75;stroke-linecap:round;stroke-linejoin:round;stroke-miterlimit:4;stroke-opacity:1" id="rect5454" width="74.805" height="458.311" x="314.176" y="191.948" rx="19.404" ry="19.404"/><rect style="fill:url(#linearGradient5457);fill-opacity:1;fill-rule:nonzero;stroke:none;stroke-width:3.75;stroke-linecap:round;stroke-linejoin:round;stroke-miterlimit:4;stroke-opacity:1" id="rect5456" width="66.623" height="459.155" x="231.189" y="181.429" rx="19.404" ry="19.404"/><rect style="fill:url(#linearGradient5459);fill-opacity:1;fill-rule:nonzero;stroke:none;stroke-width:3.75;stroke-linecap:round;stroke-linejoin:round;stroke-miterlimit:4;stroke-opacity:1" id="rect5458" width="56.104" height="461.685" x="159.307" y="168.572" rx="19.404" ry="19.404"/><rect style="fill:url(#linearGradient5463);fill-opacity:1;fill-rule:nonzero;stroke:none;stroke-width:3.75;stroke-linecap:round;stroke-linejoin:round;stroke-miterlimit:4;stroke-opacity:1" id="rect5462" width="51.428" height="461.685" x="96.19" y="142.858" rx="19.404" ry="19.404"/><path style="fill:url(#linearGradient12304);fill-opacity:1;fill-rule:evenodd;stroke:#000;stroke-width:3.4636157;stroke-linecap:round;stroke-linejoin:round;stroke-miterlimit:4;stroke-opacity:1" id="path10435" d="M 142.94314,88.507303 L 160.47550,142.27321 C 204.30641,155.61728 247.55290,161.65621 290.79939,164.77308 L 263.33203,68.637292 L 142.94314,88.507303 z"/><path style="fill:url(#linearGradient12305);fill-opacity:1;fill-rule:evenodd;stroke:#000;stroke-width:3.4636157;stroke-linecap:round;stroke-linejoin:round;stroke-miterlimit:4;stroke-opacity:1" id="path10436" d="M 143.23534,87.922902 L 176.25464,50.228308 L 295.47469,29.481682 L 263.62424,68.637292 L 143.23534,87.922902 z"/><path style="fill:url(#linearGradient12306);fill-opacity:1;fill-rule:evenodd;stroke:#000;stroke-width:3.4636157;stroke-linecap:round;stroke-linejoin:round;stroke-miterlimit:4;stroke-opacity:1" id="path10437" d="M 295.76690,29.773895 L 339.30558,166.23411 C 324.50048,167.69514 307.06553,166.81853 290.50718,163.89647 L 263.33201,68.929494 L 295.76690,29.773895 z"/><g id="g16076" transform="matrix(0.735169,-0.114814,0.114814,0.735169,-18.46538,-14.85420)"><rect style="fill:#fff;fill-opacity:1;fill-rule:nonzero;stroke:none;stroke-width:2.5;stroke-linecap:round;stroke-linejoin:round;stroke-miterlimit:4;stroke-opacity:1" id="rect12307" width="110.728" height="39.862" x="221.457" y="179.907" rx="15.273" ry="26.078"/><rect style="fill:#00074a;fill-opacity:1;fill-rule:nonzero;stroke:none;stroke-width:2.5;stroke-linecap:round;stroke-linejoin:round;stroke-miterlimit:4;stroke-opacity:1" id="rect12929" width="103.909" height="34.168" x="224.515" y="182.965" rx="13.757" ry="26.078"/><rect style="fill:#fff;fill-opacity:1;fill-rule:nonzero;stroke:none;stroke-width:2.5;stroke-linecap:round;stroke-linejoin:round;stroke-miterlimit:4;stroke-opacity:1" id="rect13551" width="96.996" height="28.262" x="228.1" y="186.129" rx="10.973" ry="26.078"/><path id="path13552" d="M 241.89643,190.97229 L 241.97551,209.90156 L 257.24021,209.82247 L 257.08202,201.28057 L 254.47200,199.30328 L 256.37020,197.82690 L 256.42293,192.71230 L 255.07837,191.02502 L 241.89643,190.97229 z M 245.90374,198.14327 L 251.20288,198.06417 L 252.78471,196.71961 L 252.74517,194.70278 L 251.59834,193.31868 L 245.85101,193.31868 L 245.90374,198.14327 z M 245.90374,201.38602 L 245.93010,207.68700 L 253.25926,207.52881 L 253.12744,201.91330 L 252.09925,201.30693 L 245.90374,201.38602 z" style="fill:#00074a;fill-opacity:1;fill-rule:evenodd;stroke:#00074a;stroke-width:1.25;stroke-linecap:round;stroke-linejoin:round;stroke-miterlimit:4;stroke-opacity:.7845118"/><path id="path16070" d="M 260.39615,190.97229 L 260.47523,209.90156 L 264.42323,209.88179 L 264.41664,201.42557 L 270.59568,201.33660 L 271.78699,202.10939 L 271.92376,209.84224 L 275.73993,209.82247 L 275.58174,201.28057 L 272.97172,199.30328 L 274.86992,197.82690 L 274.92265,192.71230 L 273.57809,191.02502 L 260.39615,190.97229 z M 264.40346,198.14327 L 269.70260,198.06417 L 271.28443,196.71961 L 271.24489,194.70278 L 270.09806,193.31868 L 264.35073,193.31868 L 264.40346,198.14327 z" style="fill:#00074a;fill-opacity:1;fill-rule:evenodd;stroke:#00074a;stroke-width:1.25;stroke-linecap:round;stroke-linejoin:round;stroke-miterlimit:4;stroke-opacity:.7845118"/><path id="path16073" d="M 278.74542,190.97229 L 278.82450,209.90156 L 282.77250,209.88179 L 282.70000,190.97229 L 278.74542,190.97229 z" style="fill:#00074a;fill-opacity:1;fill-rule:evenodd;stroke:#00074a;stroke-width:1.25;stroke-linecap:round;stroke-linejoin:round;stroke-miterlimit:4;stroke-opacity:.7845118"/><path id="path16074" d="M 286.24923,190.97229 L 286.32831,209.90156 L 299.18731,209.93452 L 299.15105,206.46437 L 290.16920,206.50886 L 290.20381,190.97229 L 286.24923,190.97229 z" style="fill:#00074a;fill-opacity:1;fill-rule:evenodd;stroke:#00074a;stroke-width:1.25;stroke-linecap:round;stroke-linejoin:round;stroke-miterlimit:4;stroke-opacity:.7845118"/><path id="path16075" d="M 301.83029,190.97229 L 301.90937,209.90156 L 314.76837,209.93452 L 314.73211,206.46437 L 305.75026,206.50886 L 305.78487,190.97229 L 301.83029,190.97229 z" style="fill:#00074a;fill-opacity:1;fill-rule:evenodd;stroke:#00074a;stroke-width:1.25;stroke-linecap:round;stroke-linejoin:round;stroke-miterlimit:4;stroke-opacity:.7845118"/></g><g id="g16085" transform="matrix(0.246248,-0.318182,0.169016,0.463572,184.4540,65.37848)"><rect style="fill:#fff;fill-opacity:1;fill-rule:nonzero;stroke:none;stroke-width:2.5;stroke-linecap:round;stroke-linejoin:round;stroke-miterlimit:4;stroke-opacity:1" id="rect16086" width="110.728" height="39.862" x="221.457" y="179.907" rx="64.967" ry="34.51"/><rect style="fill:#00074a;fill-opacity:1;fill-rule:nonzero;stroke:none;stroke-width:2.5;stroke-linecap:round;stroke-linejoin:round;stroke-miterlimit:4;stroke-opacity:1" id="rect16087" width="103.909" height="34.168" x="224.515" y="182.965" rx="50.138" ry="34.51"/><rect style="fill:#fff;fill-opacity:1;fill-rule:nonzero;stroke:none;stroke-width:2.5;stroke-linecap:round;stroke-linejoin:round;stroke-miterlimit:4;stroke-opacity:1" id="rect16088" width="96.996" height="28.262" x="228.1" y="186.129" rx="42.37" ry="34.51"/><path id="path16089" d="M 241.89643,190.97229 L 241.97551,209.90156 L 257.24021,209.82247 L 257.08202,201.28057 L 254.47200,199.30328 L 256.37020,197.82690 L 256.42293,192.71230 L 255.07837,191.02502 L 241.89643,190.97229 z M 245.90374,198.14327 L 251.20288,198.06417 L 252.78471,196.71961 L 252.74517,194.70278 L 251.59834,193.31868 L 245.85101,193.31868 L 245.90374,198.14327 z M 245.90374,201.38602 L 245.93010,207.68700 L 253.25926,207.52881 L 253.12744,201.91330 L 252.09925,201.30693 L 245.90374,201.38602 z" style="fill:#00074a;fill-opacity:1;fill-rule:evenodd;stroke:#00074a;stroke-width:1.25;stroke-linecap:round;stroke-linejoin:round;stroke-miterlimit:4;stroke-opacity:.7845118"/><path id="path16090" d="M 260.39615,190.97229 L 260.47523,209.90156 L 264.42323,209.88179 L 264.41664,201.42557 L 270.59568,201.33660 L 271.78699,202.10939 L 271.92376,209.84224 L 275.73993,209.82247 L 275.58174,201.28057 L 272.97172,199.30328 L 274.86992,197.82690 L 274.92265,192.71230 L 273.57809,191.02502 L 260.39615,190.97229 z M 264.40346,198.14327 L 269.70260,198.06417 L 271.28443,196.71961 L 271.24489,194.70278 L 270.09806,193.31868 L 264.35073,193.31868 L 264.40346,198.14327 z" style="fill:#00074a;fill-opacity:1;fill-rule:evenodd;stroke:#00074a;stroke-width:1.25;stroke-linecap:round;stroke-linejoin:round;stroke-miterlimit:4;stroke-opacity:.7845118"/><path id="path16091" d="M 278.74542,190.97229 L 278.82450,209.90156 L 282.77250,209.88179 L 282.70000,190.97229 L 278.74542,190.97229 z" style="fill:#00074a;fill-opacity:1;fill-rule:evenodd;stroke:#00074a;stroke-width:1.25;stroke-linecap:round;stroke-linejoin:round;stroke-miterlimit:4;stroke-opacity:.7845118"/><path id="path16092" d="M 286.24923,190.97229 L 286.32831,209.90156 L 299.18731,209.93452 L 299.15105,206.46437 L 290.16920,206.50886 L 290.20381,190.97229 L 286.24923,190.97229 z" style="fill:#00074a;fill-opacity:1;fill-rule:evenodd;stroke:#00074a;stroke-width:1.25;stroke-linecap:round;stroke-linejoin:round;stroke-miterlimit:4;stroke-opacity:.7845118"/><path id="path16093" d="M 301.83029,190.97229 L 301.90937,209.90156 L 314.76837,209.93452 L 314.73211,206.46437 L 305.75026,206.50886 L 305.78487,190.97229 L 301.83029,190.97229 z" style="fill:#00074a;fill-opacity:1;fill-rule:evenodd;stroke:#00074a;stroke-width:1.25;stroke-linecap:round;stroke-linejoin:round;stroke-miterlimit:4;stroke-opacity:.7845118"/></g><path style="fill:#fff;fill-opacity:1;fill-rule:evenodd;stroke:none;stroke-width:.25pt;stroke-linecap:butt;stroke-linejoin:miter;stroke-opacity:1" id="path16103" d="M 165.78876,132.73791 L 168.19086,142.68354 L 176.71208,145.25383 L 185.21125,147.38472 L 190.90566,143.24998 L 191.70232,148.84336 L 201.28471,150.87397 L 197.74324,127.70599 L 190.87351,128.75318 L 183.47702,140.07921 L 172.94465,131.58390 L 165.78876,132.73791 z"/><path style="fill:#fff;fill-opacity:1;fill-rule:evenodd;stroke:none;stroke-width:.25pt;stroke-linecap:butt;stroke-linejoin:miter;stroke-opacity:1" id="path16104" d="M 201.86572,126.79845 L 205.84873,151.86403 L 215.04842,153.68422 L 210.63744,125.50519 L 201.86572,126.79845 z"/><path style="fill:#fff;fill-opacity:1;fill-rule:evenodd;stroke:none;stroke-width:.25pt;stroke-linecap:butt;stroke-linejoin:miter;stroke-opacity:1" id="path16105" d="M 214.96030,124.68668 L 220.60443,154.71110 L 228.98350,156.13956 L 223.83125,123.25608 L 214.96030,124.68668 z"/><path style="fill:#fff;fill-opacity:1;fill-rule:evenodd;stroke:none;stroke-width:.25pt;stroke-linecap:butt;stroke-linejoin:miter;stroke-opacity:1" id="path16106" d="M 242.04622,120.56129 L 248.13742,158.99697 L 256.98054,159.88491 L 255.20517,146.47225 L 267.48299,160.14706 L 277.43754,158.66307 L 261.59616,140.95143 L 269.60529,116.11684 L 260.85260,117.52838 L 254.04924,137.79971 L 251.01635,118.99331 L 242.04622,120.56129 z"/><path style="fill:#fff;fill-opacity:1;fill-rule:evenodd;stroke:none;stroke-width:.25pt;stroke-linecap:butt;stroke-linejoin:miter;stroke-opacity:1" id="path18600" d="M 277.55511,100.17211 L 282.92367,122.44909 L 285.38884,119.78402 L 281.77144,105.05215 L 284.42543,106.16108 L 285.53425,100.90619 L 289.19866,115.66526 L 291.58482,113.00760 L 286.21422,90.888789 L 284.34984,92.865348 L 283.16933,100.65482 L 279.49204,98.078111 L 277.55511,100.17211 z"/><path style="fill:#fff;fill-opacity:1;fill-rule:evenodd;stroke:none;stroke-width:.25pt;stroke-linecap:butt;stroke-linejoin:miter;stroke-opacity:1" id="path18601" d="M 287.31042,89.547679 L 292.74099,111.91368 L 295.14213,109.31781 L 289.69456,87.048247 L 287.31042,89.547679 z"/><path style="fill:#fff;fill-opacity:1;fill-rule:evenodd;stroke:none;stroke-width:.25pt;stroke-linecap:butt;stroke-linejoin:miter;stroke-opacity:1" id="path18602" d="M 290.85479,85.715908 L 296.27036,108.02010 L 302.48134,101.30545 L 301.44423,97.200514 L 297.68141,101.34645 L 293.25594,83.120057 L 290.85479,85.715908 z"/><path style="fill:#fff;fill-opacity:1;fill-rule:evenodd;stroke:none;stroke-width:.25pt;stroke-linecap:butt;stroke-linejoin:miter;stroke-opacity:1" id="path18603" d="M 298.20597,77.924627 L 303.57454,100.20162 L 306.00768,97.571150 L 304.04046,89.635577 L 308.63295,94.733006 L 311.33721,91.887454 L 305.40632,85.272875 L 305.66553,69.860170 L 303.29639,72.421393 L 303.00937,85.056107 L 300.62413,75.232391 L 298.20597,77.924627 z"/><path style="fill:#fff;fill-opacity:1;fill-rule:evenodd;stroke:none;stroke-width:.25pt;stroke-linecap:butt;stroke-linejoin:miter;stroke-opacity:1" id="path19245" d="M 235.71856,157.13920 L 243.42548,155.75122 L 243.64464,158.30804 L 235.71856,157.13920 z"/><path style="fill:url(#radialGradient3013);fill-opacity:1;fill-rule:evenodd;stroke:#000;stroke-width:2.5;stroke-linecap:round;stroke-linejoin:round;stroke-opacity:1;stroke-miterlimit:4;stroke-dasharray:none" id="path1765" d="M 332.31365,150.19127 C 300.25493,172.35022 316.18668,312.24883 326.91225,311.72664 C 379.05552,309.18795 348.28457,184.61754 410.01123,161.55792 C 422.38468,147.91900 352.41279,136.29877 332.31365,150.19127 z"/><path style="fill:url(#radialGradient3015);fill-opacity:1;fill-rule:evenodd;stroke:#000;stroke-width:2.5;stroke-linecap:round;stroke-linejoin:round;stroke-miterlimit:4;stroke-opacity:1" id="path3014" d="M 385.19538,145.93196 C 437.92293,175.47280 378.01878,268.97458 443.48914,274.35429 C 455.09708,275.30811 463.15837,166.82937 448.76191,141.26937 C 436.27587,119.10118 372.18147,126.55577 385.19538,145.93196 z"/><path style="fill:url(#radialGradient3642);fill-opacity:1;fill-rule:evenodd;stroke:none;stroke-width:.25pt;stroke-linecap:butt;stroke-linejoin:miter;stroke-opacity:1" id="path3016" d="M 343.36331,196.56917 C 337.74518,190.59065 326.74868,191.12967 327.12315,210.27839 C 327.22821,215.76892 347.80496,245.75594 347.58154,234.32226 C 347.43896,227.16013 334.55942,218.26850 342.09784,214.28570 C 353.87133,208.06537 348.79814,202.35263 343.36331,196.56917 z"/><path style="fill:url(#radialGradient3644);fill-opacity:1;fill-rule:evenodd;stroke:none;stroke-width:.25pt;stroke-linecap:butt;stroke-linejoin:miter;stroke-opacity:1" id="path3643" d="M 318.37937,270.88683 C 315.05185,278.38574 322.68948,302.32745 326.18308,309.90538 C 327.73261,313.26644 348.97400,306.15346 348.75058,294.71978 C 348.60800,287.55765 332.71779,296.91604 330.82313,288.60336 C 329.30922,281.96121 324.23603,257.68829 318.37937,270.88683 z"/><g id="g5512" transform="translate(7.592800,-21.93476)"><path style="fill:#fff;fill-opacity:1;fill-rule:evenodd;stroke:#000;stroke-width:.25pt;stroke-linecap:butt;stroke-linejoin:miter;stroke-opacity:1" id="path4890" d="M 330.70864,83.098982 L 383.85824,53.360513 L 430.25869,86.262649 L 427.09502,115.15747 L 373.09299,141.12951 L 333.23957,102.08098 L 330.70864,83.098982 z"/><path style="fill:#f8f8f8;fill-opacity:1;fill-rule:evenodd;stroke:#000;stroke-width:.22994273pt;stroke-linecap:butt;stroke-linejoin:miter;stroke-opacity:1" id="path4267" d="M 382.07511,66.983069 L 354.26497,105.71511 L 378.13040,115.25503 L 367.87418,98.273975 L 375.36911,85.299698 L 381.48339,120.78817 L 355.25114,122.88695 L 387.40045,95.221206 L 400.61519,110.86666 L 398.64284,129.18329 L 388.38662,102.66234 C 388.38662,102.66234 406.33500,81.102137 406.33500,77.476971 C 406.33500,73.851805 390.75344,60.877526 390.75344,60.877526 C 390.75344,60.877526 347.55897,67.173867 363.73224,75.187393 C 379.90551,83.200918 409.88523,104.18872 409.88523,104.18872 L 409.68800,116.78141 L 380.29999,124.60413 L 353.08155,126.32132 L 342.62810,99.991165 L 388.38662,87.589278 L 421.12764,78.049367 L 423.09998,94.076417 L 412.44929,120.97897 C 412.44929,120.97897 381.68063,100.37276 381.28616,99.418765 C 380.89169,98.464775 348.34791,85.299698 348.34791,85.299698 L 340.19897,96.223501 L 346.37556,115.25503 L 361.75990,76.713779 L 355.44837,56.298368 L 399.62902,62.022315 L 416.59123,82.819322 L 429.21427,114.87343 L 404.55989,97.892385 L 413.43546,83.964111 L 421.32487,115.44582 L 414.61888,124.60413 L 379.90551,124.60413 L 364.12671,129.56489 L 383.85022,132.04527 L 402.78477,128.61090 C 402.78477,128.61090 394.30367,112.77464 391.73962,111.05746 C 389.17557,109.34028 350.51750,117.16301 350.51750,117.16301 C 350.51750,117.16301 344.00874,100.18197 344.00874,98.655575 C 344.00874,97.129188 334.54146,74.805796 336.11934,74.042604 C 337.69722,73.279410 357.02625,67.746262 357.02625,67.746262 L 365.31013,85.490497 L 364.32395,108.76788 C 364.32395,108.76788 331.78017,99.037175 332.17464,97.701585 C 332.56911,96.365995 364.91566,72.516218 364.91566,72.516218 L 382.07511,66.983069 z"/></g><path style="fill:url(#radialGradient5516);fill-opacity:1;fill-rule:evenodd;stroke:none;stroke-width:.25pt;stroke-linecap:butt;stroke-linejoin:miter;stroke-opacity:1" id="path5515" d="M 415.06075,187.01231 C 416.14722,195.14408 424.85454,195.67453 428.34814,203.25246 C 429.89767,206.61352 427.71774,223.98619 436.57369,216.75077 C 442.75844,211.69775 446.27206,172.96841 433.83184,176.88857 C 427.33432,178.93608 412.90278,170.86102 415.06075,187.01231 z"/><path style="fill:url(#radialGradient5518);fill-opacity:1;fill-rule:evenodd;stroke:none;stroke-width:.25pt;stroke-linecap:butt;stroke-linejoin:miter;stroke-opacity:1" id="path5517" d="M 387.69719,141.73640 C 384.18303,149.14968 413.18684,147.65566 419.96658,142.79095 C 435.85806,131.38823 432.83449,155.51006 441.69044,148.27464 C 447.87519,143.22162 420.59579,126.42703 408.15557,130.34719 C 401.65805,132.39470 393.55384,129.38151 387.69719,141.73640 z"/></g></svg>