<svg xmlns="http://www.w3.org/2000/svg" xmlns:cc="http://web.resource.org/cc/" xmlns:xlink="http://www.w3.org/1999/xlink" xmlns:xml="http://www.w3.org/XML/1998/namespace" id="svg1" width="708.661" height="708.661" x="0" y="0" version="1.0"><defs id="defs3"><linearGradient id="linearGradient8661"><stop style="stop-color:#980000;stop-opacity:1" id="stop8662" offset="0"/><stop style="stop-color:#f49d9d;stop-opacity:1" id="stop8663" offset="1"/></linearGradient><linearGradient id="linearGradient8654"><stop style="stop-color:#868686;stop-opacity:1" id="stop8655" offset="0"/><stop style="stop-color:#000;stop-opacity:1" id="stop8656" offset="1"/></linearGradient><linearGradient id="linearGradient8024"><stop style="stop-color:#daa116;stop-opacity:1" id="stop8025" offset="0"/><stop style="stop-color:#e9eb14;stop-opacity:1" id="stop8026" offset="1"/></linearGradient><linearGradient id="linearGradient7398"><stop style="stop-color:#a00000;stop-opacity:1" id="stop7399" offset="0"/><stop style="stop-color:#680000;stop-opacity:1" id="stop7400" offset="1"/></linearGradient><linearGradient id="linearGradient6141"><stop style="stop-color:#000;stop-opacity:1" id="stop6142" offset="0"/><stop style="stop-color:#626262;stop-opacity:1" id="stop6143" offset="1"/></linearGradient><linearGradient id="linearGradient4888"><stop style="stop-color:#19160b;stop-opacity:1" id="stop4889" offset="0"/><stop style="stop-color:#b19c51;stop-opacity:1" id="stop4891" offset=".5"/><stop style="stop-color:#ecc741;stop-opacity:1" id="stop4890" offset="1"/></linearGradient><linearGradient id="linearGradient4884" x1="159.839" x2="188.746" y1="612.992" y2="612.992" gradientTransform="matrix(2.565210,0.000000,0.000000,0.511540,-85.80267,-197.6995)" gradientUnits="userSpaceOnUse" xlink:href="#linearGradient4888"/><linearGradient id="linearGradient4896" x1="179.876" x2="231.893" y1="559.846" y2="559.846" gradientTransform="matrix(2.201783,0.000000,0.000000,0.595974,-85.80267,-197.6995)" gradientUnits="userSpaceOnUse" xlink:href="#linearGradient4888"/><linearGradient id="linearGradient5519" x1="159.839" x2="188.746" y1="612.992" y2="612.992" gradientTransform="matrix(2.565210,0.000000,0.000000,0.511540,-78.43164,-231.6168)" gradientUnits="userSpaceOnUse" xlink:href="#linearGradient4888"/><linearGradient id="linearGradient6144" x1="292.219" x2="360.875" y1="304.462" y2="304.462" gradientTransform="matrix(1.676027,0.000000,0.000000,0.782927,-81.13846,-197.6995)" gradientUnits="userSpaceOnUse" xlink:href="#linearGradient6141"/><linearGradient id="linearGradient6776" x1="294.407" x2="298.508" y1="310.155" y2="258.78" gradientTransform="matrix(1.371171,0.000000,0.000000,0.956999,-85.80267,-197.6995)" gradientUnits="userSpaceOnUse" xlink:href="#linearGradient4888"/><linearGradient id="linearGradient7401" x1="332.316" x2="316.468" y1="265.911" y2="300.387" gradientTransform="matrix(1.710844,0.000000,0.000000,0.766995,-85.80267,-197.6995)" gradientUnits="userSpaceOnUse" xlink:href="#linearGradient7398"/><linearGradient id="linearGradient8027" x1="1220.105" x2="1254.027" y1="103.218" y2="103.218" gradientTransform="matrix(0.482180,0.000000,0.000000,2.721398,-85.80267,-197.6995)" gradientUnits="userSpaceOnUse" xlink:href="#linearGradient8024"/><radialGradient id="radialGradient8653" cx=".847" cy="178.896" r="502.824" fx=".847" fy="178.896" gradientTransform="matrix(0.640700,0.000000,0.000000,2.048084,-85.80267,-197.6995)" gradientUnits="userSpaceOnUse" xlink:href="#linearGradient8654"/><linearGradient id="linearGradient8660" x1="748.48" x2="809.767" y1="265.314" y2="263.085" gradientTransform="matrix(0.690085,0.000000,0.000000,1.901515,-85.80267,-197.6995)" gradientUnits="userSpaceOnUse" xlink:href="#linearGradient8661"/><linearGradient id="linearGradient9288" x1="236.358" x2="270.636" y1="1223.586" y2="1299.44" gradientTransform="matrix(1.865197,0.000000,0.000000,0.703523,-85.80267,-197.6995)" gradientUnits="userSpaceOnUse" xlink:href="#linearGradient6141"/></defs><metadata id="metadata4"/><g id="layer1"><path style="fill:url(#linearGradient9288);fill-opacity:1;fill-rule:evenodd;stroke:#000;stroke-width:4.2956848;stroke-linecap:round;stroke-linejoin:round;stroke-miterlimit:4;stroke-opacity:1" id="path2381" d="M 414.68304,656.96341 C 421.27924,663.97187 425.00411,698.05503 442.92297,693.24245 C 454.91009,690.02298 445.60268,644.59556 445.60268,644.59556 L 290.18002,646.24463 C 286.33224,662.18540 280.97454,689.69336 290.18002,692.21180 C 309.67821,697.54607 312.92313,673.45388 324.60387,660.67378 C 334.77299,661.08604 341.43787,664.79640 351.60700,665.20866 C 356.55414,680.05007 357.34599,704.17370 369.12815,703.75512 C 379.34587,703.39212 381.35857,679.01943 385.61859,665.00253 C 396.19998,664.31542 404.10167,657.65052 414.68304,656.96341 z"/><path style="fill:url(#linearGradient8660);fill-opacity:1;fill-rule:evenodd;stroke:#000;stroke-width:4.2956848;stroke-linecap:round;stroke-linejoin:round;stroke-miterlimit:4;stroke-opacity:1" id="path1061" d="M 272.04051,655.72664 C 316.56477,688.98240 419.63019,692.55535 464.97898,654.07758 L 466.62802,189.04641 C 466.35319,161.97456 410.05686,174.41814 408.98869,156.14276 C 406.78138,118.37788 329.41359,116.04173 324.73271,154.54525 C 322.52567,172.69977 269.01725,160.87519 267.91790,191.51997 L 272.04051,655.72664 z"/><path style="fill:none;fill-opacity:.75;fill-rule:evenodd;stroke:#000;stroke-width:4.2956848;stroke-linecap:round;stroke-linejoin:round;stroke-miterlimit:4;stroke-opacity:1" id="path1756" d="M 269.56694,624.39475 C 338.00239,646.93172 402.31520,645.55752 468.27706,625.21927"/><path style="fill:none;fill-opacity:.75;fill-rule:evenodd;stroke:#000;stroke-width:4.2956848;stroke-linecap:round;stroke-linejoin:round;stroke-miterlimit:4;stroke-opacity:1" id="path3003" d="M 265.85659,210.48368 C 337.17786,221.06507 404.78878,221.33992 469.10159,211.30821"/><path style="fill:url(#linearGradient4896);fill-opacity:1;fill-rule:evenodd;stroke:#000;stroke-width:4.2956848;stroke-linecap:round;stroke-linejoin:round;stroke-miterlimit:4;stroke-opacity:1" id="path3004" d="M 312.44215,123.20529 L 312.39214,149.30711 L 422.62820,148.74478 L 422.60748,122.60154 L 312.44215,123.20529 z"/><path style="fill:url(#linearGradient4884);fill-opacity:1;fill-rule:evenodd;stroke:#000;stroke-width:4.2956848;stroke-linecap:round;stroke-linejoin:round;stroke-miterlimit:4;stroke-opacity:1" id="path3005" d="M 340.06369,108.65537 L 323.81472,123.37604 L 398.19258,122.67226 L 368.33898,108.36384 L 340.06369,108.65537 z"/><path style="fill:url(#linearGradient7401);fill-opacity:1;fill-rule:evenodd;stroke:#a00000;stroke-width:4.2956848;stroke-linecap:round;stroke-linejoin:round;stroke-miterlimit:4;stroke-opacity:1" id="path3008" d="M 387.36160,19.919076 C 420.20512,16.346144 462.79937,0.073838223 491.25154,6.7267083 C 503.58634,9.6109109 502.93230,37.234074 502.79489,54.549063 L 388.18614,37.646335 L 387.36160,19.919076 z"/><path style="fill:url(#linearGradient5519);fill-opacity:1;fill-rule:evenodd;stroke:#000;stroke-width:4.2956848;stroke-linecap:round;stroke-linejoin:round;stroke-miterlimit:4;stroke-opacity:1" id="path5518" d="M 341.02142,60.162491 L 340.80566,108.40714 L 368.83296,108.57792 L 369.00520,60.453991 L 341.02142,60.162491 z"/><path style="fill:url(#linearGradient6144);fill-opacity:1;fill-rule:evenodd;stroke:#000;stroke-width:4.2956848;stroke-linecap:round;stroke-linejoin:round;stroke-miterlimit:4;stroke-opacity:1" id="path3007" d="M 390.07668,17.133274 L 392.55025,29.913392 L 505.50995,55.061349 C 506.45118,72.168186 505.71825,88.955583 499.29673,102.00916 C 497.59780,105.46272 492.36453,105.22145 489.01948,103.70822 C 486.59286,102.61047 483.94980,95.054107 476.15148,93.301654 C 456.24369,88.827950 447.19940,85.392342 427.96333,77.202728 C 419.44045,73.574180 409.04072,65.367888 401.62001,59.596228 L 383.48049,59.596228 L 372.76169,73.200868 L 327.41290,71.551819 L 325.76385,48.052899 C 317.30188,48.132215 310.70507,45.671108 310.87241,38.379395 C 311.02812,31.595078 317.02705,30.483790 325.35159,30.325651 C 328.37485,25.378511 330.93107,16.782105 341.70918,16.941801 C 359.02700,17.191626 371.52490,16.583597 390.07668,17.133274 z"/><path style="fill:url(#linearGradient8027);fill-opacity:1;fill-rule:evenodd;stroke:#e7df0a;stroke-width:2.8637898;stroke-linecap:round;stroke-linejoin:round;stroke-miterlimit:4;stroke-opacity:1" id="path7402" d="M 510.43084,39.189276 C 514.45904,39.154485 516.69827,41.575294 516.71783,47.228380 C 516.72893,50.541074 513.41973,53.101074 513.41973,56.298129 L 513.41973,127.20714 L 507.95726,127.20714 L 507.95726,55.885868 C 507.95726,53.548706 504.74111,51.126089 504.65917,46.919182 C 504.59365,43.555192 506.17135,39.226058 510.43084,39.189276 z"/></g><path style="fill:url(#linearGradient6776);fill-opacity:1;fill-rule:evenodd;stroke:#000;stroke-width:4.2956848;stroke-linecap:round;stroke-linejoin:round;stroke-miterlimit:4;stroke-opacity:1" id="path3630" d="M 304.82484,76.996993 L 304.82484,100.31804 L 340.09791,100.02651 L 339.80640,77.288505 L 304.82484,76.996993 z"/><path style="fill:url(#radialGradient8653);fill-opacity:1;fill-rule:evenodd;stroke:#000;stroke-width:.28637898pt;stroke-linecap:butt;stroke-linejoin:miter;stroke-opacity:1" id="path3631" d="M 305.11634,78.746059 C 227.67105,75.928101 144.64087,111.54068 125.25280,188.93800 C 93.086553,317.34588 196.86783,363.55431 198.71408,449.84217 L 159.65133,665.56181 C 193.17533,677.22234 225.24177,676.05630 264.59603,667.31089 L 227.86539,446.92704 C 224.56157,359.08444 117.79247,295.65493 144.78418,199.72399 C 161.40578,140.64929 232.43243,98.277439 305.11634,97.402903 L 305.11634,78.746059 z"/><text style="font-size:12;font-style:normal;font-weight:400;fill:#fff;fill-opacity:1;stroke:none;stroke-width:1pt;stroke-linecap:butt;stroke-linejoin:miter;stroke-opacity:1;font-family:helvetica" id="text9289" x="349.095" y="519.722" transform="matrix(20.37298,0.000000,0.000000,20.37298,-6811.588,-10074.39)" xml:space="preserve"><tspan id="tspan9290" x="349.095" y="519.722">F</tspan></text><rect style="fill:none;fill-opacity:0;fill-rule:nonzero;stroke:#fff;stroke-width:3.0334985;stroke-linecap:round;stroke-linejoin:round;stroke-miterlimit:4;stroke-opacity:1" id="rect9913" width="146.088" height="220.463" x="301.65" y="312.98" rx="17.995" ry="17.995"/></svg>