<svg xmlns="http://www.w3.org/2000/svg" xmlns:cc="http://web.resource.org/cc/" xmlns:xlink="http://www.w3.org/1999/xlink" id="svg1" width="755.906" height="755.906"><defs id="defs3"><linearGradient id="linearGradient4808"><stop style="stop-color:#e2eb3d;stop-opacity:1" id="stop4809" offset="0"/><stop style="stop-color:#acb32e;stop-opacity:1" id="stop4810" offset="1"/></linearGradient><linearGradient id="linearGradient1685"><stop style="stop-color:#060087;stop-opacity:1" id="stop1686" offset="0"/><stop style="stop-color:#01001a;stop-opacity:1" id="stop1687" offset="1"/></linearGradient><radialGradient id="radialGradient1688" cx="136.185" cy="742.66" r="153.013" fx="136.185" fy="742.66" gradientTransform="matrix(2.303141,0.000000,0.000000,0.558725,-114.6397,-96.40355)" gradientUnits="userSpaceOnUse" xlink:href="#linearGradient1685"/><linearGradient id="linearGradient2314" x1="183.265" x2="274.977" y1="738.922" y2="543.591" gradientTransform="matrix(1.518393,0.000000,0.000000,0.847490,-114.6397,-96.40355)" gradientUnits="userSpaceOnUse" xlink:href="#linearGradient1685"/><linearGradient id="linearGradient4811" x1="594.094" x2="575.332" y1="325.873" y2="369.399" gradientTransform="matrix(1.014718,0.000000,0.000000,1.268157,-114.6397,-96.40355)" gradientUnits="userSpaceOnUse" xlink:href="#linearGradient4808"/><linearGradient id="linearGradient5437" x1="496.251" x2="505.745" y1="596.345" y2="632.653" gradientTransform="matrix(1.285140,0.000000,0.000000,1.001309,-114.6397,-96.40355)" gradientUnits="userSpaceOnUse" xlink:href="#linearGradient4808"/></defs><metadata id="metadata4"/><g id="layer1"><path style="fill:url(#linearGradient2314);fill-opacity:1;fill-rule:evenodd;stroke:#000;stroke-width:4.253933;stroke-linecap:round;stroke-linejoin:round;stroke-miterlimit:4;stroke-opacity:1" id="path1062" d="M 86.221622,553.58191 C 262.58767,549.22719 334.26451,467.67814 479.77920,476.83001 C 507.36453,478.56493 603.09857,524.02408 598.98958,502.95832 C 559.69557,301.50759 462.90467,297.74226 406.29334,290.66585 C 311.03390,379.93755 121.05936,243.85265 86.221622,553.58191 z"/><path style="fill:url(#radialGradient1688);fill-opacity:1;fill-rule:evenodd;stroke:#000;stroke-width:4.253933;stroke-linecap:round;stroke-linejoin:round;stroke-miterlimit:4;stroke-opacity:1" id="path1061" d="M 4.5706639,327.43649 L 411.19240,400.15911 L 705.13581,300.83065 L 350.77069,233.42921 L 4.5706639,327.43649 z"/><path style="fill:url(#linearGradient4811);fill-opacity:1;fill-rule:evenodd;stroke:#f9ae08;stroke-width:4.253933;stroke-linecap:round;stroke-linejoin:round;stroke-miterlimit:4;stroke-opacity:1" id="path4179" d="M 350.71195,309.85901 C 408.06299,330.06659 504.30486,349.77626 514.68202,360.08928 C 528.75095,374.07123 529.50091,439.37997 520.45562,534.45181 L 494.98175,602.47122 C 518.99170,627.63726 554.84104,620.95942 569.46112,599.58442 L 547.01415,535.02917 C 557.59908,477.29322 555.48813,366.70429 544.12736,351.42889 C 525.67177,326.61396 427.88567,311.39864 369.76482,291.38351 C 360.71952,294.07785 359.75725,307.16467 350.71195,309.85901 z"/><path style="fill:#e2eb3d;fill-opacity:1;fill-rule:evenodd;stroke:#f9ae08;stroke-width:2.8359554;stroke-linecap:round;stroke-linejoin:round;stroke-miterlimit:4;stroke-opacity:1" id="path3557" d="M 327.09070,289.94427 C 342.01886,263.93978 380.73036,273.09718 388.25390,283.92448 C 398.45831,298.60989 369.27833,285.12806 352.28619,308.23342 C 340.66699,324.03283 318.17532,305.47464 327.09070,289.94427 z"/><path style="fill:url(#linearGradient5437);fill-opacity:1;fill-rule:evenodd;stroke:#f9ae08;stroke-width:2.8359554;stroke-linecap:round;stroke-linejoin:round;stroke-miterlimit:4;stroke-opacity:1" id="path4812" d="M 517.33863,500.50880 C 503.73014,508.12954 503.18580,525.14016 511.62306,535.61871 L 556.12283,539.29299 C 568.50655,532.21658 568.23439,511.25950 558.98061,504.59134 L 517.33863,500.50880 z"/></g></svg>