<svg xmlns="http://www.w3.org/2000/svg" xmlns:cc="http://web.resource.org/cc/" xmlns:svg="http://www.w3.org/2000/svg" xmlns:xlink="http://www.w3.org/1999/xlink" id="svg1468" width="170.667" height="170.667"><defs id="defs3"><linearGradient id="linearGradient7591"><stop style="stop-color:#3cff00;stop-opacity:1" id="stop7593" offset="0"/><stop style="stop-color:#1c470f;stop-opacity:1" id="stop7595" offset="1"/></linearGradient><linearGradient id="linearGradient5307"><stop style="stop-color:#e1ffff;stop-opacity:.74117649" id="stop5309" offset="0"/><stop style="stop-color:#afe6ff;stop-opacity:.65882355" id="stop5311" offset="1"/></linearGradient><linearGradient id="linearGradient4542"><stop style="stop-color:#717171;stop-opacity:1" id="stop4544" offset="0"/><stop style="stop-color:#1c1c1c;stop-opacity:1" id="stop4546" offset="1"/></linearGradient><linearGradient id="linearGradient3768"><stop style="stop-color:#9f9f9f;stop-opacity:1" id="stop3770" offset="0"/><stop style="stop-color:#494949;stop-opacity:1" id="stop3772" offset="1"/></linearGradient><linearGradient id="linearGradient3774" x1="17.216" x2="59.33" y1="60.447" y2="81.569" gradientTransform="matrix(1.564455,0.000000,0.000000,0.904340,1.476345,-2.957098)" gradientUnits="userSpaceOnUse" xlink:href="#linearGradient3768"/><linearGradient id="linearGradient4540" x1="1.905" x2="69.858" y1="37.666" y2="37.666" gradientTransform="matrix(1.606870,0.000000,0.000000,0.880469,1.476345,-2.957098)" gradientUnits="userSpaceOnUse" xlink:href="#linearGradient4542"/><radialGradient id="radialGradient5315" cx="41.961" cy="51.009" r="39.44" fx="41.961" fy="51.009" gradientTransform="matrix(1.380022,0.000000,0.000000,1.025200,1.476345,-2.957098)" gradientUnits="userSpaceOnUse" xlink:href="#linearGradient5307"/><linearGradient id="linearGradient7597" x1="71.19" x2="109.379" y1="123.004" y2="106.201" gradientTransform="matrix(1.239690,0.000000,0.000000,1.160451,7.041127,-0.418621)" gradientUnits="userSpaceOnUse" xlink:href="#linearGradient7591"/><radialGradient id="radialGradient4376" cx="86.7" cy="120.328" r="25.699" fx="86.7" fy="120.328" gradientTransform="matrix(1.261854,0.000000,0.000000,1.121207,-0.666091,2.682863)" gradientUnits="userSpaceOnUse" xlink:href="#linearGradient7591"/><radialGradient id="radialGradient4386" cx="86.7" cy="120.328" r="25.699" fx="86.7" fy="120.328" gradientTransform="matrix(1.272423,0.000000,0.000000,1.130598,-316.2223,-34.98937)" gradientUnits="userSpaceOnUse" xlink:href="#linearGradient7591"/><linearGradient id="linearGradient4388" x1="71.19" x2="109.379" y1="123.004" y2="106.201" gradientTransform="matrix(1.239690,0.000000,0.000000,1.160451,-308.9850,-38.64581)" gradientUnits="userSpaceOnUse" xlink:href="#linearGradient7591"/><linearGradient id="linearGradient5167" x1="71.19" x2="109.379" y1="123.004" y2="106.201" gradientTransform="matrix(1.229393,0.000000,0.000000,1.150812,6.511066,-0.943208)" gradientUnits="userSpaceOnUse" xlink:href="#linearGradient7591"/><linearGradient id="linearGradient5185" x1="1.905" x2="69.858" y1="37.666" y2="37.666" gradientTransform="matrix(1.606870,0.000000,0.000000,0.880469,184.4214,-2.957098)" gradientUnits="userSpaceOnUse" xlink:href="#linearGradient4542"/><radialGradient id="radialGradient5187" cx="41.961" cy="51.009" r="39.44" fx="41.961" fy="51.009" gradientTransform="matrix(1.380022,0.000000,0.000000,1.025200,184.4214,-2.957098)" gradientUnits="userSpaceOnUse" xlink:href="#linearGradient5307"/><linearGradient id="linearGradient5189" x1="17.216" x2="59.33" y1="60.447" y2="81.569" gradientTransform="matrix(1.564455,0.000000,0.000000,0.904340,184.4214,-2.957098)" gradientUnits="userSpaceOnUse" xlink:href="#linearGradient3768"/><linearGradient id="linearGradient5191" x1="71.19" x2="109.379" y1="123.004" y2="106.201" gradientTransform="matrix(1.229393,0.000000,0.000000,1.150812,189.4561,-0.943208)" gradientUnits="userSpaceOnUse" xlink:href="#linearGradient7591"/><radialGradient id="radialGradient5193" cx="86.7" cy="120.328" r="25.699" fx="86.7" fy="120.328" gradientTransform="matrix(1.261854,0.000000,0.000000,1.121207,182.2790,2.682863)" gradientUnits="userSpaceOnUse" xlink:href="#linearGradient7591"/></defs><metadata id="metadata4"/><g id="layer1"><path style="fill:#000;fill-opacity:.69803923;fill-rule:evenodd;stroke:none;stroke-width:2;stroke-linecap:butt;stroke-linejoin:miter;stroke-miterlimit:4;stroke-opacity:1" id="path9917" d="M 6.9314551,36.872362 C 5.2832693,53.020829 6.3184741,65.276078 17.216058,78.019592 C 25.681079,87.918477 44.002331,98.453949 64.152802,101.08512 C 81.749094,103.38276 99.432898,99.339966 110.31167,88.676192 C 119.20237,79.961176 117.31315,59.693769 114.59420,47.997748 C 114.89952,64.931701 112.47147,78.896594 79.709101,84.619430 C 60.626159,87.952781 15.262541,72.130768 6.9314551,36.872362 z"/><path style="fill:url(#linearGradient4540);fill-opacity:1;fill-rule:evenodd;stroke:#000;stroke-width:2.378907;stroke-linecap:butt;stroke-linejoin:bevel;stroke-miterlimit:4;stroke-opacity:1" id="path2248" d="M 29.920661,20.850853 C 13.004726,24.958756 8.8084257,33.120560 7.9044776,40.449127 C 1.1263851,21.789056 11.576502,11.172769 20.060762,7.5208163 C 38.788480,-0.54030907 57.624658,0.51914536 72.333277,4.6048932 C 88.071889,8.9767543 121.30854,27.806270 110.37471,58.932535 C 111.01116,50.719832 105.34070,44.182976 98.648405,37.695143 C 77.755790,17.440771 59.881228,13.575183 29.920661,20.850853 z"/><path style="fill:url(#radialGradient5315);fill-opacity:1;fill-rule:evenodd;stroke:#4b7499;stroke-width:2.378907;stroke-linecap:butt;stroke-linejoin:miter;stroke-miterlimit:4;stroke-opacity:1" id="path18903" d="M 29.464631,13.437141 C -4.3672413,21.652946 4.3795415,53.125559 19.671056,67.491788 C 40.166726,86.747331 63.986812,93.289164 93.441070,85.163292 C 121.96754,77.293317 113.74878,43.505128 100.36422,30.529461 C 79.471590,10.275091 59.425197,6.1614703 29.464631,13.437141 z"/><path id="path4382" d="M 79.822756,101.40456 L 116.71642,154.96379 L 116.77840,154.93280 C 120.43123,160.60318 127.75604,161.56483 137.41804,157.38105 C 147.19736,153.14650 155.78634,142.88405 153.44009,135.06793 L 104.76277,98.295958 L 79.822756,101.40456 z" style="fill:#000;fill-opacity:.69803923;fill-rule:evenodd;stroke:none;stroke-width:2.3988314;stroke-linecap:butt;stroke-linejoin:bevel;stroke-miterlimit:4;stroke-opacity:1"/><path style="fill:url(#linearGradient3774);fill-opacity:1;fill-rule:evenodd;stroke:#000;stroke-width:2.378907;stroke-linecap:butt;stroke-linejoin:miter;stroke-miterlimit:4;stroke-opacity:1" id="path2250" d="M 5.6605296,29.243539 C 4.0335762,46.278711 5.0554455,59.206889 15.812654,72.650142 C 24.168626,83.092571 42.253865,94.206546 62.144769,96.982171 C 79.514392,99.405974 96.970389,95.141218 107.70902,83.891891 C 116.48520,74.698339 114.62034,53.318057 111.93641,40.979814 C 112.23778,58.843601 109.84102,73.575300 77.500677,79.612374 C 58.663557,83.128758 13.884299,66.437966 5.6605296,29.243539 z"/><path style="fill:url(#linearGradient5167);fill-opacity:1;fill-rule:evenodd;stroke:#000;stroke-width:2.378907;stroke-linecap:butt;stroke-linejoin:bevel;stroke-miterlimit:4;stroke-opacity:1" id="path2244" d="M 79.057875,94.635250 L 117.14305,150.43937 L 152.60757,127.70847 L 105.04652,85.023013 C 102.80291,76.521359 82.937769,80.984119 79.057875,94.635250 z"/><path style="fill:url(#radialGradient4376);fill-opacity:1;fill-rule:evenodd;stroke:#000;stroke-width:2.378907;stroke-linecap:butt;stroke-linejoin:bevel;stroke-miterlimit:4;stroke-opacity:1" id="path2246" d="M 116.95698,150.07017 C 112.70034,142.91910 124.82957,125.69611 133.88090,122.99429 C 146.34570,119.27355 152.17272,124.93251 153.85312,130.53046 C 156.19937,138.34657 147.60174,148.61453 137.82242,152.84908 C 127.95434,157.12208 120.52724,156.06816 116.95698,150.07017 z"/><path id="path1340" d="M 30.019496,45.548651 C 36.124841,41.763337 42.413343,38.893825 49.434497,37.489596 C 46.259718,32.330579 41.436494,27.354721 36.613270,23.935729 C 42.474401,21.310429 46.320766,20.150413 53.097696,19.906199 C 58.775670,23.264141 62.713618,26.896820 66.285245,32.361104 C 71.719005,29.369487 76.603276,27.476829 82.586524,27.232615 C 87.409737,30.468447 90.767683,34.436923 93.759297,39.504358 C 87.043415,39.138038 82.891788,40.786482 76.908550,43.900207 C 83.319158,48.906592 87.531845,54.096133 90.645576,60.567801 C 84.540231,61.544656 78.251719,63.437313 72.879019,66.795253 C 69.582132,60.750961 65.735767,55.072989 60.424114,50.860301 C 53.708232,51.837155 45.710230,54.828776 40.093314,58.736197 C 38.017500,53.790867 34.476398,49.028698 30.019496,45.548651 z" style="fill:#003297;fill-opacity:.87469882;fill-rule:evenodd;stroke:#020032;stroke-width:3.5683606;stroke-linecap:butt;stroke-linejoin:miter;stroke-miterlimit:4;stroke-opacity:.74939758"/><path id="path5183" d="M 29.198101,45.548651 C 51.618721,33.338235 63.879751,29.884001 81.765121,27.232615 C 86.588341,30.468447 89.946281,34.436923 92.937901,39.504358 C 68.836891,43.283723 59.465591,46.537406 39.271911,58.736197 C 37.196101,53.790867 33.655001,49.028698 29.198101,45.548651 z" style="fill:#003297;fill-opacity:.87469882;fill-rule:evenodd;stroke:#020032;stroke-width:3.5683606;stroke-linecap:butt;stroke-linejoin:miter;stroke-miterlimit:4;stroke-opacity:.74939758"/></g></svg>