<svg xmlns="http://www.w3.org/2000/svg" xmlns:cc="http://web.resource.org/cc/" xmlns:svg="http://www.w3.org/2000/svg" xmlns:xlink="http://www.w3.org/1999/xlink" id="svg2682" width="320" height="64"><defs id="defs3"><linearGradient id="linearGradient1738"><stop style="stop-color:#60ff45;stop-opacity:1" id="stop1739" offset="0"/><stop style="stop-color:#0bad00;stop-opacity:1" id="stop1740" offset="1"/></linearGradient><linearGradient id="linearGradient1846" x1="482.886" x2="197.875" y1="444.143" y2="303.581" gradientTransform="matrix(0.185668,0.000000,0.000000,0.144558,-24.17608,-22.48570)" gradientUnits="userSpaceOnUse" xlink:href="#linearGradient1738"/><linearGradient id="linearGradient1843" x1="680.291" x2="681.545" y1="721.964" y2="737.447" gradientTransform="matrix(1.112122,0.000000,0.000000,0.960649,-696.4895,-681.1477)" gradientUnits="userSpaceOnUse" xlink:href="#linearGradient4960"/><linearGradient id="linearGradient1840" x1="651.095" x2="652.257" y1="720.266" y2="728.051" gradientTransform="matrix(1.112122,0.000000,0.000000,0.960649,-696.4248,-681.7953)" gradientUnits="userSpaceOnUse" xlink:href="#linearGradient4960"/><linearGradient id="linearGradient5619"><stop id="stop5621" offset="0" style="stop-color:#4646db;stop-opacity:1"/><stop id="stop5623" offset="1" style="stop-color:#0000ad;stop-opacity:1"/></linearGradient><linearGradient id="linearGradient5611"><stop id="stop5613" offset="0" style="stop-color:#6a6ab9;stop-opacity:1"/><stop id="stop5615" offset="1" style="stop-color:#0000b9;stop-opacity:1"/></linearGradient><linearGradient id="linearGradient4305"><stop id="stop4307" offset="0" style="stop-color:#000;stop-opacity:.73333335"/><stop id="stop4309" offset="1" style="stop-color:#000;stop-opacity:0"/></linearGradient><linearGradient id="linearGradient4255"><stop id="stop4257" offset="0" style="stop-color:#f7ff6b;stop-opacity:1"/><stop id="stop4259" offset="1" style="stop-color:#bac320;stop-opacity:1"/></linearGradient><linearGradient id="linearGradient3618"><stop style="stop-color:red;stop-opacity:1" id="stop3619" offset="0"/><stop style="stop-color:#860000;stop-opacity:1" id="stop3620" offset="1"/></linearGradient><linearGradient id="linearGradient2250"><stop id="stop2252" offset="0" style="stop-color:#08ff00;stop-opacity:1"/><stop id="stop2254" offset="1" style="stop-color:#047c00;stop-opacity:1"/></linearGradient><linearGradient id="linearGradient5873"><stop id="stop5875" offset="0" style="stop-color:#cd0000;stop-opacity:1"/><stop id="stop5877" offset="1" style="stop-color:#5d0000;stop-opacity:1"/></linearGradient><linearGradient id="linearGradient6641"><stop id="stop6643" offset="0" style="stop-color:#cdcdcd;stop-opacity:1"/><stop id="stop6645" offset="1" style="stop-color:#7e7e7e;stop-opacity:1"/></linearGradient><linearGradient id="linearGradient7409"><stop id="stop7411" offset="0" style="stop-color:#fff;stop-opacity:1"/><stop id="stop7413" offset="1" style="stop-color:#dadada;stop-opacity:1"/></linearGradient><linearGradient id="linearGradient5083"><stop id="stop5085" offset="0" style="stop-color:#fff;stop-opacity:1"/><stop id="stop5087" offset="1" style="stop-color:#c7c7c7;stop-opacity:1"/></linearGradient><linearGradient id="linearGradient4960"><stop id="stop4962" offset="0" style="stop-color:#fff;stop-opacity:.73092371"/><stop id="stop4964" offset="1" style="stop-color:#fff;stop-opacity:0"/></linearGradient><linearGradient id="linearGradient4819" x1="120.206" x2="128.625" y1="21.868" y2="16.489" gradientTransform="matrix(0.254394,0.000000,0.000000,0.251549,21.80506,-121.6412)" gradientUnits="userSpaceOnUse" xlink:href="#linearGradient5083"/><linearGradient id="linearGradient4821" x1="-11.402" x2="147.379" y1="54.016" y2="105.803" gradientTransform="matrix(1.006060,0.000000,0.000000,0.993976,97.65298,-197.8742)" gradientUnits="userSpaceOnUse" xlink:href="#linearGradient5873"/><radialGradient id="radialGradient4823" cx="66.017" cy="130.171" r="32.321" fx="66.017" fy="130.171" gradientTransform="matrix(1.094547,0.000000,0.000000,0.913620,97.65298,-197.8742)" gradientUnits="userSpaceOnUse" xlink:href="#linearGradient6641"/><linearGradient id="linearGradient4825" x1="42.913" x2="108.553" y1="40.739" y2="67.411" gradientTransform="matrix(1.046660,0.000000,0.000000,0.955420,97.65298,-197.8742)" gradientUnits="userSpaceOnUse" xlink:href="#linearGradient7409"/><radialGradient id="radialGradient4827" cx="44.847" cy="21.519" r="16.362" fx="44.847" fy="21.519" gradientTransform="matrix(0.895747,0.000000,0.000000,1.116387,1.553001,-66.94390)" gradientUnits="userSpaceOnUse" xlink:href="#linearGradient2250"/><linearGradient id="linearGradient5675" x1="120.206" x2="128.625" y1="21.868" y2="16.489" gradientTransform="matrix(0.254394,0.000000,0.000000,0.251549,21.80506,-121.6412)" gradientUnits="userSpaceOnUse" xlink:href="#linearGradient5083"/><radialGradient id="radialGradient5681" cx="20.373" cy="18.893" r="36.303" fx="20.373" fy="18.893" gradientTransform="matrix(0.960220,0.000000,0.000000,1.041428,328.5124,0.231249)" gradientUnits="userSpaceOnUse" xlink:href="#linearGradient2250"/><radialGradient id="radialGradient5735" cx="30.045" cy="193.672" r="8.457" fx="30.045" fy="193.672" gradientTransform="scale(1.220067,0.819627)" gradientUnits="userSpaceOnUse" xlink:href="#linearGradient4305"/><radialGradient id="radialGradient5737" cx="28.442" cy="192.202" r="10.901" fx="28.442" fy="192.202" gradientTransform="scale(1.228200,0.814200)" gradientUnits="userSpaceOnUse" xlink:href="#linearGradient4255"/><radialGradient id="radialGradient5739" cx="28.442" cy="192.202" r="10.901" fx="28.442" fy="192.202" gradientTransform="scale(1.228200,0.814200)" gradientUnits="userSpaceOnUse" xlink:href="#linearGradient4255"/><radialGradient id="radialGradient5741" cx="30.045" cy="193.672" r="8.457" fx="30.045" fy="193.672" gradientTransform="scale(1.220067,0.819627)" gradientUnits="userSpaceOnUse" xlink:href="#linearGradient4305"/><radialGradient id="radialGradient5743" cx="28.442" cy="192.202" r="10.901" fx="28.442" fy="192.202" gradientTransform="scale(1.228200,0.814200)" gradientUnits="userSpaceOnUse" xlink:href="#linearGradient4255"/><radialGradient id="radialGradient5745" cx="28.442" cy="192.202" r="10.901" fx="28.442" fy="192.202" gradientTransform="scale(1.228200,0.814200)" gradientUnits="userSpaceOnUse" xlink:href="#linearGradient4255"/><radialGradient id="radialGradient5747" cx="30.045" cy="193.672" r="8.457" fx="30.045" fy="193.672" gradientTransform="scale(1.220067,0.819627)" gradientUnits="userSpaceOnUse" xlink:href="#linearGradient4305"/><radialGradient id="radialGradient5749" cx="28.442" cy="192.202" r="10.901" fx="28.442" fy="192.202" gradientTransform="scale(1.228200,0.814200)" gradientUnits="userSpaceOnUse" xlink:href="#linearGradient4255"/><radialGradient id="radialGradient5751" cx="28.442" cy="192.202" r="10.901" fx="28.442" fy="192.202" gradientTransform="scale(1.228200,0.814200)" gradientUnits="userSpaceOnUse" xlink:href="#linearGradient4255"/><radialGradient id="radialGradient5753" cx="30.045" cy="193.672" r="8.457" fx="30.045" fy="193.672" gradientTransform="scale(1.220067,0.819627)" gradientUnits="userSpaceOnUse" xlink:href="#linearGradient4305"/><radialGradient id="radialGradient5755" cx="28.442" cy="192.202" r="10.901" fx="28.442" fy="192.202" gradientTransform="scale(1.228200,0.814200)" gradientUnits="userSpaceOnUse" xlink:href="#linearGradient4255"/><radialGradient id="radialGradient5757" cx="28.442" cy="192.202" r="10.901" fx="28.442" fy="192.202" gradientTransform="scale(1.228200,0.814200)" gradientUnits="userSpaceOnUse" xlink:href="#linearGradient4255"/><radialGradient id="radialGradient5759" cx="30.045" cy="193.672" r="8.457" fx="30.045" fy="193.672" gradientTransform="scale(1.220067,0.819627)" gradientUnits="userSpaceOnUse" xlink:href="#linearGradient4305"/><radialGradient id="radialGradient5761" cx="28.442" cy="192.202" r="10.901" fx="28.442" fy="192.202" gradientTransform="scale(1.228200,0.814200)" gradientUnits="userSpaceOnUse" xlink:href="#linearGradient4255"/><radialGradient id="radialGradient5763" cx="28.442" cy="192.202" r="10.901" fx="28.442" fy="192.202" gradientTransform="scale(1.228200,0.814200)" gradientUnits="userSpaceOnUse" xlink:href="#linearGradient4255"/><linearGradient id="linearGradient5772" x1="192.481" x2="370.322" y1="824.526" y2="1027.308" gradientTransform="matrix(0.111036,0.000000,0.000000,0.105483,-7.029064,68.69130)" gradientUnits="userSpaceOnUse" xlink:href="#linearGradient3618"/><linearGradient id="linearGradient5774" x1="63.394" x2="72.465" y1="712.43" y2="719.76" gradientTransform="matrix(0.733399,0.000000,0.000000,0.633508,-7.044215,-299.8652)" gradientUnits="userSpaceOnUse" xlink:href="#linearGradient4960"/><linearGradient id="linearGradient5776" x1="63.394" x2="72.465" y1="712.43" y2="719.76" gradientTransform="matrix(0.733399,0.000000,0.000000,0.633508,-23.30408,-298.9517)" gradientUnits="userSpaceOnUse" xlink:href="#linearGradient4960"/><linearGradient id="linearGradient5786" x1="192.481" x2="370.322" y1="824.526" y2="1027.308" gradientTransform="matrix(0.111036,0.000000,0.000000,0.105483,-7.029064,68.69130)" gradientUnits="userSpaceOnUse" xlink:href="#linearGradient3618"/><linearGradient id="linearGradient5788" x1="63.394" x2="72.465" y1="712.43" y2="719.76" gradientTransform="matrix(0.733399,0.000000,0.000000,0.633508,-7.044215,-299.8652)" gradientUnits="userSpaceOnUse" xlink:href="#linearGradient4960"/><linearGradient id="linearGradient5790" x1="63.394" x2="72.465" y1="712.43" y2="719.76" gradientTransform="matrix(0.733399,0.000000,0.000000,0.633508,-23.30408,-298.9517)" gradientUnits="userSpaceOnUse" xlink:href="#linearGradient4960"/><linearGradient id="linearGradient6576" x1="109.877" x2="39.943" y1="213.504" y2="-66.948" gradientTransform="scale(2.267604,0.440994)" gradientUnits="userSpaceOnUse" xlink:href="#linearGradient5611"/><radialGradient id="radialGradient6578" cx="136.726" cy="182.328" r="223.025" fx="136.726" fy="182.328" gradientTransform="matrix(0.492483,0.000000,0.000000,0.204424,-42.57266,-39.20266)" gradientUnits="userSpaceOnUse" xlink:href="#linearGradient4960"/><radialGradient id="radialGradient6582" cx="20.373" cy="18.893" r="36.303" fx="20.373" fy="18.893" gradientTransform="matrix(0.960220,0.000000,0.000000,1.041428,661.3695,0.231249)" gradientUnits="userSpaceOnUse" xlink:href="#linearGradient2250"/><radialGradient id="radialGradient11496" cx="20.373" cy="18.893" r="36.303" fx="20.373" fy="18.893" gradientTransform="matrix(0.960220,0.000000,0.000000,1.041428,659.8543,0.231249)" gradientUnits="userSpaceOnUse" xlink:href="#linearGradient2250"/><radialGradient id="radialGradient11575" cx="44.847" cy="21.519" r="16.362" fx="44.847" fy="21.519" gradientTransform="matrix(0.895747,0.000000,0.000000,1.116387,1.553001,-66.94390)" gradientUnits="userSpaceOnUse" xlink:href="#linearGradient2250"/><linearGradient id="linearGradient11601" x1="120.206" x2="128.625" y1="21.868" y2="16.489" gradientTransform="matrix(0.254394,0.000000,0.000000,0.251549,21.80506,-121.6412)" gradientUnits="userSpaceOnUse" xlink:href="#linearGradient5083"/><linearGradient id="linearGradient11755" x1="43.171" x2="117.05" y1="-50.768" y2="204.515" gradientTransform="scale(2.267603,0.440994)" gradientUnits="userSpaceOnUse" xlink:href="#linearGradient5611"/><radialGradient id="radialGradient11757" cx="136.726" cy="182.328" r="223.025" fx="136.726" fy="182.328" gradientTransform="matrix(0.492483,0.000000,0.000000,0.204424,-42.57266,-39.20266)" gradientUnits="userSpaceOnUse" xlink:href="#linearGradient4960"/><radialGradient id="radialGradient11760" cx="20.373" cy="18.893" r="36.303" fx="20.373" fy="18.893" gradientTransform="matrix(0.960220,0.000000,0.000000,1.041428,328.5124,0.231249)" gradientUnits="userSpaceOnUse" xlink:href="#linearGradient2250"/><linearGradient id="linearGradient1617" x1="109.877" x2="39.943" y1="213.504" y2="-66.948" gradientTransform="matrix(2.267604,0.000000,0.000000,0.440994,660.0000,0.000000)" gradientUnits="userSpaceOnUse" xlink:href="#linearGradient5611"/><radialGradient id="radialGradient1619" cx="136.726" cy="182.328" r="223.025" fx="136.726" fy="182.328" gradientTransform="matrix(0.492483,0.000000,0.000000,0.204424,617.4273,-39.20266)" gradientUnits="userSpaceOnUse" xlink:href="#linearGradient4960"/><radialGradient id="radialGradient1861" cx="136.726" cy="182.328" r="223.025" fx="136.726" fy="182.328" gradientTransform="matrix(0.492483,0.000000,0.000000,0.204424,-48.74064,-43.47821)" gradientUnits="userSpaceOnUse" xlink:href="#linearGradient4960"/><linearGradient id="linearGradient1864" x1="41.378" x2="102.704" y1="-104.701" y2="206.313" gradientTransform="matrix(1.945449,0.000000,0.000000,0.440994,-0.203957,-0.601013)" gradientUnits="userSpaceOnUse" xlink:href="#linearGradient5619"/><linearGradient id="linearGradient2671" x1="41.378" x2="102.704" y1="-104.701" y2="206.313" gradientTransform="matrix(1.945449,0.000000,0.000000,0.440994,-0.203957,-0.601013)" gradientUnits="userSpaceOnUse" xlink:href="#linearGradient5611"/><radialGradient id="radialGradient2673" cx="136.726" cy="182.328" r="223.025" fx="136.726" fy="182.328" gradientTransform="matrix(0.492483,0.000000,0.000000,0.204424,-48.74064,-43.47821)" gradientUnits="userSpaceOnUse" xlink:href="#linearGradient4960"/><linearGradient id="linearGradient2683" x1="97.366" x2="41.545" y1="206.215" y2="-90.738" gradientTransform="scale(2.100359,0.476109)" gradientUnits="userSpaceOnUse" xlink:href="#linearGradient5611"/><radialGradient id="radialGradient2685" cx="136.726" cy="182.328" r="223.025" fx="136.726" fy="182.328" gradientTransform="matrix(0.492483,0.000000,0.000000,0.204424,-48.74064,-43.47821)" gradientUnits="userSpaceOnUse" xlink:href="#linearGradient4960"/><linearGradient id="linearGradient1661" x1="41.378" x2="102.704" y1="-104.701" y2="206.313" gradientTransform="matrix(1.945449,0.000000,0.000000,0.440994,-0.203957,-0.601013)" gradientUnits="userSpaceOnUse" xlink:href="#linearGradient5619"/><radialGradient id="radialGradient1663" cx="136.726" cy="182.328" r="223.025" fx="136.726" fy="182.328" gradientTransform="matrix(0.492483,0.000000,0.000000,0.204424,-48.74064,-43.47821)" gradientUnits="userSpaceOnUse" xlink:href="#linearGradient4960"/><linearGradient id="linearGradient1665" x1="41.378" x2="102.704" y1="-104.701" y2="206.313" gradientTransform="matrix(1.945449,0.000000,0.000000,0.440994,-0.203957,-0.601013)" gradientUnits="userSpaceOnUse" xlink:href="#linearGradient5611"/><radialGradient id="radialGradient1667" cx="136.726" cy="182.328" r="223.025" fx="136.726" fy="182.328" gradientTransform="matrix(0.492483,0.000000,0.000000,0.204424,-48.74064,-43.47821)" gradientUnits="userSpaceOnUse" xlink:href="#linearGradient4960"/><linearGradient id="linearGradient1669" x1="97.366" x2="41.545" y1="206.215" y2="-90.738" gradientTransform="scale(2.100359,0.476109)" gradientUnits="userSpaceOnUse" xlink:href="#linearGradient5611"/><radialGradient id="radialGradient1671" cx="136.726" cy="182.328" r="223.025" fx="136.726" fy="182.328" gradientTransform="matrix(0.492483,0.000000,0.000000,0.204424,-48.74064,-43.47821)" gradientUnits="userSpaceOnUse" xlink:href="#linearGradient4960"/><linearGradient id="linearGradient1825" x1="482.886" x2="197.875" y1="444.143" y2="303.581" gradientTransform="matrix(0.185668,0.000000,0.000000,0.144558,-24.17608,-22.48570)" gradientUnits="userSpaceOnUse" xlink:href="#linearGradient1738"/><linearGradient id="linearGradient1827" x1="680.291" x2="681.545" y1="721.964" y2="737.447" gradientTransform="matrix(1.112122,0.000000,0.000000,0.960649,-696.4895,-681.1477)" gradientUnits="userSpaceOnUse" xlink:href="#linearGradient4960"/><linearGradient id="linearGradient1829" x1="651.095" x2="652.257" y1="720.266" y2="728.051" gradientTransform="matrix(1.112122,0.000000,0.000000,0.960649,-696.4248,-681.7953)" gradientUnits="userSpaceOnUse" xlink:href="#linearGradient4960"/><linearGradient id="linearGradient1831" x1="192.481" x2="370.322" y1="824.526" y2="1027.308" gradientTransform="matrix(0.111036,0.000000,0.000000,0.105483,-7.029064,68.69130)" gradientUnits="userSpaceOnUse" xlink:href="#linearGradient3618"/><linearGradient id="linearGradient1833" x1="63.394" x2="72.465" y1="712.43" y2="719.76" gradientTransform="matrix(0.733399,0.000000,0.000000,0.633508,-7.044215,-299.8652)" gradientUnits="userSpaceOnUse" xlink:href="#linearGradient4960"/><linearGradient id="linearGradient1835" x1="63.394" x2="72.465" y1="712.43" y2="719.76" gradientTransform="matrix(0.733399,0.000000,0.000000,0.633508,-23.30408,-298.9517)" gradientUnits="userSpaceOnUse" xlink:href="#linearGradient4960"/><linearGradient id="linearGradient1857" x1="482.886" x2="197.875" y1="444.143" y2="303.581" gradientTransform="matrix(0.185668,0.000000,0.000000,0.144558,-24.17608,-22.48570)" gradientUnits="userSpaceOnUse" xlink:href="#linearGradient1738"/><linearGradient id="linearGradient1859" x1="680.291" x2="681.545" y1="721.964" y2="737.447" gradientTransform="matrix(1.112122,0.000000,0.000000,0.960649,-696.4895,-681.1477)" gradientUnits="userSpaceOnUse" xlink:href="#linearGradient4960"/><linearGradient id="linearGradient1861" x1="651.095" x2="652.257" y1="720.266" y2="728.051" gradientTransform="matrix(1.112122,0.000000,0.000000,0.960649,-696.4248,-681.7953)" gradientUnits="userSpaceOnUse" xlink:href="#linearGradient4960"/><linearGradient id="linearGradient1863" x1="192.481" x2="370.322" y1="824.526" y2="1027.308" gradientTransform="matrix(0.111036,0.000000,0.000000,0.105483,-7.029064,68.69130)" gradientUnits="userSpaceOnUse" xlink:href="#linearGradient3618"/><linearGradient id="linearGradient1865" x1="63.394" x2="72.465" y1="712.43" y2="719.76" gradientTransform="matrix(0.733399,0.000000,0.000000,0.633508,-7.044215,-299.8652)" gradientUnits="userSpaceOnUse" xlink:href="#linearGradient4960"/><linearGradient id="linearGradient1867" x1="63.394" x2="72.465" y1="712.43" y2="719.76" gradientTransform="matrix(0.733399,0.000000,0.000000,0.633508,-23.30408,-298.9517)" gradientUnits="userSpaceOnUse" xlink:href="#linearGradient4960"/></defs><metadata id="metadata4"/><g id="normal"><g id="g1637" transform="translate(0.000000,73.37610)"><rect id="rect1639" width="271.986" height="60.887" x="3.617" y="3.103" rx="11.546" ry="11.546" style="fill:#000;fill-opacity:.5529412;fill-rule:nonzero;stroke:none;stroke-width:.88167548;stroke-linecap:round;stroke-linejoin:round;stroke-miterlimit:4;stroke-opacity:.63667822"/><rect id="rect1641" width="271.986" height="60.887" x=".467" y=".478" rx="11.546" ry="11.546" style="fill:url(#linearGradient1661);fill-opacity:1;fill-rule:nonzero;stroke:#4494e1;stroke-width:.88167548;stroke-linecap:round;stroke-linejoin:round;stroke-miterlimit:4;stroke-opacity:.63667822"/><path id="path1643" d="M 5.8153024,14.128544 C 2.9045644,15.314034 3.2545356,4.9257225 13.278670,2.8473072 C 18.223200,1.8221028 141.78467,2.7484237 146.38299,3.4347599 C 149.00358,3.8259022 73.089532,2.9702836 38.435123,5.0805588 C 3.7807175,7.1908341 10.385950,12.267003 5.8153024,14.128544 z" style="fill:url(#radialGradient1663);fill-opacity:1;fill-rule:evenodd;stroke:none;stroke-width:.25pt;stroke-linecap:butt;stroke-linejoin:miter;stroke-opacity:1"/></g><g id="g1645" transform="translate(298.1629,73.37610)"><rect id="rect1647" width="271.986" height="60.887" x="3.617" y="3.103" rx="11.546" ry="11.546" style="fill:#000;fill-opacity:.5529412;fill-rule:nonzero;stroke:none;stroke-width:.88167548;stroke-linecap:round;stroke-linejoin:round;stroke-miterlimit:4;stroke-opacity:.63667822"/><rect id="rect1649" width="271.986" height="60.887" x=".467" y=".478" rx="11.546" ry="11.546" style="fill:url(#linearGradient1665);fill-opacity:1;fill-rule:nonzero;stroke:#4494e1;stroke-width:.88167548;stroke-linecap:round;stroke-linejoin:round;stroke-miterlimit:4;stroke-opacity:.63667822"/><path id="path1651" d="M 5.8153024,14.128544 C 2.9045644,15.314034 3.2545356,4.9257225 13.278670,2.8473072 C 18.223200,1.8221028 141.78467,2.7484237 146.38299,3.4347599 C 149.00358,3.8259022 73.089532,2.9702836 38.435123,5.0805588 C 3.7807175,7.1908341 10.385950,12.267003 5.8153024,14.128544 z" style="fill:url(#radialGradient1667);fill-opacity:1;fill-rule:evenodd;stroke:none;stroke-width:.25pt;stroke-linecap:butt;stroke-linejoin:miter;stroke-opacity:1"/></g><g id="g1653" transform="translate(598.4256,73.37610)"><rect id="rect1655" width="271.986" height="60.887" x="3.617" y="3.103" rx="11.546" ry="11.546" style="fill:#000;fill-opacity:.5529412;fill-rule:nonzero;stroke:none;stroke-width:.88167548;stroke-linecap:round;stroke-linejoin:round;stroke-miterlimit:4;stroke-opacity:.63667822"/><rect id="rect1657" width="271.986" height="60.887" x=".467" y=".478" rx="11.546" ry="11.546" style="fill:url(#linearGradient1669);fill-opacity:1;fill-rule:nonzero;stroke:#4494e1;stroke-width:.88167548;stroke-linecap:round;stroke-linejoin:round;stroke-miterlimit:4;stroke-opacity:.63667822"/><path id="path1659" d="M 5.8153024,14.128544 C 2.9045644,15.314034 3.2545356,4.9257225 13.278670,2.8473072 C 18.223200,1.8221028 141.78467,2.7484237 146.38299,3.4347599 C 149.00358,3.8259022 73.089532,2.9702836 38.435123,5.0805588 C 3.7807175,7.1908341 10.385950,12.267003 5.8153024,14.128544 z" style="fill:url(#radialGradient1671);fill-opacity:1;fill-rule:evenodd;stroke:none;stroke-width:.25pt;stroke-linecap:butt;stroke-linejoin:miter;stroke-opacity:1"/></g><g id="g2648"><rect id="rect1867" width="271.986" height="60.887" x="3.617" y="3.103" rx="11.546" ry="11.546" style="stroke-opacity:.63667822;stroke-miterlimit:4;stroke-linejoin:round;stroke-linecap:round;stroke-width:.88167548;stroke:none;fill-rule:nonzero;fill-opacity:.5529412;fill:#000"/><rect id="rect1529" width="271.986" height="60.887" x=".467" y=".478" rx="11.546" ry="11.546" style="fill:url(#linearGradient1864);fill-opacity:1;fill-rule:nonzero;stroke:#4494e1;stroke-width:.88167548;stroke-linecap:round;stroke-linejoin:round;stroke-miterlimit:4;stroke-opacity:.63667822"/><path id="path1531" d="M 5.8153024,14.128544 C 2.9045644,15.314034 3.2545356,4.9257225 13.278670,2.8473072 C 18.223200,1.8221028 141.78467,2.7484237 146.38299,3.4347599 C 149.00358,3.8259022 73.089532,2.9702836 38.435123,5.0805588 C 3.7807175,7.1908341 10.385950,12.267003 5.8153024,14.128544 z" style="fill:url(#radialGradient1861);fill-opacity:1;fill-rule:evenodd;stroke:none;stroke-width:.25pt;stroke-linecap:butt;stroke-linejoin:miter;stroke-opacity:1"/></g><g id="g2663" transform="translate(298.1629,0.000000)"><rect id="rect2665" width="271.986" height="60.887" x="3.617" y="3.103" rx="11.546" ry="11.546" style="fill:#000;fill-opacity:.5529412;fill-rule:nonzero;stroke:none;stroke-width:.88167548;stroke-linecap:round;stroke-linejoin:round;stroke-miterlimit:4;stroke-opacity:.63667822"/><rect id="rect2667" width="271.986" height="60.887" x=".467" y=".478" rx="11.546" ry="11.546" style="stroke-opacity:.63667822;stroke-miterlimit:4;stroke-linejoin:round;stroke-linecap:round;stroke-width:.88167548;stroke:#4494e1;fill-rule:nonzero;fill-opacity:1;fill:url(#linearGradient2671)"/><path id="path2669" d="M 5.8153024,14.128544 C 2.9045644,15.314034 3.2545356,4.9257225 13.278670,2.8473072 C 18.223200,1.8221028 141.78467,2.7484237 146.38299,3.4347599 C 149.00358,3.8259022 73.089532,2.9702836 38.435123,5.0805588 C 3.7807175,7.1908341 10.385950,12.267003 5.8153024,14.128544 z" style="fill:url(#radialGradient2673);fill-opacity:1;fill-rule:evenodd;stroke:none;stroke-width:.25pt;stroke-linecap:butt;stroke-linejoin:miter;stroke-opacity:1"/></g><g id="g2675" transform="translate(598.4256,0.000000)"><rect id="rect2677" width="271.986" height="60.887" x="3.617" y="3.103" rx="11.546" ry="11.546" style="fill:#000;fill-opacity:.5529412;fill-rule:nonzero;stroke:none;stroke-width:.88167548;stroke-linecap:round;stroke-linejoin:round;stroke-miterlimit:4;stroke-opacity:.63667822"/><rect id="rect2679" width="271.986" height="60.887" x=".467" y=".478" rx="11.546" ry="11.546" style="fill:url(#linearGradient2683);fill-opacity:1;fill-rule:nonzero;stroke:#4494e1;stroke-width:.88167548;stroke-linecap:round;stroke-linejoin:round;stroke-miterlimit:4;stroke-opacity:.63667822"/><path id="path2681" d="M 5.8153024,14.128544 C 2.9045644,15.314034 3.2545356,4.9257225 13.278670,2.8473072 C 18.223200,1.8221028 141.78467,2.7484237 146.38299,3.4347599 C 149.00358,3.8259022 73.089532,2.9702836 38.435123,5.0805588 C 3.7807175,7.1908341 10.385950,12.267003 5.8153024,14.128544 z" style="fill:url(#radialGradient2685);fill-opacity:1;fill-rule:evenodd;stroke:none;stroke-width:.25pt;stroke-linecap:butt;stroke-linejoin:miter;stroke-opacity:1"/></g><g id="g2642"><path style="fill:#000;fill-opacity:.55102038;fill-rule:evenodd;stroke:none;stroke-width:5;stroke-linecap:square;stroke-linejoin:round;stroke-miterlimit:4;stroke-opacity:.5529412" id="path3839" d="M 11.257560,19.945867 L 30.910044,59.250784 L 72.299313,23.816810 L 67.832849,16.670458 L 38.651910,33.047495 L 33.292147,11.906212 L 11.257560,19.945867 z"/><path style="fill:url(#linearGradient1846);fill-opacity:1;fill-rule:evenodd;stroke:#008409;stroke-width:.81913668;stroke-linecap:round;stroke-linejoin:round;stroke-miterlimit:4;stroke-opacity:1" id="path3841" d="M 11.108696,15.926040 L 30.761159,55.230970 L 72.150422,19.796983 L 67.683966,12.650631 L 38.503026,29.027689 L 33.143263,7.8864048 L 11.108696,15.926040 z"/><path style="fill:url(#linearGradient1843);fill-opacity:1;fill-rule:evenodd;stroke:none;stroke-width:.25pt;stroke-linecap:butt;stroke-linejoin:miter;stroke-opacity:1" id="path3843" d="M 66.597974,14.734549 C 64.722544,15.503268 57.516330,19.779171 54.266480,21.954100 C 51.016603,24.129025 53.045374,24.707268 53.755524,24.210563 C 63.983894,17.056352 63.241981,17.478405 69.967554,20.112004 C 71.265179,20.620134 68.270523,14.048999 66.597974,14.734549 z"/><path style="fill:url(#linearGradient1840);fill-opacity:1;fill-rule:evenodd;stroke:none;stroke-width:.25pt;stroke-linecap:butt;stroke-linejoin:miter;stroke-opacity:1" id="path3845" d="M 31.011382,10.188922 C 28.068532,10.386505 20.293686,14.259457 21.975413,14.235734 C 30.453619,14.116207 30.103629,11.998057 32.933837,15.899432 C 33.752132,17.027434 33.574969,10.016813 31.011382,10.188922 z"/></g><g id="quit" transform="matrix(1.223034,0.000000,0.000000,1.223034,-4.627883,-100.2161)"><path style="fill:#000;fill-opacity:.55102038;fill-rule:evenodd;stroke:none;stroke-width:5;stroke-linecap:round;stroke-linejoin:round;stroke-miterlimit:4;stroke-opacity:1" id="path4863" d="M 16.673622,162.71522 L 28.279067,149.33944 L 36.540580,160.35478 L 44.015270,148.74934 L 55.620714,161.33830 L 43.621866,168.61629 L 56.604220,177.07450 L 44.408676,189.27004 L 37.524088,176.28769 L 29.459280,188.67993 L 17.657130,177.66461 L 29.655989,169.00969 L 16.673622,162.71522 z"/><path style="fill:url(#linearGradient5772);fill-opacity:1;fill-rule:evenodd;stroke:#960000;stroke-width:.54111958;stroke-linecap:round;stroke-linejoin:round;stroke-miterlimit:4;stroke-opacity:1" id="path2992" d="M 15.985167,161.14159 L 27.590612,147.76582 L 35.852114,158.78116 L 43.326815,147.17572 L 54.932259,159.76467 L 42.933410,167.04266 L 55.915764,175.50087 L 43.720209,187.69642 L 36.835632,174.71407 L 28.770825,187.10630 L 16.968674,176.09098 L 28.967522,167.43607 L 15.985167,161.14159 z"/><path id="path5732" d="M 43.333661,149.08419 C 41.096585,150.54764 37.375768,158.41319 37.897195,158.02414 C 44.623046,153.00583 42.401917,150.85092 46.837156,152.58768 C 47.692887,152.92277 44.351205,148.41852 43.333661,149.08419 z" style="fill:url(#linearGradient5774);fill-opacity:1;fill-rule:evenodd;stroke:none;stroke-width:.25pt;stroke-linecap:butt;stroke-linejoin:miter;stroke-opacity:1"/><path id="path6502" d="M 27.073860,149.99750 C 24.706039,151.23834 22.205413,155.06277 23.207927,154.58829 C 28.969811,151.86127 26.987791,154.18044 30.818985,154.10505 C 31.737805,154.08752 28.574652,149.21103 27.073860,149.99750 z" style="fill:url(#linearGradient5776);fill-opacity:1;fill-rule:evenodd;stroke:none;stroke-width:.25pt;stroke-linecap:butt;stroke-linejoin:miter;stroke-opacity:1"/></g><g id="g1805" transform="translate(298.1545,0.000000)"><path style="fill:#000;fill-opacity:.55102038;fill-rule:evenodd;stroke:none;stroke-width:5;stroke-linecap:square;stroke-linejoin:round;stroke-miterlimit:4;stroke-opacity:.5529412" id="path1807" d="M 11.257560,19.945867 L 30.910044,59.250784 L 72.299313,23.816810 L 67.832849,16.670458 L 38.651910,33.047495 L 33.292147,11.906212 L 11.257560,19.945867 z"/><path style="fill:url(#linearGradient1825);fill-opacity:1;fill-rule:evenodd;stroke:#008409;stroke-width:.81913668;stroke-linecap:round;stroke-linejoin:round;stroke-miterlimit:4;stroke-opacity:1" id="path1809" d="M 11.108696,15.926040 L 30.761159,55.230970 L 72.150422,19.796983 L 67.683966,12.650631 L 38.503026,29.027689 L 33.143263,7.8864048 L 11.108696,15.926040 z"/><path style="fill:url(#linearGradient1827);fill-opacity:1;fill-rule:evenodd;stroke:none;stroke-width:.25pt;stroke-linecap:butt;stroke-linejoin:miter;stroke-opacity:1" id="path1811" d="M 66.597974,14.734549 C 64.722544,15.503268 57.516330,19.779171 54.266480,21.954100 C 51.016603,24.129025 53.045374,24.707268 53.755524,24.210563 C 63.983894,17.056352 63.241981,17.478405 69.967554,20.112004 C 71.265179,20.620134 68.270523,14.048999 66.597974,14.734549 z"/><path style="fill:url(#linearGradient1829);fill-opacity:1;fill-rule:evenodd;stroke:none;stroke-width:.25pt;stroke-linecap:butt;stroke-linejoin:miter;stroke-opacity:1" id="path1813" d="M 31.011382,10.188922 C 28.068532,10.386505 20.293686,14.259457 21.975413,14.235734 C 30.453619,14.116207 30.103629,11.998057 32.933837,15.899432 C 33.752132,17.027434 33.574969,10.016813 31.011382,10.188922 z"/></g><g id="g1815" transform="matrix(1.223034,0.000000,0.000000,1.223034,293.5266,-100.2161)"><path style="fill:#000;fill-opacity:.55102038;fill-rule:evenodd;stroke:none;stroke-width:5;stroke-linecap:round;stroke-linejoin:round;stroke-miterlimit:4;stroke-opacity:1" id="path1817" d="M 16.673622,162.71522 L 28.279067,149.33944 L 36.540580,160.35478 L 44.015270,148.74934 L 55.620714,161.33830 L 43.621866,168.61629 L 56.604220,177.07450 L 44.408676,189.27004 L 37.524088,176.28769 L 29.459280,188.67993 L 17.657130,177.66461 L 29.655989,169.00969 L 16.673622,162.71522 z"/><path style="fill:url(#linearGradient1831);fill-opacity:1;fill-rule:evenodd;stroke:#960000;stroke-width:.54111958;stroke-linecap:round;stroke-linejoin:round;stroke-miterlimit:4;stroke-opacity:1" id="path1819" d="M 15.985167,161.14159 L 27.590612,147.76582 L 35.852114,158.78116 L 43.326815,147.17572 L 54.932259,159.76467 L 42.933410,167.04266 L 55.915764,175.50087 L 43.720209,187.69642 L 36.835632,174.71407 L 28.770825,187.10630 L 16.968674,176.09098 L 28.967522,167.43607 L 15.985167,161.14159 z"/><path id="path1821" d="M 43.333661,149.08419 C 41.096585,150.54764 37.375768,158.41319 37.897195,158.02414 C 44.623046,153.00583 42.401917,150.85092 46.837156,152.58768 C 47.692887,152.92277 44.351205,148.41852 43.333661,149.08419 z" style="fill:url(#linearGradient1833);fill-opacity:1;fill-rule:evenodd;stroke:none;stroke-width:.25pt;stroke-linecap:butt;stroke-linejoin:miter;stroke-opacity:1"/><path id="path1823" d="M 27.073860,149.99750 C 24.706039,151.23834 22.205413,155.06277 23.207927,154.58829 C 28.969811,151.86127 26.987791,154.18044 30.818985,154.10505 C 31.737805,154.08752 28.574652,149.21103 27.073860,149.99750 z" style="fill:url(#linearGradient1835);fill-opacity:1;fill-rule:evenodd;stroke:none;stroke-width:.25pt;stroke-linecap:butt;stroke-linejoin:miter;stroke-opacity:1"/></g><g id="g1837" transform="translate(599.2321,0.000000)"><path style="fill:#000;fill-opacity:.55102038;fill-rule:evenodd;stroke:none;stroke-width:5;stroke-linecap:square;stroke-linejoin:round;stroke-miterlimit:4;stroke-opacity:.5529412" id="path1839" d="M 11.257560,19.945867 L 30.910044,59.250784 L 72.299313,23.816810 L 67.832849,16.670458 L 38.651910,33.047495 L 33.292147,11.906212 L 11.257560,19.945867 z"/><path style="fill:url(#linearGradient1857);fill-opacity:1;fill-rule:evenodd;stroke:#008409;stroke-width:.81913668;stroke-linecap:round;stroke-linejoin:round;stroke-miterlimit:4;stroke-opacity:1" id="path1841" d="M 11.108696,15.926040 L 30.761159,55.230970 L 72.150422,19.796983 L 67.683966,12.650631 L 38.503026,29.027689 L 33.143263,7.8864048 L 11.108696,15.926040 z"/><path style="fill:url(#linearGradient1859);fill-opacity:1;fill-rule:evenodd;stroke:none;stroke-width:.25pt;stroke-linecap:butt;stroke-linejoin:miter;stroke-opacity:1" id="path1843" d="M 66.597974,14.734549 C 64.722544,15.503268 57.516330,19.779171 54.266480,21.954100 C 51.016603,24.129025 53.045374,24.707268 53.755524,24.210563 C 63.983894,17.056352 63.241981,17.478405 69.967554,20.112004 C 71.265179,20.620134 68.270523,14.048999 66.597974,14.734549 z"/><path style="fill:url(#linearGradient1861);fill-opacity:1;fill-rule:evenodd;stroke:none;stroke-width:.25pt;stroke-linecap:butt;stroke-linejoin:miter;stroke-opacity:1" id="path1845" d="M 31.011382,10.188922 C 28.068532,10.386505 20.293686,14.259457 21.975413,14.235734 C 30.453619,14.116207 30.103629,11.998057 32.933837,15.899432 C 33.752132,17.027434 33.574969,10.016813 31.011382,10.188922 z"/></g><g id="g1847" transform="matrix(1.223034,0.000000,0.000000,1.223034,594.6042,-100.2161)"><path style="fill:#000;fill-opacity:.55102038;fill-rule:evenodd;stroke:none;stroke-width:5;stroke-linecap:round;stroke-linejoin:round;stroke-miterlimit:4;stroke-opacity:1" id="path1849" d="M 16.673622,162.71522 L 28.279067,149.33944 L 36.540580,160.35478 L 44.015270,148.74934 L 55.620714,161.33830 L 43.621866,168.61629 L 56.604220,177.07450 L 44.408676,189.27004 L 37.524088,176.28769 L 29.459280,188.67993 L 17.657130,177.66461 L 29.655989,169.00969 L 16.673622,162.71522 z"/><path style="fill:url(#linearGradient1863);fill-opacity:1;fill-rule:evenodd;stroke:#960000;stroke-width:.54111958;stroke-linecap:round;stroke-linejoin:round;stroke-miterlimit:4;stroke-opacity:1" id="path1851" d="M 15.985167,161.14159 L 27.590612,147.76582 L 35.852114,158.78116 L 43.326815,147.17572 L 54.932259,159.76467 L 42.933410,167.04266 L 55.915764,175.50087 L 43.720209,187.69642 L 36.835632,174.71407 L 28.770825,187.10630 L 16.968674,176.09098 L 28.967522,167.43607 L 15.985167,161.14159 z"/><path id="path1853" d="M 43.333661,149.08419 C 41.096585,150.54764 37.375768,158.41319 37.897195,158.02414 C 44.623046,153.00583 42.401917,150.85092 46.837156,152.58768 C 47.692887,152.92277 44.351205,148.41852 43.333661,149.08419 z" style="fill:url(#linearGradient1865);fill-opacity:1;fill-rule:evenodd;stroke:none;stroke-width:.25pt;stroke-linecap:butt;stroke-linejoin:miter;stroke-opacity:1"/><path id="path1855" d="M 27.073860,149.99750 C 24.706039,151.23834 22.205413,155.06277 23.207927,154.58829 C 28.969811,151.86127 26.987791,154.18044 30.818985,154.10505 C 31.737805,154.08752 28.574652,149.21103 27.073860,149.99750 z" style="fill:url(#linearGradient1867);fill-opacity:1;fill-rule:evenodd;stroke:none;stroke-width:.25pt;stroke-linecap:butt;stroke-linejoin:miter;stroke-opacity:1"/></g></g></svg>