<svg xmlns="http://www.w3.org/2000/svg" xmlns:cc="http://web.resource.org/cc/" xmlns:svg="http://www.w3.org/2000/svg" xmlns:xlink="http://www.w3.org/1999/xlink" xmlns:xml="http://www.w3.org/XML/1998/namespace" id="svg2" width="210mm" height="297mm"><defs id="defs3"><linearGradient id="linearGradient5102"><stop style="stop-color:#312fc8;stop-opacity:1" id="stop5104" offset="0"/><stop style="stop-color:#17174b;stop-opacity:1" id="stop5106" offset="1"/></linearGradient><linearGradient id="linearGradient3570"><stop style="stop-color:#feff9a;stop-opacity:1" id="stop3572" offset="0"/><stop style="stop-color:#fcff00;stop-opacity:1" id="stop3574" offset="1"/></linearGradient><radialGradient id="radialGradient3578" cx="236.797" cy="391.701" r="361.682" fx="236.797" fy="391.701" gradientTransform="matrix(1.068198,0.000000,0.000000,0.936156,11.42857,-217.1429)" gradientUnits="userSpaceOnUse" xlink:href="#linearGradient3570"/><radialGradient id="radialGradient5110" cx="254.236" cy="668.036" r="336.444" fx="254.236" fy="668.036" gradientUnits="userSpaceOnUse" xlink:href="#linearGradient5102"/></defs><metadata id="metadata4"/><g id="layer1"><path style="fill:url(#radialGradient3578);fill-opacity:1;fill-rule:evenodd;stroke:#000;stroke-width:8;stroke-linecap:butt;stroke-linejoin:miter;stroke-miterlimit:4;stroke-opacity:1" id="path1291" d="M 390.92261,35.891513 L 623.73629,439.13664 C 629.27751,448.73432 618.21268,467.93986 607.13023,467.93986 L 141.83167,467.93986 C 130.74530,467.93986 119.66481,448.74110 125.20212,439.13664 L 357.68700,35.891513 C 363.22039,26.293823 385.38334,26.297213 390.92261,35.891513 z"/><path style="fill:none;fill-opacity:.75;fill-rule:evenodd;stroke:#000;stroke-width:8.0299129;stroke-linecap:butt;stroke-linejoin:miter;stroke-miterlimit:4;stroke-opacity:1" id="path2052" d="M 387.54193,84.491803 L 572.51477,411.75061 C 576.91733,419.53974 568.12621,435.12625 559.32109,435.12625 L 189.63664,435.12625 C 180.82841,435.12625 172.02485,419.54524 176.42430,411.75061 L 361.13590,84.491803 C 365.53224,76.702683 383.14092,76.705433 387.54193,84.491803 z"/><text style="font-size:338.85992;font-style:normal;font-variant:normal;font-weight:700;font-stretch:normal;fill:#000;fill-opacity:1;stroke:none;stroke-width:1px;stroke-linecap:butt;stroke-linejoin:miter;stroke-opacity:1;font-family:Bitstream Vera Sans;text-anchor:start;writing-mode:lr-tb" id="text3580" x="298.944" y="407.954" xml:space="preserve"><tspan id="tspan3582" x="298.944" y="407.954">!</tspan></text><path style="opacity:1;fill:url(#radialGradient5110);fill-opacity:1;stroke:#64beff;stroke-width:8;stroke-linecap:round;stroke-linejoin:round;stroke-miterlimit:4;stroke-opacity:1" id="path4342" d="M 617.14287 812.36218 A 248.57143 248.57143 0 1 1 120.00002,812.36218 A 248.57143 248.57143 0 1 1 617.14287 812.36218 z" transform="translate(17.14286,-42.85714)"/><text style="writing-mode:lr-tb;text-anchor:start;font-family:Bitstream Charter;stroke-opacity:1;stroke-linejoin:miter;stroke-linecap:butt;stroke-width:4;stroke:none;fill-opacity:1;fill:#fff;font-stretch:normal;font-weight:700;font-variant:normal;font-style:normal;font-size:436.94308;stroke-dasharray:none;stroke-miterlimit:4" id="text5112" x="317.097" y="923.791" xml:space="preserve"><tspan id="tspan5114" x="317.097" y="923.791" style="fill-opacity:1;fill:#fff;stroke-opacity:1;stroke:none;stroke-dasharray:none;stroke-miterlimit:4;stroke-width:4">i</tspan></text></g></svg>