<svg xmlns="http://www.w3.org/2000/svg" xmlns:cc="http://web.resource.org/cc/" xmlns:xlink="http://www.w3.org/1999/xlink" id="svg1" width="755.906" height="755.906"><defs id="defs3"><linearGradient id="linearGradient11734"><stop style="stop-color:#bbb;stop-opacity:1" id="stop11735" offset="0"/><stop style="stop-color:#545454;stop-opacity:1" id="stop11736" offset="1"/></linearGradient><linearGradient id="linearGradient10479"><stop style="stop-color:#000;stop-opacity:.67058825" id="stop10480" offset="0"/><stop style="stop-color:#000;stop-opacity:0" id="stop10481" offset="1"/></linearGradient><linearGradient id="linearGradient9853"><stop style="stop-color:#3aac2e;stop-opacity:1" id="stop9854" offset="0"/><stop style="stop-color:#27761f;stop-opacity:1" id="stop9855" offset="1"/></linearGradient><linearGradient id="linearGradient6738"><stop style="stop-color:#eeef0f;stop-opacity:1" id="stop6739" offset="0"/><stop style="stop-color:#e9dc4a;stop-opacity:1" id="stop6741" offset=".275"/><stop style="stop-color:#e69d1c;stop-opacity:1" id="stop6740" offset="1"/></linearGradient><linearGradient id="linearGradient6070"><stop style="stop-color:#4559ed;stop-opacity:1" id="stop6071" offset="0"/><stop style="stop-color:#263285;stop-opacity:1" id="stop6074" offset=".28"/><stop style="stop-color:#11173d;stop-opacity:1" id="stop6072" offset="1"/></linearGradient><radialGradient id="radialGradient6073" cx="93.634" cy="463.105" r="332.642" fx="93.634" fy="463.105" gradientTransform="scale(1.272509,0.785849)" gradientUnits="userSpaceOnUse" xlink:href="#linearGradient6070"/><radialGradient id="radialGradient6081" cx="93.634" cy="463.105" r="332.642" fx="93.634" fy="463.105" gradientTransform="matrix(1.272509,0.000000,0.000000,0.785849,366.1719,10.84783)" gradientUnits="userSpaceOnUse" xlink:href="#linearGradient6070"/><radialGradient id="radialGradient6094" cx="93.634" cy="463.105" r="332.642" fx="93.634" fy="463.105" gradientTransform="matrix(1.011612,-3.272409e-2,2.146942e-2,0.610076,477.9421,29.29919)" gradientUnits="userSpaceOnUse" xlink:href="#linearGradient6070"/><radialGradient id="radialGradient6095" cx="93.634" cy="463.105" r="332.642" fx="93.634" fy="463.105" gradientTransform="matrix(1.011612,-3.272409e-2,2.146942e-2,0.610076,186.5486,30.29424)" gradientUnits="userSpaceOnUse" xlink:href="#linearGradient6070"/><radialGradient id="radialGradient6108" cx="93.634" cy="463.105" r="332.642" fx="93.634" fy="463.105" gradientTransform="matrix(0.616376,-2.383447e-2,1.543095e-2,0.371713,601.9138,98.59654)" gradientUnits="userSpaceOnUse" xlink:href="#linearGradient6070"/><radialGradient id="radialGradient6109" cx="93.634" cy="463.105" r="332.642" fx="93.634" fy="463.105" gradientTransform="matrix(0.616376,-2.383447e-2,1.543095e-2,0.371713,424.3353,100.3239)" gradientUnits="userSpaceOnUse" xlink:href="#linearGradient6070"/><radialGradient id="radialGradient6737" cx="111.567" cy="109.866" r="208" fx="111.567" fy="109.866" gradientTransform="scale(1.120748,0.892261)" gradientUnits="userSpaceOnUse" xlink:href="#linearGradient6738"/><radialGradient id="radialGradient9856" cx="5.583" cy="403.71" r="829.625" fx="5.583" fy="403.71" gradientTransform="scale(1.329680,0.752061)" gradientUnits="userSpaceOnUse" xlink:href="#linearGradient9853"/><radialGradient id="radialGradient10482" cx="164.121" cy="528.361" r="165.992" fx="164.121" fy="528.361" gradientTransform="scale(1.102612,0.906938)" gradientUnits="userSpaceOnUse" xlink:href="#linearGradient10479"/><radialGradient id="radialGradient11105" cx="164.121" cy="528.361" r="165.992" fx="164.121" fy="528.361" gradientTransform="scale(1.102612,0.906938)" gradientUnits="userSpaceOnUse" xlink:href="#linearGradient10479"/><radialGradient id="radialGradient11107" cx="164.121" cy="528.361" r="165.992" fx="164.121" fy="528.361" gradientTransform="scale(1.102612,0.906938)" gradientUnits="userSpaceOnUse" xlink:href="#linearGradient10479"/><linearGradient id="linearGradient11733" x1="148.428" x2="186.587" y1="335.587" y2="335.587" gradientTransform="matrix(0.617887,0.000000,0.000000,1.618418,-20.28259,-8.948201)" gradientUnits="userSpaceOnUse" xlink:href="#linearGradient11734"/><linearGradient id="linearGradient12359" x1="148.428" x2="186.587" y1="335.587" y2="335.587" gradientTransform="matrix(0.698409,0.000000,0.000000,1.829329,204.8864,-36.91511)" gradientUnits="userSpaceOnUse" xlink:href="#linearGradient11734"/><linearGradient id="linearGradient12361" x1="148.428" x2="186.587" y1="335.587" y2="335.587" gradientTransform="matrix(0.694189,0.000000,0.000000,1.818275,216.8812,-30.25335)" gradientUnits="userSpaceOnUse" xlink:href="#linearGradient11734"/><linearGradient id="linearGradient12363" x1="148.428" x2="186.587" y1="335.587" y2="335.587" gradientTransform="matrix(0.856051,0.000000,0.000000,2.242237,353.2490,-144.0593)" gradientUnits="userSpaceOnUse" xlink:href="#linearGradient11734"/><radialGradient id="radialGradient12365" cx="164.121" cy="528.361" r="165.992" fx="164.121" fy="528.361" gradientTransform="scale(1.102612,0.906938)" gradientUnits="userSpaceOnUse" xlink:href="#linearGradient10479"/><radialGradient id="radialGradient12367" cx="164.121" cy="528.361" r="165.992" fx="164.121" fy="528.361" gradientTransform="scale(1.102612,0.906938)" gradientUnits="userSpaceOnUse" xlink:href="#linearGradient10479"/><radialGradient id="radialGradient12369" cx="164.121" cy="528.361" r="165.992" fx="164.121" fy="528.361" gradientTransform="scale(1.102612,0.906938)" gradientUnits="userSpaceOnUse" xlink:href="#linearGradient10479"/></defs><metadata id="metadata4"/><g id="layer1"><path style="fill:url(#radialGradient9856);fill-opacity:1;fill-rule:evenodd;stroke:#000;stroke-width:.25pt;stroke-linecap:butt;stroke-linejoin:miter;stroke-opacity:1" id="path9231" d="M -1.5959822e-07,441.22607 L 707.81773,399.04385 L 711.19231,711.19231 L 0.84364414,709.50502 L -1.5959822e-07,441.22607 z"/><path style="fill:url(#radialGradient10482);fill-opacity:1;fill-rule:nonzero;stroke:none;stroke-width:7.5;stroke-linecap:round;stroke-linejoin:round;stroke-miterlimit:4;stroke-opacity:1" id="path9857" d="M 360.23621 479.19006 A 179.27446 146.79414 0 1 1 1.6872864,479.19006 A 179.27446 146.79414 0 1 1 360.23621 479.19006 z" transform="matrix(1.298824,0.000000,0.000000,0.537356,32.04849,314.9170)"/><path style="fill:url(#radialGradient12367);fill-opacity:1;fill-rule:nonzero;stroke:none;stroke-width:7.5;stroke-linecap:round;stroke-linejoin:round;stroke-miterlimit:4;stroke-opacity:1" id="path12366" d="M 360.23621 479.19006 A 179.27446 146.79414 0 1 1 1.6872864,479.19006 A 179.27446 146.79414 0 1 1 360.23621 479.19006 z" transform="matrix(0.225160,0.000000,0.000000,9.643020e-2,313.0069,566.1107)"/><path style="fill:url(#radialGradient12365);fill-opacity:1;fill-rule:nonzero;stroke:none;stroke-width:7.5;stroke-linecap:round;stroke-linejoin:round;stroke-miterlimit:4;stroke-opacity:1" id="path12364" d="M 360.23621 479.19006 A 179.27446 146.79414 0 1 1 1.6872864,479.19006 A 179.27446 146.79414 0 1 1 360.23621 479.19006 z" transform="matrix(0.208522,0.000000,0.000000,8.627062e-2,58.51359,521.1673)"/><path style="fill:url(#radialGradient11107);fill-opacity:1;fill-rule:nonzero;stroke:none;stroke-width:7.5;stroke-linecap:round;stroke-linejoin:round;stroke-miterlimit:4;stroke-opacity:1" id="path11106" d="M 360.23621 479.19006 A 179.27446 146.79414 0 1 1 1.6872864,479.19006 A 179.27446 146.79414 0 1 1 360.23621 479.19006 z" transform="matrix(1.045929,0.000000,0.000000,0.431696,213.9925,281.0744)"/><path style="fill:url(#radialGradient11105);fill-opacity:1;fill-rule:nonzero;stroke:none;stroke-width:7.5;stroke-linecap:round;stroke-linejoin:round;stroke-miterlimit:4;stroke-opacity:1" id="path11104" d="M 360.23621 479.19006 A 179.27446 146.79414 0 1 1 1.6872864,479.19006 A 179.27446 146.79414 0 1 1 360.23621 479.19006 z" transform="matrix(0.929465,0.000000,0.000000,0.537356,414.7681,348.5306)"/><path style="fill:url(#radialGradient12369);fill-opacity:1;fill-rule:nonzero;stroke:none;stroke-width:7.5;stroke-linecap:round;stroke-linejoin:round;stroke-miterlimit:4;stroke-opacity:1" id="path12368" d="M 360.23621 479.19006 A 179.27446 146.79414 0 1 1 1.6872864,479.19006 A 179.27446 146.79414 0 1 1 360.23621 479.19006 z" transform="matrix(0.243461,0.000000,0.000000,0.102526,472.8505,599.2807)"/><path style="fill:url(#linearGradient12363);fill-opacity:1;fill-rule:evenodd;stroke:#5d5d5d;stroke-width:3.463625;stroke-linecap:round;stroke-linejoin:round;stroke-miterlimit:4;stroke-opacity:1" id="path12362" d="M 481.76753,550.55185 L 480.52780,646.01093 C 478.73709,657.58173 503.39392,655.51553 516.89318,648.07715 L 519.78587,550.96508 L 481.76753,550.55185 z"/><path style="fill:url(#linearGradient12361);fill-opacity:1;fill-rule:evenodd;stroke:#5d5d5d;stroke-width:2.8087234;stroke-linecap:round;stroke-linejoin:round;stroke-miterlimit:4;stroke-opacity:1" id="path12360" d="M 321.09947,533.02087 L 320.09415,610.43057 C 318.64203,619.81356 338.63675,618.13804 349.58357,612.10611 L 351.92931,533.35597 L 321.09947,533.02087 z"/><path style="fill:url(#linearGradient11733);fill-opacity:1;fill-rule:evenodd;stroke:#5d5d5d;stroke-width:2.5;stroke-linecap:round;stroke-linejoin:round;stroke-miterlimit:4;stroke-opacity:1" id="path11108" d="M 72.480430,492.41319 L 71.585610,561.31433 C 70.293091,569.66598 88.090071,568.17462 97.833661,562.80570 L 99.921571,492.71146 L 72.480430,492.41319 z"/><path style="fill:url(#radialGradient6109);fill-opacity:1;fill-rule:evenodd;stroke:#2b619b;stroke-width:1.1976076;stroke-linecap:round;stroke-linejoin:round;stroke-miterlimit:4;stroke-opacity:1" id="path6096" d="M 455.01953,342.41344 L 491.12499,252.02448 L 647.74795,246.68290 L 623.24209,363.13594 L 455.01953,342.41344 z"/><path style="fill:none;fill-opacity:1;fill-rule:evenodd;stroke:#2b619b;stroke-width:1.7964114;stroke-linecap:round;stroke-linejoin:round;stroke-miterlimit:4;stroke-opacity:1" id="path6097" d="M 455.00631,342.43079 L 491.11177,252.04182 L 647.73473,246.70026 L 623.22889,363.15330 L 455.00631,342.43079 z"/><path style="fill:none;fill-opacity:1;fill-rule:evenodd;stroke:#2b619b;stroke-width:1.1976076;stroke-linecap:round;stroke-linejoin:round;stroke-miterlimit:4;stroke-opacity:1" id="path6098" d="M 541.66886,353.11696 L 572.96045,249.27111 L 609.56813,248.09095 L 578.52557,357.62495 L 541.66886,353.11696 z"/><path style="fill:none;fill-opacity:1;fill-rule:evenodd;stroke:#2b619b;stroke-width:1.1976076;stroke-linecap:round;stroke-linejoin:round;stroke-miterlimit:4;stroke-opacity:1" id="path6099" d="M 480.33765,345.45178 L 515.60598,251.25502 L 542.14235,250.39266 L 509.40879,349.03330 L 480.33765,345.45178 z"/><path style="fill:none;fill-opacity:1;fill-rule:evenodd;stroke:#2b619b;stroke-width:1.1976076;stroke-linecap:round;stroke-linejoin:round;stroke-miterlimit:4;stroke-opacity:1" id="path6100" d="M 455.01413,342.46382 L 465.48146,316.27948 L 630.38159,328.46410 L 623.24442,363.17013 L 455.01413,342.46382 z"/><path style="fill:none;fill-opacity:1;fill-rule:evenodd;stroke:#2b619b;stroke-width:1.1976076;stroke-linecap:round;stroke-linejoin:round;stroke-miterlimit:4;stroke-opacity:1" id="path6101" d="M 474.42369,294.03635 L 482.15490,274.68842 L 642.24068,272.65156 L 636.24872,300.58987 L 474.42369,294.03635 z"/><path style="fill:url(#radialGradient6108);fill-opacity:1;fill-rule:evenodd;stroke:#2b619b;stroke-width:1.1976076;stroke-linecap:round;stroke-linejoin:round;stroke-miterlimit:4;stroke-opacity:1" id="path6102" d="M 643.46498,364.97124 L 668.59840,245.67596 L 709.12812,243.78149 L 709.43715,374.38081 L 643.46498,364.97124 z"/><path style="fill:none;fill-opacity:1;fill-rule:evenodd;stroke:#2b619b;stroke-width:1.7964114;stroke-linecap:round;stroke-linejoin:round;stroke-miterlimit:4;stroke-opacity:1" id="path6103" d="M 642.98979,364.21806 L 668.58518,245.69330 L 709.18252,243.98950 L 709.00212,371.65632 L 642.98979,364.21806 z"/><path style="fill:none;fill-opacity:1;fill-rule:evenodd;stroke:#2b619b;stroke-width:1.1976076;stroke-linecap:round;stroke-linejoin:round;stroke-miterlimit:4;stroke-opacity:1" id="path6105" d="M 684.72328,368.81252 L 706.70228,244.25861 L 709.20045,244.29465 L 709.29342,371.46845 L 684.72328,368.81252 z"/><path style="fill:url(#radialGradient6095);fill-opacity:1;fill-rule:evenodd;stroke:#2b619b;stroke-width:1.9651055;stroke-linecap:round;stroke-linejoin:round;stroke-miterlimit:4;stroke-opacity:1" id="path6082" d="M 233.21736,420.85999 L 297.22626,274.53768 L 554.37152,274.08768 L 508.00307,463.77056 L 233.21736,420.85999 z"/><path style="fill:none;fill-opacity:1;fill-rule:evenodd;stroke:#2b619b;stroke-width:2.9476583;stroke-linecap:round;stroke-linejoin:round;stroke-miterlimit:4;stroke-opacity:1" id="path6083" d="M 233.19476,420.88773 L 297.20368,274.56543 L 554.34894,274.11543 L 507.98048,463.79831 L 233.19476,420.88773 z"/><path style="fill:none;fill-opacity:1;fill-rule:evenodd;stroke:#2b619b;stroke-width:1.9651055;stroke-linecap:round;stroke-linejoin:round;stroke-miterlimit:4;stroke-opacity:1" id="path6084" d="M 374.75446,443.01124 L 431.58262,274.36423 L 491.68188,274.37111 L 434.96033,452.35992 L 374.75446,443.01124 z"/><path style="fill:none;fill-opacity:1;fill-rule:evenodd;stroke:#2b619b;stroke-width:1.9651055;stroke-linecap:round;stroke-linejoin:round;stroke-miterlimit:4;stroke-opacity:1" id="path6085" d="M 274.57790,427.18620 L 337.41595,274.57470 L 380.98138,274.56841 L 322.06459,434.60239 L 274.57790,427.18620 z"/><path style="fill:none;fill-opacity:1;fill-rule:evenodd;stroke:#2b619b;stroke-width:1.9651055;stroke-linecap:round;stroke-linejoin:round;stroke-miterlimit:4;stroke-opacity:1" id="path6086" d="M 233.20585,420.94232 L 251.76158,378.55537 L 521.55148,407.28750 L 508.00506,463.82674 L 233.20585,420.94232 z"/><path style="fill:none;fill-opacity:1;fill-rule:evenodd;stroke:#2b619b;stroke-width:1.9651055;stroke-linecap:round;stroke-linejoin:round;stroke-miterlimit:4;stroke-opacity:1" id="path6087" d="M 267.60704,342.55105 L 281.31278,311.23064 L 543.96173,316.38408 L 532.65254,361.88504 L 267.60704,342.55105 z"/><path style="fill:url(#radialGradient6094);fill-opacity:1;fill-rule:evenodd;stroke:#2b619b;stroke-width:1.9651055;stroke-linecap:round;stroke-linejoin:round;stroke-miterlimit:4;stroke-opacity:1" id="path6088" d="M 541.07124,467.85345 L 588.61971,273.54259 L 708.83868,272.97331 L 711.59979,489.96882 L 541.07124,467.85345 z"/><path style="fill:none;fill-opacity:1;fill-rule:evenodd;stroke:#2b619b;stroke-width:2.9476583;stroke-linecap:round;stroke-linejoin:round;stroke-miterlimit:4;stroke-opacity:1" id="path6089" d="M 540.33188,466.59301 L 588.59713,273.57033 L 709.03515,273.48899 L 709.25718,490.84020 L 540.33188,466.59301 z"/><path style="fill:none;fill-opacity:1;fill-rule:evenodd;stroke:#2b619b;stroke-width:1.9651055;stroke-linecap:round;stroke-linejoin:round;stroke-miterlimit:4;stroke-opacity:1" id="path6091" d="M 628.77855,357.38838 L 651.18532,273.23987 L 709.41110,273.62373 L 708.87273,315.54644 L 698.21063,367.80381 L 628.77855,357.38838 z"/><path style="fill:none;fill-opacity:1;fill-rule:evenodd;stroke:#2b619b;stroke-width:1.9651055;stroke-linecap:round;stroke-linejoin:round;stroke-miterlimit:4;stroke-opacity:1" id="path6093" d="M 565.84328,364.28373 L 577.67754,317.94299 L 709.06053,321.56087 L 709.26380,373.69698 L 565.84328,364.28373 z"/><path style="fill:url(#radialGradient6073);fill-opacity:1;fill-rule:evenodd;stroke:#2b619b;stroke-width:2.5;stroke-linecap:round;stroke-linejoin:round;stroke-miterlimit:4;stroke-opacity:1" id="path4206" d="M 41.368195,504.46465 L 128.26357,318.86286 L 451.37941,328.98659 L 384.73150,571.11257 L 41.368195,504.46465 z"/><path style="fill:none;fill-opacity:1;fill-rule:evenodd;stroke:#2b619b;stroke-width:3.75;stroke-linecap:round;stroke-linejoin:round;stroke-opacity:1;stroke-miterlimit:4;stroke-dasharray:none" id="path1078" d="M 41.338580,504.49941 L 128.23396,318.89762 L 451.34980,329.02135 L 384.70189,571.14733 L 41.338580,504.49941 z"/><path style="fill:none;fill-opacity:1;fill-rule:evenodd;stroke:#2b619b;stroke-width:2.5;stroke-linecap:round;stroke-linejoin:round;stroke-miterlimit:4;stroke-opacity:1;stroke-dasharray:none" id="path1710" d="M 218.22621,538.85656 L 297.08631,324.23179 L 372.59906,326.74205 L 293.45986,553.39090 L 218.22621,538.85656 z"/><path style="fill:none;fill-opacity:1;fill-rule:evenodd;stroke:#2b619b;stroke-width:2.5;stroke-linecap:round;stroke-linejoin:round;stroke-miterlimit:4;stroke-opacity:1;stroke-dasharray:none" id="path1711" d="M 93.056853,514.32577 L 178.75915,320.58324 L 233.49821,322.38839 L 152.39465,525.84428 L 93.056853,514.32577 z"/><path style="fill:none;fill-opacity:1;fill-rule:evenodd;stroke:#2b619b;stroke-width:2.5;stroke-linecap:round;stroke-linejoin:round;stroke-miterlimit:4;stroke-opacity:1;stroke-dasharray:none" id="path1712" d="M 41.350103,504.57011 L 66.539083,450.80515 L 404.25222,499.00241 L 384.73151,571.18494 L 41.350103,504.57011 z"/><path style="fill:none;fill-opacity:1;fill-rule:evenodd;stroke:#2b619b;stroke-width:2.5;stroke-linecap:round;stroke-linejoin:round;stroke-miterlimit:4;stroke-opacity:1;stroke-dasharray:none" id="path1713" d="M 88.040489,405.13962 L 106.64626,365.41160 L 436.42956,382.97407 L 420.20795,441.04728 L 88.040489,405.13962 z"/><path style="fill:url(#radialGradient6081);fill-opacity:1;fill-rule:evenodd;stroke:#2b619b;stroke-width:2.5;stroke-linecap:round;stroke-linejoin:round;stroke-miterlimit:4;stroke-opacity:1" id="path6075" d="M 426.10023,577.74217 L 494.43542,329.71069 L 709.35385,338.14713 L 707.87748,627.51720 L 426.10023,577.74217 z"/><path style="fill:none;fill-opacity:1;fill-rule:evenodd;stroke:#2b619b;stroke-width:3.75;stroke-linecap:round;stroke-linejoin:round;stroke-miterlimit:4;stroke-opacity:1" id="path6076" d="M 425.22696,576.08964 L 494.40581,329.74545 L 709.53516,337.76007 L 707.84787,627.55196 L 425.22696,576.08964 z"/><path style="fill:none;fill-opacity:1;fill-rule:evenodd;stroke:#2b619b;stroke-width:2.5;stroke-linecap:round;stroke-linejoin:round;stroke-miterlimit:4;stroke-opacity:1" id="path6077" d="M 684.84443,622.81196 L 709.73755,475.74163 L 707.71945,627.51207 L 684.84443,622.81196 z"/><path style="fill:none;fill-opacity:1;fill-rule:evenodd;stroke:#2b619b;stroke-width:2.5;stroke-linecap:round;stroke-linejoin:round;stroke-miterlimit:4;stroke-opacity:1" id="path6078" d="M 510.48631,591.47207 L 573.06077,331.92526 L 654.39734,335.38152 L 597.26526,607.76295 L 510.48631,591.47207 z"/><path style="fill:none;fill-opacity:1;fill-rule:evenodd;stroke:#2b619b;stroke-width:2.5;stroke-linecap:round;stroke-linejoin:round;stroke-miterlimit:4;stroke-opacity:1" id="path6079" d="M 426.92577,577.00399 L 445.36560,506.36614 L 708.13912,545.77751 L 707.87749,627.58957 L 426.92577,577.00399 z"/><path style="fill:none;fill-opacity:1;fill-rule:evenodd;stroke:#2b619b;stroke-width:2.5;stroke-linecap:round;stroke-linejoin:round;stroke-miterlimit:4;stroke-opacity:1" id="path6080" d="M 461.80514,445.51501 L 478.72362,386.38316 L 709.80051,401.41470 L 708.41506,472.32973 L 461.80514,445.51501 z"/><path style="fill:url(#radialGradient6737);fill-opacity:1;fill-rule:evenodd;stroke:#fff788;stroke-width:3.75;stroke-linecap:round;stroke-linejoin:round;stroke-opacity:1;stroke-miterlimit:4;stroke-dasharray:none" id="path6112" d="M 0.34944900,0.31329390 L 1.1722968e-08,226.65161 C 169.41928,200.80125 247.39217,90.590701 284.37807,0.31329390 L 0.34944900,0.31329390 z"/><path style="fill:none;fill-opacity:.75;fill-rule:evenodd;stroke:#fff788;stroke-width:7.5;stroke-linecap:round;stroke-linejoin:round;stroke-opacity:1;stroke-miterlimit:4;stroke-dasharray:none" id="path7985" d="M 134.98312,194.03823 L 190.66366,301.18109"/><path style="fill:none;fill-opacity:.75;fill-rule:evenodd;stroke:#fff788;stroke-width:7.5;stroke-linecap:round;stroke-linejoin:round;stroke-opacity:1;stroke-miterlimit:4;stroke-dasharray:none" id="path7986" d="M 215.97299,129.92125 L 250.56242,167.88525"/><path style="fill:none;fill-opacity:.75;fill-rule:evenodd;stroke:#fff788;stroke-width:7.5;stroke-linecap:round;stroke-linejoin:round;stroke-opacity:1;stroke-miterlimit:4;stroke-dasharray:none" id="path7987" d="M 275.87175,41.338580 L 384.70189,123.17210"/><path style="fill:none;fill-opacity:.75;fill-rule:evenodd;stroke:#fff788;stroke-width:7.5;stroke-linecap:round;stroke-linejoin:round;stroke-opacity:1;stroke-miterlimit:4;stroke-dasharray:none" id="path7988" d="M 35.433069,232.00224 L 43.869514,276.71539"/></g></svg>