<svg xmlns="http://www.w3.org/2000/svg" xmlns:cc="http://web.resource.org/cc/" xmlns:svg="http://www.w3.org/2000/svg" xmlns:xlink="http://www.w3.org/1999/xlink" id="svg2" width="755.906" height="755.906"><defs id="defs3"><linearGradient id="linearGradient9757"><stop id="stop9759" offset="0" style="stop-color:#704400;stop-opacity:1"/><stop id="stop9761" offset="1" style="stop-color:#321e00;stop-opacity:1"/></linearGradient><linearGradient id="linearGradient8983"><stop id="stop8985" offset="0" style="stop-color:#282828;stop-opacity:1"/><stop id="stop8987" offset="1" style="stop-color:#171717;stop-opacity:1"/></linearGradient><linearGradient id="linearGradient8211"><stop id="stop8213" offset="0" style="stop-color:#0e143f;stop-opacity:1"/><stop id="stop8215" offset="1" style="stop-color:#02061f;stop-opacity:1"/></linearGradient><linearGradient id="linearGradient7437"><stop id="stop7439" offset="0" style="stop-color:#000;stop-opacity:1"/><stop id="stop7441" offset="1" style="stop-color:#000;stop-opacity:0"/></linearGradient><linearGradient id="linearGradient6649"><stop id="stop6651" offset="0" style="stop-color:#757575;stop-opacity:1"/><stop id="stop6653" offset="1" style="stop-color:#494949;stop-opacity:1"/></linearGradient><linearGradient id="linearGradient6659" x1="165.958" x2="364.516" y1="479.926" y2="713.686" gradientTransform="matrix(1.176751,0.000000,0.000000,0.849797,-29.16451,0.000000)" gradientUnits="userSpaceOnUse" xlink:href="#linearGradient6649"/><linearGradient id="linearGradient6667" x1="150.775" x2="255.891" y1="415.34" y2="1164.694" gradientTransform="matrix(2.233209,0.000000,0.000000,0.447786,-29.16451,0.000000)" gradientUnits="userSpaceOnUse" xlink:href="#linearGradient6649"/><linearGradient id="linearGradient6675" x1="704.651" x2="822.692" y1="259.794" y2="333.706" gradientTransform="matrix(0.676055,0.000000,0.000000,1.479170,-29.16451,0.000000)" gradientUnits="userSpaceOnUse" xlink:href="#linearGradient6649"/><radialGradient id="radialGradient7443" cx="218.973" cy="1070.297" r="181.116" fx="218.973" fy="1070.297" gradientTransform="scale(1.785929,0.559933)" gradientUnits="userSpaceOnUse" xlink:href="#linearGradient7437"/><linearGradient id="linearGradient8209" x1="1033.064" x2="1112.821" y1="183.494" y2="192.123" gradientTransform="matrix(0.340544,0.000000,0.000000,2.936478,-29.16451,0.000000)" gradientUnits="userSpaceOnUse" xlink:href="#linearGradient8983"/><linearGradient id="linearGradient8223" x1="624.674" x2="499.671" y1="482.339" y2="438.649" gradientTransform="matrix(0.769766,0.000000,0.000000,1.299097,-29.16451,0.000000)" gradientUnits="userSpaceOnUse" xlink:href="#linearGradient8211"/><linearGradient id="linearGradient8995" x1="217.666" x2="208.372" y1="1339.445" y2="1320.186" gradientTransform="matrix(1.980860,0.000000,0.000000,0.504831,-29.16451,0.000000)" gradientUnits="userSpaceOnUse" xlink:href="#linearGradient6649"/><linearGradient id="linearGradient9763" x1="317.196" x2="337.178" y1="8.729" y2="20.351" gradientTransform="scale(1.669304,0.599052)" gradientUnits="userSpaceOnUse" xlink:href="#linearGradient9757"/><linearGradient id="linearGradient9771" x1="1387.038" x2="1583.94" y1="51.22" y2="58.003" gradientTransform="matrix(0.355440,0.000000,0.000000,2.813413,-29.16451,0.000000)" gradientUnits="userSpaceOnUse" xlink:href="#linearGradient9757"/><linearGradient id="linearGradient9779" x1="231.063" x2="228.925" y1="-22.408" y2="264.336" gradientTransform="scale(2.144887,0.466225)" gradientUnits="userSpaceOnUse" xlink:href="#linearGradient9757"/><linearGradient id="linearGradient9783" x1="231.063" x2="228.925" y1="-22.408" y2="264.336" gradientTransform="matrix(2.144887,0.000000,0.000000,0.466225,184.3998,21.14948)" gradientUnits="userSpaceOnUse" xlink:href="#linearGradient9757"/><linearGradient id="linearGradient9793" x1="1329.564" x2="1340.039" y1="38.089" y2="48.713" gradientTransform="scale(0.508597,1.966193)" gradientUnits="userSpaceOnUse" xlink:href="#linearGradient9757"/><linearGradient id="linearGradient9804" x1="254.72" x2="330.09" y1="224.003" y2="239.94" gradientTransform="scale(0.892911,1.119932)" gradientUnits="userSpaceOnUse" xlink:href="#linearGradient8983"/><linearGradient id="linearGradient9808" x1="254.72" x2="330.09" y1="224.003" y2="239.94" gradientTransform="matrix(0.892911,0.000000,0.000000,1.119932,187.6650,20.04586)" gradientUnits="userSpaceOnUse" xlink:href="#linearGradient8983"/><radialGradient id="radialGradient9812" cx="218.973" cy="1070.297" r="181.116" fx="218.973" fy="1070.297" gradientTransform="scale(1.785929,0.559933)" gradientUnits="userSpaceOnUse" xlink:href="#linearGradient7437"/><radialGradient id="radialGradient9816" cx="218.973" cy="1070.297" r="181.116" fx="218.973" fy="1070.297" gradientTransform="scale(1.785929,0.559933)" gradientUnits="userSpaceOnUse" xlink:href="#linearGradient7437"/></defs><metadata id="metadata4"/><g id="layer1"><path id="path6677" d="M 714.53052 599.29449 A 323.46094 101.41296 0 1 1 67.608643,599.29449 A 323.46094 101.41296 0 1 1 714.53052 599.29449 z" transform="matrix(1.065574,0.000000,0.000000,1.000000,-65.41369,10.60528)" style="opacity:.9006772;fill:url(#radialGradient7443);fill-opacity:1;stroke:none;stroke-width:6;stroke-linecap:round;stroke-linejoin:round;stroke-miterlimit:4;stroke-opacity:1"/><path style="fill:url(#linearGradient6659);fill-opacity:1;fill-rule:evenodd;stroke:#000;stroke-width:1px;stroke-linecap:round;stroke-linejoin:round;stroke-opacity:1" id="path1293" d="M 64.196929,614.27984 L 63.248115,369.78374 L 499.51942,427.44658 L 500.97832,685.61514 L 64.196929,614.27984 z"/><path id="path3575" d="M 334.54004,658.51146 L 334.54004,503.37459 L 435.77739,517.43533 L 435.77739,674.91565 L 334.54004,658.51146 z" style="fill:url(#linearGradient8223);fill-opacity:1;fill-rule:evenodd;stroke:#000;stroke-width:1px;stroke-linecap:butt;stroke-linejoin:miter;stroke-opacity:1"/><path style="fill:url(#linearGradient6675);fill-opacity:1;fill-rule:evenodd;stroke:#000;stroke-width:1px;stroke-linecap:round;stroke-linejoin:round;stroke-opacity:1" id="path1295" d="M 499.51942,426.97789 L 645.52370,365.03021 L 645.40997,582.36979 L 501.09203,685.66713 L 499.51942,426.97789 z"/><path style="fill:url(#linearGradient6667);fill-opacity:1;fill-rule:evenodd;stroke:#000;stroke-width:1px;stroke-linecap:round;stroke-linejoin:round;stroke-opacity:1" id="path1297" d="M 645.75115,365.57931 C 638.25208,363.70455 195.80738,311.21111 195.80738,311.21111 L 63.241217,369.71023 L 499.05073,427.21224 L 645.75115,365.57931 z"/><path id="path9814" d="M 714.53052 599.29449 A 323.46094 101.41296 0 1 1 67.608643,599.29449 A 323.46094 101.41296 0 1 1 714.53052 599.29449 z" transform="matrix(0.444739,0.000000,0.000000,0.417370,308.6162,127.1190)" style="opacity:.9006772;fill:url(#radialGradient9816);fill-opacity:1;stroke:none;stroke-width:6;stroke-linecap:round;stroke-linejoin:round;stroke-miterlimit:4;stroke-opacity:1"/><path style="stroke-opacity:1;stroke-linejoin:miter;stroke-linecap:butt;stroke-width:1px;stroke:#000;fill-rule:evenodd;fill-opacity:1;fill:url(#linearGradient9779)" id="path1303" d="M 332.78707,39.597527 C 324.87102,43.151015 324.24610,59.961099 332.90080,66.165906 L 491.38651,79.250239 L 491.61395,50.163779 L 332.78707,39.597527 z"/><path style="fill:url(#linearGradient9771);fill-opacity:1;fill-rule:evenodd;stroke:#000;stroke-width:1px;stroke-linecap:butt;stroke-linejoin:miter;stroke-opacity:1" id="path1305" d="M 485.48628,16.892403 L 487.19213,346.39627 L 526.77014,350.58119 L 526.52318,16.892403 L 485.48628,16.892403 z"/><path id="path3577" d="M 365.32001,577.46671 L 401.64904,520.22097 L 435.77631,588.47550 L 365.32001,577.46671 z" style="fill:#fff700;fill-opacity:1;fill-rule:evenodd;stroke:#000;stroke-width:1.1744182px;stroke-linecap:butt;stroke-linejoin:miter;stroke-opacity:1"/><path id="path4355" d="M 334.54004,658.51146 L 334.54004,503.37459 L 351.64727,505.83522 L 351.64727,649.84066 L 334.54004,658.51146 z" style="fill:url(#linearGradient8209);fill-opacity:1;fill-rule:evenodd;stroke:#000;stroke-width:1px;stroke-linecap:round;stroke-linejoin:round;stroke-opacity:1"/><path id="path5117" d="M 334.54004,658.51146 L 351.77361,649.85997 L 435.77739,663.13359 L 435.77739,674.91565 L 334.54004,658.51146 z" style="fill:url(#linearGradient8995);fill-opacity:1;fill-rule:evenodd;stroke:#000;stroke-width:1px;stroke-linecap:round;stroke-linejoin:round;stroke-opacity:1"/><path id="path8997" d="M 556.11418 16.667149 A 21.210552 7.2911277 0 1 1 513.69307,16.667149 A 21.210552 7.2911277 0 1 1 556.11418 16.667149 z" transform="matrix(0.965656,0.000000,0.000000,1.000000,-10.54547,0.000000)" style="fill:url(#linearGradient9763);fill-opacity:1;stroke:#000;stroke-width:1;stroke-linecap:round;stroke-linejoin:round;stroke-miterlimit:4;stroke-opacity:1"/><path style="fill:url(#linearGradient9783);fill-opacity:1;fill-rule:evenodd;stroke:#000;stroke-width:1px;stroke-linecap:butt;stroke-linejoin:miter;stroke-opacity:1" id="path9781" d="M 524.56414,49.592622 C 516.64809,53.146110 516.02317,74.596002 524.67787,80.800809 L 691.69423,95.759914 L 691.92167,59.382320 L 524.56414,49.592622 z"/><path id="path9785" d="M 688.74206 90.105919 A 8.3192730 17.927448 0 1 1 672.10352,90.105919 A 8.3192730 17.927448 0 1 1 688.74206 90.105919 z" transform="translate(10.83272,-12.63397)" style="fill:url(#linearGradient9793);fill-opacity:1;stroke:#000;stroke-width:1;stroke-linecap:round;stroke-linejoin:round;stroke-miterlimit:4;stroke-opacity:1"/><path id="path9810" d="M 714.53052 599.29449 A 323.46094 101.41296 0 1 1 67.608643,599.29449 A 323.46094 101.41296 0 1 1 714.53052 599.29449 z" transform="matrix(0.444739,0.000000,0.000000,0.417370,110.4517,106.6652)" style="opacity:.9006772;fill:url(#radialGradient9812);fill-opacity:1;stroke:none;stroke-width:6;stroke-linecap:round;stroke-linejoin:round;stroke-miterlimit:4;stroke-opacity:1"/><path id="path9795" d="M 346.83167,358.08026 C 346.83167,366.35923 310.71618,373.07839 266.21674,373.07839 C 221.71729,373.07839 185.60181,366.35923 185.60181,358.08026 C 185.60181,202.28288 225.46682,207.72216 269.96627,207.72216 C 314.46571,207.72216 346.83167,209.20791 346.83167,358.08026 z" style="fill:url(#linearGradient9804);fill-opacity:1;stroke:#000;stroke-width:1;stroke-linecap:round;stroke-linejoin:round;stroke-miterlimit:4;stroke-opacity:1"/><path id="path9806" d="M 534.49666,378.12612 C 534.49666,386.40509 498.38117,393.12425 453.88173,393.12425 C 409.38228,393.12425 373.26680,386.40509 373.26680,378.12612 C 373.26680,222.32874 413.13181,227.76802 457.63126,227.76802 C 502.13070,227.76802 534.49666,229.25377 534.49666,378.12612 z" style="fill:url(#linearGradient9808);fill-opacity:1;stroke:#000;stroke-width:1;stroke-linecap:round;stroke-linejoin:round;stroke-miterlimit:4;stroke-opacity:1"/><path id="path9832" d="M 347.76904,57.180348 C 331.00203,119.75566 300.72563,167.67354 262.46720,212.78590 C 357.14287,183.10211 396.51295,132.79590 442.44471,61.867263" style="stroke-miterlimit:4;stroke-dasharray:none;stroke-opacity:1;stroke-linejoin:round;stroke-linecap:round;stroke-width:8.75;stroke:#000;fill-rule:evenodd;fill-opacity:.75;fill:none"/><path id="path9834" d="M 539.93253,64.679411 C 523.05964,124.04699 494.77116,191.98920 444.31948,231.53356 C 537.74530,205.28684 611.48609,140.60742 651.48109,74.053240" style="stroke-miterlimit:4;stroke-dasharray:none;stroke-opacity:1;stroke-linejoin:round;stroke-linecap:round;stroke-width:8.75;stroke:#000;fill-rule:evenodd;fill-opacity:.75;fill:none"/></g></svg>