<svg xmlns="http://www.w3.org/2000/svg" xmlns:cc="http://web.resource.org/cc/" xmlns:xlink="http://www.w3.org/1999/xlink" id="svg1" width="755.906" height="755.906"><defs id="defs3"><linearGradient id="linearGradient6713"><stop style="stop-color:#a7a7a7;stop-opacity:1" id="stop6714" offset="0"/><stop style="stop-color:#e4e4e4;stop-opacity:1" id="stop6715" offset="1"/></linearGradient><linearGradient id="linearGradient5447"><stop style="stop-color:#a32323;stop-opacity:1" id="stop5448" offset="0"/><stop style="stop-color:#541c1c;stop-opacity:1" id="stop5449" offset="1"/></linearGradient><linearGradient id="linearGradient5444"><stop style="stop-color:#c37c27;stop-opacity:1" id="stop5445" offset="0"/><stop style="stop-color:#593812;stop-opacity:1" id="stop5446" offset="1"/></linearGradient><linearGradient id="linearGradient5443" x1="-359.314" x2="-609.247" y1="553.555" y2="579.99" gradientTransform="matrix(0.904298,0.000000,0.000000,0.648488,797.9909,39.36715)" gradientUnits="userSpaceOnUse" xlink:href="#linearGradient5444"/><linearGradient id="linearGradient5450" x1="-328.018" x2="-522.394" y1="1099.211" y2="1112.505" gradientTransform="matrix(1.112758,0.000000,0.000000,0.527002,797.9909,39.36715)" gradientUnits="userSpaceOnUse" xlink:href="#linearGradient5447"/><linearGradient id="linearGradient5454" x1="-370.296" x2="-600.432" y1="335.559" y2="475.731" gradientTransform="matrix(1.033105,0.000000,0.000000,0.567635,797.9909,39.36715)" gradientUnits="userSpaceOnUse" xlink:href="#linearGradient5447"/><radialGradient id="radialGradient6083" cx="131.817" cy="309.716" r="193.327" fx="131.817" fy="309.716" gradientUnits="userSpaceOnUse" xlink:href="#linearGradient5444"/><linearGradient id="linearGradient6087" x1="107.629" x2="-82.765" y1="291.387" y2="362.511" gradientUnits="userSpaceOnUse" xlink:href="#linearGradient5444"/><linearGradient id="linearGradient6091" x1="86.342" x2="-20.089" y1="287.644" y2="311.976" gradientUnits="userSpaceOnUse" xlink:href="#linearGradient5444"/><linearGradient id="linearGradient6720" x1="-1402.577" x2="-1267.657" y1="44.359" y2="44.359" gradientTransform="matrix(0.337338,5.477100e-8,1.011819e-6,1.738389,699.3005,566.4265)" gradientUnits="userSpaceOnUse" xlink:href="#linearGradient6713"/><linearGradient id="linearGradient6721" x1="103.884" x2="238.617" y1="-400.258" y2="-400.258" gradientTransform="matrix(0.365879,-2.129579e-7,-2.602316e-7,1.602785,-566.4265,699.3005)" gradientUnits="userSpaceOnUse" xlink:href="#linearGradient6713"/><linearGradient id="linearGradient6722" x1="-1575.062" x2="-1440.142" y1="-152.895" y2="-152.895" gradientTransform="matrix(0.337338,5.477100e-8,1.011819e-6,1.738389,699.3005,566.4265)" gradientUnits="userSpaceOnUse" xlink:href="#linearGradient6713"/><linearGradient id="linearGradient6723" x1="276.737" x2="411.47" y1="-203.424" y2="-203.424" gradientTransform="matrix(0.365879,-2.129579e-7,-2.602316e-7,1.602785,-566.4265,699.3005)" gradientUnits="userSpaceOnUse" xlink:href="#linearGradient6713"/><linearGradient id="linearGradient7348" x1="-5090.714" x2="-2489.348" y1="-30.972" y2="-28.004" gradientTransform="matrix(0.127631,2.072249e-8,2.674297e-6,4.594664,699.3005,566.4265)" gradientUnits="userSpaceOnUse" xlink:href="#linearGradient5444"/><linearGradient id="linearGradient7349" x1="-5090.714" x2="-2489.348" y1="-30.972" y2="-28.004" gradientTransform="matrix(0.127631,2.072249e-8,2.674297e-6,4.594664,699.3005,566.4265)" gradientUnits="userSpaceOnUse" xlink:href="#linearGradient5444"/><linearGradient id="linearGradient7974" x1="842.015" x2="635.365" y1="-114.439" y2="-112.542" gradientTransform="matrix(0.138036,-8.034296e-8,-6.897740e-7,4.248365,-566.4265,699.3005)" gradientUnits="userSpaceOnUse" xlink:href="#linearGradient5444"/><linearGradient id="linearGradient7975" x1="842.015" x2="635.365" y1="-114.439" y2="-112.542" gradientTransform="matrix(0.138036,-8.034296e-8,-6.897740e-7,4.248365,-566.4265,699.3005)" gradientUnits="userSpaceOnUse" xlink:href="#linearGradient5444"/><linearGradient id="linearGradient9222" x1="671.676" x2="588.415" y1="631.609" y2="688.146" gradientTransform="matrix(0.543380,0.000000,0.000000,1.079220,80.83865,-41.70225)" gradientUnits="userSpaceOnUse" xlink:href="#linearGradient5444"/></defs><metadata id="metadata4"/><g id="layer1"><path style="fill:url(#linearGradient5450);fill-opacity:1;fill-rule:evenodd;stroke:#000;stroke-width:2.871691;stroke-linecap:round;stroke-linejoin:round;stroke-miterlimit:4;stroke-opacity:1" id="path1685" d="M 176.26510,679.81313 C 290.07399,714.37153 393.74920,708.39527 501.32198,680.59264 L 501.32197,551.19350 L 177.04462,551.19350 L 176.26510,679.81313 z"/><path style="fill:url(#linearGradient5443);fill-opacity:1;fill-rule:evenodd;stroke:#000;stroke-width:2.871691;stroke-linecap:round;stroke-linejoin:round;stroke-miterlimit:4;stroke-opacity:1" id="path1686" d="M 237.84979,323.58600 L 231.60386,400.75174 L 207.84062,482.21847 L 163.01831,551.18691 C 278.25734,578.46987 400.51198,584.70598 513.41247,551.18691 L 468.59016,482.21847 L 444.80298,400.75174 L 438.58099,323.58600 L 237.84979,323.58600 z"/><path style="fill:url(#linearGradient5454);fill-opacity:1;fill-rule:evenodd;stroke:#000;stroke-width:2.871691;stroke-linecap:round;stroke-linejoin:round;stroke-miterlimit:4;stroke-opacity:1" id="path1687" d="M 223.81540,323.57575 C 300.20766,341.50455 382.83602,340.72504 452.99217,323.57575 L 416.35507,248.74250 L 336.84475,212.10541 L 255.77542,248.74250 L 223.81540,323.57575 z"/><rect style="fill:url(#linearGradient7349);fill-opacity:1;fill-rule:nonzero;stroke:#000;stroke-width:1.9994514;stroke-linecap:round;stroke-linejoin:round;stroke-miterlimit:4;stroke-opacity:1" id="rect5457" width="14.589" height="595.189" x="207.928" y="175.383" transform="matrix(0.754993,-0.655733,0.476715,0.879058,0.000000,0.000000)"/><rect style="fill:url(#linearGradient7348);fill-opacity:1;fill-rule:nonzero;stroke:#000;stroke-width:1.9994504;stroke-linecap:round;stroke-linejoin:round;stroke-miterlimit:4;stroke-opacity:1" id="rect4811" width="14.589" height="595.188" x="212.358" y="176.687" transform="matrix(0.754993,-0.655733,0.476715,0.879058,0.000000,0.000000)"/><rect style="fill:url(#linearGradient6720);fill-opacity:1;fill-rule:nonzero;stroke:#000;stroke-width:1.9994504;stroke-linecap:round;stroke-linejoin:round;stroke-miterlimit:4;stroke-opacity:1" id="rect4813" width="43.514" height="232.544" x="227.157" y="527.267" ry="0" transform="matrix(0.754993,-0.655733,0.476715,0.879058,0.000000,0.000000)"/><rect style="fill:url(#linearGradient7975);fill-opacity:1;fill-rule:nonzero;stroke:#000;stroke-width:1.9994508;stroke-linecap:round;stroke-linejoin:round;stroke-miterlimit:4;stroke-opacity:1" id="rect5456" width="15.858" height="547.593" x="-476.115" y="-63.809" transform="matrix(-0.476715,-0.879058,0.754993,-0.655733,0.000000,0.000000)"/><rect style="fill:url(#linearGradient7974);fill-opacity:1;fill-rule:nonzero;stroke:#000;stroke-width:1.9994504;stroke-linecap:round;stroke-linejoin:round;stroke-miterlimit:4;stroke-opacity:1" id="rect4814" width="15.858" height="547.593" x="-479.894" y="-60.3" transform="matrix(-0.476715,-0.879058,0.754993,-0.655733,0.000000,0.000000)"/><rect style="fill:url(#linearGradient6723);fill-opacity:1;fill-rule:nonzero;stroke:#000;stroke-width:1.9994504;stroke-linecap:round;stroke-linejoin:round;stroke-miterlimit:4;stroke-opacity:1" id="rect4815" width="47.296" height="213.948" x="-464.174" y="266.282" ry="0" transform="matrix(-0.476715,-0.879058,0.754993,-0.655733,0.000000,0.000000)"/><rect style="fill:url(#linearGradient6721);fill-opacity:1;fill-rule:nonzero;stroke:#000;stroke-width:1.9994504;stroke-linecap:round;stroke-linejoin:round;stroke-miterlimit:4;stroke-opacity:1" id="rect4816" width="47.296" height="213.948" x="-527.418" y="-49.201" ry="0" transform="matrix(-0.476715,-0.879058,0.754993,-0.655733,0.000000,0.000000)"/><path style="fill:url(#linearGradient6091);fill-opacity:1;fill-rule:nonzero;stroke:#000;stroke-width:3.75;stroke-linecap:round;stroke-linejoin:round;stroke-miterlimit:4;stroke-opacity:1" id="path5455" d="M 64.129435 331.16055 A 60.566689 60.566689 0 1 1 -57.003942,331.16055 A 60.566689 60.566689 0 1 1 64.129435 331.16055 z" transform="matrix(0.605112,0.000000,0.000000,0.765785,387.3699,17.93054)"/><path style="fill:url(#linearGradient6087);fill-opacity:1;fill-rule:nonzero;stroke:#000;stroke-width:3.75;stroke-linecap:round;stroke-linejoin:round;stroke-miterlimit:4;stroke-opacity:1" id="path4817" d="M 64.129435 331.16055 A 60.566689 60.566689 0 1 1 -57.003942,331.16055 A 60.566689 60.566689 0 1 1 64.129435 331.16055 z" transform="matrix(0.605112,0.000000,0.000000,0.765785,394.9785,18.30479)"/><path style="fill:url(#radialGradient6083);fill-opacity:1;fill-rule:nonzero;stroke:#000;stroke-width:6.329659;stroke-linecap:round;stroke-linejoin:round;stroke-miterlimit:4;stroke-opacity:1" id="path4818" d="M 64.129435 331.16055 A 60.566689 60.566689 0 1 1 -57.003942,331.16055 A 60.566689 60.566689 0 1 1 64.129435 331.16055 z" transform="matrix(0.358497,0.000000,0.000000,0.453688,396.1652,120.4895)"/><rect style="fill:url(#linearGradient6722);fill-opacity:1;fill-rule:nonzero;stroke:#000;stroke-width:1.9994504;stroke-linecap:round;stroke-linejoin:round;stroke-miterlimit:4;stroke-opacity:1" id="rect4812" width="43.514" height="232.544" x="168.971" y="184.364" ry="0" transform="matrix(0.754993,-0.655733,0.476715,0.879058,0.000000,0.000000)"/><path style="fill:url(#linearGradient9222);fill-opacity:1;fill-rule:evenodd;stroke:#000;stroke-width:2.871691;stroke-linecap:round;stroke-linejoin:round;stroke-miterlimit:4;stroke-opacity:1" id="path7976" d="M 392.81720,700.24108 L 392.81720,613.70287 C 411.74170,613.88661 421.29581,611.86555 438.01551,607.63968 L 438.01551,694.72911 C 422.94941,697.11763 410.63930,698.95496 392.81720,700.24108 z"/></g></svg>