<svg xmlns="http://www.w3.org/2000/svg" xmlns:cc="http://web.resource.org/cc/" xmlns:xlink="http://www.w3.org/1999/xlink" id="svg1" width="755.906" height="755.906"><defs id="defs3"><linearGradient id="linearGradient11091"><stop style="stop-color:#000;stop-opacity:.69803923" id="stop11092" offset="0"/><stop style="stop-color:#000;stop-opacity:0" id="stop11093" offset="1"/></linearGradient><linearGradient id="linearGradient9845"><stop style="stop-color:#ac8e45;stop-opacity:1" id="stop9846" offset="0"/><stop style="stop-color:#836524;stop-opacity:1" id="stop9847" offset="1"/></linearGradient><linearGradient id="linearGradient9216"><stop style="stop-color:#000;stop-opacity:1" id="stop9217" offset="0"/><stop style="stop-color:#000;stop-opacity:0" id="stop9218" offset="1"/></linearGradient><linearGradient id="linearGradient2963"><stop style="stop-color:#edb641;stop-opacity:1" id="stop2964" offset="0"/><stop style="stop-color:#e5c989;stop-opacity:1" id="stop2965" offset="1"/></linearGradient><linearGradient id="linearGradient1695"><stop style="stop-color:#865b00;stop-opacity:1" id="stop1696" offset="0"/><stop style="stop-color:#bc8000;stop-opacity:1" id="stop1697" offset="1"/></linearGradient><linearGradient id="linearGradient1698" x1="203.507" x2="17.153" y1="84.753" y2="139.591" gradientTransform="matrix(0.962175,0.000000,0.000000,1.039312,-73.39707,-2.842171e-14)" gradientUnits="userSpaceOnUse" xlink:href="#linearGradient1695"/><linearGradient id="linearGradient2962" x1="322.831" x2="98.961" y1="192.637" y2="126.505" gradientTransform="matrix(1.111291,0.000000,0.000000,0.899854,-73.39707,-2.842171e-14)" gradientUnits="userSpaceOnUse" xlink:href="#linearGradient2963"/><linearGradient id="linearGradient3590" x1="537.438" x2="162.133" y1="198.416" y2="-11.306" gradientTransform="matrix(1.173729,0.000000,0.000000,0.851985,-73.39707,-2.842171e-14)" gradientUnits="userSpaceOnUse" xlink:href="#linearGradient2963"/><linearGradient id="linearGradient7330" x1="299.325" x2="335.745" y1="188.229" y2="210.324" gradientTransform="matrix(0.615949,-2.612873e-2,6.874610e-2,1.620596,-75.30414,4.849732)" gradientUnits="userSpaceOnUse" xlink:href="#linearGradient1695"/><linearGradient id="linearGradient7334" x1="177.595" x2="182.643" y1="364.979" y2="372.145" gradientTransform="matrix(1.192994,-5.060713e-2,3.549395e-2,0.836722,-75.30414,4.849732)" gradientUnits="userSpaceOnUse" xlink:href="#linearGradient1695"/><linearGradient id="linearGradient9219" x1="135.709" x2="200.358" y1="80.432" y2="148.132" gradientTransform="matrix(0.965315,0.000000,0.000000,1.035931,-73.39707,-2.842171e-14)" gradientUnits="userSpaceOnUse" xlink:href="#linearGradient9216"/><linearGradient id="linearGradient9844" x1="453.742" x2="1119.017" y1="162.558" y2="305.422" gradientTransform="scale(0.565611,1.768000)" gradientUnits="userSpaceOnUse" xlink:href="#linearGradient9845"/><radialGradient id="radialGradient11095" cx="318.614" cy="946.076" r="126.554" fx="318.614" fy="946.076" gradientTransform="scale(1.527813,0.654530)" gradientUnits="userSpaceOnUse" xlink:href="#linearGradient11091"/><linearGradient id="linearGradient11727" x1="920.522" x2="-431.41" y1="341.235" y2="49.34" gradientTransform="matrix(0.631195,0.000000,0.000000,1.584297,-73.39707,-2.842171e-14)" gradientUnits="userSpaceOnUse" xlink:href="#linearGradient2963"/></defs><metadata id="metadata4"/><g id="layer1"><path style="fill:url(#radialGradient11095);fill-opacity:1;fill-rule:evenodd;stroke:none;stroke-width:.25pt;stroke-linecap:butt;stroke-linejoin:miter;stroke-opacity:1" id="path10469" d="M 295.27557,701.06858 L 696.00671,687.57026 L 680.82111,528.12146 L 293.58828,566.92910 L 295.27557,701.06858 z"/><path style="fill:url(#linearGradient11727);fill-opacity:1;fill-rule:evenodd;stroke:#000;stroke-width:3.75;stroke-linecap:round;stroke-linejoin:round;stroke-miterlimit:4;stroke-opacity:1" id="path1061" d="M 287.68278,699.38129 L 35.433069,603.20581 L 35.433069,180.78702 L 145.78819,60.572826 L 286.73678,241.13759 L 287.68278,699.38129 z"/><path style="fill:url(#linearGradient9844);fill-opacity:1;fill-rule:evenodd;stroke:#000;stroke-width:3.75;stroke-linecap:round;stroke-linejoin:round;stroke-opacity:1;stroke-miterlimit:4;stroke-dasharray:none" id="path1065" d="M 287.68277,701.06858 L 631.05336,620.09626 L 631.05336,167.05917 L 286.83913,240.43868 L 287.68277,701.06858 z"/><path style="fill:url(#linearGradient3590);fill-opacity:1;fill-rule:evenodd;stroke:#000;stroke-width:3.75;stroke-linecap:round;stroke-linejoin:round;stroke-miterlimit:4;stroke-opacity:1" id="path1067" d="M 136.24344,37.307500 L 293.57072,272.20768 L 665.37085,192.41090 L 489.73048,8.6235863 L 136.24344,37.307500 z"/><path style="fill:none;fill-opacity:1;fill-rule:evenodd;stroke:#6b3f03;stroke-width:2.5;stroke-linecap:round;stroke-linejoin:round;stroke-miterlimit:4;stroke-opacity:1" id="path1068" d="M 46.400449,606.58039 L 43.869509,189.82001 L 273.34082,247.18784 L 275.02811,693.47578 L 46.400449,606.58039 z"/><path style="fill:url(#linearGradient2962);fill-opacity:1;fill-rule:evenodd;stroke:#000;stroke-width:3.75;stroke-linecap:round;stroke-linejoin:round;stroke-miterlimit:4;stroke-opacity:1" id="path1071" d="M 295.45596,270.18195 L 290.68359,274.35778 L 135.39429,47.687584 L 10.716023,193.24499 L 7.1367388,188.47262 L 135.99083,36.949743 L 295.45596,270.18195 z"/><path style="fill:url(#linearGradient1698);fill-opacity:1;fill-rule:evenodd;stroke:#000;stroke-width:3.75;stroke-linecap:round;stroke-linejoin:round;stroke-miterlimit:4;stroke-opacity:1" id="path1072" d="M 11.909110,193.24499 L 34.577889,184.89334 L 144.93903,61.408159 L 135.39429,47.687584 L 11.909110,193.24499 z"/><path style="fill:none;fill-opacity:.75;fill-rule:evenodd;stroke:#6e4a00;stroke-width:1pt;stroke-linecap:round;stroke-linejoin:round;stroke-opacity:1" id="path7968" d="M 74.240709,198.25646 C 73.115859,339.14509 82.114729,477.50278 80.989869,617.54777"/><path style="fill:none;fill-opacity:.75;fill-rule:evenodd;stroke:#6e4a00;stroke-width:1pt;stroke-linecap:round;stroke-linejoin:round;stroke-opacity:1" id="path8590" d="M 109.67378,207.11473 C 108.54893,348.00336 102.78402,485.51740 101.65916,625.56239"/><path style="fill:none;fill-opacity:.75;fill-rule:evenodd;stroke:#6e4a00;stroke-width:1pt;stroke-linecap:round;stroke-linejoin:round;stroke-opacity:1" id="path8591" d="M 153.96512,218.92575 C 152.84027,359.81438 154.24634,504.49940 153.12148,644.54439"/><path style="fill:none;fill-opacity:.75;fill-rule:evenodd;stroke:#6e4a00;stroke-width:1pt;stroke-linecap:round;stroke-linejoin:round;stroke-opacity:1" id="path8592" d="M 180.11810,225.25308 C 178.99325,366.14171 206.55230,524.32505 205.42744,664.37004"/><path style="fill:none;fill-opacity:.75;fill-rule:evenodd;stroke:#6e4a00;stroke-width:1pt;stroke-linecap:round;stroke-linejoin:round;stroke-opacity:1" id="path8593" d="M 230.31494,237.90774 C 220.75364,372.04722 239.87625,537.40153 238.75139,677.44652"/><path style="fill:#000;fill-opacity:1;fill-rule:evenodd;stroke:#000;stroke-width:1.25;stroke-linecap:round;stroke-linejoin:round;stroke-miterlimit:4;stroke-opacity:1" id="path6701" d="M 140.69556,354.41323 C 141.69458,344.43061 124.36263,332.15697 121.46448,317.26907 C 118.56632,302.38117 136.43685,278.73816 145.67303,307.59071 C 158.15255,281.92589 173.50413,311.07417 167.72674,324.07691 C 161.94935,337.07965 141.69458,344.43061 140.69556,354.41323 z"/><path style="fill:url(#linearGradient7330);fill-opacity:1;fill-rule:evenodd;stroke:#000;stroke-width:1.25;stroke-linecap:round;stroke-linejoin:round;stroke-miterlimit:4;stroke-opacity:1" id="path6702" d="M 144.85592,346.92248 C 141.37041,338.54817 131.30074,332.08656 127.74155,317.45061 C 125.94957,310.08169 129.59565,299.37861 137.10886,294.67004 C 128.11080,291.83613 119.27196,303.97152 121.80090,319.13340 C 123.32438,328.26718 142.47273,347.25655 140.66988,354.22806 C 141.20862,351.70625 142.88713,349.12541 144.85592,346.92248 z"/><path style="fill:url(#linearGradient7334);fill-opacity:1;fill-rule:evenodd;stroke:#000;stroke-width:1.25;stroke-linecap:round;stroke-linejoin:round;stroke-miterlimit:4;stroke-opacity:1" id="path6703" d="M 145.70978,307.70863 L 151.85348,307.25389 C 156.93236,298.72496 158.27724,299.23683 159.75660,298.21028 C 153.12818,295.29612 148.67308,301.82590 145.70978,307.70863 z"/><path style="fill:url(#linearGradient9219);fill-opacity:1;fill-rule:evenodd;stroke:none;stroke-width:.25pt;stroke-linecap:butt;stroke-linejoin:miter;stroke-opacity:1" id="path8594" d="M 35.011239,185.17996 L 69.178849,192.35095 L 162.82339,90.269961 L 144.68503,62.851515 L 35.011239,185.17996 z"/></g></svg>