<svg xmlns="http://www.w3.org/2000/svg" xmlns:cc="http://web.resource.org/cc/" xmlns:svg="http://www.w3.org/2000/svg" xmlns:xlink="http://www.w3.org/1999/xlink" id="svg1" width="755.906" height="755.906"><defs id="defs3"><linearGradient id="linearGradient13397"><stop style="stop-color:#fff;stop-opacity:1" id="stop13399" offset="0"/><stop style="stop-color:#dadada;stop-opacity:1" id="stop13401" offset="1"/></linearGradient><linearGradient id="linearGradient11811"><stop id="stop11813" offset="0" style="stop-color:#f6e800;stop-opacity:1"/><stop id="stop11815" offset="1" style="stop-color:#ffb08a;stop-opacity:1"/></linearGradient><linearGradient id="linearGradient10281"><stop id="stop10283" offset="0" style="stop-color:#f6c900;stop-opacity:1"/><stop id="stop10285" offset="1" style="stop-color:#ff5200;stop-opacity:1"/></linearGradient><linearGradient id="linearGradient7963"><stop style="stop-color:red;stop-opacity:1" id="stop7965" offset="0"/><stop style="stop-color:#a30000;stop-opacity:1" id="stop7967" offset="1"/></linearGradient><linearGradient id="linearGradient7189"><stop id="stop7191" offset="0" style="stop-color:#96acff;stop-opacity:1"/><stop id="stop7193" offset="1" style="stop-color:#fff;stop-opacity:1"/></linearGradient><linearGradient id="linearGradient18090"><stop style="stop-color:#c69527;stop-opacity:1" id="stop18091" offset="0"/><stop style="stop-color:#e7c14d;stop-opacity:1" id="stop18094" offset=".529"/><stop style="stop-color:#e7b828;stop-opacity:1" id="stop18092" offset="1"/></linearGradient><linearGradient id="linearGradient16840"><stop style="stop-color:#858585;stop-opacity:1" id="stop16841" offset="0"/><stop style="stop-color:#e5e5e5;stop-opacity:1" id="stop16842" offset="1"/></linearGradient><linearGradient id="linearGradient16216"><stop style="stop-color:#000;stop-opacity:.21960784" id="stop16217" offset="0"/><stop style="stop-color:#000;stop-opacity:0" id="stop16218" offset="1"/></linearGradient><linearGradient id="linearGradient15589"><stop style="stop-color:#000;stop-opacity:.49803922" id="stop15590" offset="0"/><stop style="stop-color:#000;stop-opacity:0" id="stop15591" offset="1"/></linearGradient><linearGradient id="linearGradient8654"><stop style="stop-color:#ffffd4;stop-opacity:1" id="stop8655" offset="0"/><stop style="stop-color:#acb468;stop-opacity:1" id="stop8656" offset="1"/></linearGradient><linearGradient id="linearGradient8025"><stop style="stop-color:#fff;stop-opacity:1" id="stop8026" offset="0"/><stop style="stop-color:#dafdff;stop-opacity:1" id="stop8027" offset="1"/></linearGradient><linearGradient id="linearGradient4278"><stop style="stop-color:#ffffd4;stop-opacity:1" id="stop4279" offset="0"/><stop style="stop-color:#e2ec88;stop-opacity:1" id="stop4280" offset="1"/></linearGradient><linearGradient id="linearGradient1786"><stop style="stop-color:#d04848;stop-opacity:1" id="stop1787" offset="0"/><stop style="stop-color:#6f271b;stop-opacity:1" id="stop1788" offset="1"/></linearGradient><linearGradient id="linearGradient1789" x1="51.83" x2="532.78" y1="214.553" y2="537.916" gradientTransform="matrix(1.484681,0.000000,0.000000,0.723408,-4.776368,-45.97541)" gradientUnits="userSpaceOnUse" xlink:href="#linearGradient1786"/><linearGradient id="linearGradient3656" x1="205.226" x2="264.832" y1="114.579" y2="165.964" gradientTransform="matrix(1.035884,0.000000,0.000000,1.036827,-4.776368,-45.97541)" gradientUnits="userSpaceOnUse" xlink:href="#linearGradient1786"/><linearGradient id="linearGradient4281" x1="339.207" x2="461.916" y1="148.346" y2="171.04" gradientTransform="matrix(0.720822,0.000000,0.000000,1.490009,-4.776368,-45.97541)" gradientUnits="userSpaceOnUse" xlink:href="#linearGradient4278"/><linearGradient id="linearGradient4906" x1="-209.094" x2="1074.127" y1="342.681" y2="385.287" gradientTransform="matrix(0.905244,0.000000,0.000000,1.186454,-4.776368,-45.97541)" gradientUnits="userSpaceOnUse" xlink:href="#linearGradient4278"/><linearGradient id="linearGradient4910" x1="323.417" x2="1279.976" y1="196.501" y2="220.87" gradientTransform="matrix(0.555481,0.000000,0.000000,1.933516,-4.776368,-45.97541)" gradientUnits="userSpaceOnUse" xlink:href="#linearGradient4278"/><radialGradient id="radialGradient8028" cx="333.598" cy="198.945" r="121.255" fx="333.598" fy="198.945" gradientTransform="matrix(0.860130,0.000000,0.000000,1.248684,-4.776368,-45.97541)" gradientUnits="userSpaceOnUse" xlink:href="#linearGradient8025"/><linearGradient id="linearGradient8653" x1="163.757" x2="216.613" y1="173.526" y2="174.037" gradientTransform="matrix(0.966612,0.000000,0.000000,1.111129,-4.776368,-45.97541)" gradientUnits="userSpaceOnUse" xlink:href="#linearGradient8654"/><linearGradient id="linearGradient8660" x1="445.459" x2="484.647" y1="97.086" y2="97.086" gradientTransform="matrix(0.403800,0.000000,0.000000,2.659808,-4.776368,-45.97541)" gradientUnits="userSpaceOnUse" xlink:href="#linearGradient8654"/><linearGradient id="linearGradient8664" x1="75.231" x2="127.273" y1="692.115" y2="692.115" gradientTransform="matrix(2.388927,0.000000,0.000000,0.449587,-4.776368,-45.97541)" gradientUnits="userSpaceOnUse" xlink:href="#linearGradient4278"/><radialGradient id="radialGradient11183" cx="375.579" cy="450.654" r="85.661" fx="375.579" fy="450.654" gradientTransform="matrix(0.998846,0.000000,0.000000,0.898367,-129.3753,5.785940)" gradientUnits="userSpaceOnUse" xlink:href="#linearGradient8025"/><linearGradient id="linearGradient11184" x1="445.459" x2="484.647" y1="97.086" y2="97.086" gradientTransform="matrix(0.372221,0.000000,0.000000,2.410747,-3.675871,146.7611)" gradientUnits="userSpaceOnUse" xlink:href="#linearGradient8654"/><linearGradient id="linearGradient11185" x1="75.231" x2="127.273" y1="692.115" y2="692.115" gradientTransform="matrix(2.202103,0.000000,0.000000,0.407489,-3.572602,146.9227)" gradientUnits="userSpaceOnUse" xlink:href="#linearGradient4278"/><radialGradient id="radialGradient11190" cx="375.579" cy="450.654" r="85.661" fx="375.579" fy="450.654" gradientTransform="scale(1.045576,0.956411)" gradientUnits="userSpaceOnUse" xlink:href="#linearGradient8025"/><linearGradient id="linearGradient11191" x1="445.459" x2="484.647" y1="97.086" y2="97.086" gradientTransform="matrix(0.389635,0.000000,0.000000,2.566504,131.5801,150.0835)" gradientUnits="userSpaceOnUse" xlink:href="#linearGradient8654"/><linearGradient id="linearGradient11192" x1="75.231" x2="127.273" y1="692.115" y2="692.115" gradientTransform="matrix(2.305125,0.000000,0.000000,0.433816,131.6882,150.2555)" gradientUnits="userSpaceOnUse" xlink:href="#linearGradient4278"/><radialGradient id="radialGradient11193" cx="375.579" cy="450.654" r="85.661" fx="375.579" fy="450.654" gradientTransform="matrix(0.954179,0.000000,0.000000,0.858193,-226.8034,8.176951)" gradientUnits="userSpaceOnUse" xlink:href="#linearGradient8025"/><linearGradient id="linearGradient11194" x1="445.459" x2="484.647" y1="97.086" y2="97.086" gradientTransform="matrix(0.355576,0.000000,0.000000,2.302941,-106.7251,142.8477)" gradientUnits="userSpaceOnUse" xlink:href="#linearGradient8654"/><linearGradient id="linearGradient11195" x1="75.231" x2="127.273" y1="692.115" y2="692.115" gradientTransform="matrix(2.103627,0.000000,0.000000,0.389266,-106.6264,143.0021)" gradientUnits="userSpaceOnUse" xlink:href="#linearGradient4278"/><radialGradient id="radialGradient13084" cx="235.108" cy="543.049" r="54.748" fx="235.108" fy="543.049" gradientTransform="scale(1.007034,0.993015)" gradientUnits="userSpaceOnUse" xlink:href="#linearGradient8025"/><linearGradient id="linearGradient13085" x1="81.933" x2="98.377" y1="1289.168" y2="1285.579" gradientTransform="scale(2.305125,0.433816)" gradientUnits="userSpaceOnUse" xlink:href="#linearGradient4278"/><linearGradient id="linearGradient13086" x1="445.459" x2="484.647" y1="97.086" y2="97.086" gradientTransform="matrix(0.389635,0.000000,0.000000,2.566504,3.978893,257.4373)" gradientUnits="userSpaceOnUse" xlink:href="#linearGradient8654"/><radialGradient id="radialGradient13091" cx="235.108" cy="543.049" r="54.748" fx="235.108" fy="543.049" gradientTransform="scale(1.007034,0.993015)" gradientUnits="userSpaceOnUse" xlink:href="#linearGradient8025"/><linearGradient id="linearGradient13092" x1="81.933" x2="98.377" y1="1289.168" y2="1285.579" gradientTransform="scale(2.305125,0.433816)" gradientUnits="userSpaceOnUse" xlink:href="#linearGradient4278"/><linearGradient id="linearGradient13093" x1="445.459" x2="484.647" y1="97.086" y2="97.086" gradientTransform="matrix(0.389635,0.000000,0.000000,2.566504,3.978893,257.4373)" gradientUnits="userSpaceOnUse" xlink:href="#linearGradient8654"/><linearGradient id="linearGradient13095" x1="828" x2="768.276" y1="205.899" y2="186.883" gradientTransform="matrix(1.035884,0.000000,0.000000,1.036827,-4.776368,-45.97541)" gradientUnits="userSpaceOnUse" xlink:href="#linearGradient1786"/><linearGradient id="linearGradient15592" x1="622.3" x2="660.668" y1="130.007" y2="211.024" gradientTransform="matrix(0.853562,0.000000,0.000000,1.258293,-4.776367,-45.97541)" gradientUnits="userSpaceOnUse" xlink:href="#linearGradient15589"/><linearGradient id="linearGradient15594" x1="622.3" x2="660.668" y1="130.007" y2="211.024" gradientTransform="matrix(0.853561,0.000000,0.000000,1.258293,-166.4717,-47.28613)" gradientUnits="userSpaceOnUse" xlink:href="#linearGradient16216"/><linearGradient id="linearGradient16843" x1="406.126" x2="404.235" y1="661.781" y2="659.961" gradientTransform="matrix(1.014465,0.000000,0.000000,1.058716,-4.776368,-45.97541)" gradientUnits="userSpaceOnUse" xlink:href="#linearGradient16840"/><linearGradient id="linearGradient16844" x1="198.867" x2="170.894" y1="1247.353" y2="1176.439" gradientTransform="matrix(1.858578,0.000000,0.000000,0.577878,-4.776368,-45.97541)" gradientUnits="userSpaceOnUse" xlink:href="#linearGradient16840"/><linearGradient id="linearGradient16845" x1="242.206" x2="175.259" y1="1209.963" y2="1117.124" gradientTransform="matrix(1.802227,0.000000,0.000000,0.595946,-4.776368,-45.97541)" gradientUnits="userSpaceOnUse" xlink:href="#linearGradient16840"/><linearGradient id="linearGradient17468" x1="445.459" x2="484.647" y1="97.086" y2="97.086" gradientTransform="matrix(0.403800,0.000000,0.000000,2.659808,156.7239,316.1212)" gradientUnits="userSpaceOnUse" xlink:href="#linearGradient8654"/><linearGradient id="linearGradient18093" x1="432.064" x2="561.098" y1="460.623" y2="467.855" gradientTransform="matrix(0.806883,0.000000,0.000000,1.331086,-4.776368,-45.97541)" gradientUnits="userSpaceOnUse" xlink:href="#linearGradient18090"/><radialGradient id="radialGradient19342" cx="167.438" cy="1448.286" r="155.798" fx="167.438" fy="1448.286" gradientTransform="scale(1.884415,0.530669)" gradientUnits="userSpaceOnUse" xlink:href="#linearGradient15589"/><linearGradient id="linearGradient3364" x1="1198.656" x2="915.005" y1="434.158" y2="147.039" gradientTransform="matrix(0.911968,0.000000,0.000000,1.096530,-529.3860,77.93463)" gradientUnits="userSpaceOnUse" xlink:href="#linearGradient16840"/><radialGradient id="radialGradient4899" cx="646.293" cy="979.612" r="406.974" fx="646.293" fy="979.612" gradientTransform="scale(1.958350,0.510634)" gradientUnits="userSpaceOnUse" xlink:href="#linearGradient16840"/><linearGradient id="linearGradient7195" x1="698.723" x2="737.098" y1="717.847" y2="1047.928" gradientTransform="scale(1.474428,0.678229)" gradientUnits="userSpaceOnUse" xlink:href="#linearGradient7189"/><linearGradient id="linearGradient7961" x1="1021.381" x2="938.032" y1="471.129" y2="489.246" gradientTransform="scale(1.250085,0.799945)" gradientUnits="userSpaceOnUse" xlink:href="#linearGradient13397"/><linearGradient id="linearGradient8753" x1="1669.691" x2="1742.574" y1="158.163" y2="160.955" gradientTransform="matrix(0.578611,0.000000,0.000000,1.728277,-9.062166,-2.718650)" gradientUnits="userSpaceOnUse" xlink:href="#linearGradient7963"/><radialGradient id="radialGradient9519" cx="556.325" cy="273.531" r="36.74" fx="556.325" fy="273.531" gradientTransform="scale(1.512178,0.661298)" gradientUnits="userSpaceOnUse" xlink:href="#linearGradient7963"/><radialGradient id="radialGradient10289" cx="1351.771" cy="148.488" r="69.559" fx="1351.771" fy="148.488" gradientTransform="matrix(0.420814,0.000000,0.000000,0.570780,411.7628,117.2184)" gradientUnits="userSpaceOnUse" xlink:href="#linearGradient10281"/><radialGradient id="radialGradient11051" cx="1351.771" cy="148.488" r="69.559" fx="1351.771" fy="148.488" gradientTransform="matrix(0.220577,0.000000,0.000000,0.299183,682.5568,157.6233)" gradientUnits="userSpaceOnUse" xlink:href="#linearGradient11811"/><linearGradient id="linearGradient12583" x1="1669.691" x2="1742.574" y1="158.163" y2="160.955" gradientTransform="matrix(0.578611,0.000000,0.000000,1.728277,89.71543,22.65542)" gradientUnits="userSpaceOnUse" xlink:href="#linearGradient7963"/><radialGradient id="radialGradient12585" cx="556.325" cy="273.531" r="36.74" fx="556.325" fy="273.531" gradientTransform="scale(1.512178,0.661298)" gradientUnits="userSpaceOnUse" xlink:href="#linearGradient7963"/><radialGradient id="radialGradient12587" cx="1351.771" cy="148.488" r="69.559" fx="1351.771" fy="148.488" gradientTransform="matrix(0.420814,0.000000,0.000000,0.570780,510.5405,142.5924)" gradientUnits="userSpaceOnUse" xlink:href="#linearGradient10281"/><radialGradient id="radialGradient12589" cx="1351.771" cy="148.488" r="69.559" fx="1351.771" fy="148.488" gradientTransform="matrix(0.220577,0.000000,0.000000,0.299183,781.3345,182.9973)" gradientUnits="userSpaceOnUse" xlink:href="#linearGradient11811"/><linearGradient id="linearGradient12599" x1="1669.691" x2="1742.574" y1="158.163" y2="160.955" gradientTransform="matrix(0.578611,0.000000,0.000000,1.728277,205.7111,20.84298)" gradientUnits="userSpaceOnUse" xlink:href="#linearGradient7963"/><radialGradient id="radialGradient12601" cx="556.325" cy="273.531" r="36.74" fx="556.325" fy="273.531" gradientTransform="scale(1.512178,0.661298)" gradientUnits="userSpaceOnUse" xlink:href="#linearGradient7963"/><radialGradient id="radialGradient12603" cx="1351.771" cy="148.488" r="69.559" fx="1351.771" fy="148.488" gradientTransform="matrix(0.420814,0.000000,0.000000,0.570780,626.5361,140.7800)" gradientUnits="userSpaceOnUse" xlink:href="#linearGradient10281"/><radialGradient id="radialGradient12605" cx="1351.771" cy="148.488" r="69.559" fx="1351.771" fy="148.488" gradientTransform="matrix(0.220577,0.000000,0.000000,0.299183,897.3301,181.1849)" gradientUnits="userSpaceOnUse" xlink:href="#linearGradient11811"/><linearGradient id="linearGradient12615" x1="1669.691" x2="1742.574" y1="158.163" y2="160.955" gradientTransform="matrix(0.578611,0.000000,0.000000,1.728277,290.8955,-8.155949)" gradientUnits="userSpaceOnUse" xlink:href="#linearGradient7963"/><radialGradient id="radialGradient12617" cx="556.325" cy="273.531" r="36.74" fx="556.325" fy="273.531" gradientTransform="scale(1.512178,0.661298)" gradientUnits="userSpaceOnUse" xlink:href="#linearGradient7963"/><radialGradient id="radialGradient12619" cx="1351.771" cy="148.488" r="69.559" fx="1351.771" fy="148.488" gradientTransform="matrix(0.420814,0.000000,0.000000,0.570780,711.7205,111.7811)" gradientUnits="userSpaceOnUse" xlink:href="#linearGradient10281"/><radialGradient id="radialGradient12621" cx="1351.771" cy="148.488" r="69.559" fx="1351.771" fy="148.488" gradientTransform="matrix(0.220577,0.000000,0.000000,0.299183,982.5145,152.1860)" gradientUnits="userSpaceOnUse" xlink:href="#linearGradient11811"/><linearGradient id="linearGradient12631" x1="1669.691" x2="1742.574" y1="158.163" y2="160.955" gradientTransform="matrix(0.578611,0.000000,0.000000,1.728277,147.7133,-28.99893)" gradientUnits="userSpaceOnUse" xlink:href="#linearGradient7963"/><radialGradient id="radialGradient12633" cx="556.325" cy="273.531" r="36.74" fx="556.325" fy="273.531" gradientTransform="scale(1.512178,0.661298)" gradientUnits="userSpaceOnUse" xlink:href="#linearGradient7963"/><radialGradient id="radialGradient12635" cx="1351.771" cy="148.488" r="69.559" fx="1351.771" fy="148.488" gradientTransform="matrix(0.420814,0.000000,0.000000,0.570780,568.5383,90.93810)" gradientUnits="userSpaceOnUse" xlink:href="#linearGradient10281"/><radialGradient id="radialGradient12637" cx="1351.771" cy="148.488" r="69.559" fx="1351.771" fy="148.488" gradientTransform="matrix(0.220577,0.000000,0.000000,0.299183,839.3323,131.3430)" gradientUnits="userSpaceOnUse" xlink:href="#linearGradient11811"/><linearGradient id="linearGradient14959" x1="1198.656" x2="915.005" y1="434.158" y2="147.039" gradientTransform="matrix(0.911968,0.000000,0.000000,1.096530,-529.3860,77.93463)" gradientUnits="userSpaceOnUse" xlink:href="#linearGradient16840"/><radialGradient id="radialGradient14961" cx="646.293" cy="979.612" r="406.974" fx="646.293" fy="979.612" gradientTransform="scale(1.958350,0.510634)" gradientUnits="userSpaceOnUse" xlink:href="#linearGradient16840"/><linearGradient id="linearGradient14963" x1="1021.381" x2="938.032" y1="471.129" y2="489.246" gradientTransform="scale(1.250085,0.799945)" gradientUnits="userSpaceOnUse" xlink:href="#linearGradient13397"/><linearGradient id="linearGradient14965" x1="698.723" x2="737.098" y1="717.847" y2="1047.928" gradientTransform="scale(1.474428,0.678229)" gradientUnits="userSpaceOnUse" xlink:href="#linearGradient7189"/><linearGradient id="linearGradient14967" x1="1669.691" x2="1742.574" y1="158.163" y2="160.955" gradientTransform="matrix(0.578611,0.000000,0.000000,1.728277,-9.062166,-2.718650)" gradientUnits="userSpaceOnUse" xlink:href="#linearGradient7963"/><radialGradient id="radialGradient14969" cx="556.325" cy="273.531" r="36.74" fx="556.325" fy="273.531" gradientTransform="scale(1.512178,0.661298)" gradientUnits="userSpaceOnUse" xlink:href="#linearGradient7963"/><radialGradient id="radialGradient14971" cx="1351.771" cy="148.488" r="69.559" fx="1351.771" fy="148.488" gradientTransform="matrix(0.420814,0.000000,0.000000,0.570780,411.7628,117.2184)" gradientUnits="userSpaceOnUse" xlink:href="#linearGradient10281"/><radialGradient id="radialGradient14973" cx="1351.771" cy="148.488" r="69.559" fx="1351.771" fy="148.488" gradientTransform="matrix(0.220577,0.000000,0.000000,0.299183,682.5568,157.6233)" gradientUnits="userSpaceOnUse" xlink:href="#linearGradient11811"/><linearGradient id="linearGradient14975" x1="1669.691" x2="1742.574" y1="158.163" y2="160.955" gradientTransform="matrix(0.578611,0.000000,0.000000,1.728277,89.71543,22.65542)" gradientUnits="userSpaceOnUse" xlink:href="#linearGradient7963"/><radialGradient id="radialGradient14977" cx="556.325" cy="273.531" r="36.74" fx="556.325" fy="273.531" gradientTransform="scale(1.512178,0.661298)" gradientUnits="userSpaceOnUse" xlink:href="#linearGradient7963"/><radialGradient id="radialGradient14979" cx="1351.771" cy="148.488" r="69.559" fx="1351.771" fy="148.488" gradientTransform="matrix(0.420814,0.000000,0.000000,0.570780,510.5405,142.5924)" gradientUnits="userSpaceOnUse" xlink:href="#linearGradient10281"/><radialGradient id="radialGradient14981" cx="1351.771" cy="148.488" r="69.559" fx="1351.771" fy="148.488" gradientTransform="matrix(0.220577,0.000000,0.000000,0.299183,781.3345,182.9973)" gradientUnits="userSpaceOnUse" xlink:href="#linearGradient11811"/><linearGradient id="linearGradient14983" x1="1669.691" x2="1742.574" y1="158.163" y2="160.955" gradientTransform="matrix(0.578611,0.000000,0.000000,1.728277,205.7111,20.84298)" gradientUnits="userSpaceOnUse" xlink:href="#linearGradient7963"/><radialGradient id="radialGradient14985" cx="556.325" cy="273.531" r="36.74" fx="556.325" fy="273.531" gradientTransform="scale(1.512178,0.661298)" gradientUnits="userSpaceOnUse" xlink:href="#linearGradient7963"/><radialGradient id="radialGradient14987" cx="1351.771" cy="148.488" r="69.559" fx="1351.771" fy="148.488" gradientTransform="matrix(0.420814,0.000000,0.000000,0.570780,626.5361,140.7800)" gradientUnits="userSpaceOnUse" xlink:href="#linearGradient10281"/><radialGradient id="radialGradient14989" cx="1351.771" cy="148.488" r="69.559" fx="1351.771" fy="148.488" gradientTransform="matrix(0.220577,0.000000,0.000000,0.299183,897.3301,181.1849)" gradientUnits="userSpaceOnUse" xlink:href="#linearGradient11811"/><linearGradient id="linearGradient14991" x1="1669.691" x2="1742.574" y1="158.163" y2="160.955" gradientTransform="matrix(0.578611,0.000000,0.000000,1.728277,290.8955,-8.155949)" gradientUnits="userSpaceOnUse" xlink:href="#linearGradient7963"/><radialGradient id="radialGradient14993" cx="556.325" cy="273.531" r="36.74" fx="556.325" fy="273.531" gradientTransform="scale(1.512178,0.661298)" gradientUnits="userSpaceOnUse" xlink:href="#linearGradient7963"/><radialGradient id="radialGradient14995" cx="1351.771" cy="148.488" r="69.559" fx="1351.771" fy="148.488" gradientTransform="matrix(0.420814,0.000000,0.000000,0.570780,711.7205,111.7811)" gradientUnits="userSpaceOnUse" xlink:href="#linearGradient10281"/><radialGradient id="radialGradient14997" cx="1351.771" cy="148.488" r="69.559" fx="1351.771" fy="148.488" gradientTransform="matrix(0.220577,0.000000,0.000000,0.299183,982.5145,152.1860)" gradientUnits="userSpaceOnUse" xlink:href="#linearGradient11811"/><linearGradient id="linearGradient14999" x1="1669.691" x2="1742.574" y1="158.163" y2="160.955" gradientTransform="matrix(0.578611,0.000000,0.000000,1.728277,147.7133,-28.99893)" gradientUnits="userSpaceOnUse" xlink:href="#linearGradient7963"/><radialGradient id="radialGradient15001" cx="556.325" cy="273.531" r="36.74" fx="556.325" fy="273.531" gradientTransform="scale(1.512178,0.661298)" gradientUnits="userSpaceOnUse" xlink:href="#linearGradient7963"/><radialGradient id="radialGradient15003" cx="1351.771" cy="148.488" r="69.559" fx="1351.771" fy="148.488" gradientTransform="matrix(0.420814,0.000000,0.000000,0.570780,568.5383,90.93810)" gradientUnits="userSpaceOnUse" xlink:href="#linearGradient10281"/><radialGradient id="radialGradient15005" cx="1351.771" cy="148.488" r="69.559" fx="1351.771" fy="148.488" gradientTransform="matrix(0.220577,0.000000,0.000000,0.299183,839.3323,131.3430)" gradientUnits="userSpaceOnUse" xlink:href="#linearGradient11811"/></defs><metadata id="metadata4"/><g id="layer1"><path style="fill:url(#radialGradient19342);fill-opacity:1;fill-rule:nonzero;stroke:none;stroke-width:2.5;stroke-linecap:round;stroke-linejoin:round;stroke-miterlimit:4;stroke-opacity:1" id="path18716" d="M 609.11133 768.56012 A 293.58829 82.677162 0 1 1 21.934753,768.56012 A 293.58829 82.677162 0 1 1 609.11133 768.56012 z" transform="matrix(0.689655,0.000000,0.000000,1.709184,313.0504,-762.2888)"/><path style="fill:url(#linearGradient13095);fill-opacity:1;fill-rule:evenodd;stroke:#000;stroke-width:3.8863294;stroke-linecap:round;stroke-linejoin:round;stroke-miterlimit:4;stroke-opacity:1" id="path13094" d="M 579.41135,69.315199 L 591.91693,40.687817 L 706.63325,198.83271 L 668.81912,195.33546 L 579.41135,69.315199 z"/><path style="fill:url(#linearGradient4906);fill-opacity:1;fill-rule:evenodd;stroke:#000;stroke-width:3.8863294;stroke-linecap:round;stroke-linejoin:round;stroke-miterlimit:4;stroke-opacity:1" id="path1072" d="M 28.447594,560.79902 L 490.96009,668.33973 L 490.08577,292.38439 L 320.24514,276.44368 L 322.80489,181.30235 L 238.81194,62.049899 L 156.05543,161.03400 L 155.52403,261.87281 L 28.959755,249.64151 L 28.447594,560.79902 z"/><path style="fill:url(#linearGradient4910);fill-opacity:1;fill-rule:evenodd;stroke:#000;stroke-width:3.8863294;stroke-linecap:round;stroke-linejoin:round;stroke-miterlimit:4;stroke-opacity:1" id="path1073" d="M 491.83440,668.33973 L 667.57168,532.82095 L 668.44599,180.47211 L 569.64842,46.701951 L 490.08577,293.25871 L 491.83440,668.33973 z"/><path style="fill:url(#linearGradient1789);fill-opacity:1;fill-rule:evenodd;stroke:#000;stroke-width:3.8863294;stroke-linecap:round;stroke-linejoin:round;stroke-miterlimit:4;stroke-opacity:1" id="path1075" d="M 591.50630,39.707434 L 134.23969,35.335861 L 3.3046100,264.69880 L 147.51617,281.02684 L 155.51038,262.65657 L 155.92732,160.72713 L 238.36090,61.961788 L 340.57796,41.018903 L 377.95491,164.84373 L 311.16946,298.09529 L 501.96404,319.16993 L 591.50630,39.707434 z"/><path style="fill:url(#linearGradient4281);fill-opacity:1;fill-rule:evenodd;stroke:#000;stroke-width:3.8863294;stroke-linecap:round;stroke-linejoin:round;stroke-miterlimit:4;stroke-opacity:1" id="path1077" d="M 320.46873,183.31362 L 378.17349,164.29729 L 320.57478,277.17709 L 320.46873,183.31362 z"/><path style="fill:url(#linearGradient3656);fill-opacity:1;fill-rule:evenodd;stroke:#000;stroke-width:3.8863294;stroke-linecap:round;stroke-linejoin:round;stroke-miterlimit:4;stroke-opacity:1" id="path1079" d="M 238.84833,61.821382 L 340.57796,41.018905 L 379.04780,164.29728 L 320.68730,182.65790 L 238.84833,61.821382 z"/><path style="fill:url(#linearGradient18093);fill-opacity:1;fill-rule:evenodd;stroke:#000;stroke-width:2.5908864;stroke-linecap:round;stroke-linejoin:round;stroke-miterlimit:4;stroke-opacity:1" id="path1080" d="M 336.86212,625.68583 L 337.31482,489.02754 L 430.99453,504.51179 L 431.28812,646.48187 L 336.86212,625.68583 z"/><path style="fill:url(#radialGradient8028);fill-opacity:1;fill-rule:evenodd;stroke:#000;stroke-width:2.5908864;stroke-linecap:round;stroke-linejoin:round;stroke-miterlimit:4;stroke-opacity:1" id="path1085" d="M 175.30141,263.82981 L 175.36354,170.58569 L 237.02845,96.503062 L 298.66389,186.82267 L 298.45173,276.76347 L 175.30141,263.82981 z"/><path style="fill:url(#linearGradient16845);fill-opacity:1;fill-rule:evenodd;stroke:#000;stroke-width:2.5908864;stroke-linecap:round;stroke-linejoin:round;stroke-miterlimit:4;stroke-opacity:1" id="path1086" d="M 323.54436,622.84430 L 337.58416,625.85751 L 351.84254,616.84892 L 431.10268,636.06040 L 431.01878,645.87300 L 449.64872,649.76054 L 414.67613,677.84790 L 282.65460,645.60755 L 323.54436,622.84430 z"/><path style="fill:url(#linearGradient16844);fill-opacity:1;fill-rule:evenodd;stroke:#000;stroke-width:2.5908864;stroke-linecap:round;stroke-linejoin:round;stroke-miterlimit:4;stroke-opacity:1" id="path1087" d="M 282.76390,645.49825 L 283.20106,652.49277 L 414.67614,686.15389 L 414.67613,677.84791 L 282.76390,645.49825 z"/><path style="fill:url(#linearGradient16843);fill-opacity:1;fill-rule:evenodd;stroke:#000;stroke-width:2.5908864;stroke-linecap:round;stroke-linejoin:round;stroke-miterlimit:4;stroke-opacity:1" id="path1088" d="M 414.56685,686.15389 L 449.43016,658.50369 L 449.53943,649.86982 L 414.78543,677.73861 L 414.56685,686.15389 z"/><path style="fill:url(#linearGradient8660);fill-opacity:1;fill-rule:evenodd;stroke:#000;stroke-width:1.2954432;stroke-linecap:round;stroke-linejoin:round;stroke-miterlimit:4;stroke-opacity:1" id="path6776" d="M 176.05704,170.98721 L 190.27643,160.78635 L 190.27643,254.13967 L 175.74793,263.72229 L 176.05704,170.98721 z"/><path style="fill:url(#linearGradient8664);fill-opacity:1;fill-rule:evenodd;stroke:#000;stroke-width:1.2954432;stroke-linecap:round;stroke-linejoin:round;stroke-miterlimit:4;stroke-opacity:1" id="path6777" d="M 298.31280,276.24154 L 298.62191,265.42244 L 190.12187,254.13967 L 175.59337,263.72229 L 298.31280,276.24154 z"/><path style="fill:url(#linearGradient8653);fill-opacity:1;fill-rule:evenodd;stroke:#000;stroke-width:1.2954432;stroke-linecap:round;stroke-linejoin:round;stroke-miterlimit:4;stroke-opacity:1" id="path6778" d="M 176.05704,171.14176 L 190.27643,160.78635 L 239.88970,100.35398 L 236.79852,97.571932 L 176.05704,171.14176 z"/><g id="g11186" transform="matrix(1.036355,0.000000,0.000000,1.036355,19.26729,-39.41805)"><path style="fill:url(#radialGradient11190);fill-opacity:1;fill-rule:evenodd;stroke:#000;stroke-width:2.5;stroke-linecap:round;stroke-linejoin:round;stroke-miterlimit:4;stroke-opacity:1" id="path1164" d="M 401.59528,385.05306 L 401.01184,462.37071 L 305.31263,449.03055 L 305.60829,374.51206 L 401.59528,385.05306 z"/><path style="fill:url(#linearGradient11191);fill-opacity:1;fill-rule:evenodd;stroke:#000;stroke-width:1.25;stroke-linecap:round;stroke-linejoin:round;stroke-miterlimit:4;stroke-opacity:1" id="path9291" d="M 306.07004,374.40995 L 320.00153,376.16704 L 319.79062,439.67080 L 305.77177,448.91727 L 306.07004,374.40995 z"/><path style="fill:url(#linearGradient11192);fill-opacity:1;fill-rule:evenodd;stroke:#000;stroke-width:1.25;stroke-linecap:round;stroke-linejoin:round;stroke-miterlimit:4;stroke-opacity:1" id="path9293" d="M 400.52324,462.01308 L 400.82151,451.57351 L 319.74961,439.84289 L 305.73076,449.08936 L 400.52324,462.01308 z"/></g><g id="g11179" transform="matrix(1.036355,0.000000,0.000000,1.036355,22.79562,-40.54845)"><path style="fill:url(#radialGradient11183);fill-opacity:1;fill-rule:evenodd;stroke:#000;stroke-width:2.3681898;stroke-linecap:round;stroke-linejoin:round;stroke-miterlimit:4;stroke-opacity:1" id="path11163" d="M 254.27164,367.47088 L 253.71427,440.09628 L 162.29210,427.56570 L 162.57455,357.56959 L 254.27164,367.47088 z"/><path style="fill:url(#linearGradient11184);fill-opacity:1;fill-rule:evenodd;stroke:#000;stroke-width:1.1840949;stroke-linecap:round;stroke-linejoin:round;stroke-miterlimit:4;stroke-opacity:1" id="path11164" d="M 163.01566,357.47368 L 176.32452,359.12413 L 176.12303,418.77398 L 162.73073,427.45929 L 163.01566,357.47368 z"/><path style="fill:url(#linearGradient11185);fill-opacity:1;fill-rule:evenodd;stroke:#000;stroke-width:1.1840949;stroke-linecap:round;stroke-linejoin:round;stroke-miterlimit:4;stroke-opacity:1" id="path11165" d="M 253.24751,439.76034 L 253.53245,429.95433 L 176.08386,418.93562 L 162.69154,427.62094 L 253.24751,439.76034 z"/></g><g id="g11175" transform="matrix(1.036355,0.000000,0.000000,1.036355,2.218150,-43.78963)"><path style="fill:url(#radialGradient11193);fill-opacity:1;fill-rule:evenodd;stroke:#000;stroke-width:2.2622871;stroke-linecap:round;stroke-linejoin:round;stroke-miterlimit:4;stroke-opacity:1" id="path11169" d="M 139.68726,353.68774 L 139.15482,423.06542 L 51.820938,411.09519 L 52.090757,344.22923 L 139.68726,353.68774 z"/><path style="fill:url(#linearGradient11194);fill-opacity:1;fill-rule:evenodd;stroke:#000;stroke-width:1.1311436;stroke-linecap:round;stroke-linejoin:round;stroke-miterlimit:4;stroke-opacity:1" id="path11170" d="M 52.512141,344.13761 L 65.225845,345.71425 L 65.033365,402.69663 L 52.239953,410.99354 L 52.512141,344.13761 z"/><path style="fill:url(#linearGradient11195);fill-opacity:1;fill-rule:evenodd;stroke:#000;stroke-width:1.1311436;stroke-linecap:round;stroke-linejoin:round;stroke-miterlimit:4;stroke-opacity:1" id="path11171" d="M 138.70893,422.74450 L 138.98113,413.37701 L 64.995947,402.85104 L 52.202516,411.14796 L 138.70893,422.74450 z"/></g><g id="g13080" transform="matrix(1.036355,0.000000,0.000000,1.036355,3.092466,-40.72952)"><path style="fill:url(#radialGradient13084);fill-opacity:1;fill-rule:evenodd;stroke:#000;stroke-width:2.5;stroke-linecap:round;stroke-linejoin:round;stroke-miterlimit:4;stroke-opacity:1" id="path1081" d="M 266.30945,503.57098 L 265.77284,575.13602 L 177.75463,556.82293 L 178.02656,487.84879 L 266.30945,503.57098 z"/><path style="fill:url(#linearGradient13085);fill-opacity:1;fill-rule:evenodd;stroke:#000;stroke-width:1.25;stroke-linecap:round;stroke-linejoin:round;stroke-miterlimit:4;stroke-opacity:1" id="path11829" d="M 265.54012,574.42871 L 265.83839,563.98914 L 192.35929,546.98574 L 178.34044,556.23221 L 265.54012,574.42871 z"/><path style="fill:url(#linearGradient13086);fill-opacity:1;fill-rule:evenodd;stroke:#000;stroke-width:1.25;stroke-linecap:round;stroke-linejoin:round;stroke-miterlimit:4;stroke-opacity:1" id="path12452" d="M 178.25790,488.30195 L 193.03303,490.69178 L 192.18939,547.02456 L 178.17054,556.27103 L 178.25790,488.30195 z"/></g><g id="g13087" transform="matrix(0.949936,0.000000,0.000000,0.977929,-113.8350,-35.90236)"><path style="fill:url(#radialGradient13091);fill-opacity:1;fill-rule:evenodd;stroke:#000;stroke-width:2.5;stroke-linecap:round;stroke-linejoin:round;stroke-miterlimit:4;stroke-opacity:1" id="path13088" d="M 266.30945,503.57098 L 265.77284,575.13602 L 177.75463,556.82293 L 178.02656,487.84879 L 266.30945,503.57098 z"/><path style="fill:url(#linearGradient13092);fill-opacity:1;fill-rule:evenodd;stroke:#000;stroke-width:1.25;stroke-linecap:round;stroke-linejoin:round;stroke-miterlimit:4;stroke-opacity:1" id="path13089" d="M 265.54012,574.42871 L 265.83839,563.98914 L 192.35929,546.98574 L 178.34044,556.23221 L 265.54012,574.42871 z"/><path style="fill:url(#linearGradient13093);fill-opacity:1;fill-rule:evenodd;stroke:#000;stroke-width:1.25;stroke-linecap:round;stroke-linejoin:round;stroke-miterlimit:4;stroke-opacity:1" id="path13090" d="M 178.25790,488.30195 L 193.03303,490.69178 L 192.18939,547.02456 L 178.17054,556.27103 L 178.25790,488.30195 z"/></g><path style="fill:url(#linearGradient15592);fill-opacity:1;fill-rule:evenodd;stroke:none;stroke-width:.25pt;stroke-linecap:butt;stroke-linejoin:miter;stroke-opacity:1" id="path14959" d="M 509.32070,302.00184 L 593.25492,111.40124 L 667.57168,180.47210 L 582.65707,66.086883 L 509.32070,302.00184 z"/><path style="fill:url(#linearGradient15594);fill-opacity:1;fill-rule:evenodd;stroke:none;stroke-width:.25pt;stroke-linecap:butt;stroke-linejoin:miter;stroke-opacity:1" id="path15593" d="M 380.39180,165.91615 L 322.75045,275.15898 L 460.12707,125.99328 L 341.82784,40.046818 L 380.39180,165.91615 z"/><path style="fill:url(#linearGradient17468);fill-opacity:1;fill-rule:evenodd;stroke:#000;stroke-width:1.2954432;stroke-linecap:round;stroke-linejoin:round;stroke-miterlimit:4;stroke-opacity:1" id="path17467" d="M 337.99440,489.80522 L 352.65093,492.28191 L 351.77662,616.23625 L 337.24812,625.81888 L 337.99440,489.80522 z"/><g id="g14929" transform="matrix(0.957987,0.000000,0.000000,0.957987,72.94498,57.41312)"><path id="path14161" d="M 418.02425,209.96321 L 418.02425,351.90605 L 287.99300,351.90605 L 287.99300,455.21855 L 418.02425,455.21855 L 418.02425,676.31230 L 527.68050,676.31230 L 527.68050,455.21855 L 657.74300,455.21855 L 657.74300,351.90605 L 527.68050,351.90605 L 527.68050,209.96321 L 418.02425,209.96321 z" style="fill:#000;fill-opacity:.83680558;stroke:none;stroke-width:6.25;stroke-linecap:round;stroke-linejoin:round;stroke-miterlimit:4;stroke-opacity:.66666669"/><path id="rect1826" d="M 402.64525,199.71054 L 402.64525,341.65338 L 272.61400,341.65338 L 272.61400,444.96588 L 402.64525,444.96588 L 402.64525,666.05963 L 512.30150,666.05963 L 512.30150,444.96588 L 642.36400,444.96588 L 642.36400,341.65338 L 512.30150,341.65338 L 512.30150,199.71054 L 402.64525,199.71054 z" style="fill:url(#linearGradient14959);fill-opacity:1;stroke:#212121;stroke-width:6.25;stroke-linecap:round;stroke-linejoin:round;stroke-miterlimit:4;stroke-opacity:1"/></g><g id="g14933" transform="matrix(0.746150,0.000000,0.000000,0.746150,-624.1697,-94.70496)"><path id="path4124" d="M 1406.4482 535.12097 A 278.20850 70.231789 0 1 1 850.03125,535.12097 A 278.20850 70.231789 0 1 1 1406.4482 535.12097 z" style="fill:url(#radialGradient14961);fill-opacity:1;stroke:#212121;stroke-width:6.25;stroke-linecap:round;stroke-linejoin:round;stroke-miterlimit:4;stroke-opacity:1"/><path id="rect4130" d="M 1128.2500,280.96875 C 1017.2899,280.96875 927.12165,303.54117 925.71875,331.46875 L 924.87500,331.46875 L 895.87500,537.59375 C 952.91781,587.73773 1299.9575,594.38333 1363.3438,538.50000 L 1331.6250,329.65625 L 1330.5938,329.65625 C 1325.4770,302.57180 1236.7991,280.96874 1128.2500,280.96875 z" style="fill:url(#linearGradient14963);fill-opacity:1;stroke:#212121;stroke-width:6.25;stroke-linecap:round;stroke-linejoin:round;stroke-miterlimit:4;stroke-opacity:1"/><path id="path4128" d="M 1406.4482,535.12097 C 1411.2361,560.80017 1429.7795,689.93971 1418.0892,672.07649 C 1409.2920,658.63419 1368.0655,594.40608 1342.8876,600.76205 C 1317.7098,607.11803 1346.3843,675.06940 1313.1036,678.62488 C 1279.8229,682.18037 1212.1173,644.17884 1173.7246,644.17884 C 1135.3318,644.17884 1072.4140,734.70977 1039.1333,731.15428 C 1005.8527,727.59880 967.49692,635.66662 942.31905,629.31064 C 917.14119,622.95466 864.44426,631.37440 834.79936,674.36037 C 825.66937,687.59912 850.03125,544.81296 850.03125,535.12097 C 850.03125,496.35302 974.66866,464.88918 1128.2397,464.88918 C 1281.8108,464.88918 1406.4482,496.35302 1406.4482,535.12097 z" transform="matrix(0.757093,0.000000,0.000000,0.793574,274.0579,-96.15407)" style="fill:url(#linearGradient14965);fill-opacity:1;stroke:#9f9fd1;stroke-width:8.5825472;stroke-linecap:round;stroke-linejoin:round;stroke-miterlimit:4;stroke-opacity:1"/><path id="path6429" d="M 1406.4482 535.12097 A 278.20850 70.231789 0 1 1 850.03125,535.12097 A 278.20850 70.231789 0 1 1 1406.4482 535.12097 z" transform="matrix(0.757093,0.000000,0.000000,0.793574,274.0573,-95.70142)" style="opacity:.796875;fill:#fff;fill-opacity:.64583331;stroke:none;stroke-width:8.5825472;stroke-linecap:round;stroke-linejoin:round;stroke-miterlimit:4;stroke-opacity:1"/><path id="path7971" d="M 961.80436,216.43309 L 961.66471,326.33516 C 961.66471,330.19636 969.91205,333.33035 980.07311,333.33035 C 990.23416,333.33035 998.48643,330.19635 998.48143,326.33516 L 998.34183,216.43309 L 961.80436,216.43309 z" style="fill:url(#linearGradient14967);fill-opacity:1;stroke:#8f0000;stroke-width:3.75;stroke-linecap:round;stroke-linejoin:round;stroke-miterlimit:4;stroke-opacity:1"/><path id="path7969" d="M 888.99852 183.05579 A 45.310833 17.218117 0 1 1 798.37685,183.05579 A 45.310833 17.218117 0 1 1 888.99852 183.05579 z" transform="matrix(0.406254,0.000000,0.000000,0.406254,637.3215,141.1484)" style="fill:url(#radialGradient14969);fill-opacity:1;stroke:#8f0000;stroke-width:9.2306786;stroke-linecap:round;stroke-linejoin:round;stroke-miterlimit:4;stroke-opacity:1"/><path id="path9521" d="M 990.02114,160.74312 C 972.47800,165.18445 961.92061,184.56025 961.76327,194.94120 C 961.59675,205.93345 967.26794,213.07721 979.80616,212.70645 C 990.28287,212.39662 1009.6116,204.05634 994.21793,188.47728 C 982.49339,176.61152 982.02672,170.29194 990.02114,160.74312 z" style="fill:url(#radialGradient14971);fill-opacity:1;fill-rule:evenodd;stroke:#8f1400;stroke-width:1.2252337;stroke-linecap:butt;stroke-linejoin:round;stroke-miterlimit:4;stroke-opacity:1"/><path id="path11049" d="M 978.10981,181.76990 C 971.13476,188.98333 970.93058,192.92164 970.84818,198.36299 C 970.76081,204.12476 973.73349,207.86929 980.30552,207.67493 C 985.79719,207.51253 995.92863,203.14083 987.85984,194.97483 C 981.71414,188.75520 976.14007,188.99572 978.10981,181.76990 z" style="fill:url(#radialGradient14973);fill-opacity:1;fill-rule:evenodd;stroke:#ff0;stroke-width:1.8378506;stroke-linecap:butt;stroke-linejoin:round;stroke-miterlimit:4;stroke-opacity:.48958334"/><path id="path12575" d="M 1060.5820,241.80716 L 1060.4424,351.70923 C 1060.4424,355.57043 1068.6897,358.70442 1078.8508,358.70442 C 1089.0118,358.70442 1097.2641,355.57042 1097.2591,351.70923 L 1097.1195,241.80716 L 1060.5820,241.80716 z" style="fill:url(#linearGradient14975);fill-opacity:1;stroke:#8f0000;stroke-width:3.75;stroke-linecap:round;stroke-linejoin:round;stroke-miterlimit:4;stroke-opacity:1"/><path id="path12577" d="M 888.99852 183.05579 A 45.310833 17.218117 0 1 1 798.37685,183.05579 A 45.310833 17.218117 0 1 1 888.99852 183.05579 z" transform="matrix(0.406254,0.000000,0.000000,0.406254,736.0992,166.5224)" style="fill:url(#radialGradient14977);fill-opacity:1;stroke:#8f0000;stroke-width:9.2306786;stroke-linecap:round;stroke-linejoin:round;stroke-miterlimit:4;stroke-opacity:1"/><path id="path12579" d="M 1088.7988,186.11719 C 1071.2557,190.55852 1060.6983,209.93432 1060.5410,220.31527 C 1060.3744,231.30752 1066.0456,238.45128 1078.5838,238.08052 C 1089.0606,237.77069 1108.3893,229.43041 1092.9956,213.85135 C 1081.2711,201.98559 1080.8044,195.66601 1088.7988,186.11719 z" style="fill:url(#radialGradient14979);fill-opacity:1;fill-rule:evenodd;stroke:#8f1400;stroke-width:1.2252337;stroke-linecap:butt;stroke-linejoin:round;stroke-miterlimit:4;stroke-opacity:1"/><path id="path12581" d="M 1076.8875,207.14397 C 1069.9124,214.35740 1069.7083,218.29571 1069.6259,223.73706 C 1069.5385,229.49883 1072.5112,233.24336 1079.0832,233.04900 C 1084.5749,232.88660 1094.7063,228.51490 1086.6375,220.34890 C 1080.4918,214.12927 1074.9178,214.36979 1076.8875,207.14397 z" style="fill:url(#radialGradient14981);fill-opacity:1;fill-rule:evenodd;stroke:#ff0;stroke-width:1.8378506;stroke-linecap:butt;stroke-linejoin:round;stroke-miterlimit:4;stroke-opacity:.48958334"/><path id="path12591" d="M 1176.5776,239.99472 L 1176.4380,349.89679 C 1176.4380,353.75799 1184.6853,356.89198 1194.8464,356.89198 C 1205.0074,356.89198 1213.2597,353.75798 1213.2547,349.89679 L 1213.1151,239.99472 L 1176.5776,239.99472 z" style="fill:url(#linearGradient14983);fill-opacity:1;stroke:#8f0000;stroke-width:3.75;stroke-linecap:round;stroke-linejoin:round;stroke-miterlimit:4;stroke-opacity:1"/><path id="path12593" d="M 888.99852 183.05579 A 45.310833 17.218117 0 1 1 798.37685,183.05579 A 45.310833 17.218117 0 1 1 888.99852 183.05579 z" transform="matrix(0.406254,0.000000,0.000000,0.406254,852.0948,164.7100)" style="fill:url(#radialGradient14985);fill-opacity:1;stroke:#8f0000;stroke-width:9.2306786;stroke-linecap:round;stroke-linejoin:round;stroke-miterlimit:4;stroke-opacity:1"/><path id="path12595" d="M 1204.7944,184.30475 C 1187.2513,188.74608 1176.6939,208.12188 1176.5366,218.50283 C 1176.3700,229.49508 1182.0412,236.63884 1194.5794,236.26808 C 1205.0562,235.95825 1224.3849,227.61797 1208.9912,212.03891 C 1197.2667,200.17315 1196.8000,193.85357 1204.7944,184.30475 z" style="fill:url(#radialGradient14987);fill-opacity:1;fill-rule:evenodd;stroke:#8f1400;stroke-width:1.2252337;stroke-linecap:butt;stroke-linejoin:round;stroke-miterlimit:4;stroke-opacity:1"/><path id="path12597" d="M 1192.8831,205.33153 C 1185.9080,212.54496 1185.7039,216.48327 1185.6215,221.92462 C 1185.5341,227.68639 1188.5068,231.43092 1195.0788,231.23656 C 1200.5705,231.07416 1210.7019,226.70246 1202.6331,218.53646 C 1196.4874,212.31683 1190.9134,212.55735 1192.8831,205.33153 z" style="fill:url(#radialGradient14989);fill-opacity:1;fill-rule:evenodd;stroke:#ff0;stroke-width:1.8378506;stroke-linecap:butt;stroke-linejoin:round;stroke-miterlimit:4;stroke-opacity:.48958334"/><path id="path12607" d="M 1261.7620,210.99579 L 1261.6224,320.89786 C 1261.6224,324.75906 1269.8697,327.89305 1280.0308,327.89305 C 1290.1918,327.89305 1298.4441,324.75905 1298.4391,320.89786 L 1298.2995,210.99579 L 1261.7620,210.99579 z" style="fill:url(#linearGradient14991);fill-opacity:1;stroke:#8f0000;stroke-width:3.75;stroke-linecap:round;stroke-linejoin:round;stroke-miterlimit:4;stroke-opacity:1"/><path id="path12609" d="M 888.99852 183.05579 A 45.310833 17.218117 0 1 1 798.37685,183.05579 A 45.310833 17.218117 0 1 1 888.99852 183.05579 z" transform="matrix(0.406254,0.000000,0.000000,0.406254,937.2792,135.7111)" style="fill:url(#radialGradient14993);fill-opacity:1;stroke:#8f0000;stroke-width:9.2306786;stroke-linecap:round;stroke-linejoin:round;stroke-miterlimit:4;stroke-opacity:1"/><path id="path12611" d="M 1289.9788,155.30582 C 1272.4357,159.74715 1261.8783,179.12295 1261.7210,189.50390 C 1261.5544,200.49615 1267.2256,207.63991 1279.7638,207.26915 C 1290.2406,206.95932 1309.5693,198.61904 1294.1756,183.03998 C 1282.4511,171.17422 1281.9844,164.85464 1289.9788,155.30582 z" style="fill:url(#radialGradient14995);fill-opacity:1;fill-rule:evenodd;stroke:#8f1400;stroke-width:1.2252337;stroke-linecap:butt;stroke-linejoin:round;stroke-miterlimit:4;stroke-opacity:1"/><path id="path12613" d="M 1278.0675,176.33260 C 1271.0924,183.54603 1270.8883,187.48434 1270.8059,192.92569 C 1270.7185,198.68746 1273.6912,202.43199 1280.2632,202.23763 C 1285.7549,202.07523 1295.8863,197.70353 1287.8175,189.53753 C 1281.6718,183.31790 1276.0978,183.55842 1278.0675,176.33260 z" style="fill:url(#radialGradient14997);fill-opacity:1;fill-rule:evenodd;stroke:#ff0;stroke-width:1.8378506;stroke-linecap:butt;stroke-linejoin:round;stroke-miterlimit:4;stroke-opacity:.48958334"/><path id="path12623" d="M 1118.5798,190.15281 L 1118.4402,300.05488 C 1118.4402,303.91608 1126.6875,307.05007 1136.8486,307.05007 C 1147.0096,307.05007 1155.2619,303.91607 1155.2569,300.05488 L 1155.1173,190.15281 L 1118.5798,190.15281 z" style="fill:url(#linearGradient14999);fill-opacity:1;stroke:#8f0000;stroke-width:3.75;stroke-linecap:round;stroke-linejoin:round;stroke-miterlimit:4;stroke-opacity:1"/><path id="path12625" d="M 888.99852 183.05579 A 45.310833 17.218117 0 1 1 798.37685,183.05579 A 45.310833 17.218117 0 1 1 888.99852 183.05579 z" transform="matrix(0.406254,0.000000,0.000000,0.406254,794.0970,114.8681)" style="fill:url(#radialGradient15001);fill-opacity:1;stroke:#8f0000;stroke-width:9.2306786;stroke-linecap:round;stroke-linejoin:round;stroke-miterlimit:4;stroke-opacity:1"/><path id="path12627" d="M 1146.7966,134.46284 C 1129.2535,138.90417 1118.6961,158.27997 1118.5388,168.66092 C 1118.3722,179.65317 1124.0434,186.79693 1136.5816,186.42617 C 1147.0584,186.11634 1166.3871,177.77606 1150.9934,162.19700 C 1139.2689,150.33124 1138.8022,144.01166 1146.7966,134.46284 z" style="fill:url(#radialGradient15003);fill-opacity:1;fill-rule:evenodd;stroke:#8f1400;stroke-width:1.2252337;stroke-linecap:butt;stroke-linejoin:round;stroke-miterlimit:4;stroke-opacity:1"/><path id="path12629" d="M 1134.8853,155.48962 C 1127.9102,162.70305 1127.7061,166.64136 1127.6237,172.08271 C 1127.5363,177.84448 1130.5090,181.58901 1137.0810,181.39465 C 1142.5727,181.23225 1152.7041,176.86055 1144.6353,168.69455 C 1138.4896,162.47492 1132.9156,162.71544 1134.8853,155.48962 z" style="fill:url(#radialGradient15005);fill-opacity:1;fill-rule:evenodd;stroke:#ff0;stroke-width:1.8378506;stroke-linecap:butt;stroke-linejoin:round;stroke-miterlimit:4;stroke-opacity:.48958334"/></g></g></svg>