<svg xmlns="http://www.w3.org/2000/svg" xmlns:cc="http://web.resource.org/cc/" xmlns:svg="http://www.w3.org/2000/svg" xmlns:xlink="http://www.w3.org/1999/xlink" id="svg2" width="50" height="50"><defs id="defs3"><linearGradient id="linearGradient2838"><stop id="stop2840" offset="0" style="stop-color:red;stop-opacity:1"/><stop id="stop2842" offset="1" style="stop-color:#7b0000;stop-opacity:1"/></linearGradient><linearGradient id="linearGradient3572"><stop style="stop-color:#fff;stop-opacity:1" id="stop3574" offset="0"/><stop style="stop-color:#fff;stop-opacity:0" id="stop3576" offset="1"/></linearGradient><linearGradient id="linearGradient3578" x1="362.267" x2="362.267" y1="528.351" y2="315.582" gradientTransform="matrix(1.157577,0.000000,0.000000,1.157577,-208.0488,-280.9944)" gradientUnits="userSpaceOnUse" xlink:href="#linearGradient3572"/><radialGradient id="radialGradient3593" cx="142.693" cy="642.584" r="163.601" fx="142.693" fy="642.584" gradientTransform="matrix(2.466187,0.000000,0.000000,0.408841,-152.4062,-216.4038)" gradientUnits="userSpaceOnUse" xlink:href="#linearGradient3572"/><radialGradient id="radialGradient2846" cx="602.47" cy="37.214" r="352.363" fx="602.47" fy="37.214" gradientTransform="matrix(0.839807,0.000000,0.000000,0.839882,-389.6323,65.99675)" gradientUnits="userSpaceOnUse" xlink:href="#linearGradient2838"/></defs><metadata id="metadata4"/><g id="layer1"><path id="button-clicked" d="M 10.062153,4.5422442 L 39.962043,4.5422442 C 43.051428,4.5422442 45.538557,7.0293698 45.538557,10.118760 L 45.538557,40.018652 C 45.538557,43.108036 43.051428,45.595165 39.962043,45.595165 L 10.062153,45.595165 C 6.9727638,45.595165 4.4856382,43.108036 4.4856382,40.018652 L 4.4856382,10.118760 C 4.4856382,7.0293698 6.9727638,4.5422442 10.062153,4.5422442 z" style="fill:#002457;fill-opacity:1;stroke:#222;stroke-width:.60883564;stroke-linecap:round;stroke-linejoin:round;stroke-miterlimit:4;stroke-opacity:1"/><path id="button-hover" d="M 10.062153,4.5422442 L 39.962043,4.5422442 C 43.051428,4.5422442 45.538557,7.0293698 45.538557,10.118760 L 45.538557,40.018652 C 45.538557,43.108036 43.051428,45.595165 39.962043,45.595165 L 10.062153,45.595165 C 6.9727638,45.595165 4.4856382,43.108036 4.4856382,40.018652 L 4.4856382,10.118760 C 4.4856382,7.0293698 6.9727638,4.5422442 10.062153,4.5422442 z" style="fill:#5a769d;fill-opacity:1;stroke:#1a2584;stroke-width:.60883564;stroke-linecap:round;stroke-linejoin:round;stroke-miterlimit:4;stroke-opacity:1"/><path id="button-border" d="M 5.9482900,0.42838208 L 44.075906,0.42838208 C 47.165295,0.42838208 49.652421,2.9155074 49.652421,6.0048960 L 49.652421,44.132514 C 49.652421,47.221902 47.165295,49.709029 44.075906,49.709029 L 5.9482900,49.709029 C 2.8589014,49.709029 0.37177608,47.221902 0.37177608,44.132514 L 0.37177608,6.0048960 C 0.37177608,2.9155074 2.8589014,0.42838208 5.9482900,0.42838208 z" style="fill:#5a769d;fill-opacity:1;stroke:#1a2584;stroke-width:.73085701;stroke-linecap:round;stroke-linejoin:round;stroke-miterlimit:4;stroke-opacity:1"/><path id="button-normal" d="M 10.062153,4.5422442 L 39.962043,4.5422442 C 43.051428,4.5422442 45.538557,7.0293698 45.538557,10.118760 L 45.538557,40.018652 C 45.538557,43.108036 43.051428,45.595165 39.962043,45.595165 L 10.062153,45.595165 C 6.9727638,45.595165 4.4856382,43.108036 4.4856382,40.018652 L 4.4856382,10.118760 C 4.4856382,7.0293698 6.9727638,4.5422442 10.062153,4.5422442 z" style="fill:#d0d0d0;fill-opacity:1;stroke:#525252;stroke-width:.60883564;stroke-linecap:round;stroke-linejoin:round;stroke-miterlimit:4;stroke-opacity:1"/><g id="highlights" transform="matrix(0.121266,0.000000,0.000000,0.121266,5.577830e-3,5.531942e-2)"><path id="highlight-body" d="M 92.444729,53.229813 L 318.29808,53.229813 C 340.52003,53.229813 358.40990,71.119684 358.40990,93.341633 L 358.40990,319.19499 C 358.40990,341.41694 340.52003,359.30681 318.29808,359.30681 L 92.444729,359.30681 C 70.222780,359.30681 52.332909,341.41694 52.332909,319.19499 L 52.332909,93.341633 C 52.332909,71.119684 70.222780,53.229813 92.444729,53.229813 z" style="opacity:.67948717;fill:url(#linearGradient3578);fill-opacity:1;stroke:none;stroke-width:13.632646;stroke-linecap:round;stroke-linejoin:round;stroke-miterlimit:4;stroke-opacity:1"/><path style="opacity:.67948717;fill:url(#radialGradient3593);fill-opacity:1;stroke:none;stroke-width:13.632646;stroke-linecap:round;stroke-linejoin:round;stroke-miterlimit:4;stroke-opacity:1" id="highlight-top" d="M 82.729374,53.229814 L 328.01344,53.229814 C 344.85308,53.229814 358.40991,71.335791 358.40991,73.574330 C 358.40991,84.824778 344.85308,103.97078 328.01344,103.97078 L 82.729374,103.97078 C 65.889734,103.97078 52.332909,84.824778 52.332909,73.574330 C 52.332909,71.335791 65.889734,53.229814 82.729374,53.229814 z"/></g><path id="button-border-2" d="M 5.9503794,53.517099 L 91.073775,53.517099 C 94.163165,53.517099 96.650294,56.004222 96.650294,59.093613 L 96.650294,95.719634 C 96.650294,98.809023 94.163165,101.29615 91.073775,101.29615 L 5.9503794,101.29615 C 2.8609905,101.29615 0.37386511,98.809023 0.37386511,95.719634 L 0.37386511,59.093613 C 0.37386511,56.004222 2.8609905,53.517099 5.9503794,53.517099 z" style="fill:#5a769d;fill-opacity:1;stroke:#1a2584;stroke-width:.72785383;stroke-linecap:round;stroke-linejoin:round;stroke-miterlimit:4;stroke-opacity:1"/><path id="button-border-6" d="M 5.9585513,105.25127 L 285.10433,105.25127 C 288.19370,105.25127 290.68081,107.73839 290.68081,110.82779 L 290.68081,147.46228 C 290.68081,150.55166 288.19370,153.03880 285.10433,153.03880 L 5.9585513,153.03880 C 2.8691622,153.03880 0.38203691,150.55166 0.38203691,147.46228 L 0.38203691,110.82779 C 0.38203691,107.73839 2.8691622,105.25127 5.9585513,105.25127 z" style="fill:#5a769d;fill-opacity:1;stroke:#1a2584;stroke-width:.72988868;stroke-linecap:round;stroke-linejoin:round;stroke-miterlimit:4;stroke-opacity:1"/><path id="button-border-5" d="M 5.9547227,156.48455 L 236.60129,156.48455 C 239.69068,156.48455 242.17781,158.97168 242.17781,162.06106 L 242.17781,198.74024 C 242.17781,201.82962 239.69068,204.31675 236.60129,204.31675 L 5.9547227,204.31675 C 2.8653336,204.31675 0.37820832,201.82962 0.37820832,198.74024 L 0.37820832,162.06106 C 0.37820832,158.97168 2.8653336,156.48455 5.9547227,156.48455 z" style="fill:#5a769d;fill-opacity:1;stroke:#1a2584;stroke-width:.72644013;stroke-linecap:round;stroke-linejoin:round;stroke-miterlimit:4;stroke-opacity:1"/><path id="path10599" d="M 36.818548,33.100372 L 36.818548,44.447428 L 44.354378,38.817213 L 36.818548,33.100372 z" style="fill:#b1d2ff;fill-opacity:1;fill-rule:evenodd;stroke:#000;stroke-width:.36379874;stroke-linecap:butt;stroke-linejoin:round;stroke-miterlimit:4;stroke-opacity:1"/></g></svg>