<svg xmlns="http://www.w3.org/2000/svg" xmlns:cc="http://web.resource.org/cc/" xmlns:svg="http://www.w3.org/2000/svg" xmlns:xlink="http://www.w3.org/1999/xlink" id="svg2" width="400" height="50"><defs id="defs3"><linearGradient id="linearGradient3572"><stop style="stop-color:#fff;stop-opacity:1" id="stop3574" offset="0"/><stop style="stop-color:#fff;stop-opacity:0" id="stop3576" offset="1"/></linearGradient><linearGradient id="linearGradient1312" x1="362.267" x2="362.267" y1="528.351" y2="315.582" gradientTransform="matrix(1.157577,0.000000,0.000000,1.157577,-208.0488,-280.9944)" gradientUnits="userSpaceOnUse" xlink:href="#linearGradient3572"/><linearGradient id="linearGradient2076" x1="191.112" x2="191.112" y1="170.921" y2="1531.273" gradientTransform="scale(7.943629,0.125887)" gradientUnits="userSpaceOnUse" xlink:href="#linearGradient3572"/></defs><metadata id="metadata4"/><g id="layer1"><path id="button-blue" d="M 10.036787,4.5309455 L 390.35262,4.5309455 C 393.43422,4.5309455 395.91507,7.0117973 395.91507,10.093394 L 395.91507,39.917862 C 395.91507,42.999457 393.43422,45.480309 390.35262,45.480309 L 10.036787,45.480309 C 6.9551913,45.480309 4.4743394,42.999457 4.4743394,39.917862 L 4.4743394,10.093394 C 4.4743394,7.0117973 6.9551913,4.5309455 10.036787,4.5309455 z" style="fill:#889fc6;fill-opacity:1;stroke:#3d4652;stroke-width:.60729992;stroke-linecap:round;stroke-linejoin:round;stroke-miterlimit:4;stroke-opacity:1"/><path id="path1316" d="M 10.036787,4.5309455 L 390.38419,4.5309455 C 393.46578,4.5309455 395.94664,7.0117973 395.94664,10.093394 L 395.94664,39.917862 C 395.94664,42.999457 393.46578,45.480309 390.38419,45.480309 L 10.036787,45.480309 C 6.9551913,45.480309 4.4743394,42.999457 4.4743394,39.917862 L 4.4743394,10.093394 C 4.4743394,7.0117973 6.9551913,4.5309455 10.036787,4.5309455 z" style="fill:#d0d0d0;fill-opacity:1;stroke:#525252;stroke-width:.60729992;stroke-linecap:round;stroke-linejoin:round;stroke-miterlimit:4;stroke-opacity:1"/><path id="path2078" d="M 10.036787,4.5309455 L 390.38419,4.5309455 C 393.46578,4.5309455 395.94664,7.0117973 395.94664,10.093394 L 395.94664,39.917862 C 395.94664,42.999457 393.46578,45.480309 390.38419,45.480309 L 10.036787,45.480309 C 6.9551913,45.480309 4.4743394,42.999457 4.4743394,39.917862 L 4.4743394,10.093394 C 4.4743394,7.0117973 6.9551913,4.5309455 10.036787,4.5309455 z" style="stroke-opacity:1;stroke-miterlimit:4;stroke-linejoin:round;stroke-linecap:round;stroke-width:.60729992;stroke:#fff;fill-opacity:1;fill:#d0d0d0"/><g id="highlights" transform="matrix(0.120961,0.000000,0.000000,0.120961,5.579865e-3,5.533878e-2)"><path id="highlight-body" d="M 82.604334,53.229813 L 3227.0001,53.229813 C 3243.7705,53.229813 3257.2715,66.730868 3257.2715,83.501238 L 3257.2715,329.03538 C 3257.2715,345.80575 3243.7705,359.30681 3227.0001,359.30681 L 82.604334,359.30681 C 65.833964,359.30681 52.332909,345.80575 52.332909,329.03538 L 52.332909,83.501238 C 52.332909,66.730868 65.833964,53.229813 82.604334,53.229813 z" style="opacity:.67948717;fill:url(#linearGradient1312);fill-opacity:1;stroke:none;stroke-width:13.632646;stroke-linecap:round;stroke-linejoin:round;stroke-miterlimit:4;stroke-opacity:1"/><path style="opacity:.67948717;fill:url(#linearGradient2076);fill-opacity:1;stroke:none;stroke-width:13.632646;stroke-linecap:round;stroke-linejoin:round;stroke-miterlimit:4;stroke-opacity:1" id="highlight-top" d="M 82.729374,53.229814 L 3223.7434,53.229814 C 3240.5831,53.229814 3254.1399,71.335791 3254.1399,73.574330 C 3254.1399,84.824778 3240.5831,103.97078 3223.7434,103.97078 L 82.729374,103.97078 C 65.889734,103.97078 52.332909,84.824778 52.332909,73.574330 C 52.332909,71.335791 65.889734,53.229814 82.729374,53.229814 z"/></g></g></svg>