<svg xmlns="http://www.w3.org/2000/svg" xmlns:cc="http://web.resource.org/cc/" xmlns:xlink="http://www.w3.org/1999/xlink" id="svg2" width="755.906" height="755.906"><defs id="defs3"><linearGradient id="linearGradient7396"><stop style="stop-color:#ffaf0a;stop-opacity:1" id="stop7398" offset="0"/><stop style="stop-color:#ff6531;stop-opacity:1" id="stop7400" offset="1"/></linearGradient><linearGradient id="linearGradient4338"><stop style="stop-color:#b1b1b1;stop-opacity:1" id="stop4340" offset="0"/><stop style="stop-color:#919191;stop-opacity:1" id="stop4342" offset="1"/></linearGradient><linearGradient id="linearGradient4330"><stop style="stop-color:#000;stop-opacity:1" id="stop4332" offset="0"/><stop style="stop-color:#b9b9b9;stop-opacity:1" id="stop4334" offset="1"/></linearGradient><linearGradient id="linearGradient4336" x1="418.834" x2="303.768" y1="525.825" y2="411.141" gradientTransform="matrix(1.778063,0.000000,0.000000,1.650390,-343.6541,-557.8846)" gradientUnits="userSpaceOnUse" xlink:href="#linearGradient4330"/><linearGradient id="linearGradient4344" x1="197.933" x2="435.651" y1="510.532" y2="510.532" gradientTransform="matrix(1.780288,0.000000,0.000000,1.648328,-343.6541,-557.8846)" gradientUnits="userSpaceOnUse" xlink:href="#linearGradient4338"/><linearGradient id="linearGradient5110" x1="350.358" x2="472.427" y1="604.229" y2="486.442" gradientTransform="matrix(1.758216,0.000000,0.000000,1.669021,-343.6541,-557.8846)" gradientUnits="userSpaceOnUse" xlink:href="#linearGradient4338"/><radialGradient id="radialGradient7402" cx="487.755" cy="463.297" r="275.562" fx="487.755" fy="463.297" gradientTransform="matrix(1.589168,0.000000,0.000000,1.846562,-343.6541,-557.8846)" gradientUnits="userSpaceOnUse" xlink:href="#linearGradient7396"/><radialGradient id="radialGradient7410" cx="514.591" cy="452.855" r="242.919" fx="514.591" fy="452.855" gradientTransform="matrix(1.589168,0.000000,0.000000,1.846562,-343.6541,-557.8846)" gradientUnits="userSpaceOnUse" xlink:href="#linearGradient7396"/><linearGradient id="linearGradient2844" x1="916.885" x2="1045.475" y1="250.455" y2="250.455" gradientTransform="matrix(0.901210,0.000000,0.000000,3.256177,-343.6541,-557.8846)" gradientUnits="userSpaceOnUse" xlink:href="#linearGradient4338"/><linearGradient id="linearGradient3624" x1="1687.399" x2="1973.048" y1="126.234" y2="127.236" gradientTransform="matrix(0.457933,0.000000,0.000000,6.408145,-343.6541,-557.8846)" gradientUnits="userSpaceOnUse" xlink:href="#linearGradient4338"/><linearGradient id="linearGradient1086" x1="916.885" x2="1045.475" y1="250.455" y2="250.455" gradientTransform="matrix(0.901210,0.000000,0.000000,3.256177,-644.3774,-576.0482)" gradientUnits="userSpaceOnUse" xlink:href="#linearGradient4338"/><linearGradient id="linearGradient1088" x1="916.885" x2="1045.475" y1="250.455" y2="250.455" gradientTransform="matrix(0.901210,0.000000,0.000000,3.256177,-343.9310,-713.9946)" gradientUnits="userSpaceOnUse" xlink:href="#linearGradient4338"/></defs><metadata id="metadata4"/><g id="layer1"><path style="fill:url(#linearGradient1086);fill-opacity:1;fill-rule:evenodd;stroke:#000;stroke-width:5.1391144;stroke-linecap:round;stroke-linejoin:round;stroke-miterlimit:4;stroke-opacity:1" id="path1085" d="M 185.39129,201.62161 L 258.63880,182.72509 L 257.74594,37.156010 L 184.49843,44.804720 L 185.39129,201.62161 z"/><path style="fill:url(#linearGradient5110);fill-opacity:1;fill-rule:evenodd;stroke:#000;stroke-width:5.1391144;stroke-linecap:round;stroke-linejoin:round;stroke-miterlimit:4;stroke-opacity:1" id="path1291" d="M 418.29383,114.84055 C 527.94692,224.39757 657.81738,314.65191 688.41844,410.63344 C 719.41494,507.85523 677.61448,579.30545 625.84895,625.74409 C 566.10244,679.34243 524.39074,697.25327 432.62044,694.65244 C 314.81956,691.31388 208.87836,468.42457 87.697339,475.64319 C 99.759406,290.78408 355.99836,241.16194 418.29383,114.84055 z"/><path style="fill:url(#linearGradient4344);fill-opacity:1;fill-rule:evenodd;stroke:#000;stroke-width:5.1391144;stroke-linecap:round;stroke-linejoin:round;stroke-miterlimit:4;stroke-opacity:1" id="path2810" d="M 386.58726,90.655240 C 436.40152,92.914066 453.39294,205.92755 378.44704,273.44774 C 307.84564,337.05391 172.21854,374.48205 146.27384,422.03255 C 115.85485,477.78336 57.304804,509.15048 28.388291,426.35864 C -1.5885757,340.53088 -7.0733133,292.81479 139.39364,208.38940 C 296.07080,118.07872 293.98436,86.456155 386.58726,90.655240 z"/><path style="fill:url(#linearGradient4336);fill-opacity:1;fill-rule:evenodd;stroke:#000;stroke-width:5.1391144;stroke-linecap:round;stroke-linejoin:round;stroke-miterlimit:4;stroke-opacity:1" id="path3570" d="M 323.20956,115.96077 C 411.73280,64.583963 447.96623,183.23423 368.71267,258.95342 C 295.77512,328.63825 155.56244,368.63987 131.34819,412.72952 C 100.77570,468.39629 61.456609,474.51259 48.071219,432.62947 C 28.843513,372.46570 5.4609020,327.98798 73.633912,270.60758 C 141.80694,213.22719 297.66629,130.78549 323.20956,115.96077 z"/><path style="fill:url(#radialGradient7402);fill-opacity:1;fill-rule:evenodd;stroke:url(#radialGradient7410);stroke-width:5.1391144;stroke-linecap:round;stroke-linejoin:round;stroke-miterlimit:4;stroke-opacity:1" id="path5870" d="M 409.08286,173.71586 C 232.84369,291.55343 138.26021,271.39129 64.727313,350.21973 C 34.992601,382.09580 73.316966,450.23498 64.727313,497.30626 C 58.896713,529.25795 42.466570,547.12985 49.153448,578.63648 C 52.590557,594.83115 93.533883,602.18183 99.335909,583.82776 C 110.00027,550.09224 86.347893,528.27550 88.953339,499.03670 C 91.539187,470.01769 124.45549,399.84877 147.78794,384.82832 C 248.54684,319.96399 393.48529,282.56604 409.08286,173.71586 z"/><path style="fill:url(#linearGradient2844);fill-opacity:1;fill-rule:evenodd;stroke:#000;stroke-width:5.1391144;stroke-linecap:round;stroke-linejoin:round;stroke-miterlimit:4;stroke-opacity:1" id="path7412" d="M 485.22177,464.42809 L 595.96928,441.06728 L 595.96928,50.855349 L 485.22177,62.968345 L 485.22177,464.42809 z"/><path style="fill:url(#linearGradient3624);fill-opacity:1;fill-rule:evenodd;stroke:#000;stroke-width:5.1391144;stroke-linecap:round;stroke-linejoin:round;stroke-miterlimit:4;stroke-opacity:1" id="path7414" d="M 485.22177,463.56288 L 460.99577,456.64116 L 461.42837,79.530546 L 184.25030,47.347076 L 186.28627,175.45177 L 176.71510,182.12790 L 176.03853,31.072581 L 485.22177,62.968362 L 485.22177,463.56288 z"/><path style="fill:none;fill-opacity:1;stroke:#000;stroke-width:3;stroke-linecap:round;stroke-linejoin:round;stroke-miterlimit:4;stroke-opacity:1" id="path7418" d="M 534.37070 545.77069 A 11.869292 24.243662 0 1 1 510.63211,545.77069 A 11.869292 24.243662 0 1 1 534.37070 545.77069 z" transform="matrix(1.713038,0.000000,0.000000,1.713038,-348.8455,-552.6933)"/><path style="fill:none;fill-opacity:.75;fill-rule:evenodd;stroke:#000;stroke-width:5.1391144;stroke-linecap:round;stroke-linejoin:round;stroke-miterlimit:4;stroke-opacity:1" id="path8180" d="M 544.92160,340.70236 L 526.75209,342.43278 C 509.44778,363.19794 507.71736,396.07611 526.75209,425.49342 L 545.78681,423.76299 L 544.92160,340.70236 z"/><path style="fill:url(#linearGradient1088);fill-opacity:1;fill-rule:evenodd;stroke:#000;stroke-width:5.1391144;stroke-linecap:round;stroke-linejoin:round;stroke-miterlimit:4;stroke-opacity:1" id="path1087" d="M 485.83772,63.675174 L 594.79952,51.028654 L 250.15665,22.423869 L 177.80200,30.072579 L 485.83772,63.675174 z"/></g></svg>