<svg xmlns="http://www.w3.org/2000/svg" xmlns:cc="http://web.resource.org/cc/" xmlns:xlink="http://www.w3.org/1999/xlink" id="svg5455" width="755.906" height="755.906"><defs id="defs3"><linearGradient id="linearGradient6087"><stop style="stop-color:#bababa;stop-opacity:1" id="stop6088" offset="0"/><stop style="stop-color:#7c7c7c;stop-opacity:1" id="stop6089" offset="1"/></linearGradient><linearGradient id="linearGradient6719" x1="-28.594" x2="414.243" y1="1032.468" y2="1032.468" gradientTransform="matrix(1.597988,0.000000,0.000000,0.483547,75.74886,-80.15818)" gradientUnits="userSpaceOnUse" xlink:href="#linearGradient6087"/><linearGradient id="linearGradient7360" x1="36.541" x2="177.801" y1="416.256" y2="486.886" gradientTransform="matrix(1.071152,0.000000,0.000000,0.933574,-2.879215,-1.439633)" gradientUnits="userSpaceOnUse" xlink:href="#linearGradient6087"/><radialGradient id="radialGradient7361" cx="50.237" cy="444.2" r="197.76" fx="50.237" fy="444.2" gradientUnits="userSpaceOnUse" xlink:href="#linearGradient6087"/><linearGradient id="linearGradient7368" x1="36.541" x2="177.801" y1="416.256" y2="486.886" gradientTransform="matrix(1.071152,0.000000,0.000000,0.933574,-2.879215,-1.439633)" gradientUnits="userSpaceOnUse" xlink:href="#linearGradient6087"/><radialGradient id="radialGradient7369" cx="50.237" cy="444.2" r="197.76" fx="50.237" fy="444.2" gradientUnits="userSpaceOnUse" xlink:href="#linearGradient6087"/><linearGradient id="linearGradient7370" x1="36.541" x2="177.801" y1="416.256" y2="486.886" gradientTransform="matrix(1.071152,0.000000,0.000000,0.933574,-2.879215,-1.439633)" gradientUnits="userSpaceOnUse" xlink:href="#linearGradient6087"/><radialGradient id="radialGradient7371" cx="50.237" cy="444.2" r="197.76" fx="50.237" fy="444.2" gradientUnits="userSpaceOnUse" xlink:href="#linearGradient6087"/><linearGradient id="linearGradient7372" x1="36.541" x2="177.801" y1="416.256" y2="486.886" gradientTransform="matrix(1.071152,0.000000,0.000000,0.933574,-2.879215,-1.439633)" gradientUnits="userSpaceOnUse" xlink:href="#linearGradient6087"/><radialGradient id="radialGradient7373" cx="50.237" cy="444.2" r="197.76" fx="50.237" fy="444.2" gradientUnits="userSpaceOnUse" xlink:href="#linearGradient6087"/></defs><metadata id="metadata4"/><g id="layer1"><g id="g7357" transform="matrix(0.879034,0.000000,0.000000,0.879034,35.59795,93.95665)" style="stroke-width:5.5796266;stroke-miterlimit:4"><path style="fill:url(#linearGradient7360);fill-opacity:1;fill-rule:evenodd;stroke:#5c5c5c;stroke-linecap:round;stroke-linejoin:round;stroke-opacity:1" id="path7358" d="M 25.912204,535.55765 L 143.95668,325.38089 C 190.02283,215.01409 332.53994,257.24139 321.02342,361.37006 L 208.73719,611.85470 L 25.912204,535.55765 z"/><path style="fill:url(#radialGradient7361);fill-opacity:1;fill-rule:nonzero;stroke:#5c5c5c;stroke-linecap:round;stroke-linejoin:round;stroke-opacity:1" id="path7359" d="M 256.24291 508.20590 A 99.330116 99.330116 0 1 1 57.582680,508.20590 A 99.330116 99.330116 0 1 1 256.24291 508.20590 z" transform="translate(-34.54961,54.70354)"/></g><g id="g7362" transform="matrix(0.879034,0.000000,0.000000,0.879034,363.8636,-26.23722)" style="stroke-width:5.5796266;stroke-miterlimit:4"><path style="fill:url(#linearGradient7370);fill-opacity:1;fill-rule:evenodd;stroke:#5c5c5c;stroke-linecap:round;stroke-linejoin:round;stroke-opacity:1" id="path7363" d="M 25.912204,535.55765 L 143.95668,325.38089 C 190.02283,215.01409 332.53994,257.24139 321.02342,361.37006 L 208.73719,611.85470 L 25.912204,535.55765 z"/><path style="fill:url(#radialGradient7371);fill-opacity:1;fill-rule:nonzero;stroke:#5c5c5c;stroke-linecap:round;stroke-linejoin:round;stroke-opacity:1" id="path7364" d="M 256.24291 508.20590 A 99.330116 99.330116 0 1 1 57.582680,508.20590 A 99.330116 99.330116 0 1 1 256.24291 508.20590 z" transform="translate(-34.54961,54.70354)"/></g><path style="fill:url(#linearGradient6719);fill-opacity:1;fill-rule:evenodd;stroke:#5c5c5c;stroke-width:4.9046793;stroke-linecap:round;stroke-linejoin:round;stroke-miterlimit:4;stroke-opacity:1" id="path6094" d="M 30.193413,493.11489 C 385.30248,514.15891 256.31065,329.75098 601.34275,355.11369 L 668.41045,190.60801 C 310.64284,181.15406 410.71565,325.93130 126.36596,312.15865 L 30.193413,493.11489 z"/><g id="g7354" transform="matrix(0.879034,0.000000,0.000000,0.879034,35.25514,-80.15821)" style="stroke-width:5.5796266;stroke-miterlimit:4"><path style="fill:url(#linearGradient7372);fill-opacity:1;fill-rule:evenodd;stroke:#5c5c5c;stroke-linecap:round;stroke-linejoin:round;stroke-opacity:1" id="path6724" d="M 25.912204,535.55765 L 143.95668,325.38089 C 190.02283,215.01409 332.53994,257.24139 321.02342,361.37006 L 208.73719,611.85470 L 25.912204,535.55765 z"/><path style="fill:url(#radialGradient7373);fill-opacity:1;fill-rule:nonzero;stroke:#5c5c5c;stroke-linecap:round;stroke-linejoin:round;stroke-opacity:1" id="path5465" d="M 256.24291 508.20590 A 99.330116 99.330116 0 1 1 57.582680,508.20590 A 99.330116 99.330116 0 1 1 256.24291 508.20590 z" transform="translate(-34.54961,54.70354)"/></g><g id="g7365" transform="matrix(0.879034,0.000000,0.000000,0.879034,363.5207,-200.3522)" style="stroke-width:5.5796266;stroke-miterlimit:4"><path style="fill:url(#linearGradient7368);fill-opacity:1;fill-rule:evenodd;stroke:#5c5c5c;stroke-linecap:round;stroke-linejoin:round;stroke-opacity:1" id="path7366" d="M 25.912204,535.55765 L 143.95668,325.38089 C 190.02283,215.01409 332.53994,257.24139 321.02342,361.37006 L 208.73719,611.85470 L 25.912204,535.55765 z"/><path style="fill:url(#radialGradient7369);fill-opacity:1;fill-rule:nonzero;stroke:#5c5c5c;stroke-linecap:round;stroke-linejoin:round;stroke-opacity:1" id="path7367" d="M 256.24291 508.20590 A 99.330116 99.330116 0 1 1 57.582680,508.20590 A 99.330116 99.330116 0 1 1 256.24291 508.20590 z" transform="translate(-34.54961,54.70354)"/></g></g></svg>