<svg xmlns="http://www.w3.org/2000/svg" xmlns:cc="http://web.resource.org/cc/" xmlns:xlink="http://www.w3.org/1999/xlink" id="svg1" width="755.906" height="755.906"><defs id="defs3"><linearGradient id="linearGradient6077"><stop style="stop-color:#fff;stop-opacity:1" id="stop6078" offset="0"/><stop style="stop-color:#fff;stop-opacity:0" id="stop6079" offset="1"/></linearGradient><linearGradient id="linearGradient4829"><stop style="stop-color:#df6839;stop-opacity:1" id="stop4830" offset="0"/><stop style="stop-color:#893f23;stop-opacity:1" id="stop4831" offset="1"/></linearGradient><linearGradient id="linearGradient3577"><stop style="stop-color:#000;stop-opacity:1" id="stop3578" offset="0"/><stop style="stop-color:#000;stop-opacity:0" id="stop3579" offset="1"/></linearGradient><linearGradient id="linearGradient2322"><stop style="stop-color:#a86f0a;stop-opacity:1" id="stop2323" offset="0"/><stop style="stop-color:#704a07;stop-opacity:1" id="stop2324" offset="1"/></linearGradient><radialGradient id="radialGradient2326" cx="109.051" cy="1244.051" r="178.421" fx="109.051" fy="1244.051" gradientTransform="scale(2.220964,0.450255)" gradientUnits="userSpaceOnUse" xlink:href="#linearGradient2322"/><linearGradient id="linearGradient2954" x1="59.788" x2="152.388" y1="1674.102" y2="1790.841" gradientTransform="scale(2.864968,0.349044)" gradientUnits="userSpaceOnUse" xlink:href="#linearGradient2322"/><radialGradient id="radialGradient3581" cx="167.603" cy="1592.235" r="52.287" fx="167.603" fy="1592.235" gradientTransform="scale(2.748097,0.363888)" gradientUnits="userSpaceOnUse" xlink:href="#linearGradient3577"/><linearGradient id="linearGradient4833" x1="548.429" x2="609.985" y1="274.903" y2="424.164" gradientTransform="matrix(0.802020,0.000000,0.000000,1.246852,-2.366467,-14.19880)" gradientUnits="userSpaceOnUse" spreadMethod="reflect" xlink:href="#linearGradient4829"/><linearGradient id="linearGradient6080" x1="276.777" x2="488.018" y1="299.059" y2="318.643" gradientTransform="scale(0.637916,1.567604)" gradientUnits="userSpaceOnUse" xlink:href="#linearGradient6077"/><linearGradient id="linearGradient6082" x1="276.777" x2="488.018" y1="299.059" y2="318.643" gradientTransform="matrix(0.637916,0.000000,0.000000,1.567604,57.70763,-321.7971)" gradientUnits="userSpaceOnUse" xlink:href="#linearGradient6077"/></defs><metadata id="metadata4"/><g id="layer1"><path style="fill:url(#linearGradient2954);fill-opacity:1;fill-rule:evenodd;stroke:#493500;stroke-width:3.75;stroke-linecap:round;stroke-linejoin:round;stroke-miterlimit:4;stroke-opacity:1" id="path2329" d="M 71.953812,568.93711 L 71.953812,644.23761 C 145.85985,723.44258 646.46873,710.61361 678.54117,641.72760 L 678.54117,568.10044 L 71.953812,568.93711 z"/><path style="fill:url(#radialGradient2326);fill-opacity:1;fill-rule:nonzero;stroke:#493500;stroke-width:3.75;stroke-linecap:round;stroke-linejoin:round;stroke-miterlimit:4;stroke-opacity:1;stroke-dasharray:none" id="path1700" d="M 677.70450 568.51880 A 302.45700 59.822063 0 1 1 72.790497,568.51880 A 302.45700 59.822063 0 1 1 677.70450 568.51880 z"/><path style="opacity:.50467288;fill:url(#radialGradient3581);fill-opacity:1;fill-rule:nonzero;stroke:none;stroke-width:3.75;stroke-linecap:round;stroke-linejoin:round;stroke-miterlimit:4;stroke-opacity:1" id="path2955" d="M 602.40402 579.39551 A 141.81595 17.151781 0 1 1 318.77213,579.39551 A 141.81595 17.151781 0 1 1 602.40402 579.39551 z" transform="matrix(1.549164,0.000000,0.000000,2.847319,-283.4891,-1078.349)"/><path style="fill:url(#linearGradient4833);fill-opacity:1;fill-rule:evenodd;stroke:#89301a;stroke-width:2.5;stroke-linecap:butt;stroke-linejoin:round;stroke-opacity:1;stroke-miterlimit:4;stroke-dasharray:none" id="path3582" d="M 233.57511,67.795078 C 272.06203,79.787380 277.91874,198.87373 308.03894,197.47927 C 307.48116,253.25742 309.22322,300.91110 271.22536,343.06024 C 241.25161,376.30862 188.28770,393.43230 200.94489,461.03102 C 206.98928,493.31250 266.12152,526.22391 277.91874,567.28840 C 321.62078,592.04214 450.30857,587.61298 464.49665,572.30844 C 478.75543,531.27705 541.92738,510.94773 549.83721,471.90777 C 567.53223,384.57170 492.49881,379.08084 478.72007,335.53019 C 461.26305,280.35352 458.91883,260.22969 457.80327,199.15262 C 492.38572,194.69036 484.29789,94.010812 525.57372,65.285061 C 431.86643,30.144834 323.93571,19.268084 233.57511,67.795078 z"/><path style="fill:url(#linearGradient6080);fill-opacity:1;fill-rule:evenodd;stroke:none;stroke-width:.25pt;stroke-linecap:butt;stroke-linejoin:miter;stroke-opacity:1" id="path5455" d="M 268.00232,398.65428 C 283.79715,378.89639 232.42376,372.84424 224.81431,445.98361 C 223.32688,460.28029 264.94023,495.04933 276.08921,520.30427 C 289.20145,550.00646 289.38471,558.96768 292.25860,554.84107 C 303.79513,538.27579 254.65135,478.61563 249.60280,455.36728 C 244.55426,432.11893 253.42850,416.88481 268.00232,398.65428 z"/><path style="fill:url(#linearGradient6082);fill-opacity:1;fill-rule:evenodd;stroke:none;stroke-width:.25pt;stroke-linecap:butt;stroke-linejoin:miter;stroke-opacity:1" id="path6081" d="M 301.44643,74.347159 C 317.24126,54.589269 290.96803,59.413858 268.29848,77.332865 C 257.02202,86.246276 275.79419,88.748335 281.08646,114.00327 C 287.74556,145.78074 302.17927,182.96070 304.78590,178.66028 C 313.81241,163.76834 299.80887,155.14519 294.76032,131.89684 C 289.71178,108.64849 286.87261,92.577688 301.44643,74.347159 z"/></g></svg>